<svg width="113" height="23" viewBox="0 0 113 23" fill="none" xmlns="http://www.w3.org/2000/svg">
<path d="M31.5386 6.18359H33.0003C33.2917 6.18359 33.5673 6.31605 33.7494 6.54359L36.88 10.4569L40.0107 6.54359C40.1928 6.31605 40.4684 6.18359 40.7598 6.18359H42.2215V16.1545H40.0848V9.60227L36.88 13.5904L33.6752 9.60227V16.1545H31.5386V6.18359Z" fill="white"/>
<path d="M44.6604 6.18359H46.1222C46.4136 6.18359 46.6892 6.31605 46.8712 6.54359L50.0019 10.4569L53.1325 6.54359C53.3146 6.31605 53.5902 6.18359 53.8816 6.18359H55.3433V16.1545H53.2067V9.60227L50.0019 13.5904L46.7971 9.60227V16.1545H44.6604V6.18359Z" fill="white"/>
<path d="M66.2324 12.0237V6.18359H64.7575C64.392 6.18359 64.0958 6.47987 64.0958 6.84535V12.0237C64.0958 13.4481 63.1841 14.374 61.8882 14.374C60.5919 14.374 59.6802 13.4481 59.6802 12.0237V6.84535C59.6802 6.47987 59.384 6.18359 59.0185 6.18359H57.5436V12.0237C57.5436 14.0663 58.6743 15.6104 60.4302 16.1544C61.3813 16.4393 62.3949 16.4393 63.346 16.1544C65.1017 15.6104 66.2324 14.0663 66.2324 12.0237Z" fill="white"/>
<path d="M75.513 8.17759V6.18359H67.6788V8.17759H70.5276V16.1544H72.6644V8.17759H75.513Z" fill="white"/>
<path fill-rule="evenodd" clip-rule="evenodd" d="M75.4202 16.1544L79.0293 6.79762C79.172 6.42762 79.5277 6.18359 79.9243 6.18359H81.0295C81.426 6.18359 81.7817 6.42764 81.9244 6.79765L85.5332 16.1544H83.2543L82.3997 13.8754H78.5537L77.699 16.1544H75.4202ZM80.4482 8.67631L79.2662 11.9524H81.6876L80.5051 8.67631H80.4482Z" fill="white"/>
<path fill-rule="evenodd" clip-rule="evenodd" d="M94.7899 13.3057C94.8013 12.5507 94.4586 11.8338 93.8639 11.3685C93.5892 11.1491 93.2748 10.9846 92.9379 10.8841C93.1855 10.7778 93.4122 10.6283 93.6074 10.4426C94.0578 10.0245 94.3069 9.43302 94.2913 8.81866C94.2913 7.39429 93.0805 6.18359 91.0865 6.18359H86.8844V16.1544H91.3712C93.4935 16.1544 94.7899 14.8583 94.7899 13.3057ZM89.0211 8.03527H90.9439C91.6703 8.03527 92.0833 8.46261 92.0833 9.03232C92.0833 9.60225 91.6703 10.0296 90.9439 10.0296H89.0211V8.03527ZM89.0211 14.3027H91.2286L91.2286 14.3027C92.0833 14.3027 92.5819 13.8184 92.5819 13.092C92.5819 12.3656 92.0833 11.8813 91.2286 11.8813H89.0211V14.3027Z" fill="white"/>
<path d="M98.7397 14.1604V6.84535C98.7397 6.47987 98.4434 6.18359 98.0779 6.18359H96.603V16.1544H103.369V14.1604H98.7397Z" fill="white"/>
<path d="M105.477 6.18359H112.222V8.17768H106.952V10.1007H111.083V12.0237H106.952V14.1604H112.365V16.1545H105.477C105.112 16.1545 104.816 15.8582 104.816 15.4927V6.84535C104.816 6.47987 105.112 6.18359 105.477 6.18359Z" fill="white"/>
<path d="M27.1427 8.97858L29.2007 7.79043V6.18359H27.7258C27.5503 6.18359 27.382 6.25331 27.2579 6.37742C27.1338 6.50152 27.0641 6.66984 27.0641 6.84535V9.02401L27.1427 8.97858Z" fill="white"/>
<path d="M27.1427 10.2248L27.0641 10.2702V16.1544H29.2007V9.03662L27.1427 10.2248Z" fill="white"/>
<path d="M20.2981 6.59277V12.3052C20.2981 12.925 19.9674 13.4978 19.4306 13.8077L11.2205 18.5479V16.0738L17.8244 12.2609C18.0292 12.1427 18.1553 11.9242 18.1553 11.6877V4.354L19.4306 5.09022C19.9674 5.40014 20.2981 5.97291 20.2981 6.59277Z" fill="white"/>
<path d="M9.07766 20.0769V22.5512L0.867478 17.811C0.33068 17.5011 -2.02017e-07 16.9283 0 16.3085V10.596C4.53116e-07 9.97619 0.330669 9.40344 0.86745 9.09352L6.68199 5.73633L8.82478 6.97362L2.47387 10.6403C2.269 10.7586 2.1428 10.9771 2.1428 11.2137V15.6906C2.1428 15.9272 2.269 16.1458 2.47386 16.264L9.07766 20.0769Z" fill="white"/>
<path d="M20.2981 14.8359V16.3086C20.2981 16.9284 19.9674 17.5012 19.4306 17.8111L11.2205 22.5513V20.0769L20.2981 14.8359Z" fill="white"/>
<path d="M13.364 5.59087V8.06497L7.01329 4.39832C6.80842 4.28004 6.55602 4.28004 6.35115 4.39832L0 8.06521V6.59257C-3.34396e-07 5.97271 0.330695 5.39994 0.867512 5.09003L5.81474 2.23389C6.35154 1.92398 7.01289 1.92399 7.54968 2.23391L13.364 5.59087Z" fill="white"/>
<path d="M9.07772 16.0736V18.5478L3.46692 15.3084V11.596L5.61032 10.3584V14.0718L9.07772 16.0736Z" fill="white"/>
<path d="M15.9635 3.08858C16.5003 3.3985 16.831 3.97126 16.831 4.5911V11.3052L16.8217 11.3105L14.6882 12.5423V5.20854C14.6882 4.97211 14.5621 4.75365 14.3573 4.63544L8.00623 0.968674L9.28157 0.232412C9.81836 -0.0774793 10.4797 -0.0774701 11.0165 0.232436L15.9635 3.08858Z" fill="white"/>
</svg>
