<svg xmlns="http://www.w3.org/2000/svg" width="293.451" height="172.919" viewBox="0 0 293.451 172.919"><defs><style>.a{fill:#00838f;}.b{fill:#00acc1;}.c{fill:#ff9800;}.d{fill:#f57c00;}.e{fill:#114064;}.f{fill:#f7b794;}.g{fill:#1d5b8a;}.h{fill:#163560;}.i{fill:#266ba9;}.j{fill:#f4a269;}.k{fill:#431b73;}.l{fill:#ed985f;}.m{fill:#3aa6c3;}</style></defs><g transform="translate(13993.438 18127.301)"><g transform="translate(-13993.438 -18127.301)"><g transform="translate(0 0)"><path class="a" d="M632.448,838.472s-5.5-6.418-.34-10.493c0,0,3.772-2.282,6.847-2.1,0,0-4.358,7.3-2.948,8.032s4.269-8.488,4.269-8.488,8.583-.832,11.349.495c0,0-7.336,6-5.791,6.353s9.469-5.534,9.469-5.534,7.988,1.361,7.566,6.23-3.178,6.376-4.388,6.245-8.291-2.824-8.442-1.833,4.105,4.235,7.088,4.386c0,0-5.631,6.2-9.374,4.417s-4.069-4.638-6.4-5.7-4.325-1.059-3.362.023,5.186,2.143,6.52,4.5,2.531,3.951-1.341,3.368-10.167-3.415-10.441-6.655Z" transform="translate(-581.102 -700.355)"/><path class="b" d="M646.189,877.438s-21.7-.836-26.48,5.366a15.646,15.646,0,0,1-4.32,6.061l-.508,1.384s3.759-3.961,5.1-4.2C619.978,886.048,617.874,878.364,646.189,877.438Z" transform="translate(-568.357 -744.688)"/><path class="b" d="M590.261,950.119a13.617,13.617,0,0,0-4.981,9.593l.846.076s1.487-6.353,4.175-8.847S590.261,950.119,590.261,950.119Z" transform="translate(-543.236 -805.941)"/><path class="b" d="M339.532,732.662s8.752-4.9,4.668-11.55c0,0-3.268-4.084-6.77-5.134,0,0,1.867,9.916,0,10.149s-1.283-11.193-1.283-11.193-9.22-4.433-12.838-4.084c0,0,5.718,9.68,3.851,9.449s-8.286-10.033-8.286-10.033-9.453-1.75-10.97,3.849.934,8.4,2.332,8.747,10.388.233,10.155,1.4-6.3,3.034-9.684,1.985c0,0,3.734,9.216,8.636,8.749s6.419-3.5,9.454-3.733,5.251.584,3.734,1.4-6.658.268-9.1,2.35-4.435,3.365.116,4.3,12.721.349,14.355-3.151Z" transform="translate(-307.425 -602.615)"/><path class="a" d="M339.13,748.71s24.513,7.933,27.31,16.8a18.589,18.589,0,0,0,2.333,8.516v1.75s-2.572-5.95-3.967-6.767C364.805,769.009,370.291,761.308,339.13,748.71Z" transform="translate(-334.333 -635.462)"/><path class="a" d="M528.431,909.966a16.137,16.137,0,0,1,1.625,12.721l-.973-.26s.944-7.693-1.033-11.562S528.431,909.966,528.431,909.966Z" transform="translate(-493.995 -771.403)"/><path class="b" d="M569.1,647.527s-11.538-6.459-6.148-15.224c0,0,4.307-5.382,8.928-6.766,0,0-2.46,13.07,0,13.379s1.693-14.762,1.693-14.762,12.142-5.845,16.919-5.38c0,0-7.539,12.764-5.077,12.456s10.923-13.224,10.923-13.224S608.8,615.7,610.8,623.08s-1.232,11.072-3.078,11.533-13.691.3-13.384,1.845,8.307,4,12.768,2.614c0,0-4.922,12.149-11.384,11.533s-8.462-4.613-12.461-4.92-6.923.77-4.924,1.845,8.776.353,12,3.1,5.845,4.438-.151,5.667-16.769.461-18.915-4.152Z" transform="translate(-523.073 -524.238)"/><path class="a" d="M630.376,668.7s-32.312,10.456-36,22.144A24.565,24.565,0,0,1,591.3,702.07v2.307s3.385-7.843,5.231-8.924C596.531,695.457,589.3,685.308,630.376,668.7Z" transform="translate(-548.345 -567.554)"/><path class="a" d="M574.375,881.246a21.291,21.291,0,0,0-2.143,16.768l1.283-.343s-1.245-10.134,1.362-15.241S574.375,881.246,574.375,881.246Z" transform="translate(-531.42 -746.73)"/><path class="c" d="M482.3,1005.393A22.6,22.6,0,0,0,504.9,982.8H459.7A22.6,22.6,0,0,0,482.3,1005.393Z" transform="translate(-436.658 -834.145)"/><path class="d" d="M503.309,1005.216a22.9,22.9,0,0,1-2.808.172A22.6,22.6,0,0,1,477.9,982.8h5.614a22.6,22.6,0,0,0,19.8,22.416Z" transform="translate(-452.104 -834.145)"/><path class="c" d="M503.466,1124.127H457.64a2.788,2.788,0,0,1,2.787-2.787h40.25A2.788,2.788,0,0,1,503.466,1124.127Z" transform="translate(-434.91 -951.73)"/><rect class="d" width="46.46" height="0.693" transform="translate(22.299 148.655)"/><path class="e" d="M2086.62,1075.576s.467,7.551,1.929,7.66c.2.015,7.415.015,7.415.015l9.215-.054a2.988,2.988,0,0,0-2.754-2.688c-2.693-.469-7.2-2.363-8.833-5.92C2091.874,1070.843,2086.62,1075.576,2086.62,1075.576Z" transform="translate(-1817.399 -910.825)"/><path class="f" d="M2044.98,498.75s4.35,2.473,5.567,2.473,6-.924,7.331-.244a15.578,15.578,0,0,1,4.2,4.314c.814,1.609-3.276.9-5.21-.472a1.222,1.222,0,0,0-.965-.2c-1,.219-3.083.6-4.085.225-1.351-.5-8.465-1.059-8.465-1.059Z" transform="translate(-1780.677 -423.31)"/><path class="g" d="M1835.38,251s4.509,32.039,11.977,34.908c3.685,1.417,19.974,4.627,24.785,4.949,0,0,1.18-.957.893-4.852,0,0-17.061-6.26-19.485-9.665-3.607-5.069,2.24-20.7-2.287-25.462S1839.113,244.074,1835.38,251Z" transform="translate(-1604.176 -209.239)"/><path class="a" d="M1813.125,616.818a56.244,56.244,0,0,0,4.405,6.3c4.842,6.115,10.124,11.16,11.046,15.926a21.567,21.567,0,0,0,.852,3.052c.385,1.092.858,2.24,1.406,3.428a105.671,105.671,0,0,0,8.2,14.018c5.31,7.865,10.3,14.425,10.3,14.425l9.155-.39c-.366-.917-4.36-11.775-9.7-25.044-2.17-5.386-4.476-11.116-6.7-16.638q-.445-1.107-.886-2.2c-.68-1.691-1.35-3.356-2-4.976l-9.011-22.386s-20.049-7.584-22.131-2.659C1806.343,603.719,1807.741,607.686,1813.125,616.818Z" transform="translate(-1580.402 -507.554)"/><path class="h" d="M1914.032,946.58s-6.369,4.084-5.75,5.418c.082.177,3.6,6.477,3.6,6.477l4.54,8.017a2.987,2.987,0,0,0,1.006-3.714c-.9-2.579-1.448-7.437.865-10.6C1920.726,948.858,1914.032,946.58,1914.032,946.58Z" transform="translate(-1666.011 -803.403)"/><path class="b" d="M1831.325,663.253s-3.98-3.509-4.682-6.083c0,0,16.4-19.639,19.956-24.042.163-.2.121-.424-.094-.667-2.686-3.025-32.522-9.18-36.422-15.245a18.778,18.778,0,0,1-2.521-5.807,13.725,13.725,0,0,1-.185-6.256l29.8-.862s24.816,15.443,27.62,25.972S1831.325,663.253,1831.325,663.253Z" transform="translate(-1580.188 -512.887)"/><path class="a" d="M1849.013,640.082c-2.686-3.025-32.522-9.18-36.422-15.245a18.767,18.767,0,0,1-2.521-5.807v-3.769l12.665-1.99s3.592,11.042,14.224,15.189C1846.927,632.339,1848.814,639.224,1849.013,640.082Z" transform="translate(-1582.695 -520.509)"/><path class="f" d="M1862.023,184.733c-6.028,1.55-16.023-4.026-16.023-4.026a14.781,14.781,0,0,0,5.319-8.333c.073-.289.137-.584.2-.888l3.1-.656,4.6,4.123a39.454,39.454,0,0,1-.681,4.656c-.1.513-.213,1.059-.347,1.652A14.176,14.176,0,0,1,1862.023,184.733Z" transform="translate(-1613.189 -144.99)"/><path class="i" d="M1802.924,251.768c.862,11.609-.272,29.264.707,32.322.846,2.638,10.479,1.069,14.322.189,1.424-.327,3.147-.791,4.927-1.342,4.966-1.538,10.377-3.733,10.957-5.362a1.291,1.291,0,0,0,.055-.188,1.5,1.5,0,0,0-.011-.682,11.614,11.614,0,0,1-1.027-3.781c-.1-2.3-.083-5-.169-7.906a9.764,9.764,0,0,0-.044-1.01V263.7c-.083-3.241-.254-6.655-.454-10.031-.126-2.118-.269-4.226-.437-6.239a83.4,83.4,0,0,0-1.789-12.749,20.472,20.472,0,0,0-6.579-10.152l-1.833-1.57a10.535,10.535,0,0,1-6.649-.886c-2.366-1.122-3.177-1.929-3.6-1.625C1805.835,224.66,1801.9,237.575,1802.924,251.768Z" transform="translate(-1576.494 -187.048)"/><path class="g" d="M1856.478,382.577c4.966-1.538,10.377-3.733,10.957-5.362a1.347,1.347,0,0,0,.054-.188c0-.227,0-.454-.011-.682a11.616,11.616,0,0,1-1.027-3.781c-.1-2.3-.084-5-.169-7.906a9.832,9.832,0,0,0-.044-1.01v-.315l-20.075-25.562S1832.662,365.854,1856.478,382.577Z" transform="translate(-1610.092 -286.68)"/><path class="j" d="M1889.057,174.953a39.5,39.5,0,0,1-.681,4.656c-4.5-1.454-6.535-5.513-7.216-7.235.073-.289.138-.584.2-.888l3.1-.656Z" transform="translate(-1643.028 -144.99)"/><path class="f" d="M1888.1,117.447s-9.805-1.637-8.693-7.725.6-10.4,6.9-9.612,7.1,3.328,7.219,5.454S1890.678,117.712,1888.1,117.447Z" transform="translate(-1641.466 -84.889)"/><rect class="c" width="0.907" height="23.799" transform="translate(286.097 84.927) rotate(-162)"/><rect class="c" width="24.982" height="1.494" transform="translate(286.09 84.951) rotate(-178.78)"/><path class="f" d="M2036.38,540.381s8.02,2.117,11.034,1.894,5.512-1.653,5.892-2.4,1.174-2.072-.875-1.827-4.842.681-4.935.286,1.665-.355,1.665-.355.531-.771-.138-.8-2.619-.557-3.344-.2-1.392,1.7-1.922,1.644-6.715-2.786-6.715-2.786Z" transform="translate(-1774.761 -454.79)"/><path class="i" d="M1848.53,263.848s.949,32.342,8.055,36.017c3.506,1.815,19.336,6.8,24.089,7.649,0,0,1.277-.821,1.421-4.724,0,0-16.266-8.1-18.3-11.754-3.026-5.435,4.508-20.33.534-25.562S1853,257.376,1848.53,263.848Z" transform="translate(-1615.336 -220.772)"/><path class="e" d="M1869.6,89.169a4.634,4.634,0,0,1,1.177-3.285s-.454-2.095.38-2.44,1,1.416,1.382,1.139a8.469,8.469,0,0,0,2.8-3.521c.725-1.933,7.363.408,8.136.756s3.261-.929,3.745-1.966a14.515,14.515,0,0,1-2-1.933c-.622-.829-4.973-6.421-11.046-4.833s-6.906,4.488-6.561,6.973S1867.113,88.34,1869.6,89.169Z" transform="translate(-1631.471 -61.791)"/><path class="d" d="M658.126,260.3l5.233-.5a.961.961,0,0,1,.977.587l3.949,9.5a.96.96,0,0,1-.794,1.325l-5.447.519a.96.96,0,0,1-.985-.6l-3.737-9.529a.96.96,0,0,1,.8-1.3Z" transform="translate(-604.322 -220.496)"/><path class="i" d="M892.388,577.009l-2.777,1.472S874.6,562.572,870.99,547.305a23.626,23.626,0,0,1-.628-7.965s-.219-.691-.605-1.915c-.017-.053-.033-.107-.051-.163-.167-.535-.366-1.166-.59-1.882-.723-2.307-1.72-5.463-2.854-9.057-2.613-8.272-8.589-26.923-11.141-34.684L873.479,485s2.085,4.752,5.077,17.667c.462,1.686.925,3.55,1.362,5.581.489,2.3.946,4.816,1.326,7.533a115.335,115.335,0,0,1,1.1,15.463c.01,2.311-.045,4.707-.183,7.18a31.662,31.662,0,0,0,.675,6.977C885.144,557.966,892.388,577.009,892.388,577.009Z" transform="translate(-772.245 -411.64)"/><path class="k" d="M1083.758,1096.594H1068.93a6.17,6.17,0,0,1,.419-3.975c.862-1.425.533-2.235-.106-3.414a5.763,5.763,0,0,0,2.5.47,5.222,5.222,0,0,0,2.206-.776,53.308,53.308,0,0,0,4.228,4.439C1079.137,1094.035,1083.46,1093.787,1083.758,1096.594Z" transform="translate(-953.569 -924.197)"/><path class="g" d="M881.283,515.781l-11.527,21.478c-.166-.536-.366-1.166-.59-1.882-.723-2.307-1.721-5.463-2.854-9.057-2.613-8.272-8.589-26.923-11.141-34.684L873.522,485s2.085,4.752,5.077,17.667c.462,1.686.925,3.55,1.362,5.581C880.446,510.549,880.9,513.064,881.283,515.781Z" transform="translate(-772.287 -411.64)"/><path class="f" d="M659.188,328.526c-.092.08-4.49-4.414-6.838-6.9l2.351-1.432,12.844,8.06Z" transform="translate(-600.157 -271.759)"/><path class="e" d="M852.854,1105.334a9.592,9.592,0,0,0,.622,4.642h6.148a7.776,7.776,0,0,0-1.513-4.137C856.552,1103.537,852.854,1105.334,852.854,1105.334Z" transform="translate(-770.271 -937.578)"/><path class="e" d="M867.112,3.818c.083-.393,1.132-4.6,7.661-3.694,0,0-3.258-.174-4.054,1.133,0,0,2.475-1.361,4.147-.49s2.173,4.146,2.006,5.167-1.722,4.137-2.895,4.222a3.482,3.482,0,0,1-1.362-.234,15.294,15.294,0,0,1,.605,1.708c1.662,5.763-1.911,10.494-4.007,9.544-1.342-.614-2.158,1.717-2.158,1.717L855.32,9.451S862.144-.055,867.112,3.818Z" transform="translate(-772.415 0.003)"/><path class="f" d="M853.86,160.876a16.844,16.844,0,0,0,5.862,2.494c9.035,2.087,12.5-5.547,13.8-10.786a7.776,7.776,0,0,0-3.061-.941c-.654-.077-1.34-.129-1.909-.151-1.014-.777-2.526-3.957-2.86-8.892l-.425.113-7.121,1.944s.327,2.269.486,4.4c.124,1.674.151,3.273-.174,3.665-.555.119-.888.2-.888.2h0A45.879,45.879,0,0,0,853.86,160.876Z" transform="translate(-771.175 -121.03)"/><path class="l" d="M882.17,145.261s.327,2.261.486,4.4c4.034-.4,5.9-4.243,6.635-6.353Z" transform="translate(-795.202 -121.633)"/><path class="f" d="M851.847,78.035s9.575-.528,9.155-6.483.531-10.036-5.6-9.95-7.157,2.441-7.5,4.464S849.345,78.02,851.847,78.035Z" transform="translate(-766.084 -52.283)"/><path class="e" d="M843.782,55.842c1.35-1.9,2.5-1.584,3.16-1.091a6.707,6.707,0,0,1,8.7.756,11.367,11.367,0,0,0,4.2,6.454s-1.664,1.21-5.759.454a6.838,6.838,0,0,1-3.415-2.012,22.353,22.353,0,0,0,4.176,4.414c-4.96-1.874-7.366-8.41-7.61-9.1a7.546,7.546,0,0,0-1.885,2.933c-.369,1.55-.359,4.689-1.277,4.647C844.071,63.295,841.757,58.687,843.782,55.842Z" transform="translate(-761.917 -45.392)"/><path class="f" d="M799.381,200.662s15.6-3.781,22.383,1.806l-3.4,47.257-30.508-7.368s.859-2.99,6.709-10.942S797.868,211.8,799.381,200.662Z" transform="translate(-715.162 -169.249)"/><path class="i" d="M799.086,475.532s-.018.16-.05.466c-.014.13-.032.289-.051.475-.132,1.225-.38,3.574-.7,6.631-.837,8.017-2.15,20.887-3.046,31.047-.7,7.944-1.145,14.232-.908,15.24.723,3.039,0,39.355,0,39.355-2.592,1.243-6.525,0-6.525,0s-6.9-32.727-5.936-37.276a15.645,15.645,0,0,0-.649-8.431c-5.361-24.965-4.774-38.8-3.709-45.431a28.141,28.141,0,0,1,.917-4.045,8.6,8.6,0,0,1,.368-.994A25.263,25.263,0,0,1,799.086,475.532Z" transform="translate(-705.777 -400.317)"/><path class="g" d="M812.964,485.414a30.109,30.109,0,0,1-10.7,2.313,35.92,35.92,0,0,1-8.805-.836,40.679,40.679,0,0,1-11.968-4.653,28.157,28.157,0,0,1,.917-4.045c3.6-2.564,12.506-.11,19.782,2.608l.775.295C808.535,483.231,812.964,485.414,812.964,485.414Z" transform="translate(-709.756 -404.945)"/><path class="i" d="M731.362,217.957c-.757,5.686-3.766,12.642-4.842,16.387,0,0,1.8,13,.082,16.57a1.58,1.58,0,0,1-.732.82c-6.355,2.771-31.136.08-32.182-7.908-.38-2.9,9.436-13.112,10.008-14.351.238-.513.49-2.174-.66-5.616-1.631,5.028-4.645,10.833-7.675,11.824-3.329,1.089-16.493-8.721-16.493-8.721s-.076-1.19,1.589-2.319a10.163,10.163,0,0,1,3.53-.968l8.421,3.766c1.059-1.807,3.69-14.312,6.629-19.957,2.211-4.244,8.112-4.858,8.112-4.858s2.456,3.893,8.4,3.341,7.026-4.187,7.026-4.187,5.269.7,6.893,2.009C729.736,204.016,732.348,210.509,731.362,217.957Z" transform="translate(-622.662 -171.259)"/><path class="g" d="M942.78,325.117s1.8,13,.082,16.57c-4.635-2.325-10.677-7.345-8.838-15.188,2.671-11.4,13.6-17.77,13.6-17.77C946.868,314.416,943.856,321.372,942.78,325.117Z" transform="translate(-838.922 -262.032)"/><path class="f" d="M915.692,359.29s-6.6.956-7.124,1.449-2.347,3.352-2.119,4.347.2,2.021.605,1.95,1.722-2.6,2.22-2.715.908-.454.968-.234-1.012,1.286-.959,1.588.9-.051,1.277-.638,1.327-.879,1.469-1.243.8-1.578,1.684-1.522S915.692,359.29,915.692,359.29Z" transform="translate(-815.791 -304.945)"/><path class="f" d="M961.746,357.58l-6.42.259-2.2,2.993,8.731.292Z" transform="translate(-855.424 -303.493)"/><path class="i" d="M967.639,201.78s7.652.908,9.758,4.187c2.665,4.147,12.075,17.9,11.872,22.061,0,0-5.863,2.334-21.625,1.083,0,0-.286-2.384,3.026-4.294,0,0,8.462-1.159,9.394-1.98l-6.283-6.673Z" transform="translate(-867.738 -171.259)"/><path class="c" d="M650.6,260.977l5.231-.5a.964.964,0,0,1,.979.588l3.949,9.5a.959.959,0,0,1-.8,1.324l-5.447.52a.961.961,0,0,1-.985-.605l-3.737-9.529a.959.959,0,0,1,.806-1.3Z" transform="translate(-597.936 -221.074)"/><path class="f" d="M645.148,290.644s-1.382-2.382-1.279-2.969,1.534-3.308,2.27-3.579c1.312-.484,3.155-.783,2.648.6-.334.908-1.664,2.232-1.428,2.647a5.626,5.626,0,0,1,.142,1.871Z" transform="translate(-592.955 -240.781)"/><path class="d" d="M1740.812,706.686c-1.875,12.008-14.134,19.663-26.707,19.663h-24.9l1.949-70s23.756-7.623,29.729-.372c5.228,6.353,19.407,31.5,20.153,46.389A21.122,21.122,0,0,1,1740.812,706.686Z" transform="translate(-1480.116 -554.104)"/><path class="c" d="M1593.39,670.345s33.592-17.142,39.958-5.945c3.379,5.946,12.677,29.664,13.365,44.55.666,14.463-11.87,23.974-24.765,23.974h-22.9Z" transform="translate(-1398.802 -560.683)"/><path class="c" d="M1228.177,431.683c-.283,1.457-3,2.809-7.039,4.005-.711.21-1.463.416-2.25.619-13.74,3.506-38.073,5.465-40.392,4.43-3.2-1.429-22.876-71.293-22.876-71.293s18.777-.7,33.69-1.05c5.1-.115,9.749-.191,13.041-.18a8.07,8.07,0,0,1,1.13.079,5.367,5.367,0,0,1,3.318,1.7c2.4,2.579,3,7.673,5.219,13.311,2.2,5.568,4.9,12.516,7.455,19.412.658,1.777,1.309,3.55,1.938,5.294q.268.74.53,1.47C1225.723,420.051,1228.635,429.323,1228.177,431.683Z" transform="translate(-1027.275 -312.518)"/><path class="c" d="M1811.983,1006.939c-1.875,12.008-14.134,19.663-26.707,19.663H1773.06C1781.205,1021.075,1788.572,1004.065,1811.983,1006.939Z" transform="translate(-1551.286 -854.357)"/><path class="d" d="M1401,409.887c-.625-.1-1.43-.234-2.343-.389a2.119,2.119,0,0,1-.431-.587c-.368-.808-.117-3.13.3-5.792-2.559-6.9-5.257-13.844-7.455-19.412-2.221-5.631-2.818-10.726-5.219-13.311a5.369,5.369,0,0,0-3.319-1.7c-1.982.027-4.075.062-6.234.1a9.623,9.623,0,0,1-4.372,4.157c-10.188,5.361-2.63,16.408-2.63,16.408.073.05,4.043,7.936,4.043,7.936a6.216,6.216,0,0,1,1.436-2.792,64.807,64.807,0,0,0,3.09,12.978c-.72,3.642-2.572,9.066-3.556,13.214-.792,3.31-1.037,5.8.271,5.926a3.034,3.034,0,0,0,.484,0,6.737,6.737,0,0,0,.8,3.63c2.553,4.934,14.829,5.822,24.329,5.84,4.036-1.2,6.756-2.549,7.039-4.005C1407.694,429.736,1404.782,420.464,1401,409.887Z" transform="translate(-1206.334 -312.931)"/><path class="d" d="M1493.356,767.142c-4.807,6.677-12.182,10.956-20.4,10.824l-35.311.018H1420.73l19.034-62.664s48.179-4.792,54.118,1.6c2.76,2.966,4.308,16.4,5.175,29.94A31.285,31.285,0,0,1,1493.356,767.142Z" transform="translate(-1252.269 -605.659)"/><path class="c" d="M1588.247,1055.9c-4.807,6.676-12.182,10.956-20.4,10.824l-35.311.018c4.155-3.488,17.223-13.381,31.215-12.912C1574.362,1054.183,1582.784,1054.032,1588.247,1055.9Z" transform="translate(-1347.16 -894.417)"/><path class="f" d="M1582.813,435.06s2.934,4.341,4.608,13.462c1.465,7.991,2.751,10.94,4.868,12.58s13.907,6.475,13.907,6.475l-.88,2.066s-17.285-2.354-19.226-5.241-9.342-19.946-8.767-23.876S1582.813,435.06,1582.813,435.06Z" transform="translate(-1385.139 -369.254)"/><path class="f" d="M1888.314,998.145c-.151,1.685,2.191,2.1,4.909,2.231s1.9.691,5.621,1.361,5.217-.345,5.487-.849c.241-.446-1.492-1.143-3.329-1.933-.233-.1-.465-.2-.7-.3-2.077-.907-3.243-2.776-4.862-4.5-1.534-1.635-2.99-6.872-2.99-6.872l-5.063-1.08s1.422,4.712,1.916,6.723a6.231,6.231,0,0,1-.519,3.514,6.6,6.6,0,0,0-.472,1.708Z" transform="translate(-1648.316 -837.031)"/><path class="e" d="M1898.406,1057.827c2.723.134,1.9.691,5.621,1.361s5.218-.345,5.487-.849c.24-.446-1.492-1.143-3.329-1.933l-.029.032a10.613,10.613,0,0,1-5.643.068c-2.463-.67-4.842-2.142-6.544-2.617a6.59,6.59,0,0,0-.465,1.7C1893.342,1057.281,1895.691,1057.688,1898.406,1057.827Z" transform="translate(-1653.499 -894.482)"/><path class="m" d="M1523.4,647.2s33.634-2.531,39.967,1.464,16.494,50.52,16.494,50.52a4.127,4.127,0,0,1-2.026.653,17.033,17.033,0,0,1-4.17-.623s-14.594-20.82-15.622-26.065-.778-9.925-3.119-10.051-31.522,3.545-35.936-4.228a17.9,17.9,0,0,1-.766-15.467Z" transform="translate(-1333.811 -546.081)"/><path class="f" d="M1803.22,1033.846c-.151,1.685,2.191,2.094,4.909,2.23s1.9.691,5.621,1.361,5.217-.345,5.488-.847c.239-.454-1.492-1.145-3.338-1.934-.231-.1-.465-.2-.7-.3-2.076-.907-3.243-2.776-4.862-4.5-1.534-1.635-2.99-6.872-2.99-6.872l-5.062-1.08s1.421,4.712,1.914,6.725a6.233,6.233,0,0,1-.517,3.512A6.6,6.6,0,0,0,1803.22,1033.846Z" transform="translate(-1576.093 -867.331)"/><path class="e" d="M1813.307,1093.527c2.724.135,1.9.691,5.621,1.361s5.217-.345,5.488-.847c.239-.454-1.492-1.145-3.338-1.935l-.029.032a10.609,10.609,0,0,1-5.641.068c-2.465-.669-4.842-2.14-6.545-2.617a6.6,6.6,0,0,0-.466,1.7C1808.243,1092.979,1810.589,1093.391,1813.307,1093.527Z" transform="translate(-1581.271 -924.782)"/><path class="b" d="M1463.513,682.28s29.88,1.413,36.051,5.651,14.508,51.125,14.508,51.125a4.128,4.128,0,0,1-2.05.575,17.036,17.036,0,0,1-4.141-.786s-13.779-21.364-14.6-26.648-.389-9.948-2.724-10.165-31.637,2.317-35.744-5.621S1463.513,682.28,1463.513,682.28Z" transform="translate(-1280.507 -579.08)"/><path class="e" d="M1426.753,237.421a7.744,7.744,0,0,0-4.131-1.08,1.962,1.962,0,0,1,.908-.358,6.548,6.548,0,0,0-2.356.454c-9.707-4.5-12.257,10.059-12.27,13.48s-.256,7.343-5.434,10.068c-10.19,5.356-2.624,16.4-2.624,16.4.074.05,4.045,7.938,4.045,7.938-.068-2.771,13.609-16.454,20.531-20.362,1.773-2.269,2.627-6.427,2.691-6.754a18.113,18.113,0,0,1-1.772,6.153C1432.3,258.573,1430.268,239.74,1426.753,237.421Z" transform="translate(-1233.101 -199.947)"/><path class="f" d="M1508.3,402s2.639.115,5.42.38a21.046,21.046,0,0,1,4.974.832c2.635,1.1,2.358,5.761-3.169,4.9S1507.913,403.384,1508.3,402Z" transform="translate(-1326.549 -341.195)"/><path class="f" d="M1520.157,366.367c.033.018.789,4.01-2.829,3.849-2.376-.1-7.5-2.977-7.045-5.01.215-.966,2.01-3.479,2.371-9.2l.433.116,7.263,1.948s-.322,2.307-.472,4.489C1519.748,364.4,1519.748,366.143,1520.157,366.367Z" transform="translate(-1328.247 -302.161)"/><path class="j" d="M1536.229,358.728s-.323,2.307-.472,4.489c-4.116-.39-6.044-4.294-6.8-6.437Z" transform="translate(-1344.122 -302.814)"/><path class="e" d="M1511.517,267.766a21.706,21.706,0,0,1-2.256-6.5c-.232-2.107,1.345-9.758,9.032-8.129a10.567,10.567,0,0,1,4.264,1.944c1.61,1.251,3.878,3.869.708,10.426l-.858,2.228Z" transform="translate(-1327.386 -214.653)"/><path class="f" d="M1532.6,290.032s-9.764-.49-9.366-6.563-.593-10.228,5.658-10.172,7.308,2.452,7.67,4.512S1535.15,290,1532.6,290.032Z" transform="translate(-1339.252 -231.958)"/><path class="e" d="M1516.147,266.4s-3.146,6.947-7.315,7.728-5.873-.436-5.873-.436a11.632,11.632,0,0,0,4.253-6.6S1514.359,262.876,1516.147,266.4Z" transform="translate(-1322.056 -224.91)"/><path class="e" d="M1585.48,271.909a8.616,8.616,0,0,1,2.27,3.3c.382,1.579.389,4.777,1.324,4.731,0,0,2.335-4.709.257-7.6C1587.129,269.278,1585.48,271.909,1585.48,271.909Z" transform="translate(-1392.089 -229.889)"/><path class="b" d="M1475.8,442.818c-.791.944-3.258,1.234-5.9,1.664a17.755,17.755,0,0,0-5.8,1.682c-3.52,2.066-15.021,9.048-18.391,8.73-1.307-.123-1.059-2.617-.271-5.925,1.245-5.226,3.854-12.482,3.854-15.638a91.6,91.6,0,0,1,1.339-10.455q.093-.565.189-1.137c1.513-9.059,3.611-19.739,3.611-19.739s2.339,5.1,6.9,5.1,3.5-3.89,3.5-3.89,4.158.489,5.145,1.546a40.02,40.02,0,0,1,3.969,6.876s.1,1.587-3.83,2.343a51.487,51.487,0,0,1,1.072,7.177c.084,2.118-1.448,8.759-1.889,12.889a7.709,7.709,0,0,0,.061,3.13,6.079,6.079,0,0,0,2.406,1.983C1473.974,440.451,1476.742,441.694,1475.8,442.818Z" transform="translate(-1272.681 -341.194)"/><path class="m" d="M1471.757,534.48c2.522,4.3-6.84,5.6-8.39,6.5-3.52,2.066-14.285,9.557-17.654,9.239-1.307-.123-1.059-2.617-.271-5.925,1.245-5.226,3.854-12.482,3.854-15.638a91.548,91.548,0,0,1,1.339-10.455l4.057-3.895s4.347,11.232,8.492,13.073a34.932,34.932,0,0,0,6.107,1.987,7.709,7.709,0,0,0,.061,3.13A6.128,6.128,0,0,0,1471.757,534.48Z" transform="translate(-1272.689 -436.517)"/><path class="f" d="M1456.424,421.134s-3.468-2.107-6.823,1.888,2.383,32.552,7.354,34.019c5.52,1.629,21.467-.262,21.467-.262l-.3-2.491s-16.976-3.254-17.683-4.16S1458.192,421.594,1456.424,421.134Z" transform="translate(-1275.921 -356.963)"/><path class="b" d="M1442,402s-7.124.643-9.193,2.986-2.674,8.69-2.674,8.69,6.274,5.061,13.832,3.1Z" transform="translate(-1260.246 -341.195)"/><rect class="d" width="9.41" height="1.112" transform="translate(204.167 101.152)"/><path class="d" d="M1705.68,597.632c.09-.368,8.649-13.8,8.649-13.8h19.043l-9.551,13.441Z" transform="translate(-1494.102 -495.522)"/><path class="c" d="M1711,597.783c.092-.368,8.678-13.953,8.678-13.953h18.214l-9.079,13.953Z" transform="translate(-1498.616 -495.522)"/><path class="d" d="M1805.7,624.726a1.52,1.52,0,0,1-1.326.985.678.678,0,0,1-.646-.985,1.521,1.521,0,0,1,1.325-.986A.679.679,0,0,1,1805.7,624.726Z" transform="translate(-1577.266 -529.395)"/><path class="f" d="M1634.51,637.72s5.527-1.069,6.151-.8,4.1,3.387,3.745,4.01-1.784,1.069-3.388.535-5.083-.8-5.706-1.6A5.249,5.249,0,0,1,1634.51,637.72Z" transform="translate(-1433.701 -540.544)"/><path class="d" d="M1441.653,707.315c-2.02,11.647-13.1,19.026-24.462,19.026h-22.9l1.792-69.988s21.852-7.623,27.34-.372c4.809,6.353,17.855,31.5,18.535,46.389A22.657,22.657,0,0,1,1441.653,707.315Z" transform="translate(-1229.83 -554.104)"/><path class="c" d="M1467.309,1011.041c-2.02,11.647-13.1,19.026-24.462,19.026H1424.52C1433.1,1024.255,1444.65,1008.2,1467.309,1011.041Z" transform="translate(-1255.485 -857.83)"/><path class="c" d="M1085.587,483.377c-.172.012-.343.024-.514.033-.361.02-.726.032-1.089.038h-23.267v-.012l-1.322.017c-2.358.029-4.821.057-7.112.076l-1.132.011h-.412c-2.256.015-4.253.021-5.677.012a37.65,37.65,0,0,1-5.664-.437,25.254,25.254,0,0,1-6.312-1.8,20.63,20.63,0,0,1-2.008-1.019,19.525,19.525,0,0,1-2.483-1.692,22.49,22.49,0,0,1-5.284-6.2,33.819,33.819,0,0,1-2.745-5.981,57.77,57.77,0,0,1-2.409-9.6,124.4,124.4,0,0,1-1.534-18.069q-.094-4.187-.015-8.832.123-7.428.664-16.086c.5-8.115,1.271-17.066,2.288-26.924.928-9,2-15.292,3.553-16.726,2.294-2.118,7.078-2.965,10.407-3.3h0c2.067-.212,3.568-.228,3.568-.228,4.067,0,7.682,2.919,8.988,7.26,2.657,8.832,7.4,24.621,12.341,41.142.026.083.05.165.074.248q.426,1.423.853,2.853.064.218.132.436l.864-.386.03-.014c1.185-.525,2.524-1.1,3.971-1.685h0c.757-.3,1.527-.605,2.327-.918,2.261-.865,4.7-1.721,7.172-2.459,1.1-.328,2.2-.634,3.3-.908,1.41-.349,2.81-.644,4.173-.864l.12-.02.481-.073c5.88-.864,10.984-.265,13.095,3.458,3.379,5.964,12.676,29.752,13.363,44.681C1109.019,473.174,1097.756,482.465,1085.587,483.377Z" transform="translate(-909.267 -311.191)"/><path class="d" d="M1143.949,421.439s-11.754-47.87-12.6-51.893a3.035,3.035,0,0,0-2.716-2.608c2.066-.212,3.569-.228,3.569-.228,4.068,0,7.681,2.91,8.987,7.235,2.846,9.434,8.09,26.828,13.4,44.546C1154.317,418.484,1143.949,421.439,1143.949,421.439Z" transform="translate(-1004.368 -311.242)"/><path class="d" d="M1332.326,694.779c-3.146-5.2-.5-6.173-.986-17.816s-5.9-10.68-8.156-12.931a6.137,6.137,0,0,1-1.091-2.391l-.481.073-.119.02c-1.362.219-2.763.514-4.173.864-1.1.271-2.2.576-3.3.907-2.473.738-4.912,1.594-7.173,2.46-.8.3-1.578.614-2.327.918-1.948,12.214-4.959,66.949-4.959,66.949.026.027.048.051.074.076,2.459-.021,5.116-.05,7.644-.08l1.073-.015v.012h17.283c.023-.012.047-.027.07-.042l.048-.029c4.641-2.874,3.6-8.65,2.512-12.27-.441-3.871-2.15-8.4-3.548-12.619.433-1.283,1.042-2.016,3.657-2.981,2.905-1.069,3.668-5.64,3.668-5.64.776,2.043-1,4.864-1.046,4.94C1331.1,705.058,1335.437,699.915,1332.326,694.779Z" transform="translate(-1149.434 -561.562)"/><g transform="translate(97.05 81.369)"><path class="f" d="M1018.267,724.74s-17.436,7.593-20.6,7.451S975,726.257,975,726.257l.5,3.353s15.051,8.653,20.313,9.143c5.18.484,22.893-4.646,24.6-5.731S1023.237,725.838,1018.267,724.74Z" transform="translate(-971.035 -696.487)"/><path class="e" d="M1225.64,538.273s6.433-1.221,9.636,1.118c5.8,4.235,6.115,18.839,8.289,21.016s7.415,1.246,7.885,12.5-2.089,12.2.954,17.222-1.287,10.054-1.287,10.054,1.773-2.774,1.014-4.775c0,0-.739,4.418-3.547,5.454s-3.223,1.794-3.672,3.314c0,0-23.958-12.271-23.983-20.976s-4.708-17.325-2.412-21.1a8.341,8.341,0,0,0-1.151,3.408,4.485,4.485,0,0,1,1.012-5.108c2.394-2.463-2.808-7.563-2.038-13.462C1216.869,542.889,1219.713,538.45,1225.64,538.273Z" transform="translate(-1175.789 -537.955)"/><path class="f" d="M1246.94,677.016a16.813,16.813,0,0,0,5.862,2.493c9.035,2.087,12.5-5.547,13.8-10.786a7.736,7.736,0,0,0-3.061-.939c-.652-.077-1.339-.129-1.908-.151-1.014-.776-2.527-3.955-2.86-8.892l-.425.115-7.121,1.948s.325,2.269.486,4.4c.124,1.674.142,3.273-.174,3.665-.556.121-.89.2-.89.2h0A45.929,45.929,0,0,0,1246.94,677.016Z" transform="translate(-1201.826 -640.471)"/><path class="l" d="M1275.24,661.393s.328,2.26.487,4.4c4.034-.4,5.9-4.243,6.635-6.353Z" transform="translate(-1225.844 -641.065)"/><path class="f" d="M1244.928,594.167s9.577-.528,9.156-6.485.531-10.036-5.6-9.949-7.159,2.441-7.5,4.464S1242.426,594.15,1244.928,594.167Z" transform="translate(-1196.736 -571.715)"/><path class="e" d="M1233.488,571.974c1.35-1.9,2.5-1.585,3.16-1.092a6.7,6.7,0,0,1,8.694.756,11.416,11.416,0,0,0,4.205,6.454s-1.664,1.2-5.759.454a6.847,6.847,0,0,1-3.417-2.012,22.358,22.358,0,0,0,4.176,4.414c-4.958-1.874-7.366-8.41-7.608-9.1a7.513,7.513,0,0,0-1.886,2.927c-.368,1.552-1.955,3.975-2.875,3.933C1232.179,578.712,1231.464,574.813,1233.488,571.974Z" transform="translate(-1189.195 -564.823)"/><path class="b" d="M1236.542,740.716c.864-4.418,3.685-22.073.864-27.754-1.013-2.042-4.986-2.225-9.345-2.046-1.362.876-6.525,4.184-8.649,3.771l-.118-.027c-1-.251-1.377-.953-.543-1.558a19,19,0,0,0-4.842.3,35.792,35.792,0,0,0-5.6,2.4s2.058,3.715,5.092,4.992c-.516,4.612.25,6.646,5.037,17.3a20.242,20.242,0,0,1-.546,17.112s23.811,19.137,23.943,9.393C1241.935,757.262,1235.436,746.364,1236.542,740.716Z" transform="translate(-1169.041 -684.709)"/><path class="g" d="M1138.943,847.823a4.423,4.423,0,0,1-3.178-1.937l-.369-.554c-2.71-4.1-3.765-16.663-9.861-30.043-1.484-3.258-6.809-3.843-8.268-7.527,0,0-3.577-11.936,6.847-12.288s27.918,33.211,28.193,36.731C1152.569,835.616,1159.193,850.107,1138.943,847.823Z" transform="translate(-1091.271 -756.521)"/><path class="e" d="M990,1096.594h14.829a6.158,6.158,0,0,0-.419-3.975c-.862-1.425-.531-2.235.107-3.414a5.771,5.771,0,0,1-2.5.47,5.266,5.266,0,0,1-2.206-.776,53.568,53.568,0,0,1-4.226,4.439C994.627,1094.035,990.3,1093.787,990,1096.594Z" transform="translate(-983.765 -1005.566)"/><path class="m" d="M1258.726,755.33s1.931,17.562-10.592,21.242-16.079-16.159-5.967-17.587A97.462,97.462,0,0,0,1258.726,755.33Z" transform="translate(-1192.789 -722.451)"/><path class="g" d="M1057.223,796.287c-.894,6.695-4.388,27.831-10.536,38.136-1.985,3.328,4.993,5.187,5.036,5.177.937-.245,2.5-1.738,3.217-2.385,4.994-4.5,15.132-17.243,15.132-27.465,0-4.982.086-14.5-3.538-16.916C1064.309,791.344,1057.577,793.628,1057.223,796.287Z" transform="translate(-1031.573 -753.882)"/><path class="i" d="M1197.454,843.28s-.549-.765-1.513-2.217c-1.141-1.727-2.4-5.128-3.934-9.485-1.608-4.576-3.518-10.2-5.9-16.06-.735-1.815-1.513-3.63-2.35-5.463-1.484-3.258-5.57-2.807-7.023-6.49,0,0-5.671-12.766,4.753-13.119s30.233,34.151,31.371,37.492C1214.1,831.6,1220.183,846.785,1197.454,843.28Z" transform="translate(-1140.936 -752.252)"/><path class="e" d="M1062,1096.594h14.829a6.16,6.16,0,0,0-.419-3.975c-.863-1.425-.531-2.235.107-3.414a5.774,5.774,0,0,1-2.5.47,5.267,5.267,0,0,1-2.206-.776,53.288,53.288,0,0,1-4.228,4.439C1066.623,1094.035,1062.3,1093.787,1062,1096.594Z" transform="translate(-1044.87 -1005.566)"/><path class="g" d="M1253.231,916.823c-1.608-4.576-3.518-10.2-5.9-16.06.623-4.436,1.967-8.319,4.228-9.883C1251.555,890.88,1257.037,907.86,1253.231,916.823Z" transform="translate(-1202.157 -837.498)"/><path class="i" d="M1126.967,797.3c-.894,6.695-2.152,28.3-8.307,38.611-1.984,3.328,4.993,5.187,5.037,5.177.937-.245,2.5-1.738,3.215-2.385,4.994-4.5,15.132-17.243,15.132-27.465,0-4.982-5.849-14.1-9.474-16.517A3.64,3.64,0,0,0,1126.967,797.3Z" transform="translate(-1092.655 -755.369)"/><path class="d" d="M958.372,668.642l15.2-1.614a.979.979,0,0,1,1.02.626l5.437,14.28a.98.98,0,0,1-.878,1.328l-15.077.605a.983.983,0,0,1-.944-.605L957.572,670a.98.98,0,0,1,.8-1.354Z" transform="translate(-956.179 -647.5)"/><path class="c" d="M949.671,669.579l15.2-1.609a.982.982,0,0,1,1.02.626l5.437,14.279a.98.98,0,0,1-.878,1.328l-15.077.6a.979.979,0,0,1-.944-.6l-5.553-13.274a.98.98,0,0,1,.8-1.349Z" transform="translate(-948.797 -648.299)"/><path class="d" d="M1009.895,717.543a.624.624,0,0,1,.587-.923,1.459,1.459,0,0,1,1.259.923.624.624,0,0,1-.587.923A1.46,1.46,0,0,1,1009.895,717.543Z" transform="translate(-1000.599 -689.596)"/><path class="d" d="M957.413,685.014a.307.307,0,0,1,.287-.454.717.717,0,0,1,.619.454.307.307,0,0,1-.287.454A.716.716,0,0,1,957.413,685.014Z" transform="translate(-956.084 -662.385)"/><path class="f" d="M1125.633,724.74s-21.059,7.752-24.223,7.593c-2.044-.1-19.045-6.076-19.045-6.076l-1.525,2.886s16.545,10.63,21.1,10.577c8.979-.1,24.133-5.613,25.843-6.7S1130.6,725.838,1125.633,724.74Z" transform="translate(-1060.86 -696.487)"/><path class="f" d="M1029.67,721.171s-1.525-2.348-3.045-2.42-4.145,1.035-5.043,1.21-3.453,1-2.693,2.245,4.282,1.513,5.8,1.242a7.128,7.128,0,0,1,3.455.605Z" transform="translate(-1008.165 -691.401)"/><path class="f" d="M1053.223,711.462s-2.421-1.107-3.108-1.315-.552,0-.345.658,1.451,1.278,1.451,1.484S1053.223,711.462,1053.223,711.462Z" transform="translate(-1034.349 -684.036)"/><path class="f" d="M964.595,712.333s1.525-2.41,2.021-2.5c1.521-.3,1.521,1.7,1.2,2.99-.346,1.384-1.513,2.691-1.842,2.571S964.236,713.609,964.595,712.333Z" transform="translate(-962.155 -683.805)"/><path class="f" d="M964.323,729.75a4.03,4.03,0,0,0,2.081,4.113Z" transform="translate(-961.943 -700.74)"/><path class="b" d="M1305.16,725.813a11.568,11.568,0,0,0,8.353,7.316s10.682-3.288,5.362-10.564C1318.875,722.567,1313.617,718.661,1305.16,725.813Z" transform="translate(-1251.237 -693.74)"/></g></g></g></g></svg>