<?xml version="1.0" encoding="utf-8"?>
<!-- Generator: Adobe Illustrator 24.1.0, SVG Export Plug-In . SVG Version: 6.00 Build 0)  -->
<svg version="1.1" id="Layer_1" xmlns="http://www.w3.org/2000/svg" xmlns:xlink="http://www.w3.org/1999/xlink" x="0px" y="0px"
	 viewBox="0 0 200 54" style="enable-background:new 0 0 200 54;" xml:space="preserve">
<style type="text/css">
	.st0{fill:#FFFFFF;}
</style>
<path class="st0" d="M113.3,18.2c0-5.8,0.1-11.2,0.4-16.2L98.4,4.9v1.4l1.5,0.2c1.1,0.1,1.8,0.5,2.2,1.1c0.4,0.7,0.7,1.7,0.9,3.2
	c0.2,2.9,0.4,9.5,0.3,19.9c0,10.3-0.1,16.8-0.3,19.3c5.5,1.2,9.8,1.7,13,1.7c6,0,10.7-1.7,14.1-5.2c3.4-3.4,5.2-8.2,5.2-14.1
	c0-4.7-1.3-8.6-3.9-11.7c-2.6-3.1-5.9-4.6-9.8-4.6C119,16.1,116.3,16.8,113.3,18.2z M113.6,49c-0.2-3.2-0.4-12.8-0.4-28.5
	c0.9-0.3,2.1-0.5,3.6-0.5c2.4,0,4.3,1.2,5.7,3.7c1.4,2.5,2.1,5.5,2.1,9.3c0,4.7-0.8,8.5-2.4,11.7c-1.6,3.1-3.6,4.7-6.1,4.7
	C115.3,49.2,114.5,49.1,113.6,49z M41,3H1v2l2.1,0.2C4.7,5.5,5.8,6.1,6.5,7c0.7,1,1.1,2.6,1.2,4.8c0.8,10.8,0.8,20.9,0,30.2
	c-0.2,2.2-0.6,3.8-1.2,4.8c-0.7,1-1.8,1.6-3.4,1.8L1,48.9v2h25.8v-2l-2.7-0.2c-1.6-0.2-2.7-0.9-3.4-1.8c-0.7-1-1.1-2.6-1.2-4.8
	c-0.3-4-0.5-8.6-0.5-13.7l5.4,0.1c2.9,0.1,4.9,2.3,5.9,6.7h2V18.9h-2c-1,4.3-2.9,6.5-5.9,6.6L19,25.6c0-9,0.2-15.4,0.5-19.3h7.9
	c5.6,0,9.4,3.6,11.6,10.8l2.4-0.7L41,3z M36.3,33.8c0,5.2,1.5,9.5,4.4,12.9c2.9,3.4,7.2,5,12.6,5s9.8-1.7,13-5.2
	c3.2-3.4,4.7-7.7,4.7-12.9s-1.5-9.5-4.4-12.9s-7.2-5-12.6-5s-9.8,1.7-13,5.2C37.8,24.3,36.3,28.6,36.3,33.8z M58.6,22.4
	c1.2,2.9,1.7,6.7,1.7,11.3c0,10.6-2.2,15.8-6.5,15.8c-2.2,0-3.9-1.5-5.1-4.5c-1.2-3-1.7-6.8-1.7-11.3C47,23.2,49.2,18,53.5,18
	C55.7,17.9,57.4,19.4,58.6,22.4z M143.1,46.7c3.3,3.3,7.5,5,12.5,5c3.1,0,5.8-0.6,8.2-1.9c2.4-1.2,4.3-2.7,5.6-4.5l-1-1.2
	c-2.2,1.7-4.7,2.5-7.6,2.5c-4,0-7.1-1.3-9.2-4c-2.2-2.7-3.2-6.1-3-10.5H170c0-4.8-1.2-8.7-3.7-11.8c-2.5-3-6-4.5-10.5-4.5
	c-5.6,0-9.9,1.8-13,5.3s-4.6,7.8-4.6,12.9C138.2,39.2,139.8,43.4,143.1,46.7L143.1,46.7z M150.5,21.6c1.1-2.4,2.5-3.6,4.4-3.6
	c3,0,4.5,3.8,4.5,11.5l-10.6,0.2C148.9,26.7,149.4,24,150.5,21.6L150.5,21.6z M196.9,17.6c-2.7-1.2-6.1-1.9-10.2-1.9
	c-4.2,0-7.5,1.1-10,3.2s-3.8,4.7-3.8,7.8c0,2.7,0.8,4.8,2.3,6.3s3.9,2.8,7,3.9c2.8,1,4.8,2,5.8,2.9c1,1,1.6,2.1,1.6,3.6
	c0,1.4-0.5,2.7-1.6,3.7c-1,1.1-2.4,1.6-4.2,1.6c-4.4,0-7.7-3.2-10-9.6l-1.7,0.5l0.4,10c3.6,1.4,7.6,2.1,12,2.1c4.6,0,8.1-1,10.7-3.1
	c2.6-2,3.9-4.9,3.9-8.5c0-2.4-0.6-4.4-1.9-5.9c-1.3-1.5-3.4-2.8-6.4-4c-3.3-1.2-5.6-2.3-6.8-3.3s-1.8-2.2-1.8-3.7s0.4-2.7,1.3-3.7
	s2-1.4,3.4-1.4c4,0,6.9,2.9,8.7,8.6l1.7-0.5L196.9,17.6z M100.7,16.7c-1.4-0.7-2.9-1-4.6-1s-3.4,0.7-5.3,2.1s-3.3,3.3-4.4,5.9l0.1-8
	l-15.2,3v1.4l1.5,0.1c1.9,0.2,3,1.7,3.2,4.4c0.6,6.2,0.6,12.8,0,19.8c-0.2,2.7-1.3,4.1-3.2,4.4L71.3,49v1.9h21.2V49l-2.7-0.2
	c-1.9-0.2-3-1.7-3.2-4.4c-0.6-5.8-0.7-12-0.2-18.4c0.6-1,1.9-1.6,3.9-1.8c2-0.2,4.3,0.4,6.7,1.8C97,26,100.7,16.7,100.7,16.7z"/>
</svg>
