<?xml version="1.0" encoding="utf-8"?>
<!-- Generator: Adobe Illustrator 24.1.0, SVG Export Plug-In . SVG Version: 6.00 Build 0)  -->
<svg version="1.1" id="Layer_1" xmlns="http://www.w3.org/2000/svg" xmlns:xlink="http://www.w3.org/1999/xlink" x="0px" y="0px"
	 viewBox="0 0 89.5 20.6" style="enable-background:new 0 0 89.5 20.6;" xml:space="preserve">
<style type="text/css">
	.st0{fill:#FFFFFF;}
</style>
<path class="st0" d="M11.5,4.7v11.2c0,2.6,2.1,4.8,4.8,4.8s4.8-2.1,4.8-4.8V4.7c0-2.6-2.1-4.8-4.8-4.8C13.6-0.1,11.5,2.1,11.5,4.7
	 M14.9,15.9V4.7c0-0.7,0.6-1.3,1.3-1.3h0.1c0.7,0,1.3,0.5,1.3,1.2v0.1v11.2c0,0.7-0.6,1.3-1.3,1.3C15.6,17.2,14.9,16.6,14.9,15.9
	L14.9,15.9 M48.4,0.2h-9.6v3.4h3.1v16.7h3.4V3.6h3.1V0.2z M58.4,0.2v15.7c0,0.7-0.6,1.3-1.3,1.3s-1.3-0.6-1.3-1.3l0,0V0.2h-3.5v15.7
	c0,2.7,2.2,4.8,4.8,4.8s4.8-2.1,4.8-4.8V0.2H58.4z M89.5,3.6V0.2h-8.4v20.1h8.4v-3.4h-5v-5.2h3.2V8.3h-3.2V3.6H89.5z M35.6,20.3H32
	l-2.5-9.5c1.3-0.3,2.2-1.4,2.2-2.7V5c0-0.8-0.6-1.4-1.3-1.4c0,0,0,0-0.1,0H29v16.7h-3.4V0.2h4.7c2.6,0,4.7,2,4.8,4.6V8
	c0.1,1.7-0.6,3.3-1.9,4.4L35.6,20.3z M73.5,0.2v11L70,0.2h-3.5v20.1H70v-9.8l3.2,9.8H77V0.2H73.5z M0,0.5v20.1h3.6V12h3.3V8.6H3.6
	V3.9h5.2V0.5H0z"/>
</svg>
