<?xml version="1.0" encoding="utf-8"?>
<!-- Generator: Adobe Illustrator 24.1.0, SVG Export Plug-In . SVG Version: 6.00 Build 0)  -->
<svg version="1.1" id="Layer_1" xmlns="http://www.w3.org/2000/svg" xmlns:xlink="http://www.w3.org/1999/xlink" x="0px" y="0px"
	 viewBox="0 0 111.2 14.2" style="enable-background:new 0 0 111.2 14.2;" xml:space="preserve">
<style type="text/css">
	.st0{fill:#FFFFFF;}
</style>
<path class="st0" d="M13.3,0v2.8h-0.6c-0.3-0.1-0.4,0.1-0.4,0.3l-2.7,8.6l-0.7,2c0,0.1-0.2,0.2-0.3,0.2H4.4l-0.1-0.3L1,3.1
	C0.9,2.8,0.8,2.8,0.6,2.8H0V0h6v2.8H4.8l2,7.8h0.1L9,2.8H7.8V0H13.3z M22.7,3.7h4l0.1,1.4c0.3-0.3,0.5-0.6,0.7-0.7
	c1.1-0.9,2.4-1.1,3.8-0.7c1,0.4,1.5,1.2,1.5,2.3v5h0.8v2.8h-4.5V7.6c0-0.6-0.2-0.8-0.6-0.9c-0.5-0.1-0.8,0-1.1,0.4l-0.2,0.3
	l-0.1,0.3V11h0.7v2.8h-5.1V11h0.7V6.5h-0.7L22.7,3.7z M47.2,6.5h-0.7V3.6H51V11h0.8v2.8h-4.1v-1c-0.2,0.2-0.3,0.4-0.5,0.5
	c-1,0.9-2.8,1.1-4,0.6c-0.9-0.5-1.4-1.2-1.4-2.2l-0.1-4.7V6.5h-0.8V3.7h4.5v6c0,0.3,0,0.6,0.1,0.7c0.1,0.4,0.5,0.6,0.8,0.6
	s0.7-0.2,0.8-0.6c0.1-0.1,0.1-0.3,0.1-0.5L47.2,6.5z M22.1,9.4h-6.3c0,0.6,0,1.1,0.3,1.6c0.2,0.4,0.7,0.6,1,0.6s0.8-0.2,1-0.7
	c0.1-0.2,0.1-0.4,0.2-0.7h3.5c-0.1,1.1-0.6,2.1-1.5,2.7c-0.7,0.5-1.4,0.7-2.2,0.8c-1,0.2-2.2,0.1-3.2-0.2c-1.4-0.5-2.3-1.4-2.7-2.7
	c-0.5-1.5-0.5-3,0-4.5c0.6-1.8,1.9-2.8,3.7-3.1c0.8-0.1,1.7-0.1,2.5,0.2c1.9,0.6,2.9,1.8,3.3,3.7C22,8,22,8.7,22.1,9.4L22.1,9.4z
	 M15.9,7.5h2.4c0-0.6,0-1-0.6-1.3c-0.5-0.3-0.9-0.3-1.3,0C15.9,6.5,15.9,6.9,15.9,7.5L15.9,7.5z M70.8,9.4h-6.3c0,0.6,0,1.1,0.3,1.6
	s0.7,0.6,1.1,0.6c0.4,0,0.8-0.3,1-0.7l0.2-0.6h3.5c-0.2,2.1-1.7,3.5-3.7,3.7c-1,0.1-2,0.1-2.9-0.3c-1.4-0.5-2.3-1.4-2.8-2.8
	c-0.5-1.4-0.5-3,0-4.4c0.6-1.9,2-2.8,3.8-3.1c0.8-0.1,1.8-0.1,2.6,0.2c1.8,0.6,2.7,1.8,3.1,3.5C70.8,8,70.8,8.7,70.8,9.4L70.8,9.4z
	 M64.7,7.5h2.4c0-1-0.5-1.6-1.3-1.5C65.1,6.1,64.7,6.6,64.7,7.5L64.7,7.5z M34.2,3.6h1.1v-2c0-0.4,0.1-0.5,0.5-0.6l2.9-0.7v3.2h1.6
	v2.8h-1.6v3.9c0.1,0.7,0.6,0.9,1.1,0.8c0.1,0,0.2,0,0.4-0.1v1.8c0,0.8,0,0.8-0.8,0.9s-1.7,0.2-2.6,0c-1.2-0.3-1.8-1-1.8-2.2V6.5
	h-0.8C34.2,5.6,34.2,4.7,34.2,3.6L34.2,3.6z M52.6,13.8V11h0.8V6.5h-0.8V3.7h3.9c0,0.5,0.1,1,0.1,1.6c0.1-0.1,0.1-0.2,0.1-0.3
	c0.3-0.8,0.9-1.3,1.8-1.4h1.3c0.1,0,0.2,0.1,0.2,0.2v3.1c-0.5,0-1-0.1-1.5,0c-1,0.2-1.5,0.7-1.6,1.8v2.2H58v2.8L52.6,13.8L52.6,13.8
	z"/>
<path class="st0" d="M78.9,0.1c0.6,0.1,1.1,0.1,1.6,0.3c2.2,0.6,3.3,3.2,2.2,5.1c-0.3,0.5-0.7,0.7-1.1,1c-0.2,0.1-0.4,0.2-0.7,0.4
	C81,7,81.1,7,81.2,7c1.5,0.5,2.2,1.6,2.2,3c0.2,2.1-1.1,3.6-3.2,3.7c-0.7,0.1-1.3,0.1-1.9,0.1h-6.5V11h1.2V2.8h-1.2V0L78.9,0.1
	L78.9,0.1z M76.8,8.3V11c0,0.1,0.1,0.2,0.2,0.2h1.6c0.4,0,0.7-0.2,0.9-0.6c0.5-0.8,0-2-0.9-2.2C78.1,8.3,77.5,8.3,76.8,8.3L76.8,8.3
	z M76.8,5.7c0.6,0,1,0,1.6-0.1c0.7-0.1,1-0.7,1-1.3S79.1,3.1,78.5,3s-1.1-0.1-1.7-0.1V5.7z M111.1,6.6h-1.4c-0.1,0-0.2,0.1-0.2,0.2
	v3.5c0,0.7,0.5,1.1,1.3,0.9h0.2v2.2c0,0.2,0,0.3-0.2,0.3c-1,0.2-2.1,0.3-3.2,0.1c-1.2-0.3-1.8-0.9-1.8-2.2V6.5h-0.4
	c-0.6,0-0.5,0.1-0.5-0.5V3.7h1.1V1.9c0-0.7-0.1-0.6,0.6-0.7l2.8-0.7v3.2h1.7C111.1,4.8,111.1,5.7,111.1,6.6L111.1,6.6z M100.1,7.7
	V6.7c0-0.6-0.4-0.9-0.8-0.9s-0.9,0.4-0.9,0.8V7h-3.4c-0.1-1.3,0.6-2.4,1.8-3c1.8-0.7,3.7-0.7,5.4,0.1c1.1,0.6,1.7,1.4,1.7,2.6v4.2
	h0.8v2.8h-4.2c0-0.4-0.1-0.7-0.1-1.1c-0.1,0.1-0.2,0.2-0.2,0.3c-1.1,1.3-3.2,1.3-4.3,0.7c-0.8-0.5-1.2-1.3-1.3-2.2
	c-0.1-2.1,0.9-3.4,3.1-3.7l2.2-0.2C99.8,7.7,99.9,7.7,100.1,7.7L100.1,7.7z M100.1,9.5h-0.8c-0.8,0.1-1.2,0.7-1.1,1.5
	c0.1,0.7,0.7,1,1.3,0.7c0.4-0.1,0.6-0.4,0.7-0.7L100.1,9.5z M94.1,9.6h-6.3c0,0.7,0,1.2,0.4,1.7c0.3,0.4,0.7,0.5,1.1,0.5
	s0.7-0.3,0.9-0.7l0.2-0.6h3.5c-0.1,1.1-0.6,2.1-1.5,2.7c-1.1,0.8-2.3,1-3.7,0.9c-0.6,0-1-0.1-1.6-0.3c-1.4-0.4-2.2-1.3-2.7-2.6
	c-0.5-1.6-0.6-3.2,0.1-4.8c0.7-1.7,2-2.6,3.7-2.8c0.8-0.1,1.8,0,2.6,0.2c1.8,0.6,2.7,1.9,3.1,3.6L94.1,9.6L94.1,9.6z M90.4,7.7
	c0-0.6-0.1-1.1-0.6-1.4S88.9,6,88.5,6.4C88.1,6.7,88,7.1,88,7.7L90.4,7.7z"/>
</svg>
