<svg xmlns="http://www.w3.org/2000/svg" viewBox="0 0 73.24 23.11"><defs><style>.a{fill:#fff;fill-rule:evenodd;}</style></defs><path class="a" d="M48.21,5.76c.61.7,1.95.67,2.74,1.18a31.32,31.32,0,0,0-3.39.65c.23-.6.43-1.22.65-1.83"/><path class="a" d="M40.66,8.17c-.32,1.46-1,3.14-1.37,4.76,2.07,0,4.25-.4,6.38-.52A4.79,4.79,0,0,0,46.26,11a2.85,2.85,0,0,1,.33,2.61c-3.24-.05-5.56,2.6-8.73,2.6-1.42,0-2.63-.81-2-2.41,1-2.25,3.31-3.82,4.76-5.6"/><path class="a" d="M73.23,3.42c.08.31-.27.61-.46.84A28.93,28.93,0,0,1,67.5,9.93a4.42,4.42,0,0,1-.2,2.35,8.4,8.4,0,0,1,1.43,2.21,8,8,0,0,1-3.06,5.28c-1.57,1.14-3.71,1.59-6.12,2.15-4.68,1.07-12.36,2.14-15.83-.65-3.76,2.2-11.34,2.49-14.85-.13C26.37,24.29,16.52,24,18,17.75a35.58,35.58,0,0,1-7.1,4.36c-3,1.25-8.65,1.11-8.08-3.12a3.38,3.38,0,0,1,.52-1.24,29.54,29.54,0,0,1-1.95-3.91A13.47,13.47,0,0,1,0,9.35c-.19-3.78,2.75-6.18,5.67-7.3A44.31,44.31,0,0,1,9.85.23c2.2-.63,4.08.58,4.23,2.6a20.91,20.91,0,0,1,9.06-1.11c2.69-2.09,7.94-.8,11.4.2a12.23,12.23,0,0,0,2.4.78,8.15,8.15,0,0,0,1.89-.91C41.26.71,44.42-.43,47.89.16c.65.11,1.25.46,2,.52A12.3,12.3,0,0,0,51.41.55C59.5.16,66.24,2.33,73.23,3.42M50.56,3.16c-.83.1-1.41,1-2,1.3,0,0,.07,0,.06-.07A7.06,7.06,0,0,0,49,3.09c-4.33-1.52-8.55.71-11.65,2.41a27,27,0,0,0-6.26,4.56,29.88,29.88,0,0,1,1.83-2.8c.67-.91,1.42-1.73,2-2.54-1.3-.34-2.6-.7-3.91-1-1.87-.39-4.45-1.05-6-.19-.44.25-.81.85-1.23.91a7.61,7.61,0,0,1-1.37-.26,14.26,14.26,0,0,0-4.5.26c-1.34.27-4.19.75-4.56,2-.23.81.29,1.6.2,2.41a7.55,7.55,0,0,1-1.24,2.47,4.11,4.11,0,0,1-1.76,1.83A16,16,0,0,1,11,6.54c.25-1.26.77-2.56.32-3.84C10.1,2.53,9.06,3.51,7.83,4c-2.31.93-4.89,1.77-5.21,4.43A6.47,6.47,0,0,0,3.4,12a25.22,25.22,0,0,0,3.19,6c-.35.64-1.16.8-1.24,1.7a2.2,2.2,0,0,0,1.89.58c2.19,0,4-1.1,5.6-2,3.54-2,5.91-5,8.41-7.94a5.51,5.51,0,0,1,1.36-1.44c.56,2.58-.53,3.95-1.3,6.06-.3.81-1.24,3.36-.78,4.56s4.79,1.38,5.93.52c.57-.43.8-1.41,1.11-2,.39-.78.73-1.45,1-2.15,0,2.86,2.13,3.7,4.43,4.3,4.87,1.29,9.78-1,12.44-2.6-.33,2.11.49,2.33,2.15,2.67,4.29.89,8.62-.14,12.11-1,3.21-.77,5.78-1.32,6.26-4.49-.51-.45-1.8-.39-2.67-.26-2.59.37-5.09,1.68-8.54,1.43-.63,0-2-.27-2.08-.65-.15-.6.92-1,1.82-1.17,2.59-.44,6.33,0,8.41-.79,1-.37,2.2-1.46,2.08-2.67-.08-.81-1.14-1.24-2.15-1.3C60,9.1,58,10.77,55,10.19c.37-.47.44-1.25.91-1.63,2.19,0,4.31.39,6.39.26a7.72,7.72,0,0,0,5.86-3c.14-.18.51-.36.39-.65-5-.76-11.82-2.78-18-2"/></svg>