<?xml version="1.0" encoding="utf-8"?>
<!-- Generator: Adobe Illustrator 24.1.0, SVG Export Plug-In . SVG Version: 6.00 Build 0)  -->
<svg version="1.1" id="Layer_1" xmlns="http://www.w3.org/2000/svg" xmlns:xlink="http://www.w3.org/1999/xlink" x="0px" y="0px"
	 viewBox="0 0 504 248.7" style="enable-background:new 0 0 504 248.7;" xml:space="preserve">
<style type="text/css">
	.st0{fill:#FFFFFF;}
</style>
<path class="st0" d="M111,0h14.5v76.1H111V0z M0,85.5v13h22.9v63.1h14.6V98.5h22.9v-13L0,85.5z M129.4,0v13H154v63.1h14.5V13h24.7V0
	L129.4,0z M56.5,128.4h24.3c-0.4-6.9-5-11.7-11.6-11.7C61.5,116.7,57.7,121.2,56.5,128.4 M42,134.2c0-16.2,11-28.7,26.9-28.7
	c17.6,0,26.9,13.4,26.9,32.9H56.2c1.1,8.4,5.8,13.6,14,13.6c5.6,0,8.9-2.6,10.5-6.7H95c-2,9.7-10.6,17.9-24.7,17.9
	C52.2,163.2,42,150.5,42,134.2 M98.6,134.3c0,16.3,10.8,28.9,28,28.9c14.6,0,23.6-9.3,24.6-20.9h-13.9c-1,6.2-5.1,9.3-11,9.3
	c-8.8,0-13-6.9-13-17.2c0-10.5,4.5-17.2,13.2-17.2c5-0.1,9.2,3.5,10,8.4h14.2c-1.9-11.8-10.6-20-24.8-20
	C109.2,105.5,98.5,118,98.6,134.3 M168.4,85.5H154v76.1h14.5v-31c0-7.5,4.7-12.6,11.1-12.6c6.1,0,9.5,4.1,9.5,10v33.5h14.5V126
	c0-11.9-7.6-20.4-18.8-20.4c-7.4,0-11.9,2.9-15.9,8.6h-0.3L168.4,85.5z M222,107h-14.1v54.6h14.5v-31c0-7.5,4.7-12.6,11.1-12.6
	c6.1,0,9.5,4.1,9.5,10v33.5h14.4V126c0-11.9-7.6-20.4-18.8-20.4c-7.5,0-12.5,3.1-16.2,8.9H222L222,107z M302.4,134.4
	c0-10.7-5-17.9-13.8-17.9s-13.8,7.2-13.8,17.9c0,10.6,4.9,17.8,13.8,17.8S302.4,145,302.4,134.4 M260.1,134.4
	c0-16.3,11.6-28.9,28.5-28.9s28.5,12.6,28.5,28.9s-11.6,28.9-28.5,28.9S260.1,150.6,260.1,134.4 M320.1,161.6h14.5V85.5h-14.4
	L320.1,161.6z M379.9,134.4c0-10.7-5-17.9-13.8-17.9s-13.8,7.2-13.8,17.9c0,10.7,4.9,17.8,13.8,17.8S379.9,145,379.9,134.4
	 M337.6,134.4c0-16.3,11.6-28.9,28.5-28.9s28.5,12.6,28.5,28.9s-11.6,28.9-28.5,28.9S337.6,150.6,337.6,134.4 M436.1,131.9
	c0-8-4.3-14.8-13-14.8c-7.4,0-12.2,5.8-12.2,14.9s4.9,14.7,12.4,14.7C432.4,146.7,436.1,140,436.1,131.9 M397.9,163.2h14.4
	c1.2,3.4,4.3,6.1,11,6.1c8.2,0,12.1-3.9,12.1-11.4v-6h-0.3c-3.5,4.2-8.8,6.6-14.3,6.4c-12.1,0-24.1-9.6-24.1-26.1
	c0-16.3,9.8-26.7,23.6-26.7c6.8,0,11.8,2.7,15.1,7.2h0.2V107h14v50.5c0,7.7-2.5,12.9-6.5,16.6c-4.6,4.3-11.6,6.2-19.7,6.2
	C408.6,180.2,399.4,173.8,397.9,163.2 M457.2,179.5h8.5c11.1,0,15.1-4.4,19.3-16.5l19.1-56h-14.6l-7.7,24.6
	c-1.7,5-3.2,11.9-3.2,11.9h-0.2c0,0-1.8-6.9-3.5-11.9l-8.1-24.6h-15.2l14.7,38.9c3.1,8.3,4.2,11.8,4.2,14.8c0,4.5-2.3,7.4-8.1,7.4
	h-5.1L457.2,179.5z M38,205.1h18.5c8.1,0,12.2-3.7,12.2-10.4c0-6.9-4.4-10.3-12-10.3H38V205.1z M53.1,217.7H38v29.4H22.9V171h34.3
	c9.7,0,15.4,2.5,19.9,7.1c4.4,4.3,6.9,10.3,6.8,16.5c0,10.6-5.5,17.9-15.1,21.1l19,31.4h-17L53.1,217.7z M97.5,213.9h24.3
	c-0.4-6.9-5-11.7-11.6-11.7C102.5,202.2,98.8,206.7,97.5,213.9 M83,219.7c0-16.2,11-28.7,26.9-28.7c17.6,0,26.9,13.4,26.9,32.9H97.2
	c1.1,8.4,5.8,13.6,13.9,13.6c5.6,0,8.9-2.5,10.5-6.7H136c-2,9.7-10.6,17.9-24.7,17.9C93.2,248.7,83,236,83,219.7 M152.8,247h13.8
	l20.3-54.6h-14.5l-12.5,37h-0.2l-12.4-36.9h-14.7L152.8,247z M189,247h14.5v-54.6H189L189,247z M189,188.7h14.5v-13H189L189,188.7z
	 M221.1,213.8h24.3c-0.4-6.9-5-11.7-11.6-11.7C226.1,202.1,222.4,206.7,221.1,213.8 M206.7,219.7c0-16.2,11-28.7,26.9-28.7
	c17.6,0,26.9,13.4,26.9,32.9h-39.6c1.1,8.4,5.8,13.6,14,13.6c5.6,0,8.9-2.5,10.5-6.7h14.3c-2,9.7-10.6,17.9-24.7,17.9
	C216.9,248.6,206.7,236,206.7,219.7 M272.8,247h13.1l10-35.8h0.2l9.7,35.8H319l16.3-54.5h-14.1l-9.4,34.9h-0.2l-9.7-34.9h-12.4
	l-9.2,34.9h-0.2l-9-34.9h-14.4L272.8,247z M83.4,0l-18,55.8L46.5,0H22.9v76.1h14V15.9l20.5,60.3h14.8l19.6-60.3v60.3h14.4V0H83.4z"
	/>
</svg>
