<?xml version="1.0" encoding="utf-8"?>
<!-- Generator: Adobe Illustrator 24.1.0, SVG Export Plug-In . SVG Version: 6.00 Build 0)  -->
<svg version="1.1" id="Layer_1" xmlns="http://www.w3.org/2000/svg" xmlns:xlink="http://www.w3.org/1999/xlink" x="0px" y="0px"
	 viewBox="0 0 534.9 152.8" style="enable-background:new 0 0 534.9 152.8;" xml:space="preserve">
<style type="text/css">
	.st0{fill:#FFFFFF;}
</style>
<g id="from-idg">
	<path class="st0" d="M337.3,130.2h19.5v2.6h-16.5v7.1h15.8v2.6h-15.8v9.6h-3V130.2L337.3,130.2z M362.8,130.2h14.9
		c1.9,0,4.3,0.1,6.2,1.8c0.7,0.6,2,2.1,2,4.7c0,5.3-4.4,6-5.9,6.2l8.1,9.3H384l-7.4-8.8H366v8.8h-3.1v-22H362.8z M365.9,132.9v8
		h10.9c1.7,0,3.9,0,5.1-1.7c0.6-0.7,0.7-1.6,0.7-2.3c0-0.8-0.2-1.7-0.7-2.3c-1-1.6-2.6-1.6-4-1.6L365.9,132.9L365.9,132.9z
		 M418.4,141.5c0,7.5-6.2,11.3-13.2,11.3c-3.2,0-6.4-0.6-9-2.4c-2.1-1.5-4.4-4.2-4.4-8.9c0-8.1,6.7-11.8,13.2-11.8
		C412.6,129.7,418.4,134.2,418.4,141.5L418.4,141.5z M394.8,141.3c0,1.7,0.4,3.9,1.9,5.6c2.1,2.4,5.3,3.2,8.4,3.2
		c8.1,0,10.1-5.1,10.1-8.9c0-5.8-4.6-9-10.6-8.8C400,132.5,394.8,134.8,394.8,141.3z M424.8,130.2h4.3l6.8,14.3
		c1.1,2.4,1.3,2.8,2.1,4.9c0.7-2.1,1-2.6,2-4.8l6.9-14.4h4.2v22h-2.9v-12.6c0-4.2,0.1-4.9,0.3-6.7c-0.6,1.7-0.8,2.1-1.6,3.9
		l-7.5,15.5h-2.9l-6.9-14.2c-1.2-2.5-1.5-3.2-2.2-5c0.2,1.7,0.2,2.1,0.2,5.6v13.7h-2.9v-22.2H424.8z M470.6,130.2h3.2v22h-3.2V130.2
		z M481.9,130.2h10.9c2.5,0,5.5,0,8.4,2.4c1.8,1.5,3.6,4.2,3.6,8.4c0,4-1.8,6.7-3.1,8c-3.1,3-7.4,3.1-11.1,3.1h-8.8v-21.9H481.9z
		 M485.1,132.8v16.7h6.4c2.8,0,6.2-0.1,8.5-3.1c1.2-1.6,1.7-3.6,1.7-5.5c0-3-1.2-4.9-2.3-6.1c-2.1-2.1-4.5-2.1-6.5-2.1h-7.8
		L485.1,132.8z M532.4,149.2c-0.4,0.4-0.7,0.7-1.2,1.1c-1.6,1.2-4.6,2.4-8.4,2.4c-7.6,0-12.6-5.3-12.6-11.5c0-3.1,1.3-5.3,1.9-6.3
		c2.1-3,6.1-5.2,11.2-5.2s8.3,2.1,9.5,3.1s1.7,1.9,2.1,2.7l-3.1,0.9c-0.4-0.6-0.7-1.1-1.4-1.6c-1.9-1.6-4.4-2.4-6.9-2.4
		c-5.4,0-10,3-10,8.6c0,2.3,0.8,4.1,1.5,5.1c2.4,3.7,7,4,8.4,4c2.1,0,5.2-0.7,7.2-2.9c1.4-1.5,1.6-2.7,1.7-4h-9.7v-2.6h12.3v11.6
		h-2.7v-3L532.4,149.2z"/>
</g>
<path id="pcworld-logo" class="st0" d="M19,79v35H0V8h30c29.4,0,45.5,4.4,45.5,33.5C75.5,72,53.4,79,38.3,79H19z M19,24v37h16.8
	c14.1,0,20-4.9,20-19.3c0-12.1-4.2-17.7-20.5-17.7H19z M79.4,60.8c0-33.4,22-55.2,52.3-55.2c11.1,0,22.4,2.4,30.2,6.2l-2.1,18.5
	c-8.8-3.5-17-6.1-28.1-6.1c-20.6,0-31.1,15.3-31.1,36.6c0,21.2,10.5,36.6,31.1,36.6c11.1,0,19.3-2.6,28.1-6.1l2.1,18.5
	c-7.7,3.8-19.1,6.2-30.2,6.2C101.4,116,79.4,94.1,79.4,60.8z M277.5,114h-17.1l-23.7-70.8L213.2,114h-18.4L165,8h20.2l21.2,75.4
	L230.1,8h13.5l24.6,73.4L288.5,8h20.2L277.5,114L277.5,114z M298.3,76.1c0-21.2,14.1-39.3,38.4-39.3s38.4,18,38.4,39.3
	c0,21.2-14.1,39.3-38.4,39.3S298.3,97.3,298.3,76.1z M317.5,76.1c0,14.1,7,23.8,19.1,23.8s19.1-9.7,19.1-23.8s-7-23.8-19.1-23.8
	S317.5,62,317.5,76.1z M422.2,55h-7c-6.2,0-11.2,2.9-14.2,7.1V114h-18V38h17.2l0.5,8.1c3.9-4.1,11.5-9.1,20.2-9.1h5L422.2,55z
	 M456.9,115h-6.8c-13.5,0-19.1-8.6-19.1-19.5V0h18v87.8c0,12.1,1.9,11.9,9.3,11.9C458.3,99.7,456.9,115,456.9,115z M516.6,114
	l-0.3-4.3c-5.3,3.6-10.3,5.7-18.5,5.7c-24.3,0-37.2-18.1-37.2-39.3s13.1-39.3,37.4-39.3c7.7,0,13,1.8,18,5V0h18v114H516.6L516.6,114
	z M479.9,76.1c0,14.1,7,23.8,19.1,23.8s17.4-9.7,17.4-23.8s-5.3-23.8-17.4-23.8S479.9,62,479.9,76.1L479.9,76.1z"/>
</svg>
