<svg xmlns="http://www.w3.org/2000/svg" viewBox="0 0 1200 1200" width="1200" height="1200">
	<style>
		tspan { white-space:pre }
		.shp0 { fill: #da3940 } 
	</style>
	<g id="Logo/Monogram/ExpressVPN_Monogram_Logo_Red">
		<g id="ExpressVPN/Badge/Brand">
			<path id="Path" fill-rule="evenodd" class="shp0" d="M359.8 1002C247.54 1002 175.91 938.91 175.91 851.23C175.91 822.37 184.47 787.09 217.61 715.46L100 715.46L207.98 484.51L959.59 484.51C976.71 484.51 988.47 471.7 988.47 456.73C988.47 441.76 976.71 428.93 959.59 428.93L351.26 428.93L404.7 314.55C437.85 243.97 509.48 198 587.53 198L843.06 198C990.6 198 1099.67 299.57 1099.67 432.14C1099.67 589.31 955.32 715.46 788.54 715.46L294.59 715.46C279.61 746.48 296.73 771.07 333.07 771.07L726.53 771.07C791.74 771.07 841.98 817.03 841.98 875.85C841.98 943.2 776.79 1002 703 1002L359.8 1002L359.8 1002Z" />
		</g>
	</g>
</svg>