<svg xmlns="http://www.w3.org/2000/svg" viewBox="0 0 690 145" width="690" height="145">
	<style>
		tspan { white-space:pre }
		.shp0 { fill: #da3940 } 
	</style>
	<g id="Logo/Horizontal/ExpressVPN_Horizontal_Logo_Red">
		<g id="ExpressVPN/Horizontal/Brand">
			<path id="Fill-1" fill-rule="evenodd" class="shp0" d="M257.58 85.63C252.08 93.73 246.76 95.29 236.55 95.29L230.88 95.29L230.88 73.8L248.77 75.53L249.29 75.36L251.12 68.92L250.69 68.57L230.88 69.79L230.88 49.68L236.9 49.68C249.46 49.68 252 50.72 253.74 58.3L255.66 58.3L258.36 46.02L257.4 45.07L214.39 45.07L214.39 46.98L219.71 50.64L219.71 94.33L214.39 97.99L214.39 99.91L255.49 99.91L259.5 86.33L257.58 85.63ZM682.76 45.07L665.49 45.07L665.49 46.98L671.77 50.64L671.77 86.67L641.75 45.07L625.26 45.07L625.26 46.98L631.37 50.47L631.37 94.33L626.05 97.99L626.05 99.91L643.33 99.91L643.33 97.99L637.04 94.33L637.04 56.82L668.28 99.91L676.74 99.91L677.44 99.21L677.44 50.64L682.76 46.98L682.76 45.07ZM592.89 81.19C593.33 81.28 594.03 81.28 594.81 81.28C612.18 81.28 623.87 73.1 623.87 61.08C623.87 50.55 615.58 45.07 599.53 45.07L576.49 45.07L576.49 46.98L581.81 50.64L581.81 94.33L576.49 97.99L576.49 99.91L599.17 99.91L599.17 97.99L592.89 94.33L592.89 81.19ZM572.13 45.07L554.33 45.07L554.33 46.98L559.91 50.64L546.82 90.5L546.21 90.5L530.68 50.72L536.18 46.98L536.18 45.07L513.67 45.07L513.67 46.98L519.25 50.81L538.36 99.91L548.74 99.91L566.72 50.55L572.13 46.98L572.13 45.07ZM592.89 50.72C594.9 49.77 597.6 49.16 599.96 49.16C608.34 49.16 612.52 53.25 612.52 61.35C612.52 71.18 605.11 77.01 592.89 76.67L592.89 50.72ZM361.15 77.19C361.15 65.18 353.99 56.12 343.61 56.12C338.03 56.12 332.62 58.82 329.22 63.17L329.22 57.08L327.64 56.03L313.25 58.91L313.25 60.82L318.66 64.05L318.66 111.74L313.25 115.4L313.25 117.31L335.5 117.31L335.5 115.4L329.22 111.74L329.22 98.34C332.27 99.64 335.41 100.6 339.16 100.6C351.99 100.6 361.15 90.85 361.15 77.19ZM399.37 57.95C397.8 56.82 395.88 56.21 393.61 56.21C388.72 56.21 383.83 59.43 381.04 63.96L381.04 57.08L379.47 56.03L364.99 58.91L364.99 60.82L370.4 64.05L370.4 94.33L364.99 97.99L364.99 99.91L387.5 99.91L387.5 97.99L381.04 94.33L381.04 67.96C383.75 65.61 386.8 64.39 390.03 64.39C391.51 64.39 393 64.83 394.39 65.7L396.31 65.7L399.37 57.95ZM429.12 77.71C432.96 77.71 435.75 77.71 437.49 77.62L438.81 76.32C438.89 70.31 437.32 65.44 434.09 61.69C430.86 57.95 426.33 56.03 420.31 56.03C407.31 56.03 398.76 65.96 398.76 78.75C398.76 92.16 407.39 100.95 420.22 100.95C428.6 100.95 435.05 97.21 437.93 90.33L436.1 88.94C433.22 91.38 429.82 92.68 424.58 92.68C415.86 92.68 410.54 87.03 409.58 77.28C416.73 77.54 423.27 77.71 429.12 77.71ZM442.64 96.08C447.27 98.95 453.64 100.6 459.92 100.6C470.13 100.6 476.85 95.38 476.85 87.03C476.85 81.72 473.88 77.62 467.08 75.01L462.63 73.27C455.91 70.66 453.64 68.74 453.64 65.61C453.64 62.74 456.08 60.65 459.83 60.65C464.02 60.65 467.6 62.91 470.48 67.35L472.22 67.35L476.41 60.21C472.31 57.78 466.72 56.39 460.88 56.39C450.76 56.39 443.95 61.96 443.95 69.18C443.95 75.01 448.4 79.45 455.82 82.24L459.74 83.72C464.98 85.72 467.08 87.63 467.08 91.2C467.08 94.33 464.72 96.34 460.88 96.34C456.6 96.34 451.63 93.12 448.23 87.55L446.39 87.55L442.64 96.08ZM480.95 96.08C485.57 98.95 491.94 100.6 498.22 100.6C508.43 100.6 515.15 95.38 515.15 87.03C515.15 81.72 512.18 77.62 505.38 75.01L500.93 73.27C494.21 70.66 491.94 68.74 491.94 65.61C491.94 62.74 494.38 60.65 498.14 60.65C502.33 60.65 505.9 62.91 508.78 67.35L510.53 67.35L514.71 60.21C510.61 57.78 505.03 56.39 499.18 56.39C489.06 56.39 482.26 61.96 482.26 69.18C482.26 75.01 486.71 79.45 494.12 82.24L498.05 83.72C503.29 85.72 505.38 87.63 505.38 91.2C505.38 94.33 503.02 96.34 499.18 96.34C494.91 96.34 489.94 93.12 486.53 87.55L484.7 87.55L480.95 96.08ZM303.74 62.65L309.06 59.08L309.06 57.17L291.79 57.17L291.79 59.08L296.84 62.48L288.47 74.23L279.83 62.48L284.28 59.08L284.28 57.17L262.64 57.17L262.64 59.08L267.53 62.91L280.27 79.1L267.79 94.42L262.47 97.99L262.47 99.91L279.74 99.91L279.74 97.99L274.68 94.6L283.06 82.76L291.79 94.6L287.25 97.99L287.25 99.91L308.97 99.91L308.97 97.99L304.17 94.33L291.35 77.88L303.74 62.65ZM409.4 73.19C409.66 65.87 413.15 60.74 418.39 60.74C423.19 60.74 426.76 64.39 427.72 72.05L409.4 73.19ZM350.68 81.63C350.68 90.42 346.49 95.64 339.86 95.64C335.41 95.64 331.66 93.81 329.22 90.07L329.22 67.18C332.18 65 335.24 63.96 338.38 63.96C345.97 63.96 350.68 71.97 350.68 81.63ZM50.29 137L105.48 137C117.35 137 127.84 127.56 127.84 116.76C127.84 107.32 119.76 99.95 109.27 99.95L45.99 99.95C40.14 99.95 37.39 96 39.8 91.03L119.24 91.03C146.07 91.03 169.28 70.78 169.28 45.56C169.28 24.3 151.74 8 128.01 8L86.91 8C74.36 8 62.84 15.38 57.51 26.7L48.91 45.05L146.75 45.05C149.51 45.05 151.4 47.11 151.4 49.51C151.4 51.91 149.51 53.97 146.75 53.97L25.87 53.97L8.5 91.03L27.42 91.03C22.09 102.52 20.71 108.18 20.71 112.81C20.71 126.88 32.23 137 50.29 137Z" />
		</g>
	</g>
</svg>