<?xml version="1.0" encoding="UTF-8"?> <svg xmlns="http://www.w3.org/2000/svg" width="112" height="112" viewBox="0 0 112 112" fill="none"><path fill-rule="evenodd" clip-rule="evenodd" d="M10.7868 81.8895L9.8271 85.1448H0V84.6859L1.27285 83.8089V73.3358L0 72.4589V72H10.286L10.5157 72.2291L9.86847 75.1713H9.40961C8.99273 73.3562 8.38749 73.1061 5.38292 73.1061H3.94393V77.9252L8.679 77.6337L8.78399 77.7164L8.3455 79.2604L8.22013 79.303L3.94393 78.8855V84.0387H5.29892C7.74088 84.0387 9.01373 83.6632 10.328 81.7227L10.7868 81.8895ZM112 72.4589L110.727 73.3358V84.9774L110.56 85.1448H108.537L101.067 74.8168V83.8089L102.569 84.6859V85.1448H98.4377V84.6859L99.7112 83.8089V73.2932L98.2506 72.4589V72H102.194L109.372 81.9728V73.3358L107.869 72.4589V72H112V72.4589ZM90.5097 83.8089L92.0117 84.6859V85.1448H86.5874V84.6859L87.8596 83.8089V73.3358L86.5874 72.4589V72H92.0957C95.9346 72 97.9165 73.3142 97.9165 75.8383C97.9165 78.7188 95.1213 80.6796 90.9686 80.6796C90.7808 80.6796 90.6141 80.6796 90.5097 80.6586V83.8089ZM85.5443 72.4589L84.2504 73.3142L79.952 85.1448H77.4693L72.8997 73.3766L71.5651 72.4589V72H76.948V72.4589L75.6338 73.3562L79.3474 82.8906H79.4931L82.6231 73.3358L81.2872 72.4589V72H85.5443V72.4589ZM90.5097 79.5741C93.4309 79.6575 95.204 78.2593 95.204 75.9019C95.204 73.9615 94.2029 72.9814 92.2001 72.9814C91.6368 72.9814 90.9896 73.1265 90.5097 73.3562V79.5741ZM35.0939 79.6989C35.0939 82.9746 32.9034 85.3115 29.8358 85.3115C28.939 85.3115 28.1874 85.0818 27.4574 84.7687V87.9826L28.9594 88.8584V89.3172H23.6395V88.8584L24.9327 87.9826V76.5486L23.6395 75.7766V75.3177L27.082 74.6285L27.4574 74.8798V76.3398C28.2714 75.2967 29.5647 74.6501 30.9005 74.6501C33.3832 74.6501 35.0939 76.8191 35.0939 79.6989ZM43.5018 76.945H43.0436C42.7095 76.7363 42.3543 76.6319 41.9998 76.6319C41.2279 76.6319 40.4979 76.9234 39.8512 77.4873V83.8089L41.3952 84.6859V85.1448H36.0117V84.6859L37.3055 83.8089V76.5486L36.0117 75.7766V75.3177L39.4751 74.6285L39.8512 74.8798V76.5276C40.5182 75.4425 41.6873 74.6705 42.8552 74.6705C43.3981 74.6705 43.8569 74.8168 44.2324 75.088L43.5018 76.945ZM51.3471 79.8243C49.9495 79.8243 48.3845 79.7823 46.6738 79.7199C46.9035 82.0568 48.1757 83.4125 50.262 83.4125C51.5138 83.4125 52.3278 83.0999 53.0164 82.5157L53.4543 82.8498C52.7663 84.4976 51.2217 85.3949 49.2189 85.3949C46.1519 85.3949 44.0867 83.2877 44.0867 80.0744C44.0867 77.0074 46.1309 74.6285 49.2405 74.6285C50.6795 74.6285 51.7646 75.088 52.5366 75.9853C53.3085 76.8827 53.684 78.0505 53.663 79.4908L53.3499 79.8033C52.933 79.8243 52.2648 79.8243 51.3471 79.8243ZM55.4781 82.1816H55.9166C56.73 83.5168 57.9195 84.2894 58.9422 84.2894C59.8599 84.2894 60.4238 83.8089 60.4238 83.058C60.4238 82.2026 59.9229 81.7437 58.6705 81.2639L57.7317 80.9087C55.9586 80.2411 54.8939 79.1776 54.8939 77.7794C54.8939 76.0477 56.5219 74.7125 58.9422 74.7125C60.3398 74.7125 61.675 75.0466 62.6558 75.6308L61.654 77.3415H61.2372C60.5486 76.2768 59.6932 75.7346 58.6915 75.7346C57.7947 75.7346 57.2105 76.2354 57.2105 76.9234C57.2105 77.675 57.7527 78.1339 59.3591 78.7601L60.4238 79.1776C62.0505 79.8033 62.7595 80.784 62.7595 82.0568C62.7595 84.0597 61.1532 85.3115 58.7125 85.3115C57.2105 85.3115 55.6869 84.9157 54.5814 84.2264L55.4781 82.1816ZM64.6376 82.1816H65.0761C65.8901 83.5168 67.0796 84.2894 68.1011 84.2894C69.0194 84.2894 69.5827 83.8089 69.5827 83.058C69.5827 82.2026 69.0824 81.7437 67.8299 81.2639L66.8912 80.9087C65.1175 80.2411 64.054 79.1776 64.054 77.7794C64.054 76.0477 65.6807 74.7125 68.1011 74.7125C69.4993 74.7125 70.8345 75.0466 71.8146 75.6308L70.8135 77.3415H70.396C69.7074 76.2768 68.8527 75.7346 67.8509 75.7346C66.9536 75.7346 66.3693 76.2354 66.3693 76.9234C66.3693 77.675 66.9122 78.1339 68.5192 78.7601L69.5827 79.1776C71.21 79.8033 71.9196 80.784 71.9196 82.0568C71.9196 84.0597 70.3127 85.3115 67.8713 85.3115C66.3693 85.3115 64.8464 84.9157 63.7403 84.2264L64.6376 82.1816ZM18.4023 79.8662L21.4693 83.8089L22.6168 84.6859V85.1448H17.4216V84.6859L18.5067 83.8713L16.4199 81.0347L14.417 83.8713L15.6269 84.6859V85.1448H11.4958V84.6859L12.7693 83.8306L15.7529 80.1584L12.7057 76.2768L11.5378 75.3591V74.9002H16.712V75.3591L15.6485 76.1724L17.7137 78.9893L19.7172 76.1724L18.5067 75.3591V74.9002H22.6378V75.3591L21.3649 76.2144L18.4023 79.8662ZM51.013 78.4674C50.7838 76.6319 49.9285 75.7556 48.781 75.7556C47.5291 75.7556 46.6941 76.9864 46.6318 78.7391L51.013 78.4674ZM32.5902 80.763C32.5902 78.447 31.4638 76.5276 29.6487 76.5276C28.897 76.5276 28.1671 76.7783 27.4574 77.2995V82.7868C28.0417 83.6842 28.939 84.1227 30.0025 84.1227C31.5891 84.1227 32.5902 82.8702 32.5902 80.763Z" fill="#DA3940"></path><g clip-path="url(#clip0)"><path d="M33.8599 56.343C33.8599 60.7778 37.5556 64.0628 43.2222 64.0628H60.715C64.4928 64.0628 67.7778 61.0242 67.7778 57.657C67.7778 54.6184 65.2319 52.3188 61.8647 52.3188H41.9082C40.0193 52.3188 39.1981 51.087 39.9372 49.4444H65.1498C73.6908 49.4444 81 43.0386 81 34.9903C81 28.1739 75.4976 23 67.942 23H54.8841C50.942 23 47.2464 25.3816 45.5217 28.913L42.8116 34.744H73.8551C74.7585 34.744 75.3333 35.401 75.3333 36.1401C75.3333 36.8792 74.7585 37.5362 73.8551 37.5362H35.5024L30 49.4444H35.9952C34.3527 53.058 33.8599 54.8647 33.8599 56.343Z" fill="#DA3940"></path></g><defs><clipPath id="clip0"><rect width="51" height="41.0628" fill="white" transform="translate(30 23)"></rect></clipPath></defs></svg> 