<svg width="40" height="40" viewBox="0 0 24 24" xmlns="http://www.w3.org/2000/svg">
    <path d="M19.194 9.96c0-.608-.5-1.109-1.11-1.109-.608 0-1.109.5-1.109 1.11v4.622c0 .61.5 1.11 1.11 1.11.609 0 1.109-.5 1.109-1.11V9.961zm-12.943 0c0-.608-.5-1.109-1.109-1.109-.61 0-1.11.5-1.11 1.11v4.622c0 .61.5 1.11 1.11 1.11s1.11-.5 1.11-1.11V9.961zm7.788-5.285l.783-1.414a.153.153 0 0 0-.06-.212.15.15 0 0 0-.212.06l-.794 1.43a5.266 5.266 0 0 0-2.143-.451 5.27 5.27 0 0 0-2.142.451l-.789-1.43a.154.154 0 0 0-.212-.06.154.154 0 0 0-.06.212l.783 1.414c-1.511.783-2.528 2.268-2.528 3.975h9.897c0-1.707-1.017-3.192-2.523-3.975zm-4.71 2.164a.413.413 0 1 1 0-.826.413.413 0 0 1 0 .826zm4.568 0a.413.413 0 1 1 0-.826.413.413 0 0 1 0 .826zM6.665 9.042v7.173c0 .663.533 1.196 1.196 1.196h.794v2.447c0 .61.5 1.11 1.11 1.11.608 0 1.109-.5 1.109-1.11v-2.447h1.479v2.447c0 .61.5 1.11 1.11 1.11.608 0 1.109-.5 1.109-1.11v-2.447h.794c.663 0 1.196-.533 1.196-1.196V9.042z"
          fill="#79c257"/>
</svg>