<svg xmlns="http://www.w3.org/2000/svg" width="284" height="26.978" viewBox="0 0 284 26.978">
  <g id="Group_3376" data-name="Group 3376" transform="translate(-326 -9924.638)">
    <g id="Group_3289" data-name="Group 3289" transform="translate(326 9924.638)">
      <path id="Path_108" data-name="Path 108" d="M264.154,72.308V48.073a.747.747,0,0,1,.747-.747h15.743a.747.747,0,0,1,.747.747v3.211a.747.747,0,0,1-.747.747H269.863a.748.748,0,0,0-.747.747v3.909a.748.748,0,0,0,.747.747h6.3a.747.747,0,0,1,.747.747v3.21a.747.747,0,0,1-.747.747h-6.3a.747.747,0,0,0-.747.747v9.423a.746.746,0,0,1-.747.747H264.9A.747.747,0,0,1,264.154,72.308Z" transform="translate(-264.154 -46.517)" fill="#fff"/>
      <path id="Path_109" data-name="Path 109" d="M292.547,51.787a2.686,2.686,0,0,1-1.966-.827,2.843,2.843,0,0,1-.7-2.912.917.917,0,0,1,.094-.23,2.856,2.856,0,0,1,2.57-1.582,2.733,2.733,0,0,1,1.985.79,2.643,2.643,0,0,1,.808,1.967,2.762,2.762,0,0,1-2.794,2.793Zm-2.389,20.245v-17.3a.742.742,0,0,1,.742-.742h3.295a.742.742,0,0,1,.742.742v17.3a.741.741,0,0,1-.742.742H290.9A.741.741,0,0,1,290.159,72.032Z" transform="translate(-270.753 -46.236)" fill="#fff"/>
      <path id="Path_110" data-name="Path 110" d="M307.146,73.367q-4.558,0-4.557-4.962V59.086a.752.752,0,0,0-.751-.752h-1.18a.752.752,0,0,1-.752-.751V54.9a.752.752,0,0,1,.752-.752h1.18a.751.751,0,0,0,.751-.751V49.141a.752.752,0,0,1,.428-.678l3.275-1.562a.752.752,0,0,1,1.075.678v5.813a.751.751,0,0,0,.751.751H310.8a.752.752,0,0,1,.752.752v2.687a.751.751,0,0,1-.752.751h-2.687a.752.752,0,0,0-.751.752v8.621q0,1.47,1.323,1.47a6.156,6.156,0,0,0,1.951-.329.747.747,0,0,1,.964.815l-.323,2.435a.748.748,0,0,1-.446.6A9.6,9.6,0,0,1,307.146,73.367Z" transform="translate(-273.369 -46.388)" fill="#fff"/>
      <path id="Path_111" data-name="Path 111" d="M338.149,73.342a10.527,10.527,0,0,1-6.248-1.874,9.879,9.879,0,0,1-3.491-4.482.742.742,0,0,1,.441-.961l3.194-1.2a.762.762,0,0,1,.931.364,7.606,7.606,0,0,0,1.161,1.586,6.1,6.1,0,0,0,5.533,1.734,4.179,4.179,0,0,0,1.66-.685,2.681,2.681,0,0,0,1.121-2.316,2.512,2.512,0,0,0-.367-1.359,3.254,3.254,0,0,0-1.25-1.066,16.027,16.027,0,0,0-1.562-.754q-.681-.275-2.04-.717-1.544-.514-2.334-.808a17.211,17.211,0,0,1-2.076-.993,7.552,7.552,0,0,1-1.948-1.415,6.974,6.974,0,0,1-1.194-1.911,6.7,6.7,0,0,1,1.819-7.719,9.367,9.367,0,0,1,6.359-2.04,9.178,9.178,0,0,1,5.568,1.654,7.786,7.786,0,0,1,2.745,3.541.755.755,0,0,1-.457.994l-3.138,1.038a.733.733,0,0,1-.866-.321,4.418,4.418,0,0,0-4.146-2.2,4.27,4.27,0,0,0-2.518.644,2.1,2.1,0,0,0-.9,1.819,1.764,1.764,0,0,0,.736,1.378,5.77,5.77,0,0,0,1.507.919q.772.312,2.426.864,1.286.44,1.985.7t1.911.809a7.962,7.962,0,0,1,1.893,1.139,17.167,17.167,0,0,1,1.433,1.415,4.924,4.924,0,0,1,1.084,1.948,8.615,8.615,0,0,1,.331,2.444,6.936,6.936,0,0,1-2.628,5.735A10.371,10.371,0,0,1,338.149,73.342Z" transform="translate(-280.703 -46.364)" fill="#fff"/>
      <path id="Path_112" data-name="Path 112" d="M380.993,75.313a.753.753,0,0,1-.753-.753v-9.5a6.127,6.127,0,0,0-.7-3.345,2.554,2.554,0,0,0-2.279-1.029,2.931,2.931,0,0,0-2.481,1.029,5.474,5.474,0,0,0-.79,3.307V74.56a.754.754,0,0,1-.754.753h-3.271a.753.753,0,0,1-.753-.753v-9.5a6.128,6.128,0,0,0-.7-3.345,2.554,2.554,0,0,0-2.279-1.029,2.929,2.929,0,0,0-2.481,1.029,5.474,5.474,0,0,0-.79,3.307V74.56a.754.754,0,0,1-.754.753h-3.27a.754.754,0,0,1-.754-.753V57.286a.754.754,0,0,1,.754-.754h3.27a.754.754,0,0,1,.754.754v.973a5.368,5.368,0,0,1,4.447-2.169,5.106,5.106,0,0,1,4.3,1.839.735.735,0,0,0,1.122.071A6.851,6.851,0,0,1,378,56.09q7.019,0,7.019,7.425V74.56a.753.753,0,0,1-.753.753Z" transform="translate(-288.391 -48.776)" fill="#fff"/>
      <path id="Path_113" data-name="Path 113" d="M410.469,75.313a.756.756,0,0,1-.757-.757v-.6a6.559,6.559,0,0,1-4.851,1.8,7.488,7.488,0,0,1-4.98-1.617,5.658,5.658,0,0,1-1.931-4.594,5.353,5.353,0,0,1,2.187-4.632,8.765,8.765,0,0,1,5.274-1.58,9.843,9.843,0,0,1,4.3.882v-.955q0-2.978-3.382-2.977a9.878,9.878,0,0,0-5.066,1.4.75.75,0,0,1-1.07-.393l-.92-2.415a.756.756,0,0,1,.3-.914,13.569,13.569,0,0,1,7.158-1.871,12.356,12.356,0,0,1,2.665.258,8.947,8.947,0,0,1,2.408.955,4.574,4.574,0,0,1,1.93,2.224,9.348,9.348,0,0,1,.68,3.8V74.556a.757.757,0,0,1-.758.757Zm-4.69-3.749a5.613,5.613,0,0,0,3.664-1.312.758.758,0,0,0,.269-.586V68.534a.749.749,0,0,0-.5-.718,9.582,9.582,0,0,0-2.991-.442,5.517,5.517,0,0,0-2.609.534,1.741,1.741,0,0,0-.992,1.636,1.69,1.69,0,0,0,.827,1.47A4.179,4.179,0,0,0,405.779,71.564Z" transform="translate(-298.64 -48.776)" fill="#fff"/>
      <path id="Path_114" data-name="Path 114" d="M425.235,72.17V49.107a.752.752,0,0,1,.434-.682l3.27-1.535a.753.753,0,0,1,1.073.682v24.6a.753.753,0,0,1-.753.753h-3.27A.753.753,0,0,1,425.235,72.17Z" transform="translate(-305.673 -46.386)" fill="#fff"/>
      <path id="Path_115" data-name="Path 115" d="M437.516,72.17V49.107a.753.753,0,0,1,.433-.682l3.271-1.535a.753.753,0,0,1,1.073.682v24.6a.753.753,0,0,1-.753.753h-3.27A.753.753,0,0,1,437.516,72.17Z" transform="translate(-308.839 -46.386)" fill="#fff"/>
      <path id="Path_116" data-name="Path 116" d="M460.1,48.068a.741.741,0,0,1,.741-.742H471.38q4.373,0,6.358,1.966a6.675,6.675,0,0,1,1.985,4.943,5.424,5.424,0,0,1-2.03,4.6.728.728,0,0,0,.056,1.2,5.325,5.325,0,0,1,1.863,1.847,6.745,6.745,0,0,1,.992,3.529,7.582,7.582,0,0,1-2.132,5.385q-2.133,2.26-6.579,2.26H460.837a.741.741,0,0,1-.741-.741Zm10.7,9.366a4.819,4.819,0,0,0,2.922-.736,2.391,2.391,0,0,0,.974-2.021q0-2.72-3.234-2.72H465.8a.741.741,0,0,0-.741.742v3.993a.742.742,0,0,0,.741.742Zm1.36,10.989a3.349,3.349,0,0,0,2.61-.9,3.061,3.061,0,0,0,.809-2.113q0-3.345-4.447-3.345H465.8a.741.741,0,0,0-.741.742v4.875a.741.741,0,0,0,.741.741Z" transform="translate(-314.659 -46.517)" fill="#fff"/>
      <path id="Path_117" data-name="Path 117" d="M504.183,75.467a.733.733,0,0,1-.733-.733V73.7a6.071,6.071,0,0,1-5.035,2.205,6.627,6.627,0,0,1-4.668-1.764q-1.912-1.764-1.911-5.623v-11.1a.733.733,0,0,1,.732-.733h3.313a.733.733,0,0,1,.733.733v9.559a5.485,5.485,0,0,0,.79,3.29,2.9,2.9,0,0,0,2.481,1.048q3.566,0,3.565-4.264V57.418a.733.733,0,0,1,.733-.733H507.5a.733.733,0,0,1,.733.733V74.734a.733.733,0,0,1-.733.733Z" transform="translate(-322.84 -48.929)" fill="#fff"/>
      <path id="Path_118" data-name="Path 118" d="M525.136,75.754a10.526,10.526,0,0,1-4.337-.919,7.964,7.964,0,0,1-2.665-1.853.759.759,0,0,1,.07-1.09l2.083-1.767a.745.745,0,0,1,.967-.011,5.914,5.914,0,0,0,3.956,1.6q2.83,0,2.83-1.654a1.477,1.477,0,0,0-.753-1.268,15.556,15.556,0,0,0-2.665-1.231,14.023,14.023,0,0,1-4.888-2.481,4.705,4.705,0,0,1-1.544-3.693,4.533,4.533,0,0,1,1.948-3.878,8.1,8.1,0,0,1,4.888-1.415,8.7,8.7,0,0,1,6.282,2.392.762.762,0,0,1-.041,1.139l-2.078,1.7a.74.74,0,0,1-.922.023,5.1,5.1,0,0,0-3.241-1.2q-2.391,0-2.389,1.4,0,1.176,3.676,2.278a13.411,13.411,0,0,1,4.557,2.334,4.862,4.862,0,0,1,1.617,3.914,4.951,4.951,0,0,1-1.985,4.209A8.746,8.746,0,0,1,525.136,75.754Z" transform="translate(-329.567 -48.776)" fill="#fff"/>
      <path id="Path_119" data-name="Path 119" d="M543.948,51.787a2.782,2.782,0,0,1-2.121-4.6,2.86,2.86,0,0,1,4.107-.164,2.643,2.643,0,0,1,.808,1.967,2.762,2.762,0,0,1-2.794,2.793ZM541.56,72.023V54.743a.751.751,0,0,1,.751-.751h3.276a.751.751,0,0,1,.751.751v17.28a.751.751,0,0,1-.751.75h-3.276A.751.751,0,0,1,541.56,72.023Z" transform="translate(-335.552 -46.236)" fill="#fff"/>
      <path id="Path_120" data-name="Path 120" d="M565.922,75.313a.773.773,0,0,1-.773-.773V65.021a5.479,5.479,0,0,0-.79-3.307,2.931,2.931,0,0,0-2.481-1.029q-3.566,0-3.566,4.264v9.592a.773.773,0,0,1-.773.773h-3.232a.773.773,0,0,1-.773-.773V57.305a.773.773,0,0,1,.773-.773h3.232a.773.773,0,0,1,.773.773V58.3a6.138,6.138,0,0,1,5.035-2.206,6.653,6.653,0,0,1,4.686,1.746q1.894,1.746,1.893,5.642V74.541a.773.773,0,0,1-.773.773Z" transform="translate(-338.743 -48.776)" fill="#fff"/>
      <path id="Path_121" data-name="Path 121" d="M588.265,75.754a8.218,8.218,0,0,1-6.432-2.61,10.422,10.422,0,0,1-2.353-7.241,10.345,10.345,0,0,1,2.372-7.167,9.081,9.081,0,0,1,12.4-.386q2.315,2.26,2.315,6.6,0,1.265-.073,2.15a.746.746,0,0,1-.748.68H585.078a.745.745,0,0,0-.734.918,3.7,3.7,0,0,0,1.147,1.857,4.075,4.075,0,0,0,2.775,1.011,4.879,4.879,0,0,0,3.548-1.4.744.744,0,0,1,1.05.01l1.889,1.913a.761.761,0,0,1-.008,1.067A8.62,8.62,0,0,1,588.265,75.754Zm-3.115-12.019h5.813a.746.746,0,0,0,.725-.957,3.728,3.728,0,0,0-.978-1.578,3.422,3.422,0,0,0-2.444-.919q-3.033,0-3.825,2.45A.759.759,0,0,0,585.151,63.735Z" transform="translate(-345.431 -48.776)" fill="#fff"/>
      <path id="Path_122" data-name="Path 122" d="M611.99,75.754a10.518,10.518,0,0,1-4.336-.919,7.958,7.958,0,0,1-2.671-1.858.752.752,0,0,1,.07-1.08l2.087-1.772a.745.745,0,0,1,.967-.011,5.917,5.917,0,0,0,3.957,1.6q2.829,0,2.829-1.654a1.476,1.476,0,0,0-.753-1.268,15.543,15.543,0,0,0-2.665-1.231,14.017,14.017,0,0,1-4.888-2.481,4.7,4.7,0,0,1-1.544-3.693,4.534,4.534,0,0,1,1.948-3.878,8.1,8.1,0,0,1,4.888-1.415,8.7,8.7,0,0,1,6.288,2.4.755.755,0,0,1-.04,1.128l-2.088,1.7a.732.732,0,0,1-.914.023,5.106,5.106,0,0,0-3.246-1.208q-2.389,0-2.389,1.4,0,1.176,3.676,2.278a13.417,13.417,0,0,1,4.558,2.334,4.865,4.865,0,0,1,1.617,3.914,4.95,4.95,0,0,1-1.986,4.209A8.743,8.743,0,0,1,611.99,75.754Z" transform="translate(-351.954 -48.776)" fill="#fff"/>
      <path id="Path_123" data-name="Path 123" d="M634.372,75.754a10.518,10.518,0,0,1-4.336-.919,7.951,7.951,0,0,1-2.666-1.853.759.759,0,0,1,.07-1.09l2.083-1.767a.745.745,0,0,1,.967-.011,5.917,5.917,0,0,0,3.957,1.6q2.829,0,2.829-1.654a1.476,1.476,0,0,0-.753-1.268,15.571,15.571,0,0,0-2.665-1.231,14.011,14.011,0,0,1-4.888-2.481,4.7,4.7,0,0,1-1.545-3.693,4.535,4.535,0,0,1,1.948-3.878,8.1,8.1,0,0,1,4.888-1.415,8.7,8.7,0,0,1,6.283,2.392.762.762,0,0,1-.041,1.138l-2.078,1.7a.739.739,0,0,1-.922.023,5.108,5.108,0,0,0-3.242-1.2q-2.389,0-2.389,1.4,0,1.176,3.676,2.278a13.4,13.4,0,0,1,4.557,2.334,4.862,4.862,0,0,1,1.617,3.914,4.951,4.951,0,0,1-1.985,4.209A8.743,8.743,0,0,1,634.372,75.754Z" transform="translate(-357.724 -48.776)" fill="#fff"/>
    </g>
  </g>
</svg>
