<svg xmlns="http://www.w3.org/2000/svg" width="255" height="21.099" viewBox="0 0 255 21.099">
  <g id="FSB_Logo_Briefcase_255px" transform="translate(-837 -62)">
    <g id="Briefcase_Icon" data-name="Briefcase Icon" transform="translate(837 62)" style="isolation: isolate">
      <path id="Fill-2_00000156586870029177340990000000107699873098618026_" d="M14.137,22.041l20.408-5.063a.8.8,0,0,1,.92.572l.64,2.736a4.259,4.259,0,0,0-.48.408,26.093,26.093,0,0,1-8.963,4.288l-.12-.49-1.961.49.12.49a26.624,26.624,0,0,1-9.884.368l-.6-.123-.64-2.736a.775.775,0,0,1,.56-.939Zm22.128-1.184,2.281,9.718a.818.818,0,0,1-.56.939L17.579,36.537a.8.8,0,0,1-.92-.572l-2.281-9.678c.12.041.24.041.36.082A26.214,26.214,0,0,0,24.861,26l.08.408,1.961-.49-.08-.408a25.274,25.274,0,0,0,9.123-4.41c.12-.082.2-.163.32-.245Z" transform="translate(-13.562 -15.467)" fill="#155f86" fill-rule="evenodd"/>
      <path id="Fill-3_00000156574808678977763130000001066589582955509913_" d="M27.079,14.72l7.1-1.725a2.344,2.344,0,0,1,1.805.281A2.43,2.43,0,0,1,37.07,14.76l.16.6-.883.2-.16-.6a1.242,1.242,0,0,0-.642-.883,1.365,1.365,0,0,0-1.123-.16l-7.1,1.725a1.242,1.242,0,0,0-.883.642,1.365,1.365,0,0,0-.16,1.123l.16.642-.883.2-.16-.642a2.344,2.344,0,0,1,.281-1.805,2.164,2.164,0,0,1,1.4-1.083" transform="translate(-20.66 -12.924)" fill="#155f86" fill-rule="evenodd"/>
    </g>
    <g id="Group_3289" data-name="Group 3289" transform="translate(870 62)">
      <path id="Path_108" data-name="Path 108" d="M264.154,66.852V47.909a.584.584,0,0,1,.585-.583h12.318a.584.584,0,0,1,.585.583v2.509a.584.584,0,0,1-.585.583h-8.436a.585.585,0,0,0-.585.584v3.056a.585.585,0,0,0,.585.584h4.928a.584.584,0,0,1,.584.583v2.509a.585.585,0,0,1-.584.584h-4.928a.584.584,0,0,0-.585.583v7.365a.584.584,0,0,1-.584.583h-2.713a.584.584,0,0,1-.585-.583Z" transform="translate(-264.154 -46.692)" fill="#155e85"/>
      <path id="Path_109" data-name="Path 109" d="M291.94,50.575a2.1,2.1,0,0,1-1.538-.646,2.22,2.22,0,0,1-.546-2.276.716.716,0,0,1,.074-.18,2.234,2.234,0,0,1,2.011-1.237,2.14,2.14,0,0,1,1.553.618,2.065,2.065,0,0,1,.633,1.537,2.16,2.16,0,0,1-2.186,2.183ZM290.071,66.4V52.878a.58.58,0,0,1,.58-.58h2.578a.581.581,0,0,1,.58.58V66.4a.58.58,0,0,1-.58.579h-2.578A.58.58,0,0,1,290.071,66.4Z" transform="translate(-274.887 -46.235)" fill="#155e85"/>
      <path id="Path_110" data-name="Path 110" d="M305.57,67.572q-3.57,0-3.57-3.879V56.409a.588.588,0,0,0-.588-.587h-.923a.588.588,0,0,1-.588-.587v-2.1a.589.589,0,0,1,.588-.587h.923a.588.588,0,0,0,.588-.587V48.636a.588.588,0,0,1,.335-.53l2.562-1.221a.588.588,0,0,1,.841.53v4.543a.588.588,0,0,0,.588.587h2.1a.588.588,0,0,1,.588.587v2.1a.588.588,0,0,1-.588.587h-2.1a.588.588,0,0,0-.588.587v6.739q0,1.149,1.035,1.149a4.821,4.821,0,0,0,1.527-.257.584.584,0,0,1,.754.637l-.253,1.9a.584.584,0,0,1-.349.468A7.517,7.517,0,0,1,305.57,67.572Z" transform="translate(-279.142 -46.483)" fill="#155e85"/>
      <path id="Path_111" data-name="Path 111" d="M336.019,67.532a8.243,8.243,0,0,1-4.889-1.465,7.723,7.723,0,0,1-2.731-3.5.58.58,0,0,1,.345-.751l2.5-.934a.6.6,0,0,1,.728.285,5.946,5.946,0,0,0,.908,1.24,4.774,4.774,0,0,0,4.329,1.356,3.271,3.271,0,0,0,1.3-.535,2.1,2.1,0,0,0,.877-1.81,1.962,1.962,0,0,0-.287-1.062,2.546,2.546,0,0,0-.978-.833,12.549,12.549,0,0,0-1.222-.589q-.533-.215-1.6-.56-1.208-.4-1.827-.631a13.475,13.475,0,0,1-1.624-.776,5.908,5.908,0,0,1-1.524-1.106,5.45,5.45,0,0,1-.934-1.5,5.233,5.233,0,0,1,1.423-6.033,7.334,7.334,0,0,1,4.975-1.6,7.186,7.186,0,0,1,4.357,1.293,6.087,6.087,0,0,1,2.148,2.767.59.59,0,0,1-.358.777l-2.455.811a.574.574,0,0,1-.677-.251,3.458,3.458,0,0,0-3.244-1.72,3.344,3.344,0,0,0-1.97.5,1.642,1.642,0,0,0-.7,1.422,1.378,1.378,0,0,0,.576,1.077,4.515,4.515,0,0,0,1.179.718q.6.244,1.9.675,1.006.344,1.553.545t1.5.632a6.231,6.231,0,0,1,1.481.89,13.427,13.427,0,0,1,1.121,1.107,3.848,3.848,0,0,1,.848,1.522,6.728,6.728,0,0,1,.259,1.91,5.419,5.419,0,0,1-2.056,4.482,8.121,8.121,0,0,1-5.226,1.648Z" transform="translate(-291.111 -46.443)" fill="#155e85"/>
      <path id="Path_112" data-name="Path 112" d="M376.031,71.131a.589.589,0,0,1-.59-.589V63.107a4.794,4.794,0,0,0-.546-2.617,2,2,0,0,0-1.783-.806,2.293,2.293,0,0,0-1.941.806,4.283,4.283,0,0,0-.618,2.588v7.463a.59.59,0,0,1-.59.589H367.4a.59.59,0,0,1-.589-.589V63.107a4.794,4.794,0,0,0-.546-2.617,2,2,0,0,0-1.783-.806,2.291,2.291,0,0,0-1.941.806,4.283,4.283,0,0,0-.618,2.588v7.463a.59.59,0,0,1-.59.589h-2.559a.59.59,0,0,1-.59-.589V57.026a.59.59,0,0,1,.59-.59h2.559a.59.59,0,0,1,.59.59v.761a4.2,4.2,0,0,1,3.479-1.7,4,4,0,0,1,3.367,1.439.575.575,0,0,0,.878.056,5.361,5.361,0,0,1,4.037-1.494q5.492,0,5.492,5.809v8.642a.589.589,0,0,1-.589.589Z" transform="translate(-303.637 -50.387)" fill="#155e85"/>
      <path id="Path_113" data-name="Path 113" d="M407.746,71.131a.592.592,0,0,1-.592-.592v-.472a5.132,5.132,0,0,1-3.8,1.409,5.859,5.859,0,0,1-3.9-1.265,4.427,4.427,0,0,1-1.511-3.594,4.188,4.188,0,0,1,1.712-3.624,6.858,6.858,0,0,1,4.127-1.236,7.7,7.7,0,0,1,3.365.69V61.7q0-2.33-2.646-2.329a7.729,7.729,0,0,0-3.964,1.1.586.586,0,0,1-.837-.307l-.72-1.889a.591.591,0,0,1,.236-.715,10.617,10.617,0,0,1,5.6-1.464,9.667,9.667,0,0,1,2.085.2,7,7,0,0,1,1.884.747,3.579,3.579,0,0,1,1.51,1.74,7.314,7.314,0,0,1,.532,2.976v8.783a.592.592,0,0,1-.593.592Zm-3.67-2.933a4.392,4.392,0,0,0,2.867-1.026.593.593,0,0,0,.21-.458v-.887a.586.586,0,0,0-.393-.562,7.5,7.5,0,0,0-2.34-.346,4.317,4.317,0,0,0-2.041.418,1.363,1.363,0,0,0-.776,1.28,1.322,1.322,0,0,0,.647,1.15,3.269,3.269,0,0,0,1.826.433Z" transform="translate(-320.33 -50.387)" fill="#155e85"/>
      <path id="Path_114" data-name="Path 114" d="M425.235,66.633V48.607a.588.588,0,0,1,.339-.533l2.559-1.2a.589.589,0,0,1,.84.533V66.633a.589.589,0,0,1-.589.588h-2.559a.589.589,0,0,1-.59-.588Z" transform="translate(-331.781 -46.479)" fill="#155e85"/>
      <path id="Path_115" data-name="Path 115" d="M437.516,66.633V48.607a.588.588,0,0,1,.339-.533l2.559-1.2a.589.589,0,0,1,.84.533V66.633a.589.589,0,0,1-.589.588h-2.559a.589.589,0,0,1-.59-.588Z" transform="translate(-336.938 -46.479)" fill="#155e85"/>
      <path id="Path_116" data-name="Path 116" d="M460.1,47.905a.58.58,0,0,1,.58-.579h8.249q3.422,0,4.975,1.536a5.215,5.215,0,0,1,1.553,3.864,4.238,4.238,0,0,1-1.588,3.6.569.569,0,0,0,.044.938,4.164,4.164,0,0,1,1.458,1.443,5.268,5.268,0,0,1,.776,2.758,5.923,5.923,0,0,1-1.668,4.209q-1.669,1.766-5.148,1.766H460.68a.58.58,0,0,1-.58-.579Zm8.368,7.321a3.773,3.773,0,0,0,2.286-.575,1.868,1.868,0,0,0,.762-1.579q0-2.126-2.53-2.126h-4.424a.58.58,0,0,0-.58.579v3.121a.58.58,0,0,0,.58.58Zm1.064,8.591a2.622,2.622,0,0,0,2.042-.7,2.4,2.4,0,0,0,.633-1.651q0-2.614-3.48-2.614h-4.165a.58.58,0,0,0-.58.579v3.81a.58.58,0,0,0,.58.579Z" transform="translate(-346.424 -46.692)" fill="#155e85"/>
      <path id="Path_117" data-name="Path 117" d="M501.5,71.381a.573.573,0,0,1-.573-.573V70a4.75,4.75,0,0,1-3.939,1.725,5.186,5.186,0,0,1-3.652-1.38,5.73,5.73,0,0,1-1.5-4.4V57.258a.573.573,0,0,1,.573-.573H495a.573.573,0,0,1,.573.573v7.479a4.292,4.292,0,0,0,.618,2.574,2.272,2.272,0,0,0,1.941.82q2.79,0,2.789-3.336V57.258a.573.573,0,0,1,.573-.573h2.592a.573.573,0,0,1,.573.573V70.807a.573.573,0,0,1-.573.573Z" transform="translate(-359.749 -50.637)" fill="#155e85"/>
      <path id="Path_118" data-name="Path 118" d="M523.57,71.476a8.236,8.236,0,0,1-3.393-.719,6.231,6.231,0,0,1-2.085-1.45.594.594,0,0,1,.055-.853l1.63-1.383a.583.583,0,0,1,.757-.009,4.627,4.627,0,0,0,3.1,1.249q2.214,0,2.214-1.295a1.156,1.156,0,0,0-.589-.992,12.177,12.177,0,0,0-2.085-.963,10.971,10.971,0,0,1-3.825-1.941,3.681,3.681,0,0,1-1.208-2.889,3.547,3.547,0,0,1,1.525-3.034,6.34,6.34,0,0,1,3.825-1.108,6.8,6.8,0,0,1,4.916,1.871.6.6,0,0,1-.032.891l-1.626,1.326a.579.579,0,0,1-.722.018,3.99,3.99,0,0,0-2.536-.943q-1.871,0-1.87,1.093,0,.92,2.876,1.782a10.494,10.494,0,0,1,3.566,1.826,3.8,3.8,0,0,1,1.265,3.062,3.874,3.874,0,0,1-1.553,3.293A6.843,6.843,0,0,1,523.57,71.476Z" transform="translate(-370.706 -50.387)" fill="#155e85"/>
      <path id="Path_119" data-name="Path 119" d="M543.341,50.575a2.17,2.17,0,1,1,0-4.339,2.139,2.139,0,0,1,1.553.619,2.065,2.065,0,0,1,.633,1.537,2.16,2.16,0,0,1-2.186,2.183Zm-1.869,15.818V52.885a.588.588,0,0,1,.588-.587h2.563a.588.588,0,0,1,.588.587V66.392a.588.588,0,0,1-.588.586H542.06a.588.588,0,0,1-.588-.586Z" transform="translate(-380.45 -46.235)" fill="#155e85"/>
      <path id="Path_120" data-name="Path 120" d="M563.227,71.131a.6.6,0,0,1-.6-.6V63.078A4.287,4.287,0,0,0,562,60.49a2.294,2.294,0,0,0-1.941-.806q-2.79,0-2.79,3.336v7.505a.6.6,0,0,1-.6.6H554.14a.6.6,0,0,1-.6-.6V57.041a.6.6,0,0,1,.6-.605h2.529a.6.6,0,0,1,.6.6v.775a4.8,4.8,0,0,1,3.94-1.726,5.205,5.205,0,0,1,3.666,1.367q1.482,1.366,1.481,4.414v8.656a.6.6,0,0,1-.6.6Z" transform="translate(-385.654 -50.387)" fill="#155e85"/>
      <path id="Path_121" data-name="Path 121" d="M586.354,71.476a6.43,6.43,0,0,1-5.032-2.042,8.155,8.155,0,0,1-1.841-5.665,8.094,8.094,0,0,1,1.856-5.608,7.1,7.1,0,0,1,9.706-.3,6.9,6.9,0,0,1,1.811,5.162q0,.99-.057,1.682a.583.583,0,0,1-.585.532H583.86a.583.583,0,0,0-.574.718,2.9,2.9,0,0,0,.9,1.453,3.189,3.189,0,0,0,2.171.791,3.818,3.818,0,0,0,2.773-1.1.582.582,0,0,1,.822.008l1.478,1.5a.6.6,0,0,1-.006.835A6.744,6.744,0,0,1,586.354,71.476Zm-2.437-9.4h4.548a.584.584,0,0,0,.567-.749,2.918,2.918,0,0,0-.766-1.235,2.677,2.677,0,0,0-1.912-.719,2.779,2.779,0,0,0-2.993,1.917.594.594,0,0,0,.556.782Z" transform="translate(-396.575 -50.387)" fill="#155e85"/>
      <path id="Path_122" data-name="Path 122" d="M610.423,71.476a8.23,8.23,0,0,1-3.393-.719,6.227,6.227,0,0,1-2.09-1.454.588.588,0,0,1,.055-.845l1.633-1.386a.583.583,0,0,1,.757-.009,4.63,4.63,0,0,0,3.1,1.249q2.213,0,2.214-1.3a1.155,1.155,0,0,0-.589-.992,12.158,12.158,0,0,0-2.085-.963,10.967,10.967,0,0,1-3.824-1.941,3.679,3.679,0,0,1-1.208-2.889,3.547,3.547,0,0,1,1.524-3.034,6.338,6.338,0,0,1,3.824-1.108,6.8,6.8,0,0,1,4.92,1.875.591.591,0,0,1-.031.883L613.6,60.181a.572.572,0,0,1-.716.018,4,4,0,0,0-2.54-.945q-1.869,0-1.869,1.093,0,.92,2.876,1.782a10.5,10.5,0,0,1,3.566,1.826,3.806,3.806,0,0,1,1.266,3.062,3.873,3.873,0,0,1-1.554,3.293,6.841,6.841,0,0,1-4.2,1.166Z" transform="translate(-407.184 -50.387)" fill="#155e85"/>
      <path id="Path_123" data-name="Path 123" d="M632.806,71.476a8.229,8.229,0,0,1-3.393-.719,6.221,6.221,0,0,1-2.086-1.45.594.594,0,0,1,.055-.853l1.63-1.383a.583.583,0,0,1,.757-.009,4.63,4.63,0,0,0,3.1,1.249q2.213,0,2.214-1.295a1.155,1.155,0,0,0-.589-.992,12.186,12.186,0,0,0-2.085-.963,10.962,10.962,0,0,1-3.824-1.941,3.68,3.68,0,0,1-1.209-2.889A3.548,3.548,0,0,1,628.9,57.2a6.34,6.34,0,0,1,3.825-1.108,6.807,6.807,0,0,1,4.916,1.871.6.6,0,0,1-.032.89l-1.626,1.327a.578.578,0,0,1-.721.018,4,4,0,0,0-2.537-.943q-1.87,0-1.87,1.093,0,.92,2.876,1.782a10.487,10.487,0,0,1,3.566,1.826,3.8,3.8,0,0,1,1.265,3.062A3.874,3.874,0,0,1,637,70.311,6.841,6.841,0,0,1,632.806,71.476Z" transform="translate(-416.569 -50.387)" fill="#155e85"/>
    </g>
  </g>
</svg>
