<svg width="40" height="40" viewBox="0 0 24 24" xmlns="http://www.w3.org/2000/svg">
    <g fill="none" fill-rule="evenodd">
        <path d="M3.294 7.717a.647.647 0 0 1-.64.654.647.647 0 0 1-.638-.654.65.65 0 0 1 .638-.655.65.65 0 0 1 .64.655z"
              fill="#ffc107"/>
        <path d="M5.33 10.357l1.21-.523C7.11 8.787 8.077 8.18 9.33 8.18c.284 0 .552.037.804.097l1.149-.497a4.255 4.255 0 0 0-1.953-.453c-2 0-3.426 1.128-3.998 3.03zm-2.245.976V9.985H2.23v1.72z"
              fill="#ff5722"/>
        <path d="M3.085 13.729v-2.396l-.856.373v2.392zm2.883-1.362c0-1.004.206-1.859.572-2.533l-1.21.523a7.09 7.09 0 0 0-.277 2.01c0 .17.023.328.033.493l.889-.386c0-.037-.007-.07-.007-.107zm11.448-4.852a3.168 3.168 0 0 0-.648.282zm-6.133.265l-1.15.497c.86.201 1.53.741 1.968 1.543l.856-.372a3.817 3.817 0 0 0-1.674-1.668z"
              fill="#f44336"/>
        <path d="M3.085 16.12v-2.39l-.856.369v2.395zm14.331-8.605l-.648.282c-.823.47-1.32 1.255-1.32 2.214 0 .262.039.49.098.708l.863-.372a1.426 1.426 0 0 1-.046-.362c0-1.054.935-1.819 2.288-1.819.664 0 1.226.185 1.638.5l.876-.382c-.579-.588-1.452-.957-2.488-.957a4.16 4.16 0 0 0-1.261.188zM5.975 12.474l-.89.386c.05.825.22 1.557.5 2.177l.84-.362c-.28-.614-.437-1.352-.45-2.201zm6.982-3.026l-.856.372c.317.584.503 1.315.549 2.154l.889-.382c-.079-.816-.268-1.54-.582-2.144z"
              fill="#e91e63"/>
        <path d="M13.388 14.05a7.307 7.307 0 0 0 .203-1.683c0-.272-.03-.524-.052-.779l-.89.386c.007.13.027.255.027.393 0 .832-.15 1.553-.402 2.167l1.114-.483zm-6.962.625l-.84.362c.343.755.843 1.346 1.487 1.751l1.053-.456c-.752-.292-1.334-.859-1.7-1.657zm-3.34 1.446l-.857.372v.718h.856zm13.323-5.774l-.863.372c.206.745.765 1.265 1.781 1.624l1.34-.58-.284-.074c-1.22-.312-1.817-.715-1.974-1.342zm4.602-.45h.902a2.508 2.508 0 0 0-.748-1.613l-.876.379c.395.302.654.728.722 1.234z"
              fill="#9c27b0"/>
        <path d="M13.388 14.05l-1.114.484c-.527 1.268-1.55 2.026-2.945 2.026-.442 0-.837-.087-1.203-.228l-1.053.456c.628.393 1.38.625 2.256.625 2.128 0 3.566-1.275 4.06-3.362zm2.694.645h-.902c.023.315.108.604.222.876l.827-.36a1.706 1.706 0 0 1-.147-.516zm3.236-2.765l-.654-.167-1.337.58c.196.07.409.134.638.191l1.078.282c.599.151 1.053.342 1.39.577l1.006-.44c-.44-.442-1.13-.77-2.121-1.023z"
              fill="#3f51b5"/>
        <path d="M16.229 15.215l-.827.359c.314.745.951 1.312 1.81 1.607l1.416-.614c-1.154-.027-2.056-.554-2.399-1.352zm5.782-.114c.03-.164.053-.336.053-.513 0-.675-.196-1.205-.625-1.634l-1.006.44c.483.331.715.757.715 1.294 0 .34-.107.644-.29.913z"
              fill="#03a9f4"/>
        <path d="M22.011 15.1l-1.153.5c-.396.588-1.167.974-2.135.974-.033 0-.062-.004-.095-.007l-1.415.614c.431.148.909.232 1.432.232 1.846 0 3.115-.91 3.366-2.312z"
              fill="#009688"/>
    </g>
</svg>