<svg xmlns="http://www.w3.org/2000/svg" xmlns:xlink="http://www.w3.org/1999/xlink" width="40" height="40" viewBox="0 0 24 24">
    <radialGradient id="e" cx="49.5%" cy="49.3%" r="187.3%" gradientTransform="matrix(.2683 0 0 1 .4 0)">
        <stop offset="0" stop-color="#3f2600" stop-opacity=".6"/>
        <stop offset="1" stop-color="#3f2600" stop-opacity="0"/>
    </radialGradient>
    <linearGradient id="a">
        <stop offset="0" stop-color="#ffeed7"/>
        <stop offset="1" stop-color="#bdbfc2"/>
    </linearGradient>
    <linearGradient id="f" x1="50.2%" x2="50.6%" y1="115.6%" y2="41.4%" xlink:href="#a"/>
    <linearGradient id="b">
        <stop offset="0" stop-color="#fff" stop-opacity=".8"/>
        <stop offset="1" stop-color="#fff" stop-opacity="0"/>
    </linearGradient>
    <linearGradient id="g" x1="54.3%" x2="46.1%" y1="23.4%" y2="74.6%" xlink:href="#b"/>
    <linearGradient id="h" x1="51%" x2="49.4%" y1="89%" y2="11.4%" xlink:href="#a"/>
    <linearGradient id="i" x1="49.8%" x2="49.8%" y1="83.9%" y2="11.9%" xlink:href="#a"/>
    <linearGradient id="c">
        <stop offset="0" stop-color="#fff" stop-opacity=".7"/>
        <stop offset="1" stop-color="#fff" stop-opacity="0"/>
    </linearGradient>
    <linearGradient id="j" x1="53.2%" x2="49.2%" y1="14.9%" y2="81.7%" xlink:href="#c"/>
    <linearGradient id="k" x1="48.5%" x2="52%" y1="21.4%" y2="76%" xlink:href="#c"/>
    <linearGradient id="l" x1="49.6%" x2="49.6%" y1="90.3%" y2="41%" xlink:href="#a"/>
    <linearGradient id="m" x1="50.3%" x2="47.9%" y1="99.7%" y2="23.7%" xlink:href="#a"/>
    <linearGradient id="n" x1="49.2%" x2="49.6%" y1="25.4%" y2="80.1%" xlink:href="#b"/>
    <linearGradient id="o" x1="52.5%" x2="53.2%" y1="43.1%" y2="75.6%" xlink:href="#c"/>
    <linearGradient id="p" x1="51.1%" x2="51.1%" y1="2.8%" y2="81.6%" xlink:href="#c"/>
    <linearGradient id="q" x1="50%" x2="50%" y1="2.7%" y2="72.7%" xlink:href="#c"/>
    <linearGradient id="d">
        <stop offset="0" stop-color="#ffa63f"/>
        <stop offset="1" stop-color="#ff0"/>
    </linearGradient>
    <linearGradient id="r" x1="54.4%" x2="39.7%" y1="48.7%" y2="96.4%" xlink:href="#d"/>
    <linearGradient id="s" x1="52.4%" x2="47.5%" y1="136%" y2="-54.3%" xlink:href="#a"/>
    <linearGradient id="t" x1="34.1%" x2="63.1%" y1="33.4%" y2="88.7%" xlink:href="#d"/>
    <linearGradient id="u" x1="53.3%" x2="48.6%" y1="-15.4%" y2="66.7%" xlink:href="#c"/>
    <linearGradient id="v" x1="47.7%" x2="51%" y1="2.3%" y2="104.1%" xlink:href="#c"/>
    <linearGradient id="w" x1="42%" x2="55.6%" y1="13.5%" y2="88%" xlink:href="#c"/>
    <linearGradient id="x" x1="49.8%" x2="50.6%" y1="35.4%" y2="72.8%" xlink:href="#d"/>
    <linearGradient id="y" x1="46.5%" x2="46%" y1="29.7%" y2="67.9%" xlink:href="#c"/>
    <g fill="none" fill-rule="evenodd">
        <path fill="url(#e)" d="M15 16.8c0 1-3.2 2-7.2 2-4.1 0-7.3-1-7.3-2s3.3-2 7.3-2 7.3.8 7.3 2z" transform="translate(4 2)"/>
        <path fill="#000" d="M7.7 16.6c-.7-1-.9-4.3.8-6.4.8-1 1-1.7 1-2.6 0-1-.7-4.1 2.3-4.4 3-.3 2.8 2.8 2.8 4.3 0 1.3 1 2 1.6 3a6.5 6.5 0 0 1-.2 7c-1.8 2.2-3.2 1.3-4.2 1.3-1.8.1-1.9 1.1-4.1-2.2z"/>
        <path fill="url(#f)" d="M10.9 8.8c.5.5 1.9 2.6-.3 4-.7.4.6 2.2 1.4 1.3 1.1-1.5.4-4-.3-4.9-.5-.5-1.2-.8-.8-.4z" transform="translate(4 2)"/>
        <path fill="#000" d="M14.8 10.5c.9.7 2.4 3.1.2 4.6-.7.5.6 2 1.4 1.3 2.8-2.8 0-6-1-7-1-.9-1.7.3-.6 1z"/>
        <path fill="url(#g)" d="M9.6 2.7c0 .8-1 1.5-2 1.5S5.7 3.7 5.8 3c0-.8 1-1.5 2-1.5s1.8.6 1.8 1.3z" transform="translate(4 2)"/>
        <path fill="url(#h)" d="M7 4.6c0 .5-.1 1-.5 1-.3 0-.6-.4-.6-1 0-.5.2-1 .5-1 .4 0 .7.5.7 1z" transform="translate(4 2)"/>
        <path fill="url(#i)" d="M7.7 4.7c0 .6.3 1 .9 1 .4 0 .8-.5.8-1 0-.7-.4-1.1-1-1.1-.4 0-.7.4-.7 1z" transform="translate(4 2)"/>
        <path fill="#000" d="M12 6.8c0 .3.2.6.4.6s.4-.3.4-.6c0-.4-.2-.7-.4-.7s-.4.4-.4.7zm-1.3 0c0 .2 0 .5-.3.5l-.3-.5c0-.2 0-.5.3-.5.1 0 .3.2.3.5z"/>
        <path fill="url(#j)" d="M8.1 4.6c0 .2.1.3.2.3s.3 0 .3-.2l-.2-.4s-.3.1-.3.3z" transform="translate(4 2)"/>
        <path fill="url(#k)" d="M6.6 4.7c0 .1 0 .2-.2.2s-.1 0-.1-.2l.1-.3c.1 0 .2 0 .2.3z" transform="translate(4 2)"/>
        <path fill="url(#l)" d="M4.8 10.3c.5-1 1.3-2.6 1.4-3.9 0-1 3-1.2 3.2-.2.2 1 .9 2.5 1.2 3.2.4.7 1.5 3 .4 5-1 1.7-4.4 3.2-6.2-.3-.7-1-.5-2.6 0-3.8z" transform="translate(4 2)"/>
        <path fill="url(#m)" d="M4.5 9.6c-.4.6-1 2.4.7 3.3 1.9 1 1.9 3.1-.4 2-2-.8-1.1-4.4-.6-5.3.4-.6 1-1.3.3 0z" transform="translate(4 2)"/>
        <path fill="#000" d="M8.8 10.8c-.6 1-2 3-.1 4.2 2.4 1.5 1.7 3-.5 1.6-3-1.8-.3-5.6 1-7 1.2-1.6 0 .3-.4 1.2z"/>
        <path fill="url(#n)" d="M10.2 10.6c0 1-1 2.3-2.7 2.3s-2.4-1.3-2.4-2.3 1.2-1.8 2.5-1.8c1.4 0 2.6.8 2.6 1.8z" transform="translate(4 2)"/>
        <path fill="url(#o)" d="M9.2 7.4c0 1-.7 1.4-1.6 1.4S6.1 8.6 6 7.4c0-.7.7-1.1 1.6-1.1 1 0 1.6.4 1.6 1.1z" transform="translate(4 2)"/>
        <path fill="url(#p)" d="M4 9c.6-.9 1.8-2.1.2.2-1.2 2-.4 3.2 0 3.6 1 1 1 1.6.1 1.1C2.4 12.8 3 10.8 4 9z" transform="translate(4 2)"/>
        <path fill="url(#q)" d="M12.1 9.4c-.4-1-2-3.6.1-.6 2 2.6.6 4.5.4 4.7-.3.1-1 .5-.8-.1.2-.6 1.4-1.8.3-4z" transform="translate(4 2)"/>
        <path fill="url(#r)" stroke="#e68c3f" stroke-width=".2" d="M3.6 17.3c-1.2-.7-3.1 0-2.5-1.7.2-.4-.2-1 0-1.4.3-.6.8-.4 1.2-.7.3-.4.5-1 1.1-1 .6.2 1 .9 1.4 1.9.4.6 1.5 1.6 1.4 2.3 0 1-1.4 1.3-2.6.6z" transform="translate(4 2)"/>
        <path fill="url(#s)" d="M13 13c-.2.3-1 1-1.6.7-.5-.1-.8-1-.7-1.6.1-.7.7-.7 1.4-.3.8.3 1.1.7.8 1.1z" transform="translate(4 2)"/>
        <path fill="url(#t)" stroke="#e68c3f" stroke-width=".2" d="M12.5 17c1-1.1 3-.9 1.6-2.5-.3-.3-.2-1-.5-1.3-.5-.4-1 0-1.4-.3-.4-.1-.9-.6-1.4-.3-.5.2-.6 1-.6 2 0 .7-.7 2-.4 2.6.5 1 1.8.9 2.7-.2z" transform="translate(4 2)"/>
        <path fill="url(#u)" d="M12.1 15.4c1.5-2.1.4-2.1 0-2.3-.3-.2-.7-.5-1.1-.3s-.5 1-.5 1.7-.5 1.6-.1 2.2c.2.6 1-.3 1.7-1.3z" transform="translate(4 2)"/>
        <path fill="url(#v)" d="M3.3 15.8c-2.1-1.4-1.1-1.9-.8-2.2.4-.2.4-.8 1-.8.4.1.7.7 1 1.5.3.5 1 1.2 1 1.8-.1.7-1.3.3-2.2-.3z" transform="translate(4 2)"/>
        <path fill="#000" d="M16.8 15c-.1.2-.8.7-1.3.6-.4-.1-.7-.8-.6-1.4s.6-.6 1.2-.3c.7.4 1 .7.7 1z"/>
        <path fill="url(#w)" d="M12.4 12.8c0 .1-.5.5-.9.4-.3 0-.4-.5-.4-.9 0-.3.3-.4.8-.2.4.2.6.4.5.7z" transform="translate(4 2)"/>
        <path fill="url(#x)" stroke="#e68c3f" stroke-width=".1" d="M6.4 5.3c.3-.2.8-.9 2-.2l.6.3c.7.2.4 1-.4 1.3-.4.1-.6.5-1.3.5-.5 0-.7-.3-1-.5-.6-.3-.6-.8-.3-1l.4-.4z" transform="translate(4 2)"/>
        <path stroke="#e68c3f" stroke-width=".1" d="M13 8c-.3 0-1 .6-1.7.6S10.2 8 10.1 8"/>
        <path fill="url(#y)" d="M6.8 5.3c0-.1.4-.4 1-.1 0 0 .2 0 .3.2.3.2.2.4-.1.6l-.7.2c-.2 0-.3-.2-.5-.3-.3-.2-.3-.3-.2-.4z" transform="translate(4 2)"/>
    </g>
</svg>