<svg width="40" height="40" viewBox="0 0 24 24" xmlns="http://www.w3.org/2000/svg">
    <path d="m16.024 11.766c.023 2.497 2.152 3.328 2.176 3.338-.018.059-.34 1.185-1.122 2.347-.676 1.005-1.377 2.007-2.482 2.028-1.085.02-1.434-.656-2.675-.656-1.24 0-1.628.635-2.656.676-1.066.041-1.878-1.087-2.56-2.088-1.392-2.049-2.456-5.79-1.027-8.314.71-1.253 1.978-2.047 3.354-2.068 1.047-.02 2.036.717 2.676.717s1.84-.886 3.103-.756c.529.022 2.012.217 2.965 1.636-.077.049-1.77 1.052-1.752 3.14m-2.04-6.132c.566-.697.947-1.668.843-2.634-.816.033-1.802.553-2.388 1.25-.524.618-.984 1.606-.86 2.553.91.071 1.84-.47 2.405-1.169"
          fill="#979797"/>
</svg>