<svg xmlns="http://www.w3.org/2000/svg" xmlns:xlink="http://www.w3.org/1999/xlink" width="40" height="40">
  <defs>
    <path id="a" d="M35.25 30.607H4v-9.821h3.906V9H9.86v11.786h19.532V9h1.953v11.786h3.906v9.821zm-1.953-7.857H5.953v5.893h27.344V22.75zm-10.742 1.964c.586 0 .976.393.976.982 0 .59-.39.983-.976.983s-.977-.393-.977-.983c0-.589.39-.982.977-.982zm3.906 0c.586 0 .977.393.977.982 0 .59-.391.983-.977.983s-.977-.393-.977-.983c0-.589.391-.982.977-.982zm3.906 0c.586 0 .977.393.977.982 0 .59-.39.983-.977.983-.586 0-.976-.393-.976-.983 0-.589.39-.982.976-.982z"/>
  </defs>
  <g fill="none" fill-rule="evenodd">
    <path d="M0 0h40v40H0z"/>
    <mask id="b" fill="#fff">
      <use xlink:href="#a"/>
    </mask>
    <use fill="#232434" fill-rule="nonzero" xlink:href="#a"/>
    <g fill="#000" mask="url(#b)">
      <path d="M0 0h40v40H0z"/>
    </g>
  </g>
</svg>