<svg width="16" height="16" viewBox="0 0 16 16" xmlns="http://www.w3.org/2000/svg" xmlns:xlink="http://www.w3.org/1999/xlink">
    <defs>
        <path d="M2.474 14.948l-1.537.027V7.64l1.51-.026.027 7.333zm11.617-4.315l-.068.004a1.671 1.671 0 0 0-.116-.004H12.58v.938h1.326a.639.639 0 0 1 0 1.276h-1.603v.938h1.115a.639.639 0 0 1 0 1.276H4.401a1.57 1.57 0 0 1-.234-.231 1.667 1.667 0 0 0-.782-.509V8.43c.589-.043 1.48-.271 2.028-1.184.547-.912 1.724-1.982 2.43-2.623l.326-.3c.688-.642 1.448-1.81 1.593-2.97.029-.229.152-.365.365-.404a.658.658 0 0 1 .11-.01c.229 0 .532.116.7.44.457.877.413 2.295-.552 3.307-.37.388-.833.967-.596 1.522.228.535.905.604 1.469.604h2.666a.806.806 0 0 1 0 1.609H12.89v.937h1.2a.639.639 0 0 1 0 1.276zm1.07-1.792c.325-.325.506-.76.506-1.226 0-.961-.782-1.743-1.743-1.743h-2.665c-.332 0-.5-.032-.57-.047.036-.081.132-.238.375-.494 1.328-1.391 1.297-3.25.706-4.386A1.748 1.748 0 0 0 10.243 0a1.59 1.59 0 0 0-.28.025C9.345.135 8.91.6 8.83 1.237c-.114.92-.755 1.889-1.302 2.4l-.316.29c-.742.674-1.984 1.8-2.604 2.834-.32.535-.852.69-1.232.727a.913.913 0 0 0-.902-.785H.91a.912.912 0 0 0-.91.912v7.36c0 .502.408.91.91.91h1.564a.915.915 0 0 0 .843-.568.706.706 0 0 1 .137.122c.323.378.604.56.862.56h9.103a1.577 1.577 0 0 0 1.313-2.448 1.573 1.573 0 0 0 .38-2.357c.35-.297.554-.73.554-1.2 0-.441-.185-.858-.505-1.153z" id="a"/>
    </defs>
    <g fill="none" fill-rule="evenodd">
        <mask id="b" fill="#fff">
            <use xlink:href="#a"/>
        </mask>
        <use fill="#2f31ad" xlink:href="#a"/>
        <g mask="url(#b)" fill="#2f31ad">
            <path d="M0 0h16v16H0z"/>
        </g>
    </g>
</svg>