<svg xmlns="http://www.w3.org/2000/svg" width="701.573" height="39.363" viewBox="0 0 701.573 39.363"><defs><style>.a,.c{fill:#37474f;}.b{fill:#fff;}.c{stroke:rgba(0,0,0,0);stroke-miterlimit:10;}</style></defs><g transform="translate(11216.307)"><g transform="translate(388.608)"><path class="a" d="M0,0H39.363V31.927H0Z" transform="translate(-10942.704)"/><path class="a" d="M0,1015.4H39.363v7H0Z" transform="translate(-10942.704 -983.037)"/><path class="b" d="M39.363,22.853H39.29a31.582,31.582,0,0,0-1.482-3.133h.484q.574,1.1,1.071,2.231v.9ZM0,4.373A31.545,31.545,0,0,1,5.957,3l.577-3H11.21L10.161,2.722a30.946,30.946,0,0,1,3.764.22L15.382,0H20.52L18.072,3.716a31.524,31.524,0,0,1,9.157,4.006c.561.36,1.106.739,1.635,1.131h-.743A31.451,31.451,0,0,0,17.823,4.1L14.83,8.746H12.682v3.162l-5.3,8.647h-1.7v2.891L.255,31.927H.083L13.728,3.35a30.185,30.185,0,0,0-3.716-.2L.038,31.927H0m0-.532L5.861,3.452a31.138,31.138,0,0,0-5.836,1.4H0M.255,31.927Zm-.175,0ZM20.316,0Z" transform="translate(-10942.704)"/><path class="b" d="M206.806,300.961h2.875v-2.687h-2.875v-1.281h3.5l-.191-2.693H203.88v9.861h2.926Zm12.163,3.171h3.146l1.434-2.419,1.469,2.422h3.219l-3.1-5.109,2.8-4.711h-3.187l-1.2,2.046-1.246-2.053h-3.241l2.878,4.74Zm-3.659.108a5.049,5.049,0,0,0,5.119-4.963,5.131,5.131,0,0,0-10.254,0,5.045,5.045,0,0,0,5.125,4.963Zm-.905-7.127a.913.913,0,0,1,.873-.905.943.943,0,0,1,.924.905V301.3a.9.9,0,0,1-1.8,0Zm-6.932,14.41h2.977v-1.973h-2.977v-1.342H211.1v-2.135h-5.925v9.221h5.97v-2.218h-3.672Zm12.813-5.45-1.141,5.278-1.116-5.278h-1.97L215,311.406l-1.106-5.332h-2.349l2.132,9.221h2.142l1.049-5.285,1.08,5.285h2.1l2.142-9.221Zm7.777,4.166a4.677,4.677,0,0,0-2.1-.937c-.931-.261-1.444-.29-1.444-.832a.73.73,0,0,1,.8-.657h.006a1.207,1.207,0,0,1,1.272.924l2.011-.669a3.091,3.091,0,0,0-3.124-2.292c-2.1,0-3.385,1.291-3.385,3.028,0,1.5.873,2.241,2.623,2.763,1.045.316,1.6.29,1.6.963,0,.354-.328.631-.873.631a1.366,1.366,0,0,1-1.5-1.125l-2.206.484a3.433,3.433,0,0,0,3.678,2.789,3.5,3.5,0,0,0,2.623-1.08,2.981,2.981,0,0,0,.774-2.03,2.566,2.566,0,0,0-.755-1.963h0Zm-25.75.462-2.747-4.587H196.9V315.3h2.339v-5.367l3.136,5.355h2.218V306.1h-2.276Z" transform="translate(-11133.328 -284.92)"/><path class="b" d="M56.933,1071.715a.532.532,0,0,1,.59.338h1.313c-.083-.622-.787-.991-1.884-.991-1.256.016-2.053.555-2.053,1.431,0,.8.784,1.313,1.973,1.313,1.1,0,1.814-.379,1.947-1.026H57.526c-.073.249-.28.373-.615.373a.61.61,0,0,1-.673-.695A.656.656,0,0,1,56.933,1071.715Zm12.771,1.5v-.966a.938.938,0,0,0-.261-.819,2.386,2.386,0,0,0-1.466-.331c-1.131,0-1.75.274-1.877.873h1.2c.051-.188.271-.29.647-.29s.516.08.516.226v.061c0,.2-.494.156-1.418.3-.7.105-1.058.366-1.058.79s.462.736,1.246.736a2.287,2.287,0,0,0,1.269-.344,1.208,1.208,0,0,0,.067.261h1.313v-.1c-.115-.045-.175-.178-.175-.408Zm-1.246-.411c0,.271-.316.437-.755.437-.293,0-.481-.127-.481-.3s.137-.233.437-.284a4.83,4.83,0,0,0,.8-.143Zm5.887-1.7a1.589,1.589,0,0,0-1.208.411v-.341H71.869v2.55h1.313v-1.37c0-.437.188-.615.66-.615s.548.226.548.695v1.281H75.7v-1.667c-.016-.644-.376-.944-1.342-.944ZM63,1071.142a1.712,1.712,0,0,0-1.224.4V1070.3H60.462v3.455h1.313V1072.4c0-.437.188-.615.66-.615s.548.226.548.695v1.281H64.3v-1.75c0-.567-.449-.867-1.284-.867Zm17.5-.035a1.59,1.59,0,0,0-1.208.411v-.341H78.04v2.55h1.313v-1.37c0-.437.188-.615.66-.615s.548.226.548.695v1.281h1.313v-1.667c-.016-.644-.379-.944-1.348-.944Zm5.1-.025c-1.214,0-2,.52-2,1.374s.8,1.348,2.033,1.348c1.02,0,1.75-.325,1.97-.873H86.339c-.092.185-.316.281-.669.281-.462,0-.714-.191-.714-.552h2.693a1.176,1.176,0,0,0,0-.15c.01-.892-.771-1.425-2.024-1.425Zm-.7,1.087c.051-.341.325-.526.743-.526s.736.191.743.526Zm4.561-1.868v3.455h1.313V1070.3Z" transform="translate(-10995.854 -1036.186)"/></g><path class="a" d="M16.883,13.113c.253-.127.532-.279.786-.406.1-.051.456-.177.507-.279a1.022,1.022,0,0,0,0-.279V2.416c0-.025.025-.2,0-.228s-.228,0-.253,0h-.558c-.2,0-.177.025-.3.177C16.579,3,16.1,3.633,15.616,4.292c-.228.3-.456.583-.659.887-.152.2-.152.228-.431.228L14.6,3.734c.025-.406.025-.811.051-1.217,0-.152.025-.3.025-.456,0-.051-.025-.2,0-.228.051-.076.507-.025.634-.025h9.48a1.433,1.433,0,0,1,.33,0c.051.025.025.177.025.253.025.33.025.684.051,1.014.025.735.051,1.445.1,2.18v.152c-.127,0-.228.025-.33-.051a1.627,1.627,0,0,1-.253-.33c-.3-.406-.608-.836-.938-1.242l-.913-1.217c-.051-.076-.127-.253-.228-.3-.076-.051-.228-.025-.33-.025H21.9a1.221,1.221,0,0,0-.3,0c-.025.025,0,.025-.025.076a2.866,2.866,0,0,0,0,.659V11.8a2.443,2.443,0,0,0,0,.608c.051.177.456.3.634.38a3.011,3.011,0,0,1,.634.33.491.491,0,0,1,.051.38c-.025.025-.152,0-.177,0H17.137c-.051,0-.228.025-.253,0a1.9,1.9,0,0,1,0-.38Zm9.4-.456V1.909a1.872,1.872,0,0,0,0-.532c-.051-.177-.355-.2-.532-.279-.1-.025-.431-.1-.482-.2v-.2h.076a2.176,2.176,0,0,1,.431-.076c.228-.051.456-.076.659-.127.507-.1,1.039-.2,1.546-.279.3-.051.608-.127.913-.177.076,0,.38-.051.406,0,.025.025,0,.127,0,.152V5.433a4.507,4.507,0,0,1,3.98-1.166A2.261,2.261,0,0,1,34.83,6.751c.025,1.419,0,2.814,0,4.233v1.141a2.054,2.054,0,0,0,0,.558c.025.051.127.076.177.127.177.1.38.2.558.3.025.025.1.051.1.076a.521.521,0,0,1,0,.279c-.025.051-.025.025-.1.025a4.608,4.608,0,0,1-.836,0h-3.65c-.025,0-.152.025-.177,0a.723.723,0,0,1,0-.33c.076-.1.38-.2.482-.279.076-.051.3-.127.355-.2s0-.355,0-.431V11.212c0-1.47.025-2.966,0-4.436A1.221,1.221,0,0,0,31.23,5.61a1.676,1.676,0,0,0-.786-.152,2.159,2.159,0,0,0-.583.1,1.341,1.341,0,0,0-.532.279c-.076.1-.025.253-.025.38V12.2a1.532,1.532,0,0,0,0,.482.4.4,0,0,0,.2.127c.177.1.406.2.583.3.025.025.076.025.076.051a.521.521,0,0,1,0,.279c-.025.025-.051.025-.1.025-.279.025-.583,0-.862,0h-3.65c-.025,0-.152.025-.177,0a.755.755,0,0,1,.025-.33,1.614,1.614,0,0,1,.456-.253,3.329,3.329,0,0,0,.431-.228Zm12.04-3.5a3.517,3.517,0,0,0,1.42,2.966,3.159,3.159,0,0,0,1.8.355,5.531,5.531,0,0,0,1.977-.76,1.906,1.906,0,0,1,0,.38,1.47,1.47,0,0,1-.253.3,4.528,4.528,0,0,1-.355.33,4.6,4.6,0,0,1-1.419.786,5.486,5.486,0,0,1-3.067.051A3.946,3.946,0,0,1,36.4,12.378a4.348,4.348,0,0,1-.963-2.205,5.183,5.183,0,0,1,1.5-4.918,5.053,5.053,0,0,1,4.791-.608c1.825.735,2.129,2.814,2.129,4.537H39.012a6.178,6.178,0,0,0-.684-.025Zm-.051-.431c.507-.025,1.014-.051,1.546-.1.3-.025.634-.025.938-.051a.7.7,0,0,0,.228-.025c.076-.051.025-.558.025-.659a5.369,5.369,0,0,0-.583-2.814.744.744,0,0,0-1.318.051A6.206,6.206,0,0,0,38.277,8.728ZM-.1,17.98A7.4,7.4,0,0,1,.965,13.9a5.778,5.778,0,0,1,3.3-2.307,11.176,11.176,0,0,1,5.019-.1c.355.076.71.152,1.039.253.051.025.279.076.3.127v.076a4.3,4.3,0,0,1,.025.989c.025.786.025,1.6.051,2.383a1.656,1.656,0,0,1-.355,0c-.051-.025-.1-.152-.127-.2-.2-.3-.406-.608-.583-.938-.431-.684-.887-1.369-1.318-2.053-.228-.38-.862-.38-1.267-.38a2.5,2.5,0,0,0-1.293.3,3.924,3.924,0,0,0-1.5,2.509,16.386,16.386,0,0,0-.253,4.588,10.663,10.663,0,0,0,.634,3.473,2.171,2.171,0,0,0,1.5,1.394,2.2,2.2,0,0,0,.71.025c.152-.025.684-.051.76-.2a.689.689,0,0,0,0-.228V19.45c0-.177.051-.253-.1-.355a6.411,6.411,0,0,1-.558-.33c-.127-.076-.38-.152-.456-.253a.5.5,0,0,1-.025-.38c.025-.051.025-.025.1-.025a3.812,3.812,0,0,1,.76,0h3.929c.253,0,.532-.025.786,0h.1a1.228,1.228,0,0,1,0,.431,1.542,1.542,0,0,1-.406.228,6.411,6.411,0,0,0-.558.33c-.2.1-.177.1-.177.33v4.132a.689.689,0,0,1,0,.228c-.051.127-.583.2-.735.253a11.5,11.5,0,0,1-1.343.3,13.43,13.43,0,0,1-2.662.177A7.273,7.273,0,0,1,2.181,23.3,5.337,5.337,0,0,1,.2,20.236,7.461,7.461,0,0,1-.1,17.98Zm11.686-2.307c0-.051-.025-.253,0-.279s.051,0,.076-.025a1.8,1.8,0,0,1,.532-.1c.583-.1,1.166-.2,1.774-.3.456-.076.913-.177,1.343-.228a.739.739,0,0,1,.406.025c.127.025.076,0,.1.1a6.11,6.11,0,0,1,0,.963v5.3c0,.634-.177,1.8.431,2.18a1.472,1.472,0,0,0,1.09.127c.279-.051.811-.253.913-.558a.85.85,0,0,0,0-.253v-6.21a.85.85,0,0,0,0-.253,1.414,1.414,0,0,0-.406-.177c-.152-.051-.279-.127-.431-.177-.051-.025-.228-.051-.253-.1a.521.521,0,0,1,0-.279c.025-.025.025,0,.051-.025a1.592,1.592,0,0,1,.482-.076c1.039-.177,2.1-.406,3.169-.558a.96.96,0,0,1,.38,0c.127.025.076-.025.1.1a5.182,5.182,0,0,1,0,.887v7.3a1.217,1.217,0,0,0,0,.3c.025.076,0,.051.127.1.253.1.532.228.786.33.076.025.1.025.127.076s.025.228,0,.228c-.051.051-.3.025-.355.051-.558.076-1.115.127-1.7.2-.507.051-1.014.127-1.5.177a.618.618,0,0,1-.3,0,.629.629,0,0,1-.228-.025,1.222,1.222,0,0,1,0-.3V23.76c0-.076.051-.279,0-.355s-.152.025-.228.076a4.224,4.224,0,0,1-3.5,1.014,2.2,2.2,0,0,1-1.622-1.242,3.523,3.523,0,0,1-.279-1.521V16.409a.85.85,0,0,0,0-.253c-.051-.076-.355-.152-.431-.2C11.991,15.851,11.788,15.775,11.586,15.673Zm23.9-.963c.051,0,.279,0,.3.051.025.025,0,.2,0,.228V17.22a1.027,1.027,0,0,0,0,.279v.051c.1.1.127-.228.152-.253a3.223,3.223,0,0,1,1.622-2.408,2.032,2.032,0,0,1,.532-.127c.152,0,.583-.051.659.076a.689.689,0,0,1,0,.228v2.586a4.669,4.669,0,0,0-1.876.025,2.85,2.85,0,0,0-.786.253c-.127.051-.152.025-.177.127a1.906,1.906,0,0,0,0,.38v4.892c0,.051-.025.127,0,.177.051.076.228.127.3.152.127.076.279.152.406.228.051.025.127.051.152.1a.838.838,0,0,1,0,.355c-.025.025-.177,0-.228,0H32.346a1.376,1.376,0,0,1-.456,0h-.076a1.433,1.433,0,0,1,0-.33c.051-.152.38-.253.532-.33.1-.051.3-.127.355-.228a.849.849,0,0,0,0-.253V16.155c0-.025.025-.152,0-.177a.478.478,0,0,0-.2-.051,3.064,3.064,0,0,0-.456-.127c-.152-.051-.532-.076-.406-.33.025-.076.127-.051.228-.076,1.115-.2,2.205-.406,3.321-.608a1.337,1.337,0,0,1,.3-.076Zm9.556.228V12.328a1.221,1.221,0,0,0,0-.3c-.025-.051-.127-.076-.2-.1-.2-.076-.406-.152-.634-.228-.152-.051-.228-.025-.228-.2,0-.152-.025-.1.1-.127a5.414,5.414,0,0,1,.887-.152c.836-.152,1.648-.3,2.484-.456a1.9,1.9,0,0,1,.532-.051c.2.025.228-.025.228.152.025.406,0,.836,0,1.242V23.2c0,.1-.025.1.051.152a2.472,2.472,0,0,0,.558.2c.1.025.38.076.431.152a.723.723,0,0,1,0,.33.558.558,0,0,1-.2.025c-.355.051-.684.1-1.039.127-.786.1-1.572.2-2.383.3-.127.025-.431.076-.482-.025a1.873,1.873,0,0,1,0-.532c0-.076.051-.406,0-.456s-.608.456-.684.507a3.509,3.509,0,0,1-.989.456,3.71,3.71,0,0,1-1.749.025c-2.433-.558-2.94-3.447-2.738-5.551A5.071,5.071,0,0,1,40.2,15.876a4.1,4.1,0,0,1,2.662-1.191,4.511,4.511,0,0,1,2.18.253Zm0,8.086v-7.4c0-.152-.025-.177-.2-.279a1.412,1.412,0,0,0-1.191-.127,2.064,2.064,0,0,0-1.014,1.47,10.209,10.209,0,0,0-.3,3.169,5.762,5.762,0,0,0,.558,2.839A1.474,1.474,0,0,0,45.045,23.024Zm8.39-8.314c.127.025.279-.025.33.1a1.433,1.433,0,0,1,0,.33v7.934a1.66,1.66,0,0,0,0,.355c.025.1.127.127.228.177.152.076.279.152.431.228.051.025.2.076.228.152a1.661,1.661,0,0,1,0,.355h-.076a3.726,3.726,0,0,1-.532,0H50.191c-.1,0-.38.051-.456,0a.489.489,0,0,1-.025-.38c.051-.076.228-.127.3-.152.152-.076.3-.177.456-.253.127-.076.1-.051.1-.152a9.342,9.342,0,0,0,0-1.191V16.561a1.906,1.906,0,0,0,0-.38c-.025-.1-.152-.1-.253-.152-.177-.076-.33-.127-.507-.2-.051-.025-.253-.051-.3-.127a.618.618,0,0,1,0-.3c.025-.025.076,0,.1-.025a5.062,5.062,0,0,1,.659-.127c.33-.051.634-.127.963-.177.634-.1,1.242-.228,1.876-.33a.7.7,0,0,0,.33-.025Zm.355-2.357a1.73,1.73,0,0,1-3.042.989,1.639,1.639,0,0,1-.076-1.9,1.7,1.7,0,0,1,1.8-.684A1.629,1.629,0,0,1,53.79,12.353Zm11.1,11.128V16.206c0-.025.025-.152,0-.177-.025-.051-.177-.076-.228-.076l-.456-.152c-.076-.025-.279-.051-.33-.127-.051-.051-.025-.177-.025-.253,0-.152.051-.127.2-.152l1.673-.3,1.673-.3a1.078,1.078,0,0,1,.279-.051,1.674,1.674,0,0,1,.355.025c.025.025,0,.177,0,.228v.482c0,.076-.051.3,0,.38.051.1.152,0,.228-.076a4.221,4.221,0,0,1,.71-.456,4.89,4.89,0,0,1,3.042-.583,1.828,1.828,0,0,1,1.546,1.166,4.27,4.27,0,0,1,.2,1.5V23.05a1.9,1.9,0,0,0,0,.38c.025.1.1.127.228.177.127.076.279.152.406.228.051.025.228.076.253.152a.721.721,0,0,1,0,.33c-.025.051.025,0-.051.025a1.376,1.376,0,0,1-.456,0H70.52c-.152,0-.735.076-.811-.025a.835.835,0,0,1,0-.355c.025-.051.177-.1.228-.127.152-.076.279-.152.431-.228.051-.025.2-.076.228-.127s0-.152,0-.2V17.524a2.025,2.025,0,0,0-.228-1.217,1.109,1.109,0,0,0-.913-.406,2.674,2.674,0,0,0-.786.1c-.127.051-.507.152-.583.3-.025.051,0,.152,0,.2v6.565a1.432,1.432,0,0,0,0,.33c.025.1.177.127.253.177.127.076.279.152.406.228a1.1,1.1,0,0,1,.177.1.837.837,0,0,1,0,.355c0,.025-.025,0-.051,0a1.378,1.378,0,0,1-.456,0H64.158c-.127,0-.152.025-.177-.051a.723.723,0,0,1,0-.33c.025-.051.177-.1.228-.127A1.779,1.779,0,0,0,64.893,23.481Zm-5.374-4.664c0-.659.025-1.343-.025-2.028-.076-.735-.279-1.546-1.115-1.7-.253-.051-.71-.127-.887.076a5.753,5.753,0,0,0-.456.634l-1.293,1.749c-.076.1-.152.3-.253.355a.518.518,0,0,1-.279,0c-.025-.025,0-.2,0-.253V15.6a1.027,1.027,0,0,1,0-.279c.051-.127.608-.2.735-.253a12.613,12.613,0,0,1,2.18-.355,6.427,6.427,0,0,1,3.169.406,2.329,2.329,0,0,1,1.369,1.8,7.073,7.073,0,0,1,.051,1.267v5.07c0,.076-.051.279,0,.33a.47.47,0,0,0,.177.051c.2.051.38.1.583.152.127.025.152.025.152.152s.025.127-.127.177a4.571,4.571,0,0,1-.532.2c-.938.279-2.408.355-3.092-.507-.051-.076-.2-.406-.279-.431-.1-.025-.406.38-.507.456a2.847,2.847,0,0,1-1.47.634,2.706,2.706,0,0,1-2.662-.938,2.889,2.889,0,0,1-.228-2.687c.684-1.546,2.712-1.7,4.182-1.952.177,0,.38-.051.608-.076Zm0,4.208V19.273c-.76.051-1.546.1-1.825.938a3.929,3.929,0,0,0-.127,1.8,1.577,1.577,0,0,0,.532,1.166,1.148,1.148,0,0,0,1.419-.152ZM27.428,18.817c0-.659.025-1.343-.025-2.028-.076-.735-.279-1.546-1.115-1.7-.253-.051-.71-.127-.887.076a5.752,5.752,0,0,0-.456.634l-1.293,1.749c-.076.1-.152.3-.253.355a.518.518,0,0,1-.279,0c-.025-.025,0-.2,0-.253V15.623a1.027,1.027,0,0,1,0-.279c.051-.127.583-.2.735-.253a12.733,12.733,0,0,1,2.155-.355,6.427,6.427,0,0,1,3.169.406,2.329,2.329,0,0,1,1.369,1.8,7.072,7.072,0,0,1,.051,1.267v5.07c0,.076-.051.279,0,.33a.47.47,0,0,0,.177.051c.2.051.38.1.583.152.127.025.152.025.152.152s.025.127-.127.177a4.57,4.57,0,0,1-.532.2c-.938.279-2.408.355-3.092-.507-.051-.076-.2-.406-.279-.431-.1-.025-.406.38-.482.456a2.847,2.847,0,0,1-1.47.634,2.706,2.706,0,0,1-2.662-.938,2.889,2.889,0,0,1-.228-2.687c.684-1.546,2.712-1.7,4.157-1.952.2-.025.406-.076.634-.1Zm0,4.208V19.273c-.76.051-1.546.1-1.825.938a3.929,3.929,0,0,0-.127,1.8,1.577,1.577,0,0,0,.532,1.166A1.148,1.148,0,0,0,27.428,23.024Z" transform="translate(-10678.767 7.154)"/><path class="c" d="M14.577,18.649H9.049a8.857,8.857,0,0,1-6.4-2.731A9.409,9.409,0,0,1,0,9.325,9.409,9.409,0,0,1,2.65,2.731,8.857,8.857,0,0,1,9.049,0h3.016V2.22H9.049a7.01,7.01,0,0,0-6.894,7.1,7.01,7.01,0,0,0,6.894,7.1h5.528a1.389,1.389,0,0,0,1.366-1.408V3.629a.527.527,0,0,1,.148-.367.5.5,0,0,1,.356-.152.5.5,0,0,1,.436.259l6.851,12.354a1.364,1.364,0,0,0,.829.656,1.348,1.348,0,0,0,.357.049,1.33,1.33,0,0,0,.68-.189,1.423,1.423,0,0,0,.684-1.218V3.629a.521.521,0,0,1,.148-.367.493.493,0,0,1,.356-.152.5.5,0,0,1,.436.259l6.853,12.354a1.362,1.362,0,0,0,.829.656,1.324,1.324,0,0,0,1.036-.14,1.424,1.424,0,0,0,.684-1.218V0h2.154V15.021a3.58,3.58,0,0,1-3.521,3.624A3.516,3.516,0,0,1,32.2,16.82l-3.766-6.789v4.991a3.581,3.581,0,0,1-3.522,3.624,3.512,3.512,0,0,1-3.054-1.825L18.1,10.031v4.991A3.579,3.579,0,0,1,14.577,18.649Zm0-3.108H9.049A6.133,6.133,0,0,1,3.016,9.325,6.133,6.133,0,0,1,9.049,3.108h3.016v2.22H9.049a3.943,3.943,0,0,0-3.878,4,3.943,3.943,0,0,0,3.878,4h3.374a.513.513,0,0,0,.5-.52V3.628A3.579,3.579,0,0,1,16.446,0h0A3.51,3.51,0,0,1,19.5,1.83l3.766,6.789V3.628A3.58,3.58,0,0,1,26.788,0h0a3.51,3.51,0,0,1,3.05,1.825l3.766,6.789V0h2.154V15.021a.523.523,0,0,1-.252.449.491.491,0,0,1-.383.052.5.5,0,0,1-.305-.241L27.971,2.927a1.361,1.361,0,0,0-1.18-.7,1.344,1.344,0,0,0-.967.41,1.422,1.422,0,0,0-.4,1V15.021a.524.524,0,0,1-.252.449.5.5,0,0,1-.252.07.5.5,0,0,1-.436-.259L17.63,2.927a1.361,1.361,0,0,0-1.181-.7,1.341,1.341,0,0,0-.967.41,1.422,1.422,0,0,0-.4,1V15.021A.513.513,0,0,1,14.577,15.541Z" transform="translate(-10767.646 10.149)"/><g transform="translate(-10882 10.149)"><path class="a" d="M34.867,11.853c0,1.993-2.48,1.875-2.48,1.875h-2.48v-3.6h2.48c2.554-.014,2.48,1.727,2.48,1.727m-4.96-7.218H31.8c1.963.1,1.889,1.564,1.889,1.564,0,1.816-2.169,1.845-2.169,1.845H29.907Zm4.5,4.118a2.928,2.928,0,0,0,1.683-2.642s.258-3.144-3.908-3.528H27.56V15.765h5.3s4.428.015,4.428-3.72A3.42,3.42,0,0,0,34.41,8.754M22.445,0H41.908V18.341H22.445ZM12.422,11.853c0,1.993-2.48,1.875-2.48,1.875H7.462v-3.6h2.48c2.554-.014,2.48,1.727,2.48,1.727M7.462,4.635h1.89c1.963.1,1.889,1.564,1.889,1.564,0,1.816-2.17,1.845-2.17,1.845H7.462V4.635Zm4.5,4.118a2.928,2.928,0,0,0,1.683-2.642s.258-3.144-3.908-3.528H5.115V15.765h5.3s4.428.015,4.428-3.72a3.42,3.42,0,0,0-2.878-3.292M0,0H19.464V18.341H0ZM60.383,3.528V5.964a11.11,11.11,0,0,0-5-1.491s-4.9-.1-5.122,4.7c0,0-.177,4.41,5.063,4.661A8.621,8.621,0,0,0,60.5,12.193v2.525a10.512,10.512,0,0,1-8.636.546,6.675,6.675,0,0,1-4.045-6.093,6.715,6.715,0,0,1,5.034-6.4,9.333,9.333,0,0,1,3.882-.3,14.1,14.1,0,0,1,3.646,1.048M44.89,18.341H64.354V0H44.89Z" transform="translate(0 0)"/></g><g transform="translate(-11026.772 12.537)"><path class="a" d="M14.189,7.094A7.095,7.095,0,1,1,7.094,0a7.094,7.094,0,0,1,7.1,7.094"/><path class="a" d="M31.831,11.578a1.648,1.648,0,0,1-1.74-1.889V3.571H27.323v6.1c0,2.68,1.636,4.211,4.508,4.211s4.508-1.531,4.508-4.211v-6.1H33.571V9.69a1.648,1.648,0,0,1-1.74,1.889Zm0,0" transform="translate(-11.011 -1.439)"/><path class="a" d="M47.685,13.754c2.426,0,4.018-1.294,4.018-3.214,0-1.37-.819-2.426-2.993-3.021l-.759-.209c-1.085-.3-1.487-.623-1.487-1.1,0-.506.446-.788,1.234-.788a4.481,4.481,0,0,1,2.7,1.145l1.382-1.74a6.113,6.113,0,0,0-4.09-1.579c-2.338,0-3.973,1.265-3.973,3.214,0,1.5.981,2.487,2.8,2.961l.626.165c1.354.357,1.816.626,1.816,1.161,0,.55-.478.832-1.281.832a4.357,4.357,0,0,1-2.977-1.145l-1.338,1.683a6.36,6.36,0,0,0,4.331,1.636Zm0,0" transform="translate(-17.472 -1.309)"/><path class="a" d="M65.3,13.691h2.816L64.407,3.571H61.193l-3.7,10.12h2.736l.642-1.889H64.66ZM61.566,9.747l1.205-3.54,1.189,3.54Zm0,0" transform="translate(-23.168 -1.439)"/><path class="a" d="M82.2,13.691h2.768V5.8H87.98V3.571H79.2V5.8H82.2Zm0,0" transform="translate(-31.918 -1.439)"/><path class="a" d="M99.047,13.754A5.052,5.052,0,0,0,104.3,8.515a5.253,5.253,0,1,0-10.506,0A5.053,5.053,0,0,0,99.047,13.754Zm0-2.29c-1.443,0-2.442-1.193-2.442-2.948s1-2.974,2.442-2.974,2.439,1.218,2.439,2.974S100.489,11.464,99.047,11.464Zm0,0" transform="translate(-37.799 -1.309)"/><path class="a" d="M112.994,13.691h3.986A4.885,4.885,0,0,0,122.1,8.633a4.886,4.886,0,0,0-5.122-5.062h-3.986Zm2.724-2.186V5.76h1.262c1.458,0,2.354,1.145,2.354,2.872s-.9,2.872-2.354,2.872Zm0,0" transform="translate(-45.537 -1.439)"/><path class="a" d="M135.205,13.691h2.816l-3.707-10.12H131.1l-3.7,10.12h2.736l.642-1.889h3.793Zm-3.733-3.945,1.205-3.54,1.189,3.54Zm0,0" transform="translate(-51.341 -1.439)"/><path class="a" d="M148.426,10.047l3.584-6.476h-3.122l-1.86,4.018-1.876-4.018h-3.126l3.587,6.476v3.644h2.812Zm0,0" transform="translate(-57.238 -1.439)"/></g><path class="a" d="M10.459,2.295C10.459.779,9.019.4,7.882.4V.627c.682,0,1.213.227,1.213.758a.8.8,0,0,1-.91.758,9.821,9.821,0,0,1-2.5-.606A8.056,8.056,0,0,0,3.032.855,2.479,2.479,0,0,0,.455,3.28,1.757,1.757,0,0,0,1.592,4.948L1.667,4.8a.908.908,0,0,1-.379-.758A.959.959,0,0,1,2.35,3.2a11.2,11.2,0,0,1,2.8.682,21.418,21.418,0,0,0,2.8.606v2.35l-1.137.985V7.9l1.137.985v3.259a3.5,3.5,0,0,1-1.895.455A3.736,3.736,0,0,1,3.107,11.39L6.215,9.874V4.644L2.425,6.312A3.869,3.869,0,0,1,4.4,4.19L4.32,3.962A5.752,5.752,0,0,0,0,9.268a5.32,5.32,0,0,0,5.305,5.305,4.931,4.931,0,0,0,5-4.927h-.152A5.076,5.076,0,0,1,8.186,12V8.889L9.4,7.9V7.828L8.186,6.842V4.493a2.166,2.166,0,0,0,2.274-2.2ZM3.865,10.632l-.91.455a4.5,4.5,0,0,1-.834-2.88,5.415,5.415,0,0,1,.152-1.592l1.592-.682ZM11.9,12.375l-.985.758.152.152.455-.379,1.667,1.516,2.274-1.516-.076-.152-.606.379-.758-.758V7.221l.606-.455,1.288,1.061v4.623c0,2.88-.606,3.335-1.895,3.79v.227c2.122.076,4.093-.606,4.093-4.32v-5l.682-.531-.152-.152-.606.455L16.144,5.327,14.022,6.918V.7H13.87L11.217,2.522v.152a1.068,1.068,0,0,1,.758,1.137L11.9,12.375Zm13.87-.834-1.895,1.44L21.98,11.466v-.91l3.562-2.425V8.055L23.723,5.327,19.782,7.449v5l-.758.606.152.152.682-.531,2.577,1.895,3.411-2.729-.076-.3Zm-3.79-1.288V6.539l.152-.076L23.8,9.116,21.98,10.253Zm18.266-8.64a2.213,2.213,0,0,0-.152-.682h-.152a1.184,1.184,0,0,1-1.288.91,2,2,0,0,1-1.44-.682l-2.2,2.5.152.152.758-.682a2.765,2.765,0,0,0,1.895.758v6.291L33.349,2.522a2.387,2.387,0,0,0-1.971-1.44,2.277,2.277,0,0,0-2.122,2.729h.227c.076-.455.3-.985.834-.985.379,0,.758.379.985.758v2.5c-1.364,0-2.274.606-2.274,1.743a1.735,1.735,0,0,0,1.213,1.743V9.419a.688.688,0,0,1-.227-.531c0-.379.3-.682.834-.682h.379V11.39c-1.592,0-2.88.91-2.88,2.425,0,1.44,1.213,2.122,2.577,2.046V15.71c-.834-.076-1.213-.455-1.213-.985a.937.937,0,0,1,1.061-.985,2.059,2.059,0,0,1,1.516.834l2.2-2.425L34.334,12,33.8,12.6a3.64,3.64,0,0,0-2.274-1.137V3.886L37.593,14.5h.455V3.886A2.319,2.319,0,0,0,40.246,1.613Zm5.533,9.929-1.895,1.44-1.895-1.516v-.91l3.562-2.425V8.055L43.732,5.327,39.791,7.449v5l-.758.606.152.152.682-.531,2.577,1.895,3.411-2.729-.076-.3Zm-3.79-1.288V6.539l.152-.076,1.667,2.653-1.819,1.137ZM58.133,6.16l-.531.379-1.44-1.213L54.495,6.842l.682.682v5.684l-1.819-1.137v-4.7l.606-.379L52.221,5.327,50.554,6.842l.682.682v5.457l-.227.152L49.417,12V7.449A1.8,1.8,0,0,0,48.28,5.705c-.531-.379-.834-.606-.834-1.137,0-.455.455-.682.682-.834V3.583c-.606,0-2.2.606-2.2,2.046a1.812,1.812,0,0,0,.758,1.44,1.784,1.784,0,0,1,.758,1.364v4.4l-.834.606.152.152.758-.606L49.265,14.5l1.895-1.288L53.282,14.5l4.017-2.35V7.07l.985-.758-.152-.152Zm14.1-4.169-.758.682L69.8,1.158,67.3,2.977V1.31h-.227l.076,12.278a8.188,8.188,0,0,1-1.44-.3L65.561,3.053a1.8,1.8,0,0,0-1.895-1.819,2.2,2.2,0,0,0-2.274,2.122h.227c.076-.455.3-.834.758-.834s.834.3.834,1.288V6.767c-1.364.076-2.2.834-2.2,1.819,0,.606.3,1.516,1.213,1.516V9.95a.6.6,0,0,1-.379-.531c0-.455.379-.606.985-.606h.3v4.7a2.133,2.133,0,0,0-1.592,2.122,2.241,2.241,0,0,0,2.5,2.2,11.507,11.507,0,0,0,2.88-.379,16.76,16.76,0,0,1,2.2-.379c.606,0,.834.3.834.682,0,.531-.227.758-.531.834v.152A2.135,2.135,0,0,0,71.4,16.62c0-1.137-1.137-1.819-2.35-1.819a24.2,24.2,0,0,0-2.8.379,17.612,17.612,0,0,1-2.425.379c-.531,0-1.137-.227-1.137-.985,0-.606.531-1.137,1.819-1.137a9.086,9.086,0,0,1,2.35.3,10.961,10.961,0,0,0,2.5.455c1.137,0,2.122-.379,2.122-1.971V2.9l.91-.758-.152-.152ZM69.123,6.615a1.321,1.321,0,0,1-.91.455,1.181,1.181,0,0,1-.91-.455V3.28l.758-.531,1.061.985v2.88Zm0,2.274a1.281,1.281,0,0,0-1.819,0V6.918a1.281,1.281,0,0,0,1.819,0Zm0,3.562a1.151,1.151,0,0,1-1.213,1.213H67.3V9.192a1.448,1.448,0,0,1,.91-.379,1.664,1.664,0,0,1,.91.379v3.259ZM79.506,7.07,77.081,5.327,73.367,7.449v4.927l-.758.606.076.152.606-.455L75.717,14.5l3.79-2.274V7.07Zm-4.093,4.775V6.388l1.895,1.364v5.381l-1.895-1.288ZM86.707,5.478h-.152a1.362,1.362,0,0,1-.682.3,1.086,1.086,0,0,1-.834-.379h-.152L83.6,6.842,82.311,5.4,80.037,6.918l.076.152.606-.379.758.834V12.3l-.985.758.152.152.455-.379,1.819,1.516,2.35-1.592-.076-.152-.682.379-.91-.758V6.918a2.08,2.08,0,0,0,1.364.758c1.061.076,1.667-.985,1.743-2.2Zm9.1,7.276L93.225,14.5,89.738,9.192l2.5-3.865h.152a1.888,1.888,0,0,0,1.288.606,1.42,1.42,0,0,0,1.137-.606h.152a2.364,2.364,0,0,1-1.895,2.425,3.055,3.055,0,0,1-1.592-.606l-.227.379,3.79,5.609.758-.455Zm-8.337-.379-.985.758.152.152.455-.379,1.667,1.516,2.274-1.516-.152-.152-.606.379-.758-.758V.7h-.076L86.707,2.522v.152a1.007,1.007,0,0,1,.758,1.137v8.565Zm20.919-10.08c0-1.516-1.44-1.895-2.577-1.895V.627c.682,0,1.213.227,1.213.758a.8.8,0,0,1-.91.758,9.821,9.821,0,0,1-2.5-.606,10.062,10.062,0,0,0-2.653-.606,2.479,2.479,0,0,0-2.577,2.425,1.757,1.757,0,0,0,1.137,1.667l.076-.152a.8.8,0,0,1-.455-.758A.959.959,0,0,1,100.2,3.28a11.2,11.2,0,0,1,2.8.682,21.418,21.418,0,0,0,2.8.606v2.35L104.67,7.9v.076l1.137.985v3.259a3.5,3.5,0,0,1-1.895.455,3.736,3.736,0,0,1-2.956-1.213l3.108-1.516V4.644l-3.79,1.667a5.067,5.067,0,0,1,1.971-2.2l-.076-.152a5.663,5.663,0,0,0-4.32,5.23,5.32,5.32,0,0,0,5.305,5.305,4.931,4.931,0,0,0,5-4.927H108a5.076,5.076,0,0,1-1.971,2.35V8.813l1.213-.985V7.752l-1.137-.985V4.493A2.166,2.166,0,0,0,108.383,2.295Zm-6.594,8.337-.91.455a4.5,4.5,0,0,1-.834-2.88,5.386,5.386,0,0,1,.227-1.592l1.592-.682Zm9.247-9.1h-.076l-1.516,1.288V2.9l1.288,1.44h.152L112.4,3.053V2.977l-1.364-1.44Zm2.274,11.217-.606.379-.758-.758V7.146l.758-.531-.152-.152-.531.455-1.364-1.592-2.2,1.516.152.227.531-.379.682.834v4.927l-.985.758.076.152.531-.379,1.667,1.516,2.274-1.516-.076-.227Zm12.657-.076-.531.379L124.6,12.3V7.146l.758-.606-.152-.152-.606.531L122.86,5.327l-2.274,1.592-1.743-1.592-2.122,1.592-1.364-1.592-2.2,1.516.076.227.531-.379.758.834v4.927l-.606.606,1.743,1.44,1.667-1.516-.682-.682V7.146l.682-.455,1.137,1.061V12.3l-.606.606,1.743,1.44,1.667-1.516-.682-.682v-5l.606-.379L122.4,7.828v4.548l-.531.531,1.743,1.592,2.35-1.592v-.227Zm6.594-1.137-1.895,1.44-1.895-1.516v-.91l3.562-2.425V8.055l-1.819-2.729-3.941,2.122V12.6l2.653,1.895,3.411-2.729Zm-3.79-1.288V6.539l.152-.076,1.667,2.653-1.819,1.137Zm10.687-.682-1.44-1.137a3.767,3.767,0,0,0,1.364-2.729V5.251h-.152a1.091,1.091,0,0,1-1.061.758,1.693,1.693,0,0,1-1.364-.758l-3.411,1.895V9.874l1.288.985c-1.288,1.137-1.516,1.895-1.516,2.5a1.513,1.513,0,0,0,.985,1.516l.076-.152a.678.678,0,0,1-.3-.606c0-.227.3-.606.91-.606a2,2,0,0,1,1.44.758l3.259-1.971V9.571ZM138.625,7.3a8.308,8.308,0,0,1-2.35,2.274l-.834-.682V6.236A2.243,2.243,0,0,0,137.412,7.6,2.066,2.066,0,0,0,138.625,7.3Zm-1.288,6.063a2.515,2.515,0,0,0-2.2-1.44,2.645,2.645,0,0,0-1.44.379,8.457,8.457,0,0,1,2.653-2.425l.91.758Z" transform="translate(-11216.307 9.749)"/></g></svg>