<svg xmlns="http://www.w3.org/2000/svg" xmlns:xlink="http://www.w3.org/1999/xlink" width="172.309" height="43" viewBox="0 0 172.309 43"><defs><style>.a{fill:#173a68;}.b{fill:#246aa8;}.c{fill:url(#a);}.d,.e{fill:#fff;}.d{opacity:0.6;}.f{fill:#37474f;}.g{fill:#78909c;}</style><linearGradient id="a" x1="0.953" y1="0.298" x2="0.455" y2="0.473" gradientUnits="objectBoundingBox"><stop offset="0.03" stop-color="#fff" stop-opacity="0.302"/><stop offset="0.9" stop-color="#246aa8" stop-opacity="0"/></linearGradient></defs><path class="a" d="M34.316,14.275v3.1c0,.121-.044.442-.07.649a1.751,1.751,0,0,1-.07.5.353.353,0,0,1,0,.1,3.033,3.033,0,0,1-.087.563c-.035.182-.07.476-.113.71s-.061.329-.1.493l-.078.424c-.078.355-.157.71-.244,1.065l-.1.416v.1l-.122.433q-.087.364-.209.727a1.379,1.379,0,0,1-.122.381c-.131.424-.27.866-.426,1.255l-.131.355c-.226.6-.47,1.195-.731,1.731l-.252.545c-.157.338-.322.675-.5,1l-.174.338c-.078.156-.165.3-.244.45l-.27.476-.209.355h0v.078l-.226.364c-.07.121-.148.242-.226.355a2.189,2.189,0,0,1-.113.19c-.07.1-.131.2-.2.3l-.2.294a32.254,32.254,0,0,1-1.966,2.6A32.222,32.222,0,0,1,17.4,42.5a32.17,32.17,0,0,1-9.98-7.765l-.235-.286a32.245,32.245,0,0,1-2.741-3.913c-.165-.286-.331-.571-.487-.866A31.73,31.73,0,0,1,.3,18.7c-.113-.788-.191-1.593-.244-2.4C0,15.635,0,14.959,0,14.275a31.01,31.01,0,0,1,.157-3.134,2.168,2.168,0,0,1,.061-.623V10.2c.157-.935.322-1.853.513-2.762A2.321,2.321,0,0,1,1.9,5.9,131.22,131.22,0,0,1,15.174.355a5.717,5.717,0,0,1,3.967,0A132.908,132.908,0,0,1,32.419,5.9a2.287,2.287,0,0,1,1.157,1.532l.131.632c.122.623.235,1.255.322,1.9v.407a7.732,7.732,0,0,0,.087.77v2.251a.792.792,0,0,1,0,.139V13.9Z" transform="translate(0 0)"/><path class="b" d="M36.914,14.275v3.1c0,.121-.044.442-.07.649a1.751,1.751,0,0,1-.07.5.353.353,0,0,1,0,.1,3.033,3.033,0,0,1-.087.563c-.035.182-.07.476-.113.71s-.061.329-.1.493l-.078.424c-.078.355-.157.71-.244,1.065l-.1.416v.1l-.122.433q-.087.364-.209.727a1.379,1.379,0,0,1-.122.381c-.131.424-.27.866-.426,1.255l-.131.355c-.226.6-.47,1.195-.731,1.731l-.252.545c-.157.338-.322.675-.5,1l-.174.338c-.078.156-.165.3-.244.45l-.27.476-.209.355h0v.078l-.226.364c-.07.121-.148.242-.226.355a2.189,2.189,0,0,1-.113.19c-.07.1-.131.2-.2.3l-.2.294A32.626,32.626,0,0,1,20,42.5V0a5.811,5.811,0,0,1,1.74.355A132.908,132.908,0,0,1,35.017,5.9a2.287,2.287,0,0,1,1.157,1.532l.131.632c.122.623.235,1.255.322,1.9v.407a7.732,7.732,0,0,0,.087.77v2.251a.792.792,0,0,1,0,.139V13.9Z" transform="translate(-2.599 0)"/><path class="c" d="M36.85,13.551v2.6a4.308,4.308,0,0,1-.052.485v.381a.172.172,0,0,0,0,.061,1.007,1.007,0,0,1-.061.424c-.061.139-.244.32-.244.528a.64.64,0,0,1-.061.372c-.061.121,0,.208-.061.312-.052.268-.122.537-.183.805l-.078.3V19.9l-.078.32c-.052.19-.1.372-.165.545s-.052.19-.087.286c-.1.312-.209.632-.313.944a.9.9,0,0,1-.1.26c-.174.45-.348.866-.548,1.316l-.183.416c-.1.216-.209.433-.313.632L26.4,3.76a91.538,91.538,0,0,1,9.031,3.826,1.732,1.732,0,0,1,.87,1.143,2.972,2.972,0,0,0,.1.467c.1.467.174.944.235,1.42l.043.3a1.883,1.883,0,0,0,.061.58v1.783A.31.31,0,0,1,36.85,13.551Z" transform="translate(-3.43 -0.505)"/><path class="d" d="M17.288,34.143,5.107,23.261,6.847,33.65c-.531-.727-1.027-1.489-1.479-2.259-.165-.277-.322-.563-.479-.866A30.652,30.652,0,0,1,1.3,19.824q-.174-1.169-.235-2.337A18.869,18.869,0,0,1,1,15.513,29.657,29.657,0,0,1,1.157,12.5a2.436,2.436,0,0,1,.07-.675v-.242c.1-.762.226-1.532.392-2.3L17.279,25.728Z" transform="translate(-0.13 -1.246)"/><path class="e" d="M19.72,34.143l12.225-10.9L30.2,33.632c.531-.727,1.027-1.489,1.479-2.259.165-.277.322-.563.479-.866a30.652,30.652,0,0,0,3.55-10.665q.165-1.169.235-2.337c0-.667.07-1.333.07-1.974a29.657,29.657,0,0,0-.165-3.03,2.436,2.436,0,0,0-.07-.675v-.242c-.1-.762-.226-1.532-.392-2.3L19.729,25.728Z" transform="translate(-2.562 -1.246)"/><path class="f" d="M57.358,16.566l-3.524,9.895L50.31,16.566H46.83l5.481,14.223h3.037l5.5-14.249Z" transform="translate(-6.084 -2.221)"/><path class="f" d="M78.138,20.014a6.265,6.265,0,0,0-2.166-2.692,6.781,6.781,0,0,0-6.369-.416,8.573,8.573,0,0,0-1.4.935l-.383-1.316H65V37.683h3.48V29.892a6.49,6.49,0,0,0,1.209.7,6.879,6.879,0,0,0,2.715.45,5.973,5.973,0,0,0,3.541-1.013,6.213,6.213,0,0,0,2.166-2.692,8.819,8.819,0,0,0,.026-7.324ZM74.362,26.94a2.832,2.832,0,0,1-2.471,1.221,3.123,3.123,0,0,1-3.184-2.138,6.816,6.816,0,0,1-.365-2.329,6.894,6.894,0,0,1,.365-2.337,3.256,3.256,0,0,1,1.166-1.567,3.336,3.336,0,0,1,2.019-.571,2.85,2.85,0,0,1,2.471,1.238,5.485,5.485,0,0,1,.87,3.238,5.485,5.485,0,0,1-.87,3.22Z" transform="translate(-8.445 -2.189)"/><path class="f" d="M95.082,18.127a4.031,4.031,0,0,0-.392-.459A4.869,4.869,0,0,0,91,16.309a5.907,5.907,0,0,0-2.61.554,9.9,9.9,0,0,0-1.2.693l-.061-1.022H83.78V30.757h3.559V20.473a5.018,5.018,0,0,1,.7-.667,3.24,3.24,0,0,1,2.027-.589,2.494,2.494,0,0,1,2.175.952,5.3,5.3,0,0,1,.661,2.952v7.635h3.515V22.836a7.762,7.762,0,0,0-1.331-4.709Z" transform="translate(-10.885 -2.189)"/><path class="g" d="M83.78,45.831V39.07H84.7v6.761Zm3.532,0-2.471-3.584,2.515-3.177h1.122l-2.61,3.16,2.61,3.6Z" transform="translate(-10.885 -5.247)"/><path class="g" d="M91.745,46.237a2.743,2.743,0,0,1-1.41-.346,2.36,2.36,0,0,1-.87-.909,2.647,2.647,0,0,1-.3-1.255,2.7,2.7,0,0,1,.278-1.212,2.212,2.212,0,0,1,.792-.866,2.561,2.561,0,0,1,2.323-.1,1.736,1.736,0,0,1,.722.684,2.018,2.018,0,0,1,.27,1.082c0,.069,0,.147,0,.225v.242h-3.48a2.182,2.182,0,0,0,.313,1.022,1.46,1.46,0,0,0,.635.519,2.421,2.421,0,0,0,.87.147,3.27,3.27,0,0,0,.7-.069,3.074,3.074,0,0,0,.679-.208l.113.684a5.877,5.877,0,0,1-.679.242,2.9,2.9,0,0,1-.957.113Zm-1.6-3.065H92.65a1.216,1.216,0,0,0-.13-.58.816.816,0,0,0-.383-.381,1.459,1.459,0,0,0-.653-.13,1.283,1.283,0,0,0-.87.286,1.574,1.574,0,0,0-.47.805Z" transform="translate(-11.586 -5.549)"/><path class="g" d="M97.464,46.237a2.752,2.752,0,0,1-1.418-.346,2.273,2.273,0,0,1-.87-.909,2.647,2.647,0,0,1-.3-1.255,2.69,2.69,0,0,1,.27-1.212,2.238,2.238,0,0,1,.8-.866,2.341,2.341,0,0,1,1.262-.329,2.3,2.3,0,0,1,1.053.234,1.737,1.737,0,0,1,.731.684,2.1,2.1,0,0,1,.261,1.082,2.028,2.028,0,0,1,0,.225,1.214,1.214,0,0,1,0,.242h-3.48a2.088,2.088,0,0,0,.322,1.022,1.417,1.417,0,0,0,.635.519,2.351,2.351,0,0,0,.87.147,3.191,3.191,0,0,0,.687-.069,2.812,2.812,0,0,0,.679-.208l.122.684a5.876,5.876,0,0,1-.679.242,2.946,2.946,0,0,1-.948.113Zm-1.61-3.065H98.36a1.215,1.215,0,0,0-.122-.58.868.868,0,0,0-.383-.381,1.477,1.477,0,0,0-.661-.13,1.292,1.292,0,0,0-.87.286,1.643,1.643,0,0,0-.47.805Z" transform="translate(-12.327 -5.549)"/><path class="g" d="M100.94,48.468V41.4h.679l.157,1.082-.244-.173a2.4,2.4,0,0,1,.74-.736,2.131,2.131,0,0,1,1.088-.268,1.9,1.9,0,0,1,1.114.329,2.132,2.132,0,0,1,.713.866,3.043,3.043,0,0,1,.252,1.247,3.189,3.189,0,0,1-.235,1.247,2.1,2.1,0,0,1-.7.866,1.939,1.939,0,0,1-1.148.329,2.219,2.219,0,0,1-1.027-.242,1.336,1.336,0,0,1-.661-.7l.139-.173v3.35Zm2.253-3.013a1.212,1.212,0,0,0,.992-.442,2.353,2.353,0,0,0,0-2.493,1.212,1.212,0,0,0-.992-.442,1.468,1.468,0,0,0-.722.182,1.353,1.353,0,0,0-.513.563,2.026,2.026,0,0,0-.191.944,2.1,2.1,0,0,0,.191.97,1.362,1.362,0,0,0,.513.545A1.555,1.555,0,0,0,103.193,45.455Z" transform="translate(-13.115 -5.546)"/><path class="g" d="M107.15,40.04v-.97h.87v.97Zm0,5.792V41.1h.87v4.735Z" transform="translate(-13.922 -5.247)"/><path class="g" d="M109.52,46.129V41.394h.679l.174.909-.339-.139a2.5,2.5,0,0,1,.94-.7,2.814,2.814,0,0,1,.87-.164,1.745,1.745,0,0,1,1.5.6,2.7,2.7,0,0,1,.444,1.628v2.6h-.87v-2.6a1.725,1.725,0,0,0-.278-1.1,1.178,1.178,0,0,0-.966-.346,1.878,1.878,0,0,0-.87.208,1.031,1.031,0,0,0-.531.667l.113-.528v3.705Z" transform="translate(-14.23 -5.545)"/><path class="g" d="M117.662,48.546a4.039,4.039,0,0,1-1.166-.156,1.742,1.742,0,0,1-.8-.476,1.079,1.079,0,0,1-.3-.779,1.018,1.018,0,0,1,.218-.658,1.557,1.557,0,0,1,.609-.45,1.035,1.035,0,0,1-.348-.26.552.552,0,0,1-.122-.338.621.621,0,0,1,.139-.4.87.87,0,0,1,.426-.286,1.613,1.613,0,0,1-.609-.667,1.949,1.949,0,0,1-.218-.935,1.914,1.914,0,0,1,.235-.935,1.736,1.736,0,0,1,.67-.658,2.14,2.14,0,0,1,1.061-.251,1.973,1.973,0,0,1,1.166.372,1.867,1.867,0,0,1,.513-.208,2.325,2.325,0,0,1,.67-.087h.078l-.113.58h-.444a1.748,1.748,0,0,0-.322.052,1.65,1.65,0,0,1,.418,1.117,1.974,1.974,0,0,1-.235.97,1.736,1.736,0,0,1-.679.675,2.036,2.036,0,0,1-1.053.251h-.339l-.3-.069c-.148.052-.226.13-.226.251a.234.234,0,0,0,.131.19,1.092,1.092,0,0,0,.409.121l1.27.2a2.618,2.618,0,0,1,1.192.45,1.089,1.089,0,0,1,.418.918,1.182,1.182,0,0,1-.287.814,1.811,1.811,0,0,1-.818.493,4.441,4.441,0,0,1-1.244.156Zm.078-.77a2.465,2.465,0,0,0,1.027-.173.537.537,0,0,0,.365-.5.467.467,0,0,0-.226-.407,1.746,1.746,0,0,0-.653-.234l-1.375-.225a1.48,1.48,0,0,0-.47.312.639.639,0,0,0-.2.459.615.615,0,0,0,.409.589,2.779,2.779,0,0,0,1.1.182Zm-.278-3.463a1.091,1.091,0,0,0,.87-.329,1.277,1.277,0,0,0,.287-.866,1.217,1.217,0,0,0-.287-.866,1.082,1.082,0,0,0-.87-.32,1.064,1.064,0,0,0-.87.32,1.217,1.217,0,0,0-.287.866,1.277,1.277,0,0,0,.287.866,1.064,1.064,0,0,0,.844.364Z" transform="translate(-14.993 -5.546)"/><path class="g" d="M125.427,45.831V42.905L123,39.07h1.044l2.027,3.281h-.435l2.027-3.281h1.044l-2.393,3.835v2.926Z" transform="translate(-15.981 -5.247)"/><path class="g" d="M131.248,46.241a2.35,2.35,0,0,1-1.279-.338,2.125,2.125,0,0,1-.8-.866,2.93,2.93,0,0,1,0-2.493,2.2,2.2,0,0,1,.8-.866,2.42,2.42,0,0,1,1.279-.329,2.367,2.367,0,0,1,1.27.329,2.168,2.168,0,0,1,.809.866,2.93,2.93,0,0,1,0,2.493,2.091,2.091,0,0,1-.809.866,2.3,2.3,0,0,1-1.27.338Zm0-.779a1.361,1.361,0,0,0,1.088-.442,2.224,2.224,0,0,0,0-2.493,1.563,1.563,0,0,0-2.175,0,2.224,2.224,0,0,0,0,2.493A1.361,1.361,0,0,0,131.248,45.462Z" transform="translate(-16.746 -5.553)"/><path class="g" d="M137.047,46.249a1.922,1.922,0,0,1-.948-.225,1.5,1.5,0,0,1-.6-.684,2.887,2.887,0,0,1-.209-1.177V41.41h.87v2.519a2.061,2.061,0,0,0,.261,1.143.924.924,0,0,0,.87.4,1.476,1.476,0,0,0,.748-.19,1.039,1.039,0,0,0,.479-.623l-.131.476V41.41h.87v4.735h-.783l-.174-.926.218.164a1.48,1.48,0,0,1-1.479.866Z" transform="translate(-17.578 -5.561)"/><path class="g" d="M145.825,45.908a7.055,7.055,0,0,1-.87-.061,6.066,6.066,0,0,1-.774-.164,4.688,4.688,0,0,1-.6-.208l.122-.978a5.934,5.934,0,0,0,.635.26,5.242,5.242,0,0,0,.809.225,4.188,4.188,0,0,0,.87.1,1.94,1.94,0,0,0,1.044-.242.813.813,0,0,0,.383-.744.966.966,0,0,0-.191-.623,1.462,1.462,0,0,0-.583-.416,8.163,8.163,0,0,0-.983-.355,5.734,5.734,0,0,1-1.027-.39,2,2,0,0,1-.757-.6,1.738,1.738,0,0,1,.827-2.606,3.312,3.312,0,0,1,1.323-.234,4.983,4.983,0,0,1,1.235.147,4.7,4.7,0,0,1,.922.32l-.1.978a4.283,4.283,0,0,0-1.053-.476,4.214,4.214,0,0,0-1.044-.139,2,2,0,0,0-.992.225.77.77,0,0,0-.392.727.863.863,0,0,0,.183.554,1.418,1.418,0,0,0,.513.364,6.461,6.461,0,0,0,.87.3,7.082,7.082,0,0,1,1.227.571,2.129,2.129,0,0,1,.783.667,1.725,1.725,0,0,1,.27.987,1.775,1.775,0,0,1-.165.788,1.456,1.456,0,0,1-.5.589,2.355,2.355,0,0,1-.827.381A4.626,4.626,0,0,1,145.825,45.908Z" transform="translate(-18.655 -5.22)"/><path class="g" d="M151.282,46.237a1.6,1.6,0,0,1-.774-.182,1.355,1.355,0,0,1-.5-.485,1.388,1.388,0,0,1-.183-.71,1.285,1.285,0,0,1,.174-.693,1.563,1.563,0,0,1,.479-.476,3.078,3.078,0,0,1,.661-.3,4.641,4.641,0,0,1,.766-.164,5.99,5.99,0,0,1,.766-.052,1.113,1.113,0,0,0-.27-.866,1.231,1.231,0,0,0-.774-.208,2.273,2.273,0,0,0-.566.078,2.223,2.223,0,0,0-.687.346l-.122-.71a2.38,2.38,0,0,1,.713-.355,3.033,3.033,0,0,1,.87-.139,2.01,2.01,0,0,1,.975.208,1.273,1.273,0,0,1,.539.71,4.412,4.412,0,0,1,.165,1.359v.909a3.444,3.444,0,0,0,0,.563.527.527,0,0,0,.148.329.515.515,0,0,0,.365.1h.087l-.139.7h-.07a2.116,2.116,0,0,1-.653-.087.731.731,0,0,1-.348-.234,1.461,1.461,0,0,1-.218-.381,2.226,2.226,0,0,1-.635.5A1.747,1.747,0,0,1,151.282,46.237Zm.165-.7a1.537,1.537,0,0,0,1.218-.641V43.77a5.115,5.115,0,0,0-1.122.139,1.22,1.22,0,0,0-.635.329.863.863,0,0,0-.2.571.665.665,0,0,0,.209.554A.768.768,0,0,0,151.447,45.536Z" transform="translate(-19.466 -5.549)"/><path class="g" d="M155.792,45.761V41.71H155l.122-.684h.7V39.909a1.458,1.458,0,0,1,.3-.97,1.291,1.291,0,0,1,1-.381,2.92,2.92,0,0,1,.426,0,1.651,1.651,0,0,1,.331.1l-.131.727-.235-.061a1.076,1.076,0,0,0-.252,0,.6.6,0,0,0-.444.164.716.716,0,0,0-.157.519v1.056h1.279v.684h-1.279V45.8Z" transform="translate(-20.139 -5.177)"/><path class="g" d="M161.354,46.234a2.752,2.752,0,0,1-1.418-.346,2.273,2.273,0,0,1-.87-.909,2.647,2.647,0,0,1-.3-1.255,2.811,2.811,0,0,1,.27-1.212A2.186,2.186,0,0,1,161.1,41.3a2.3,2.3,0,0,1,1.053.234,1.737,1.737,0,0,1,.731.684,2.1,2.1,0,0,1,.261,1.082v.467h-3.48a2.182,2.182,0,0,0,.313,1.022,1.417,1.417,0,0,0,.635.519,2.351,2.351,0,0,0,.87.147,3.191,3.191,0,0,0,.687-.069,2.812,2.812,0,0,0,.679-.208l.122.684a5.876,5.876,0,0,1-.679.242,2.9,2.9,0,0,1-.94.13Zm-1.6-3.065h2.506a1.216,1.216,0,0,0-.13-.58.868.868,0,0,0-.383-.381,1.459,1.459,0,0,0-.653-.13,1.283,1.283,0,0,0-.87.286,1.574,1.574,0,0,0-.47.805Z" transform="translate(-20.628 -5.546)"/><path class="g" d="M170.5,45.912a3.494,3.494,0,0,1-1.74-.433,3.046,3.046,0,0,1-1.192-1.221,4.309,4.309,0,0,1,0-3.731,3.159,3.159,0,0,1,1.192-1.186,3.662,3.662,0,0,1,3.48,0,3.158,3.158,0,0,1,1.192,1.221,4.214,4.214,0,0,1,0,3.731,3.046,3.046,0,0,1-1.192,1.221,3.442,3.442,0,0,1-1.74.4Zm0-.866A2.288,2.288,0,0,0,171.8,44.7a2.245,2.245,0,0,0,.792-.952,3.516,3.516,0,0,0,0-2.658,2.219,2.219,0,0,0-.792-.944,2.578,2.578,0,0,0-2.61,0,2.106,2.106,0,0,0-.792.944,3.447,3.447,0,0,0,0,2.658,2.123,2.123,0,0,0,.792.952A2.288,2.288,0,0,0,170.5,45.047Z" transform="translate(-21.716 -5.224)"/><path class="g" d="M175.86,46.129V41.394h.679l.174.909-.339-.139a2.5,2.5,0,0,1,.94-.7,2.77,2.77,0,0,1,.87-.164,1.745,1.745,0,0,1,1.5.6,2.7,2.7,0,0,1,.444,1.628v2.6h-.87v-2.6a1.725,1.725,0,0,0-.287-1.1,1.152,1.152,0,0,0-.957-.346,1.852,1.852,0,0,0-.87.208,1.031,1.031,0,0,0-.531.667l.1-.528v3.705Z" transform="translate(-22.849 -5.545)"/><path class="g" d="M183.317,45.86a1.38,1.38,0,0,1-.731-.173,1,1,0,0,1-.383-.424,1.3,1.3,0,0,1-.113-.545V38.51h.87v5.7a2.637,2.637,0,0,0,.052.606.373.373,0,0,0,.218.268,1.442,1.442,0,0,0,.5.069l-.122.7Z" transform="translate(-23.658 -5.172)"/><path class="g" d="M184.73,40.04v-.97h.87v.97Zm0,5.792V41.1h.87v4.735Z" transform="translate(-24.001 -5.247)"/><path class="g" d="M187.1,46.129V41.394h.679l.174.909-.339-.139a2.5,2.5,0,0,1,.94-.7,2.77,2.77,0,0,1,.87-.164,1.745,1.745,0,0,1,1.5.6,2.7,2.7,0,0,1,.444,1.628v2.6h-.87v-2.6a1.725,1.725,0,0,0-.287-1.1,1.152,1.152,0,0,0-.957-.346,1.852,1.852,0,0,0-.87.208,1.031,1.031,0,0,0-.531.667l.1-.528v3.705Z" transform="translate(-24.309 -5.545)"/><path class="g" d="M195.61,46.237a2.743,2.743,0,0,1-1.41-.346,2.36,2.36,0,0,1-.87-.909A2.751,2.751,0,0,1,193,43.727a2.7,2.7,0,0,1,.278-1.212,2.212,2.212,0,0,1,.792-.866,2.359,2.359,0,0,1,1.262-.329,2.333,2.333,0,0,1,1.061.234,1.737,1.737,0,0,1,.722.684,2.388,2.388,0,0,1,.261,1.307v.242H193.9a2.182,2.182,0,0,0,.313,1.022,1.46,1.46,0,0,0,.635.519,2.421,2.421,0,0,0,.87.147,3.27,3.27,0,0,0,.7-.069,3.074,3.074,0,0,0,.679-.208l.113.684a6.323,6.323,0,0,1-.67.242,3,3,0,0,1-.922.113Zm-1.6-3.065h2.471a1.216,1.216,0,0,0-.131-.58.816.816,0,0,0-.383-.381,1.433,1.433,0,0,0-.653-.13,1.283,1.283,0,0,0-.87.286,1.574,1.574,0,0,0-.47.805Z" transform="translate(-25.076 -5.549)"/><path class="b" d="M101,29.911,103.784,10h3l4.9,9.09L116.557,10h3.01l2.776,19.911h-3.811l-1.74-13.375-5.133,9.185-5.16-9.159-1.74,13.349Z" transform="translate(-13.123 -1.343)"/><path class="b" d="M134.452,31.078a8.247,8.247,0,0,1-4.35-1.039,6.585,6.585,0,0,1-2.61-2.736,8.463,8.463,0,0,1-.052-7.332,6.59,6.59,0,0,1,2.367-2.658,6.935,6.935,0,0,1,3.811-1,6.534,6.534,0,0,1,3.48.866,5.308,5.308,0,0,1,2.062,2.251,6.9,6.9,0,0,1,.687,3.1,8.612,8.612,0,0,1-.052.944,8.873,8.873,0,0,1-.174,1h-9.188a4.463,4.463,0,0,0,.87,2.138,3.834,3.834,0,0,0,1.557,1.212,5.244,5.244,0,0,0,1.923.346,7.973,7.973,0,0,0,2.323-.32,8.985,8.985,0,0,0,1.975-.866l.174,3a9.689,9.689,0,0,1-2.036.753A10.631,10.631,0,0,1,134.452,31.078Zm-3.976-9.038h5.786a3.8,3.8,0,0,0-.244-1.29,2.5,2.5,0,0,0-.809-1.091,2.436,2.436,0,0,0-1.531-.442,2.906,2.906,0,0,0-2.158.8,3.915,3.915,0,0,0-1.044,2.026Z" transform="translate(-16.453 -2.19)"/><path class="b" d="M143.75,30.762V16.547h3.324l.061,1a10.11,10.11,0,0,1,1.183-.641,5.907,5.907,0,0,1,2.61-.563,4.717,4.717,0,0,1,4.081,1.818,7.762,7.762,0,0,1,1.331,4.709v7.887h-3.55V23.126a5.173,5.173,0,0,0-.661-2.943,2.468,2.468,0,0,0-2.175-.961,3.187,3.187,0,0,0-1.992.6,5.523,5.523,0,0,0-.7.658c-.235.268,0,10.319,0,10.319Z" transform="translate(-18.677 -2.194)"/><path class="b" d="M164.963,30.577a3.922,3.922,0,0,1-2.193-.554,3.329,3.329,0,0,1-1.244-1.4,4.094,4.094,0,0,1-.4-1.775v-7.9H159.09l.313-2.909h1.74v-3.1l3.55-.372v3.463h3.15v2.909h-3.15v6.441a6.584,6.584,0,0,0,.131,1.558.772.772,0,0,0,.592.6,6.418,6.418,0,0,0,1.427.121h.974l-.313,2.909Z" transform="translate(-20.67 -1.688)"/><path class="b" d="M176.689,31.071a7.46,7.46,0,0,1-3.985-1.013,6.809,6.809,0,0,1-2.514-2.692,7.958,7.958,0,0,1-.87-3.679,8.069,8.069,0,0,1,.87-3.705,6.8,6.8,0,0,1,2.515-2.71,8.285,8.285,0,0,1,7.97,0,6.8,6.8,0,0,1,2.515,2.71,8.07,8.07,0,0,1,.87,3.705,7.958,7.958,0,0,1-.87,3.679,6.809,6.809,0,0,1-2.515,2.692A7.486,7.486,0,0,1,176.689,31.071Zm0-2.909a3.287,3.287,0,0,0,2.793-1.247,5.115,5.115,0,0,0,.966-3.229,5.227,5.227,0,0,0-.966-3.272,3.649,3.649,0,0,0-5.508,0A5.176,5.176,0,0,0,173,23.686a5.064,5.064,0,0,0,.974,3.229,3.3,3.3,0,0,0,2.715,1.238Z" transform="translate(-21.999 -2.182)"/><path class="b" d="M188,30.75V16.536h3.324l.087,1.506a6.7,6.7,0,0,1,1.531-1.195,4.07,4.07,0,0,1,2.158-.6,3.559,3.559,0,0,1,.635.052l-.261,3.463a3.182,3.182,0,0,0-.626-.113h-.6a3.416,3.416,0,0,0-1.653.407,2.457,2.457,0,0,0-1.044,1.013V30.75Z" transform="translate(-24.426 -2.182)"/></svg>