<svg id="HMA" xmlns="http://www.w3.org/2000/svg" viewBox="0 0 640 140"><path d="M411,86.14c.29-1,.61-2,.85-2.94q7.32-30.08,14.58-60.15c.42-1.73,1-2.39,2.93-2.37,8.66.12,17.31.06,26,.06h2.26V122.27H435.23q.42-34.74.86-69.34l-.52-.15a20.42,20.42,0,0,0-.67,1.95c-5.3,21.62-10.62,43.24-15.81,64.89-.53,2.21-1.32,3-3.62,2.85-4.38-.21-8.77-.06-13.28-.06-5.5-23.23-11-46.3-16.43-69.37l-.58.05c.23,23,.46,46,.69,69.15H365.25V20.84c.8,0,1.55-.1,2.31-.1,8,0,16,.07,24.05-.06,2,0,2.66.61,3.11,2.42q7.44,30.15,15,60.26c.24.94.53,1.86.8,2.78Z" style="fill:#1d1d1b"/><path d="M277.82,20.85h22.41c0,.85.14,1.67.14,2.48,0,11.15.05,22.3,0,33.44,0,2,.6,2.5,2.52,2.47,6.32-.11,12.63,0,18.95,0h2.35V20.87h22.68V122.28H324.27V80H300.46v42.21H277.82Z" style="fill:#1d1d1b"/><path d="M491.52,20.74c9.36,0,18.43,0,27.5,0,1.62,0,1.57,1.1,1.8,2.08q5.49,22.64,11,45.26,6.29,26,12.55,52.09c.16.67.27,1.35.46,2.27H532.66c-3.26,0-6.53-.1-9.79,0-1.56.07-2.06-.53-2.36-1.94-1-5-2.28-10-3.3-15-.29-1.45-.94-1.79-2.29-1.78q-9.57.07-19.15,0c-1.37,0-2,.37-2.29,1.79-1.16,5.55-2.46,11.06-3.74,16.7H466.85C475.07,88.43,483.27,54.67,491.52,20.74ZM513.9,85.89c-2.74-14.43-5.44-28.68-8.14-42.94h-.67c-2.85,14.24-5.69,28.49-8.57,42.93Z" style="fill:#1d1d1b"/><path d="M163.08,136.39a52.05,52.05,0,0,1-22.64-8.91c1.26-6.22,3-12.29,4.44-18.6a9.62,9.62,0,0,1-4.44,2.51c-13.15,4-26.63,7.66-40.12,11.27l-5.11-5.25c.63-1.69,6.7-1.59,6.7-4,4-13.68,8-27.36,12-41,.77-1.11-1.78-3.23-.82-3.37,5.44,2.46,10.7,5.35,16.14,7.85.82.29.87.92.72,1.59a131.07,131.07,0,0,1-5.88,24.38,22.16,22.16,0,0,0,4.82-3.86A36.22,36.22,0,0,1,138.57,89c3.9,3.18,4.81-1.06,3.17,5.73-.38,2,2.61.24,2.9,2.31,1.1,4.19,6.06,3.81,7.41,7-.67.72-2.74.62-1.88,2C154.56,116.2,158.89,126.27,163.08,136.39Z" style="fill:#333"/><path d="M223.88,89.66a52.29,52.29,0,0,1-21.63,37.14,82.18,82.18,0,0,1-.68-10.4c.44-7.37-2.6-17.34,1.06-23.8s6.36-12.28,9.64-18.35c0,0,0-.87.72-.48a63.44,63.44,0,0,1-3,8.14c-.33,1-.33,1.06.63,1.39,4.24,1.74,8.38,3.62,12.52,5.5C223.54,88.94,224,88.94,223.88,89.66Z" style="fill:#1d1d1b"/><path d="M223.88,89.66a105,105,0,0,0-13.64-6.26c-.62-.24-.86-.48-.53-1.2.44-1.79,4.82-10.12,3.18-10.89a30.57,30.57,0,0,0-17.63-6.74c0-2.65,3.76-2.8,5.69-2.75-.49-1-3.47-2.89-3.13-3.56s2.55.48,3,.72h0c-1.06-1.45-6-4.38-.92-2.94-5.44-2.89,2.46-2.22,2.22-9.2.48-4.24-1.83-5.3-5.44-6.31s-1.64-.87-.73-3.08C214.77,45.59,226.48,69.05,223.88,89.66Z" style="fill:#808587"/><path d="M160.1,31.14c3-7.71,1.88-6.84,9.63-4.44,2.7-.72,18.4-4.81,17.63,0a61.35,61.35,0,0,0-3.56,17.88,103.17,103.17,0,0,1-28.57.28c-.58-.28-.24-.72,0-1.06C156.82,39.66,158,35.09,160.1,31.14Z" style="fill:#333"/><path d="M163.08,136.39c-4.81-9.92-8.62-20.52-13.19-30.64-.68-1,1.68-1.49,2.31-1.73s1.11.77,1.78,1.06c.92-5.83,2.55,0,4.82,1.35.91-3.71.58-6.46,3.37-1.4,1.88-5.3,1.16-2.94,4.82-6.74,3.42,0,4.33,6,5.87,8.47.87,1.5-1.59,1.88-2.5,2.41a1.45,1.45,0,0,0-1.11,1.69c0,8.62.63,17.58,0,26h0A29,29,0,0,1,163.08,136.39Z" style="fill:#1d1d1b"/><path d="M201.19,98.29q.52,14.44,1.06,28.51a46.91,46.91,0,0,1-14.45,7.57c-1,.33-1.06.33-1.06-.78a19.74,19.74,0,0,0,0-4.48c-.34,0-.34-.28-.44-.48-.29-1.78-1.92-4-1-5.73,5.73-7.9-2.74-5.39,1.93-14.11,4.43-4,9.15-7.9,13.34-12.19C201.43,95.35,201,97.66,201.19,98.29Z" style="fill:#fefefe"/><path d="M140.11,32.82c2.6,2.75-.73,5.93-1,8.58-4.81,9.63-.86,4.81,3.57,7.46,1.4,1,2.6,0,3.56.29-1.54,4.82-7.37-.82-9.63,4.43C136,55,134.76,56.43,135.39,58c-1.3,5.39,1.15,1,3.8,0,1-.44-1.35-2.08.24-2.22,6.22,3.85,1.93,4.09-1,8-1.49,1.73-3.08,3.37-4.53,5.1s-5.68.82-6.21,2.36a10,10,0,0,1-.92,2c-.82.38-3.71-2.12-4.81-2.61s-.29-1.25.48-1.49a1.49,1.49,0,0,0,.91-1.2,92.24,92.24,0,0,0,3-16.14.76.76,0,0,1-.12-1.08.34.34,0,0,1,.12-.12c1.68-2.12,2.31-4.82,3.95-7.13s3.18-4.82,4.81-6.89c1-1.45,1.88-.39,1.88.86C137.94,37,139.34,32.29,140.11,32.82Z" style="fill:#b0b7c1"/><path d="M196.42,37.11c-2.6,4.82-1.78,4.38-7.28,6.16h-1c.53-8.42,2.31-17.1,2.65-25.62a115.4,115.4,0,0,0,2-11.8c.34-.73,0-4.82,1.45-3.33C201.72,10,200.08,28,196.42,37.11Z" style="fill:#eef0f0"/><path d="M187.17,108.79c-2.22,5.68-.63,4.81-6.6,4.81-1.69,0-2,3.09-2.84,4.24-.68,2.41,3.23,4.43,2.36,6.94a23.51,23.51,0,0,0-1.4,10.31,1.83,1.83,0,0,1-.24,1.25c-.87,0-.29-3.47-.43-4.14-.82,1.35-.92,4.43-2.94,4.81a26.77,26.77,0,0,1-5.73.1c0-8.91-.24-17.87-.39-26.78,0-1,3.23-1.83,4-2.41,2.84,1.06,7.22,5.11,10.55,3.47C184.33,110.67,186.4,108.69,187.17,108.79Z" style="fill:#cbcbcb"/><path d="M113.23,69c0,1.2,1.59,1.88,1.15,3.13-4.09,14-8.18,28-12.33,42-.58,1.73-5.54,2.07-6.84,3.37C100.66,101.75,106.73,83.83,113.23,69Z" style="fill:#5a5a5a"/><path d="M100.32,122.66c14.64-5.49,31.45-6.7,44.94-14.45-1.54,6.31-2.84,12.81-4.82,19-6.31-4.19-3.75-3.38-3-10.31,0-.77,0-.87-.77-.68-11.42,2-22.69,4.82-34,7.42C101.62,124.25,101.09,123.19,100.32,122.66Z" style="fill:#1d1d1b"/><path d="M136.3,36l-4.82,7c-1.92,2.36-2.55,5.73-4.81,7.94-.87.39,1,.82,0,3.14-1,4.81-2.07,9.63-3.09,14.11a1.49,1.49,0,0,1-.91,1.16c-.63,0-1.2,1-1.83.62s-3.28-1.59-3.37-2.41a63.67,63.67,0,0,1,16.42-30.78A2.83,2.83,0,0,1,136.3,36Z" style="fill:#eef0f0"/><path d="M137,46.7s-.63,0-.44-.44c1.83-6.16,8.05-8.52,13.54-11.17.58,0,.58.57.67.91.73,2.17,1.45,4.34,2.36,6.41,4.29,7.32-1.3,4.81-6.4,6.5C140.93,45.59,142.37,46.74,137,46.7Z" style="fill:#818587"/><path d="M153.64,44.53c-4.48-10.26-8.38-23-4.86-34.06.33-.48,1.49-2.5,1.92-1.25,1.26,3.56,2.85,7.08,4,10.69-.86,0-1.25-1.11-1.49.34a36.83,36.83,0,0,0-.24,7.27c0,5.4.67,10.79,1.11,16.14C154.08,44,154.17,44.38,153.64,44.53Z" style="fill:#eef0f0"/><path d="M178.45,136.39a52,52,0,0,1,0-7.28v.58c1.69-4.81,4-9.92,5.88-14.83,0-.44,0-1.11.86-1.26.49,1.11,2.8,4.82,2.08,5.54s-2.8,3.91-2.46,5.21a22.54,22.54,0,0,1,1.54,9.92C186.88,135.33,179.46,136.34,178.45,136.39Z" style="fill:#333"/><path d="M153.64,44.53c.48-1.83-3.32-30.35,1-24.62a119.8,119.8,0,0,1,5.45,11.23C158,36,156.58,41.49,154.32,46Z" style="fill:#b0b7c1"/><path d="M190.83,17.6a244.82,244.82,0,0,1-2.5,25.63c.28.53-4.53,1.73-4.82,1.25A61.26,61.26,0,0,1,190.83,17.6Z" style="fill:#b0b7c1"/><path d="M117.8,67.7c2.94,2,6,3.85,9.11,5.73,1.35.48,4,1.78,2.31,3.52-4.82-2.36-9.63-4.44-14.21-7.13C116.74,67,115.44,66.44,117.8,67.7Z" style="fill:#cbcbcb"/><path d="M129.7,117.55c1,0,8.91-2.55,8.24-1.1-.53,2.5-.77,5.15-1.49,7.56C133.8,122.32,132.11,119.34,129.7,117.55Z" style="fill:#808587"/><path d="M140.11,32.82c-.48,0-.48.53-.63.82l-2.07,4.82c0-.92,0-1.88-1.11-2.17.77-1.11,1.64-2.22,2.31-3.32S139.48,32.2,140.11,32.82Z" style="fill:#eef0f0"/><path d="M176.09,136.53a42.56,42.56,0,0,1,2.17-5.06v4.82A2.3,2.3,0,0,1,176.09,136.53Z" style="fill:#fcfcfc"/><path d="M167.37,137.11h2A2.1,2.1,0,0,1,167.37,137.11Z" style="fill:#cbcbcb"/><path d="M142.42,90.63c-7.37,0-2.84-6.84-1-10.41.77-1.11,0-1.78-.82-2.46a4,4,0,0,1,2.36-7,16.26,16.26,0,0,1,5.73,1.5,1.57,1.57,0,0,1-.48,1.06,12.33,12.33,0,0,0-1.93,3.7c-.33,1.11,0,2.51,1,1.06,3.62-5.1,10.26-4.52,15.56-6.21,1.83-.92,5.11-.39,5.54,1.73-1.25.68-3,0-4.43.49A1.82,1.82,0,0,0,162.2,76a1.86,1.86,0,0,0,.45,1.13c2.65,2.89,8.24,3.13,8.91,7.47.29,2.6-2.94,3.18-3.18,5.49-1,5.73-8.38,6.69-13.2,6.36a11,11,0,0,1-2.79-.39c-.53,0-.67.48-1.11.34-.29-1.06,0-1.49,1.06-1.35,5.2.67,12.72.92,14.89-5.06C157.06,97.18,150.85,88,142.42,90.63Z" style="fill:#eef0f0"/><path d="M148.68,72.27a9.36,9.36,0,0,1-3.18-.91c-4.14-2.22-8.48,3.37-4.81,6.31,1.44,1.15,1.49,1.3.57,3a21.19,21.19,0,0,0-2.94,7.51c-12.09,3.47-11.65,6.45-9.2-6.74,0-1.21,1.5-4.1,0-4.48.58-1.83.39-1.79-1.15-2.7a3.93,3.93,0,0,1,3.47-4c2-.24,2.84-1.93,4-3.18A105,105,0,0,1,144.3,58c7.61,0,2.45,4.81,8.67,7.66,1.93,0-1.25,4.57-1.45,5.73S149.69,72.47,148.68,72.27Z" style="fill:#808587"/><path d="M151.33,96.41c0-.87.68-.73,1.25-.63,5.3,1,13.35.87,15.47-5.2,0-2.89,3.56-3.13,3.27-6.07,1.45.29-1.68,6.74-1.73,8.24s-1,4.43-2.7,5.68c-3.32,4.29-2.51.53-4.82,7.18-3.18-5.83-2.12-2.56-3.27,1.54-1.45-1.59-2.41-3.23-3.9-4.82-.39,0-.63,2.36-.87,3a27.16,27.16,0,0,0-5.88-4.39,7.2,7.2,0,0,1-4-4.81C146.27,95,148.49,97.47,151.33,96.41Z" style="fill:#b0b7c1"/><path d="M127.87,91.16c3.37-.87,6.65-2,9.92-3.09.73-.38.73.53.87,1.06-5.87,4.05-8.52,10.84-14.88,14.45A82.42,82.42,0,0,1,127.87,91.16Z" style="fill:#1d1d1b"/><path d="M151.33,96.41c-1,1.15-3.13,0-4.48,0-.58,0-.91-.77-1.2-.63a2.71,2.71,0,0,1-1.35.39c-.87-.24-3,.29-2.7-1.16s0-3.76,1.69-3.9a12,12,0,0,1,7.9.77,43.75,43.75,0,0,0,12.86,1.88C158.46,97.85,150.46,93.32,151.33,96.41Z" style="fill:#fefefe"/><path d="M164.05,93.76c-8.14,1.44-15.22-4.82-21.78-2.17,1.55-6.79,15.56,6,25.2-2.22A5.65,5.65,0,0,1,164.05,93.76Z" style="fill:#b0b7c1"/><path d="M201.19,98.29c-1.93-10.75-4.05-22.74-6.17-33,0-.34,0-.63.29-.77a29,29,0,0,1,18.21,7c.58.29-.34,1.88-.53,2.31-2.51,3.47-4.05,7.71-6.22,11.42S201.09,93.47,201.19,98.29Z" style="fill:#333"/><path d="M153.64,66c-5.2-.72-4-7.22-6.26-7.27-1.49-.34-3.37-.29-4.43-1.4-2.65-1.93-4.29-3.37-1.78-6.12,8.43-.57.57-3.08,12.57-3.61.38,1.64-2.12,3.47.63,3.9a71.73,71.73,0,0,0,40.07-1.64c2.17-.86,0-4.09.24-5.78h.87c1.45.39,2.94.63,4.38,1s.78-1.79,1.5-2.56c7.32,18-30.93,19.61-41.91,18.21C156.44,60.42,157.4,68.28,153.64,66Z" style="fill:#333"/><path d="M193.82,56.76s0-.43.33-.53c3-1.25,3.33-2.69,6.31,0-1,0-1.83-.33-2.89-.33.53.38,4.48,3.42,3.14,3.32a18.69,18.69,0,0,0-3.09-.87,48.28,48.28,0,0,1,3.81,3.76c-8-.34-6.17,3.61-5.78,9.63,0,.87-.68,1.06-.77,0a21.73,21.73,0,0,0-2.12-4.81c-.39-.68-1.06-1.4-.63-2.27A42.59,42.59,0,0,0,193.82,56.76Z" style="fill:#1d1d1b"/><path d="M201.43,42.5c0,.68,0,3-1,3-2.79-1-6.79,0-6.5-4.24C195,38.41,199.74,41.2,201.43,42.5Z" style="fill:#1d1d1b"/><path d="M200.71,59.07a.37.37,0,0,0,.38,0,1,1,0,0,1,.39.49A1.09,1.09,0,0,1,200.71,59.07Z" style="fill:#414343"/><path d="M176.43,53.58a65.13,65.13,0,0,1-23.08-2.12c-1.78,0,1.3-5.87,1.64-6.79a148.71,148.71,0,0,0,26.69,0c1.25-.29-1,2.46-1.16,2.84A33.63,33.63,0,0,1,176.43,53.58Z" style="fill:#fecb01"/><path d="M176.43,53.58c1.88-2.74,3.61-5.58,5.39-8.38v-.38a54.27,54.27,0,0,0,12.29-3.57,40.87,40.87,0,0,1,1.68,7.56C193.87,52.33,180.57,53.1,176.43,53.58Z" style="fill:#d7a005"/><path d="M193.43,58.59c-1.59,11.23-2.55,2.12,1.78,13.54a56.23,56.23,0,0,1,0-6.36h0C197,76,199.16,86.24,200.85,96.5a157.28,157.28,0,0,1-13.3,11.71c-.33-.43,0-.82,0-1.16,1.11-2.84,2.17-5.68,3.42-8.48a22.36,22.36,0,0,0,.49-9.63A81.46,81.46,0,0,0,191,78.05c-1.49,3-3.13,5.93-4.81,8.92-1,1.54-1.35,3.61-3,4.52-4.52,2.46-9,4.82-13.48,7.52-1.11.91-1.88-.82-3-.72a17.47,17.47,0,0,0,2.75-6.07c.29-2.22,2.55-6,1.83-7.71,0-3.37-4.82-3.23-3.28-6.6a4,4,0,0,0-5.59-5.64c-.91.53-4.81.82-4-1,6.31-11.13,1.1-4.14,17.72-4,2.89,0,5.11-.24,6.51-3.13a47.42,47.42,0,0,0,9.87-6.55C193.82,56.38,193.87,57.39,193.43,58.59Z" style="fill:#969ea4"/><path d="M169,99.39c18.11-10.64,12.48-3.56,22.21-21.77.57,6,.48,11.95.91,17.92a93.42,93.42,0,0,1-4.58,12.67c-5.15,5.49-9.63,3-14.74-.68C171.71,104.84,170.26,102.14,169,99.39Z" style="fill:#797f83"/><path d="M185.39,113.6c-2.46,5.45-4.39,10.75-6.75,16.38.53-6.07,3.13-4.53-1.15-10.74-.77-1.11,1.39-3.85,1.73-5.25s4.82-.24,6.12-.53Z" style="fill:#1d1d1b"/><path d="M141.79,51c-1.88,1.59-2.12,3.09-.82,4.82-.53.58-1.25,0-1.87.53a11.43,11.43,0,0,1-2.41,1.35c-.39,0-.68.58-1.21.48-1.06-1.54.58-3,1.06-4.48A4.24,4.24,0,0,1,141.79,51Z" style="fill:#818688"/><path d="M146.42,48.86c-2.6,2.31-5.4-1.78-8.19-.62a1.59,1.59,0,0,1-1.64-.82c-.34-.34,0-.48.39-.72,2.07,0,4.24-1.11,6.07,0C143.58,47.27,146.9,48.33,146.42,48.86Z" style="fill:#eef0f0"/><path d="M135.63,58.11a18,18,0,0,1,3.61-1.83c1.11,1.64,1.35,1.93-.63,2.6C135.92,60.42,133.94,63.31,135.63,58.11Z" style="fill:#eef0f0"/><path d="M136.93,39.18c.67,2.51-8,12.57-6.79,14.16-.73-.29-.92-.72-1.55-1.11,1.55-.28,1.88-1.44,2.41-2.5C132.79,46.21,134.76,42.75,136.93,39.18Z" style="fill:#8d9296"/><path d="M139.63,56.09c1.92-1.21,3.17,1.11,4.81,2,.24.48-.29.53-.48.73a3.85,3.85,0,0,1-1.16,1C143,57.87,140.44,57.34,139.63,56.09Z" style="fill:#8c9195"/><path d="M131.53,70.3c-2.16.43-2.79,2.21-3.47,4l-1.15-.82C128.16,69.67,127.78,70.64,131.53,70.3Z" style="fill:#8d9296"/><path d="M136.3,47.18c0,2-3.37,5.49-2.46,6.64h-1.2a52.32,52.32,0,0,0,3.47-6.69Z" style="fill:#8e9397"/><path d="M158.46,72.08l2.12.58c-4.58,1-10.07,1.25-13.05,5.44-1,1.54-2.17,1.06-1.59-.72a13.14,13.14,0,0,1,2.74-5.11A17,17,0,0,1,158.46,72.08Z" style="fill:#fefefe"/><path d="M168.38,73.43c2.51,3.13-2.69,5.11,1,7.95a28.78,28.78,0,0,1-6-3.47c1.11-.53,2.65,0,2.85-1.78s-1.35-1.69-2.51-2.22C165.25,73.43,166.94,73.91,168.38,73.43Z" style="fill:#b0b7c1"/><path d="M163.71,73.91c2.79-.43,4,3.47.92,4A2.07,2.07,0,0,1,163.14,74,2.35,2.35,0,0,1,163.71,73.91Z" style="fill:#797f84"/><path d="M152.82,71.74h-2a29.93,29.93,0,0,0,2.79-5.92,9.36,9.36,0,0,0,2,0v.43C154.56,68.23,154.22,70.49,152.82,71.74Z" style="fill:#969ea4"/><path d="M195.41,65.53a20.21,20.21,0,0,0,0,3.81C195,69,195,64,195.41,65.53Z" style="fill:#666a6c"/><path d="M182.88,64.18c-1.83,4.53-7.66,3.23-11.51,3-2,0-7.42-4.82-7.18-6.46a78.84,78.84,0,0,0,19.27-1.3A5.76,5.76,0,0,1,182.88,64.18Z" style="fill:#1d1d1b"/><path d="M152.82,71.74c1.21-2.31,2.32-4.81,3.47-7,1.06-1.06,4.05,0,5.45,0s-3.33,6-3.28,7.32A24.75,24.75,0,0,0,152.82,71.74Z" style="fill:#b0b7c1"/><path d="M182.88,64.18a14.32,14.32,0,0,0,.68-4.82,53.7,53.7,0,0,0,9.63-2.74c1.06-.87.72,1.4.53,1.92V56.91A42.21,42.21,0,0,1,182.88,64.18Z" style="fill:#787e83"/><path d="M162.27,65.19a12.64,12.64,0,0,0-6-.48c2.94-6.36.87-3.85,7.9-4,0,.39.39.82,0,1.21S163.18,64.52,162.27,65.19Z" style="fill:#8c9195"/><path d="M162.41,65.19a20.14,20.14,0,0,1,2-3.8,15.25,15.25,0,0,0,7,5.78A38.19,38.19,0,0,1,162.41,65.19Z" style="fill:#787e83"/></svg>