<svg id="HMA" xmlns="http://www.w3.org/2000/svg" xmlns:xlink="http://www.w3.org/1999/xlink" viewBox="0 0 640 140"><defs><radialGradient id="Degradado_sin_nombre_2" cx="-2390.32" cy="-329.46" r="1.54" gradientTransform="matrix(2.57, 36.55, 36.55, -2.57, 18278.18, 86600.54)" gradientUnits="userSpaceOnUse"><stop offset="0" stop-color="#4c4d4f"/><stop offset="1"/></radialGradient><linearGradient id="Degradado_sin_nombre_3" x1="-1859.67" y1="-621.16" x2="-1857.46" y2="-621.84" gradientTransform="matrix(4.61, 0, 0, -3.64, 8701.43, -2250.06)" gradientUnits="userSpaceOnUse"><stop offset="0" stop-color="#fdd005"/><stop offset="1" stop-color="#faa818"/></linearGradient><linearGradient id="Degradado_sin_nombre_3-2" x1="-1864.05" y1="-621.18" x2="-1866.39" y2="-621.91" gradientTransform="matrix(4.61, 0, 0, -3.64, 8689.99, -2250.06)" xlink:href="#Degradado_sin_nombre_3"/></defs><path d="M260.31,42.72l15.25,43.9,14.91-43.9h15.89l-25.11,62.77q-6.67,16.61-21.35,23.63l-7.37-10.5A28.24,28.24,0,0,0,267.27,104L244.13,42.72Zm76.9,0q31.95,0,32,29,0,32-29.25,32a35.41,35.41,0,0,1-14-2.9v25H310.61V45.21A130.81,130.81,0,0,1,337.21,42.72Zm-142.39,0L209.5,85.33l15.25-42.61h16.12l-24.57,61H201.78l-23.08-61Zm312.13,0q29.07,0,29.09,29,0,32-29.25,32-7.26,0-18.66-2.9v25h-6V45.21A122.37,122.37,0,0,1,507,42.72Zm-116.51,0,1.91,7.78q7.93-7.78,16.78-7.78V55.15q-8.5,0-15.24,7.72v40.81H378.63v-61Zm33,0L445.5,98.4l22.22-55.68h6.91l-25.74,61h-7l-25.38-61ZM337.83,55.15q16.25,0,16.24,16.43,0,19.32-14.21,19.33a30.93,30.93,0,0,1-14-3.13V56A68.38,68.38,0,0,1,337.83,55.15ZM553.56,42.72l.75,7.78q15-7.78,26.14-7.78,19.74,0,19.76,19.21v41.75h-6.06V61.75q0-13.57-15.14-13.57-10.87,0-23.72,7.71v47.79h-6v-61Zm-46.73,5.46q23.32,0,23.33,23.4,0,26.3-23.44,26.3-7.73,0-18.59-3.15V49.57A145.93,145.93,0,0,1,506.83,48.18Z" style="fill:#676869;fill-rule:evenodd"/><path d="M113.17,26.59c.92.12,1.71.94,1,1a4.64,4.64,0,0,1-1.36-.11,5.22,5.22,0,0,0-2.39,0,5.55,5.55,0,0,1,2.77-.94m6.36,1c-.73-.07.07-.89,1-1a5.55,5.55,0,0,1,2.77.94,5.22,5.22,0,0,0-2.39,0,5.2,5.2,0,0,1-1.05.13l-.32,0M92.16,15.24c-3.34-3.12-2.74-6.53-1.48-9.18,0,0,6.5,9,14.59,12.27,0,0-.69.05-1.78.05-2.84,0-8.36-.38-11.33-3.15m36.26,3.1C136.51,15,143,6.06,143,6.06c1.25,2.65,1.86,6.06-1.48,9.17-3,2.77-8.49,3.15-11.33,3.15-1.09,0-1.78-.05-1.78-.05M117.35,62.38c13.47,0,28.3-3,37.49-9.3C145.69,62.2,127.41,69,106,70c-23.48,1.12-44-5-53-14.68a16.61,16.61,0,0,0-3.81,11C50,81.7,75.92,93,107.11,91.52a104.33,104.33,0,0,0,27.28-4.83,81.42,81.42,0,0,1-21.77,9.84c-19,5.56-37.18,4.22-46.77-2.47-1.39,3.53-2.2,7.11-.65,10.33,5.08,10.56,29,16,54.29,8.62,1.76-.52,3.49-1.08,5.16-1.69-8.84,17.41-36.26,26.36-36.26,26.36,43.54-6.9,61.77-38,66.13-46.66,2.28-4.44,3.45-9.12,2.14-13.37A13.49,13.49,0,0,0,155.52,75c4.47-4.3,6.91-9.12,6.66-14.13a16.43,16.43,0,0,0-4.46-10.08c3.78-3.37,6.07-7.5,6.07-12.42,0-14.5-13.3-15.67-13.3-15.67s20.25,8.11-6.92,13.63A117.28,117.28,0,0,1,67,25.49C46.92,14.9,60.31,5.92,87.66,5c-.91,2.35-1.14,5.8-1.41,7.42,0,0-4,.3-3.49,3.72s3.66,7.64,12,10.08,7.59,2.74,11.25,4.2,8.92,1,10.79-.19c1.86,1.19,7.23,1.63,10.79.19s2.85-1.75,11.24-4.2,11.52-6.65,12.05-10.08-3.48-3.72-3.48-3.72c-.54-3.12-.89-13-6.24-8.73-1.15.93-5.16-.25-6.84-.34a21.77,21.77,0,0,0-12.72,3.3,8.42,8.42,0,0,1-4.8,1.58A8.51,8.51,0,0,1,112,6.62,21.69,21.69,0,0,0,99.33,3.33c-1.69.08-5.7,1.26-6.85.34-2.08-1.69-3.4-1.2-4.27.19A115,115,0,0,0,70.3,2.32C55.75,2.32,39.79,6,39.79,22c0,26.17,51,40.37,77.56,40.37Z" style="fill-rule:evenodd;fill:url(#Degradado_sin_nombre_2)"/><path d="M128.42,18.33s9,.73,13.11-3.09c3.34-3.12,2.73-6.53,1.48-9.18,0,0-6.5,9-14.59,12.27" style="fill-rule:evenodd;fill:url(#Degradado_sin_nombre_3)"/><path d="M92.16,15.24c4.11,3.82,13.11,3.09,13.11,3.09C97.18,15,90.68,6.06,90.68,6.06c-1.26,2.65-1.86,6.06,1.48,9.17" style="fill-rule:evenodd;fill:url(#Degradado_sin_nombre_3-2)"/></svg>