<?xml version="1.0" encoding="utf-8"?>
<!-- Generator: Adobe Illustrator 24.1.0, SVG Export Plug-In . SVG Version: 6.00 Build 0)  -->
<svg version="1.1" id="Layer_1" xmlns="http://www.w3.org/2000/svg" xmlns:xlink="http://www.w3.org/1999/xlink" x="0px" y="0px"
	 viewBox="0 0 366.1 51.3" style="enable-background:new 0 0 366.1 51.3;" xml:space="preserve">
<style type="text/css">
	.st0{fill:none;stroke:#C6A052;stroke-width:2;}
	.st1{fill:#C6A052;}
</style>
<path class="st0" d="M12.9,6.6L1.4,18.2l11.5,11.5l11.5-11.5L12.9,6.6z"/>
<path class="st0" d="M353.1,6.6l-11.5,11.5l11.5,11.5l11.5-11.5L353.1,6.6z"/>
<path class="st1" d="M216.7,17.4l124.7,0v1.7h-124l-34,32.2l-34.3-32.2l-124.6,0v-1.7h125.2L183.4,49L216.7,17.4z"/>
<path class="st1" d="M194.2,18.9L183.1,7.8l-11.1,11.1L183.1,30L194.2,18.9z"/>
<path class="st1" d="M200.4,18.9l1-0.4l0.4,0.4l-0.4,0.4L200.4,18.9z M182.8,1.4l-1-0.4l1-1l1,1L182.8,1.4z M165.3,18.9l-1,0.4
	l-0.4-0.4l0.4-0.4L165.3,18.9z M182.8,36.5l1,0.4l-1,1l-1-1L182.8,36.5z M199.4,19.4L181.9,1.9l1.9-0.9l17.5,17.5L199.4,19.4z
	 M183.8,1.9l-17.5,17.5l-1.9-0.9L181.9,1L183.8,1.9z M166.3,18.5L183.8,36l-1.9,0.9l-17.5-17.5L166.3,18.5z M181.9,36l17.5-17.5
	l1.9,0.9l-17.5,17.5L181.9,36z"/>
</svg>
