<svg width="133" height="33" viewBox="0 0 133 33" fill="none" xmlns="http://www.w3.org/2000/svg">
<g opacity="0.5">
<path fill-rule="evenodd" clip-rule="evenodd" d="M7.7655 32.5449L14.0718 26.2386H50.8311L61.3128 16.3016L66.2799 21.2686L71.4839 16.0647L82.3075 26.2386L118.899 26.2387L125.205 32.5449L131.906 25.8439L125.205 19.1428L118.899 25.4489L82.6204 25.4489L72.0426 15.506L76.3315 11.2171L66.2799 1.16548L56.2283 11.2171L60.7542 15.743L50.5162 25.4489H14.0716L7.7655 19.1428L1.06445 25.8439L7.7655 32.5449ZM61.3276 15.1994L57.3451 11.2169L66.2799 2.28222L75.2146 11.2169L71.4668 14.9648L66.4999 10.2959L61.3276 15.1994ZM70.9081 15.5234L66.2799 20.1517L61.8862 15.758L66.5022 11.3819L70.9081 15.5234ZM7.7655 31.4283L2.1813 25.8441L7.7655 20.2599L13.3497 25.8441L7.7655 31.4283ZM125.205 31.4283L119.621 25.8441L125.205 20.2599L130.789 25.8441L125.205 31.4283Z" fill="#B6B6B6"/>
<path d="M14.0718 26.2386L13.8951 26.0618L13.9683 25.9886H14.0718V26.2386ZM7.7655 32.5449L7.94228 32.7217L7.7655 32.8985L7.58873 32.7217L7.7655 32.5449ZM50.8311 26.2386L51.0031 26.42L50.9307 26.4886H50.8311V26.2386ZM61.3128 16.3016L61.1408 16.1201L61.3175 15.9527L61.4896 16.1248L61.3128 16.3016ZM66.2799 21.2686L66.4567 21.4454L66.2799 21.6222L66.1031 21.4454L66.2799 21.2686ZM71.4839 16.0647L71.3071 15.8879L71.4785 15.7165L71.6551 15.8825L71.4839 16.0647ZM82.3075 26.2386V26.4886H82.2084L82.1362 26.4208L82.3075 26.2386ZM118.899 26.2387V25.9887H119.002L119.076 26.0619L118.899 26.2387ZM125.205 32.5449L125.382 32.7217L125.205 32.8985L125.028 32.7217L125.205 32.5449ZM131.906 25.8439L132.083 25.6671L132.26 25.8439L132.083 26.0206L131.906 25.8439ZM125.205 19.1428L125.028 18.966L125.205 18.7893L125.382 18.966L125.205 19.1428ZM118.899 25.4489L119.076 25.6257L119.002 25.6989H118.899V25.4489ZM82.6204 25.4489V25.6989H82.5213L82.4491 25.631L82.6204 25.4489ZM72.0426 15.506L71.8713 15.6881L71.6835 15.5115L71.8658 15.3292L72.0426 15.506ZM76.3315 11.2171L76.5083 11.0403L76.685 11.2171L76.5083 11.3938L76.3315 11.2171ZM66.2799 1.16548L66.1031 0.988707L66.2799 0.81193L66.4567 0.988707L66.2799 1.16548ZM56.2283 11.2171L56.0516 11.3938L55.8748 11.2171L56.0516 11.0403L56.2283 11.2171ZM60.7542 15.743L60.931 15.5662L61.1126 15.7477L60.9262 15.9244L60.7542 15.743ZM50.5162 25.4489L50.6882 25.6303L50.6159 25.6989H50.5162V25.4489ZM14.0716 25.4489V25.6989H13.968L13.8948 25.6256L14.0716 25.4489ZM7.7655 19.1428L7.58873 18.966L7.7655 18.7893L7.94228 18.966L7.7655 19.1428ZM1.06445 25.8439L0.887676 26.0206L0.7109 25.8439L0.887676 25.6671L1.06445 25.8439ZM57.3451 11.2169L57.1684 11.3937L56.9916 11.2169L57.1684 11.0402L57.3451 11.2169ZM61.3276 15.1994L61.4996 15.3808L61.3229 15.5483L61.1508 15.3762L61.3276 15.1994ZM66.2799 2.28222L66.1031 2.10544L66.2799 1.92866L66.4566 2.10544L66.2799 2.28222ZM75.2146 11.2169L75.3914 11.0402L75.5682 11.2169L75.3914 11.3937L75.2146 11.2169ZM71.4668 14.9648L71.6436 15.1415L71.4722 15.3129L71.2956 15.1469L71.4668 14.9648ZM66.4999 10.2959L66.3279 10.1145L66.4991 9.95213L66.6711 10.1138L66.4999 10.2959ZM66.2799 20.1517L66.4566 20.3285L66.2799 20.5052L66.1031 20.3285L66.2799 20.1517ZM70.9081 15.5234L71.0793 15.3413L71.2672 15.5179L71.0849 15.7002L70.9081 15.5234ZM61.8862 15.758L61.7094 15.9348L61.5279 15.7532L61.7142 15.5766L61.8862 15.758ZM66.5022 11.3819L66.3302 11.2005L66.5014 11.0381L66.6734 11.1998L66.5022 11.3819ZM2.1813 25.8441L2.00452 26.0209L1.82774 25.8441L2.00452 25.6673L2.1813 25.8441ZM7.7655 31.4283L7.94228 31.6051L7.7655 31.7819L7.58873 31.6051L7.7655 31.4283ZM7.7655 20.2599L7.58873 20.0831L7.7655 19.9063L7.94228 20.0831L7.7655 20.2599ZM13.3497 25.8441L13.5265 25.6673L13.7033 25.8441L13.5265 26.0209L13.3497 25.8441ZM119.621 25.8441L119.444 26.0209L119.267 25.8441L119.444 25.6673L119.621 25.8441ZM125.205 31.4283L125.382 31.6051L125.205 31.7819L125.028 31.6051L125.205 31.4283ZM125.205 20.2599L125.028 20.0831L125.205 19.9063L125.382 20.0831L125.205 20.2599ZM130.789 25.8441L130.966 25.6673L131.143 25.8441L130.966 26.0209L130.789 25.8441ZM14.2486 26.4154L7.94228 32.7217L7.58873 32.3681L13.8951 26.0618L14.2486 26.4154ZM50.8311 26.4886H14.0718V25.9886H50.8311V26.4886ZM61.4848 16.483L51.0031 26.42L50.6591 26.0572L61.1408 16.1201L61.4848 16.483ZM66.1031 21.4454L61.1361 16.4783L61.4896 16.1248L66.4567 21.0919L66.1031 21.4454ZM71.6607 16.2414L66.4567 21.4454L66.1031 21.0919L71.3071 15.8879L71.6607 16.2414ZM82.1362 26.4208L71.3127 16.2468L71.6551 15.8825L82.4787 26.0564L82.1362 26.4208ZM118.899 26.4887L82.3075 26.4886V25.9886L118.899 25.9887V26.4887ZM125.028 32.7217L118.722 26.4154L119.076 26.0619L125.382 32.3681L125.028 32.7217ZM132.083 26.0206L125.382 32.7217L125.028 32.3681L131.729 25.6671L132.083 26.0206ZM125.382 18.966L132.083 25.6671L131.729 26.0206L125.028 19.3196L125.382 18.966ZM118.722 25.2722L125.028 18.966L125.382 19.3196L119.076 25.6257L118.722 25.2722ZM82.6204 25.1989L118.899 25.1989V25.6989L82.6204 25.6989V25.1989ZM72.2138 15.3238L82.7916 25.2667L82.4491 25.631L71.8713 15.6881L72.2138 15.3238ZM76.5083 11.3938L72.2193 15.6827L71.8658 15.3292L76.1547 11.0403L76.5083 11.3938ZM66.4567 0.988707L76.5083 11.0403L76.1547 11.3938L66.1031 1.34226L66.4567 0.988707ZM56.0516 11.0403L66.1031 0.988707L66.4567 1.34226L56.4051 11.3938L56.0516 11.0403ZM60.5774 15.9197L56.0516 11.3938L56.4051 11.0403L60.931 15.5662L60.5774 15.9197ZM50.3442 25.2674L60.5822 15.5615L60.9262 15.9244L50.6882 25.6303L50.3442 25.2674ZM14.0716 25.1989H50.5162V25.6989H14.0716V25.1989ZM7.94228 18.966L14.2483 25.2721L13.8948 25.6256L7.58873 19.3196L7.94228 18.966ZM0.887676 25.6671L7.58873 18.966L7.94228 19.3196L1.24123 26.0206L0.887676 25.6671ZM7.58873 32.7217L0.887676 26.0206L1.24123 25.6671L7.94228 32.3681L7.58873 32.7217ZM57.5219 11.0402L61.5044 15.0226L61.1508 15.3762L57.1684 11.3937L57.5219 11.0402ZM66.4566 2.45899L57.5219 11.3937L57.1684 11.0402L66.1031 2.10544L66.4566 2.45899ZM75.0378 11.3937L66.1031 2.45899L66.4566 2.10544L75.3914 11.0402L75.0378 11.3937ZM71.29 14.788L75.0378 11.0402L75.3914 11.3937L71.6436 15.1415L71.29 14.788ZM66.6711 10.1138L71.638 14.7826L71.2956 15.1469L66.3286 10.4781L66.6711 10.1138ZM61.1556 15.018L66.3279 10.1145L66.6719 10.4774L61.4996 15.3808L61.1556 15.018ZM66.1031 19.9749L70.7313 15.3467L71.0849 15.7002L66.4566 20.3285L66.1031 19.9749ZM62.063 15.5812L66.4566 19.9749L66.1031 20.3285L61.7094 15.9348L62.063 15.5812ZM66.6742 11.5634L62.0582 15.9394L61.7142 15.5766L66.3302 11.2005L66.6742 11.5634ZM70.7369 15.7056L66.3309 11.5641L66.6734 11.1998L71.0793 15.3413L70.7369 15.7056ZM2.35807 25.6673L7.94228 31.2515L7.58873 31.6051L2.00452 26.0209L2.35807 25.6673ZM7.94228 20.4367L2.35807 26.0209L2.00452 25.6673L7.58873 20.0831L7.94228 20.4367ZM13.1729 26.0209L7.58873 20.4367L7.94228 20.0831L13.5265 25.6673L13.1729 26.0209ZM7.58873 31.2515L13.1729 25.6673L13.5265 26.0209L7.94228 31.6051L7.58873 31.2515ZM119.798 25.6673L125.382 31.2515L125.028 31.6051L119.444 26.0209L119.798 25.6673ZM125.382 20.4367L119.798 26.0209L119.444 25.6673L125.028 20.0831L125.382 20.4367ZM130.612 26.0209L125.028 20.4367L125.382 20.0831L130.966 25.6673L130.612 26.0209ZM125.028 31.2515L130.612 25.6673L130.966 26.0209L125.382 31.6051L125.028 31.2515Z" fill="#B6B6B6"/>
</g>
</svg>
