<svg xmlns="http://www.w3.org/2000/svg" viewBox="0 0 85.04 85.04"><defs><style>.cls-1{fill:#2e3192;}.cls-2{fill:#fff;}.cls-3{fill:#ed1c24;}</style></defs><title>Australia</title><g id="Capa_2" data-name="Capa 2"><g id="Netflix"><path class="cls-1" d="M17.53,8.13a43.63,43.63,0,0,0-4.44,3.71l4.46,3.4Q17.55,11.68,17.53,8.13Z"/><path class="cls-1" d="M42.52,0A42.42,42.42,0,0,0,23.28,4.6l1.84,0,0,10.74C31.89,10,38.48,4.64,44.17,0V1.12L44.26,1l-.1,3c0,1.32,0,2.65,0,4q-5,4.08-10.08,8.14l10-.29v2.36h.05c0,2.36,0,4.73,0,7.09h0c0,.79,0,1.57,0,2.36-3.18.1-6.37.2-9.55.28l10.3,7.57v1.32h0c0,.88,0,1.76,0,2.64l-5.18.16q-7.27-5.36-14.57-10.78l0,11.12-1.49,0h0l-4.56.05h0l-1.55,0,0-10.79Q10.66,34.74,3.72,40l-1.64-.06h0l-2-.08c0,.9-.09,1.79-.09,2.7A42.52,42.52,0,1,0,42.52,0ZM24.88,67.32l-3-4.82-3,4.88c.2-2.21.39-4.43.58-6.64l-4.36-.57,3.76-3.42C18,54.9,17.2,53,16.39,51.19l4.1,2.35,1.32-6.39q.68,3.18,1.36,6.36l4.08-2.44-2.4,5.62L28.62,60l-4.36.65C24.47,62.9,24.67,65.11,24.88,67.32ZM58,39.28,56.51,37l-1.43,2.35c.09-1.05.18-2.11.28-3.16L53.28,36l1.79-1.68c-.39-.88-.78-1.75-1.16-2.63l2,1.08.63-3.05c.21,1,.43,2,.64,3l1.95-1.18c-.38.9-.76,1.79-1.15,2.69l1.8,1.58-2.07.33C57.75,37.18,57.85,38.23,58,39.28Zm7.48-27.06,1.95,1.1.63-3c.22,1,.43,2,.65,3l1.94-1.14-1.14,2.66,1.79,1.62-2.07.29c.1,1.05.19,2.1.29,3.15L68,17.59,66.6,19.92c.09-1.05.19-2.11.28-3.16l-2.08-.25,1.79-1.65Zm4.18,54.9-1.44-2.29c-.48.77-1,1.55-1.43,2.33L67,64l-2.07-.25,1.78-1.65c-.38-.88-.77-1.76-1.16-2.64l2,1.1c.21-1,.41-2,.62-3,.22,1,.44,2,.65,3l1.95-1.15c-.38.89-.77,1.77-1.15,2.66l1.8,1.61-2.08.3Zm4.26-22.86-1.13-1.07L71.6,44.27c.11-.66.21-1.32.32-2-.34-.44-.68-.88-1-1.31l1.34-.16c.16-.63.33-1.26.49-1.89l.51,1.89,1.34.14-1,1.32C73.66,42.94,73.77,43.6,73.87,44.26ZM78.37,32c-.48.77-1,1.53-1.43,2.3l.27-3.15-2.07-.29,1.79-1.62-1.17-2.66,2,1.14.63-3c.21,1,.43,2,.64,3l2-1.1c-.38.88-.76,1.76-1.15,2.64L81.59,31l-2.07.25c.09,1,.19,2.1.29,3.16Z"/><path class="cls-1" d="M2.51,28.11A42.4,42.4,0,0,0,.82,34.17c2.49-1.84,5.12-3.83,7.83-5.92C6.6,28.22,4.56,28.18,2.51,28.11Z"/><path class="cls-2" d="M24.85,56.69l2.4-5.62-4.08,2.44q-.69-3.18-1.36-6.36l-1.32,6.39-4.1-2.35C17.2,53,18,54.9,18.83,56.75l-3.76,3.42,4.36.57c-.19,2.21-.38,4.43-.58,6.64l3-4.88,3,4.82c-.21-2.21-.41-4.42-.62-6.63L28.62,60Z"/><path class="cls-2" d="M69.59,62.06c.38-.89.77-1.77,1.15-2.66l-1.95,1.15c-.21-1-.43-2-.65-3-.21,1-.41,2-.62,3l-2-1.1c.39.88.78,1.76,1.16,2.64l-1.78,1.65L67,64l-.27,3.16c.47-.78,1-1.56,1.43-2.33l1.44,2.29L69.31,64l2.08-.3Z"/><path class="cls-2" d="M57.93,34.22c.39-.9.77-1.79,1.15-2.69l-1.95,1.18c-.21-1-.43-2-.64-3l-.63,3.05-2-1.08c.38.88.77,1.75,1.16,2.63L53.28,36l2.08.22c-.1,1.05-.19,2.11-.28,3.16L56.51,37,58,39.28c-.1-1.05-.2-2.1-.29-3.15l2.07-.33Z"/><path class="cls-2" d="M66.88,16.76c-.09,1-.19,2.11-.28,3.16L68,17.59l1.44,2.3c-.1-1.05-.19-2.1-.29-3.15l2.07-.29-1.79-1.62,1.14-2.66-1.94,1.14c-.22-1-.43-2-.65-3l-.63,3-1.95-1.1,1.16,2.64L64.8,16.51Z"/><path class="cls-2" d="M81.59,31l-1.8-1.65c.39-.88.77-1.76,1.15-2.64l-2,1.1c-.21-1-.43-2-.64-3l-.63,3-2-1.14,1.17,2.66L75.14,30.9l2.07.29-.27,3.15c.47-.77,1-1.53,1.43-2.3l1.44,2.33c-.1-1.06-.2-2.11-.29-3.16Z"/><path class="cls-2" d="M73.23,40.82l-.51-1.89c-.16.63-.33,1.26-.49,1.89L70.89,41c.35.43.69.87,1,1.31-.11.66-.21,1.32-.32,2l1.14-1.08,1.13,1.07c-.1-.66-.21-1.32-.32-2l1-1.32Z"/><path class="cls-2" d="M11.68,25.92c-2.75,0-5.5-.06-8.25-.14-.33.77-.64,1.55-.92,2.33,2.05.07,4.09.11,6.14.14Z"/><path class="cls-2" d="M23.73,40l1.49,0,0-11.12-1.5-1.12Q23.72,33.91,23.73,40Z"/><path class="cls-2" d="M17.59,29.31l0,10.79,1.55,0q0-6,0-12Z"/><path class="cls-2" d="M8.89,16.51c-.57.74-1.13,1.5-1.65,2.27l4.68.06Z"/><path class="cls-2" d="M34.63,28c3.18-.08,6.37-.18,9.55-.28,0-.79,0-1.57,0-2.36q-6.31.19-12.64.35Z"/><path class="cls-2" d="M23.66,16.51l1.49-1.19,0-10.74-1.84,0h.35Z"/><path class="cls-2" d="M19.1,16.41l0-9.36c-.52.35-1,.71-1.54,1.08q0,3.55,0,7.11Z"/><path class="cls-2" d="M44.15,18.25V15.89l-10,.29-3,2.44Q37.6,18.46,44.15,18.25Z"/><path class="cls-2" d="M19.1,18.83V16.41l-1.55-1.17-4.46-3.4c-.78.76-1.54,1.53-2.26,2.34,1,.77,2,1.55,2.94,2.31l-3.4,0-.89-.7c-.2.24-.39.49-.59.74l3,2.33C14.31,18.85,16.71,18.85,19.1,18.83Z"/><path class="cls-2" d="M23.69,25.86v1.91l1.5,1.12q7.29,5.45,14.57,10.78l5.18-.16C39.79,35.73,34.63,32,29.47,28.12L32.92,28c4,3,8,5.89,12,8.83V35.55L34.63,28l-3.1-2.29C28.92,25.76,26.3,25.82,23.69,25.86Z"/><path class="cls-2" d="M17.49,28.29Q9.78,34.23,2.08,39.89L3.72,40q6.94-5.19,13.87-10.64l1.54-1.2V25.92q-3.73,0-7.45,0l-3,2.33C5.94,30.34,3.31,32.33.82,34.17a40.73,40.73,0,0,0-.63,4.45Q7.11,33.58,14,28.3Z"/><path class="cls-2" d="M23.67,18.78c2.46,0,4.93-.1,7.39-.16l3-2.44q5-4,10.08-8.14c0-1.32,0-2.65,0-4Q36.57,10.22,29,16.31l-3.41.07c5-4,13.52-11.15,18.59-15.26V0c-5.69,4.6-12.28,9.92-19,15.28l-1.49,1.19C23.66,17.26,23.67,18,23.67,18.78Z"/><path class="cls-3" d="M19.13,25.92v2.19q0,6,0,12h0L23.73,40h0q0-6.14,0-12.26V25.86c2.61,0,5.23-.1,7.84-.17q6.33-.15,12.64-.35h0c0-2.36,0-4.73,0-7.09h-.05q-6.54.2-13.09.37c-2.46.06-4.93.12-7.39.16,0-.76,0-1.52,0-2.27l0-11.9h-.36a43.74,43.74,0,0,0-4.2,2.44l0,9.36v2.42c-2.39,0-4.79,0-7.18,0l-4.68-.06a42.27,42.27,0,0,0-3.81,7c2.75.08,5.5.12,8.25.14Q15.4,26,19.13,25.92Z"/><path class="cls-3" d="M10.37,16.47l3.4,0c-1-.76-2-1.54-2.94-2.31q-.7.78-1.35,1.59Z"/><path class="cls-3" d="M25.58,16.38,29,16.31q7.57-6.07,15.17-12.24l.1-3-.09.08C39.1,5.23,30.61,12.38,25.58,16.38Z"/><path class="cls-3" d="M2.08,39.89q7.71-5.64,15.41-11.6H14Q7.12,33.58.19,38.62c0,.4-.07.8-.1,1.2l2,.08Z"/><path class="cls-3" d="M29.47,28.12C34.63,32,39.79,35.73,44.94,39.51c0-.88,0-1.76,0-2.64h0c-4-2.94-8-5.87-12-8.83Z"/></g></g></svg>