<svg xmlns="http://www.w3.org/2000/svg" viewBox="0 0 84 84"><defs><style>.cls-1{fill:#fff;}.cls-2{fill:#ed1c24;}</style></defs><title>Canada</title><g id="Capa_2" data-name="Capa 2"><g id="Netflix"><path class="cls-1" d="M42,0A41.8,41.8,0,0,0,19,6.84V77.16a42,42,0,0,0,45.94,0V6.84A41.8,41.8,0,0,0,42,0ZM61.69,43l-9.61,7.79c-.49.39-.53.56-.32,1.15l1.16,3.21-2.24-.38-6.92-1.22a1,1,0,0,0-1.28,1.11c.08,1.84.19,3.68.28,5.53.07,1.22.13,2.44.19,3.69h-1.9c0-.55.05-1.09.07-1.62.13-2.32.25-4.63.38-6.95,0-.24,0-.48,0-.72a1,1,0,0,0-1.23-1L31.58,55l-.5.07c.31-.85.6-1.64.88-2.43.1-.27.2-.53.29-.8a.8.8,0,0,0-.32-1.12l-9.65-7.81L22,42.69l1.09-.53,1-.46a.76.76,0,0,0,.48-1.1C24,38.79,23.38,37,22.79,35.18l-.17-.56,2.12.44,3.51.75a.78.78,0,0,0,1.05-.55c.35-.8.69-1.6,1.16-2.49a2.06,2.06,0,0,0,.23.37l4,4.32a1.83,1.83,0,0,0,.43.36.69.69,0,0,0,1-.82c-.15-.93-.34-1.85-.52-2.78-.52-2.69-1-5.39-1.57-8.08,0-.11,0-.21,0-.37l.33.16,3,1.72a.77.77,0,0,0,1.25-.37l3.24-6.37.24-.43c.09.17.17.29.23.42l3.23,6.33c.34.67.68.76,1.33.39l3.26-1.89c-.11.63-.2,1.17-.31,1.71q-.91,4.68-1.82,9.35c-.08.39-.1.77.31,1s.66.1,1-.27l4.08-4.38.33-.36,1,2.44c.26.6.48.71,1.14.57l5.53-1.17c0,.15-.05.26-.08.37-.59,1.82-1.19,3.63-1.78,5.45-.24.77-.15,1,.59,1.32l1.94.92Z"/><path class="cls-2" d="M0,42A42,42,0,0,0,19,77.16V6.84A42,42,0,0,0,0,42Z"/><path class="cls-2" d="M65,6.84V77.16A42,42,0,0,0,65,6.84Z"/><path class="cls-2" d="M59.49,40.44c.59-1.82,1.19-3.63,1.78-5.45,0-.11,0-.22.08-.37l-5.53,1.17c-.66.14-.88,0-1.14-.57l-1-2.44-.33.36-4.08,4.38c-.34.37-.67.46-1,.27s-.39-.61-.31-1q.9-4.66,1.82-9.35c.11-.54.2-1.08.31-1.71l-3.26,1.89c-.65.37-1,.28-1.33-.39L42.23,20.9c-.06-.13-.14-.25-.23-.42l-.24.43-3.24,6.37a.77.77,0,0,1-1.25.37l-3-1.72L34,25.77c0,.16,0,.26,0,.37.52,2.69,1.05,5.39,1.57,8.08.18.93.37,1.85.52,2.78a.69.69,0,0,1-1,.82,1.83,1.83,0,0,1-.43-.36l-4-4.32a2.06,2.06,0,0,1-.23-.37c-.47.89-.81,1.69-1.16,2.49a.78.78,0,0,1-1.05.55l-3.51-.75-2.12-.44.17.56C23.38,37,24,38.79,24.55,40.6a.76.76,0,0,1-.48,1.1l-1,.46L22,42.69l.29.25,9.65,7.81a.8.8,0,0,1,.32,1.12c-.09.27-.19.53-.29.8-.28.79-.57,1.58-.88,2.43l.5-.07,8.71-1.53a1,1,0,0,1,1.23,1c0,.24,0,.48,0,.72-.13,2.32-.25,4.63-.38,6.95,0,.53,0,1.07-.07,1.62H43c-.06-1.25-.12-2.47-.19-3.69-.09-1.85-.2-3.69-.28-5.53a1,1,0,0,1,1.28-1.11l6.92,1.22,2.24.38L51.76,51.9c-.21-.59-.17-.76.32-1.15L61.69,43l.33-.28-1.94-.92C59.34,41.42,59.25,41.21,59.49,40.44Z"/></g></g></svg>