<svg xmlns="http://www.w3.org/2000/svg" viewBox="0 0 84 84"><defs><style>.cls-1{fill:#fff;}.cls-2{fill:#ed1c24;}.cls-3{fill:#2e3192;}</style></defs><title>UK</title><g id="Capa_2" data-name="Capa 2"><g id="AmazonFire"><path class="cls-1" d="M50.07,33.72H83.18c-.22-1.1-.49-2.17-.79-3.23-5,0-8.83,0-9,0,0-.06,3-2.11,7.24-5a41.62,41.62,0,0,0-3.32-6.22q-7.87,5.54-15.76,11.07a1.17,1.17,0,0,1-.75.23h-7.3l0-.06a2.43,2.43,0,0,1,.25-.2l20.93-14.7a43.32,43.32,0,0,0-3.74-4L54.55,22.64l-.34.21v-21c-1.36-.41-2.74-.75-4.14-1V33.72Z"/><path class="cls-1" d="M34.28,50l0,0H.76c.24,1.27.54,2.52.89,3.74H8.87L3,57.62a41.71,41.71,0,0,0,3.63,7L21.84,54a.89.89,0,0,1,.57-.21h7.42l0,.06-.29.22L18.84,61.59,9.28,68.32a42.16,42.16,0,0,0,3.1,3.45L30,59.83V82.24a39.91,39.91,0,0,0,4.38,1.05V50Z"/><path class="cls-1" d="M50.07,50.4V83.22c1.41-.28,2.8-.62,4.16-1,0-6.74,0-21.51,0-21.94L71.57,71.82a41.8,41.8,0,0,0,5.5-6.72L66.2,57.87q-2.88-1.9-5.75-3.82l-.31-.21,0-.07h7.53a1.55,1.55,0,0,1,.89.26q5.15,3.45,10.31,6.86l.46.31c.59-1.14,1.13-2.31,1.61-3.51l-6-4,0-.06h7.34c.36-1.22.65-2.47.9-3.73H50.1C50.09,50.1,50.07,50.25,50.07,50.4Z"/><path class="cls-1" d="M22.65,30.54H15.3a1,1,0,0,1-.62-.18L4.31,23.46c-.42.86-.82,1.74-1.18,2.63l6.43,4.3,0,.06H1.62c-.31,1.08-.58,2.17-.8,3.29H34.23l.08,0c0-.12,0-.28,0-.43V.71a41,41,0,0,0-4.34,1V23.62l-.42-.26-15-10-2-1.3a41.79,41.79,0,0,0-6.07,7.5c8.93,5.94,16.36,10.91,16.47,11Z"/><path class="cls-2" d="M34.34,33.25c0,.15,0,.31,0,.43l-.08,0H.82A41.78,41.78,0,0,0,.76,49.91h33.5l0,0,.07,0V83.29a41.86,41.86,0,0,0,15.72-.07V50.4c0-.15,0-.3,0-.49H83.25A42.86,42.86,0,0,0,84,42a41.89,41.89,0,0,0-.82-8.28H50.07V.78A41.91,41.91,0,0,0,34.34.71V33.25Z"/><path class="cls-3" d="M29.58,23.36l.42.26V1.75A41.93,41.93,0,0,0,12.6,12l2,1.3Z"/><path class="cls-3" d="M54.21,22.85l.34-.21L70.9,11.54A41.85,41.85,0,0,0,54.21,1.81v21Z"/><path class="cls-2" d="M53.46,30.48l0,.06h7.3a1.17,1.17,0,0,0,.75-.23q7.88-5.55,15.76-11.07a41.55,41.55,0,0,0-2.65-3.66L53.71,30.28A2.43,2.43,0,0,0,53.46,30.48Z"/><path class="cls-3" d="M12.38,71.77A41.94,41.94,0,0,0,30,82.24V59.83Z"/><path class="cls-3" d="M54.23,82.19A42.07,42.07,0,0,0,71.57,71.82L54.25,60.25C54.19,60.68,54.19,75.45,54.23,82.19Z"/><path class="cls-3" d="M82.39,30.49a41.67,41.67,0,0,0-1.78-5c-4.2,2.87-7.19,4.92-7.24,5C73.56,30.47,77.37,30.48,82.39,30.49Z"/><path class="cls-3" d="M9.56,30.39l-6.43-4.3a43.13,43.13,0,0,0-1.51,4.36H9.54Z"/><path class="cls-3" d="M75,53.7l6,4a40.26,40.26,0,0,0,1.39-4H75Z"/><path class="cls-3" d="M1.65,53.65a41.24,41.24,0,0,0,1.36,4l5.86-4Z"/><path class="cls-2" d="M29.58,54.05l.29-.22,0-.06H22.41a.89.89,0,0,0-.57.21L6.64,64.65a41,41,0,0,0,2.64,3.67l9.56-6.73Z"/><path class="cls-2" d="M68.58,54a1.55,1.55,0,0,0-.89-.26H60.16l0,.07.31.21Q63.32,56,66.2,57.87L77.07,65.1a40.94,40.94,0,0,0,2.28-3.9l-.46-.31Q73.73,57.47,68.58,54Z"/><path class="cls-2" d="M14.68,30.36a1,1,0,0,0,.62.18H23c-.11-.11-7.54-5.08-16.47-11a41.06,41.06,0,0,0-2.22,3.94Z"/></g></g></svg>