<svg xmlns="http://www.w3.org/2000/svg" xmlns:xlink="http://www.w3.org/1999/xlink" viewBox="0 0 84 84"><defs><style>.cls-1{fill:none;}.cls-2{fill:url(#Degradado_sin_nombre_37);}.cls-3{fill:#fff;opacity:0.85;}.cls-4{fill:url(#Degradado_sin_nombre_58);}.cls-5{fill:url(#Degradado_sin_nombre_58-2);}.cls-6{fill:url(#Degradado_sin_nombre_58-3);}.cls-7{fill:url(#Degradado_sin_nombre_58-4);}.cls-8{fill:url(#Degradado_sin_nombre_58-5);}.cls-9{fill:url(#Degradado_sin_nombre_37-2);}.cls-10{fill:url(#Degradado_sin_nombre_58-6);}.cls-11{fill:url(#Degradado_sin_nombre_58-7);}.cls-12{fill:url(#Degradado_sin_nombre_58-8);}.cls-13{fill:url(#Degradado_sin_nombre_58-9);}.cls-14{fill:url(#Degradado_sin_nombre_58-10);}.cls-15{fill:url(#Degradado_sin_nombre_58-11);}.cls-16{fill:url(#Degradado_sin_nombre_58-12);}.cls-17{fill:url(#Degradado_sin_nombre_58-13);}.cls-18{fill:url(#Degradado_sin_nombre_58-14);}.cls-19{fill:url(#Degradado_sin_nombre_58-15);}.cls-20{fill:url(#Degradado_sin_nombre_58-16);}.cls-21{fill:url(#Degradado_sin_nombre_58-17);}.cls-22{fill:url(#Degradado_sin_nombre_58-18);}.cls-23{fill:url(#Degradado_sin_nombre_58-19);}.cls-24{fill:url(#Degradado_sin_nombre_58-20);}.cls-25{fill:#fefdfd;}</style><linearGradient id="Degradado_sin_nombre_37" x1="19.41" y1="-6.51" x2="23.99" y2="98.58" gradientUnits="userSpaceOnUse"><stop offset="0" stop-color="#0d5786"/><stop offset="0.31" stop-color="#1a7aaa"/><stop offset="1" stop-color="#36c4f4"/></linearGradient><linearGradient id="Degradado_sin_nombre_58" x1="94.97" y1="229.25" x2="71.27" y2="155.07" gradientUnits="userSpaceOnUse"><stop offset="0" stop-color="red"/><stop offset="0.8" stop-color="#c1272d"/><stop offset="1" stop-color="#ed1c24"/></linearGradient><linearGradient id="Degradado_sin_nombre_58-2" x1="93.18" y1="229.82" x2="69.48" y2="155.65" xlink:href="#Degradado_sin_nombre_58"/><linearGradient id="Degradado_sin_nombre_58-3" x1="98.53" y1="228.12" x2="74.83" y2="153.94" xlink:href="#Degradado_sin_nombre_58"/><linearGradient id="Degradado_sin_nombre_58-4" x1="91.42" y1="230.39" x2="67.73" y2="156.21" xlink:href="#Degradado_sin_nombre_58"/><linearGradient id="Degradado_sin_nombre_58-5" x1="91.42" y1="230.39" x2="67.73" y2="156.21" xlink:href="#Degradado_sin_nombre_58"/><linearGradient id="Degradado_sin_nombre_37-2" x1="24.77" y1="-6.74" x2="29.35" y2="98.34" xlink:href="#Degradado_sin_nombre_37"/><linearGradient id="Degradado_sin_nombre_58-6" x1="97.42" y1="228.47" x2="73.72" y2="154.29" xlink:href="#Degradado_sin_nombre_58"/><linearGradient id="Degradado_sin_nombre_58-7" x1="65.05" y1="238.81" x2="41.36" y2="164.63" xlink:href="#Degradado_sin_nombre_58"/><linearGradient id="Degradado_sin_nombre_58-8" x1="65.41" y1="238.7" x2="41.71" y2="164.52" xlink:href="#Degradado_sin_nombre_58"/><linearGradient id="Degradado_sin_nombre_58-9" x1="93" y1="229.88" x2="69.3" y2="155.7" xlink:href="#Degradado_sin_nombre_58"/><linearGradient id="Degradado_sin_nombre_58-10" x1="127.95" y1="218.72" x2="104.26" y2="144.54" xlink:href="#Degradado_sin_nombre_58"/><linearGradient id="Degradado_sin_nombre_58-11" x1="108.72" y1="224.86" x2="85.02" y2="150.68" xlink:href="#Degradado_sin_nombre_58"/><linearGradient id="Degradado_sin_nombre_58-12" x1="120.72" y1="221.03" x2="97.03" y2="146.85" xlink:href="#Degradado_sin_nombre_58"/><linearGradient id="Degradado_sin_nombre_58-13" x1="122.35" y1="220.5" x2="98.66" y2="146.33" xlink:href="#Degradado_sin_nombre_58"/><linearGradient id="Degradado_sin_nombre_58-14" x1="123.36" y1="220.18" x2="99.67" y2="146" xlink:href="#Degradado_sin_nombre_58"/><linearGradient id="Degradado_sin_nombre_58-15" x1="120.05" y1="221.24" x2="96.35" y2="147.06" xlink:href="#Degradado_sin_nombre_58"/><linearGradient id="Degradado_sin_nombre_58-16" x1="113.28" y1="223.4" x2="89.58" y2="149.23" xlink:href="#Degradado_sin_nombre_58"/><linearGradient id="Degradado_sin_nombre_58-17" x1="127.19" y1="218.96" x2="103.5" y2="144.78" xlink:href="#Degradado_sin_nombre_58"/><linearGradient id="Degradado_sin_nombre_58-18" x1="122.75" y1="220.38" x2="99.05" y2="146.2" xlink:href="#Degradado_sin_nombre_58"/><linearGradient id="Degradado_sin_nombre_58-19" x1="123.37" y1="220.18" x2="99.68" y2="146" xlink:href="#Degradado_sin_nombre_58"/><linearGradient id="Degradado_sin_nombre_58-20" x1="120.99" y1="220.94" x2="97.3" y2="146.76" xlink:href="#Degradado_sin_nombre_58"/></defs><title>USA</title><g id="Capa_2" data-name="Capa 2"><g id="AmazonFire"><path class="cls-1" d="M7.74,31.76a.66.66,0,0,1,.25.29A.66.66,0,0,0,7.74,31.76Z"/><path class="cls-1" d="M7.79,33.25A5.19,5.19,0,0,1,8,32.59,4.75,4.75,0,0,0,7.79,33.25Z"/><path class="cls-1" d="M8.91,29.18a11.64,11.64,0,0,1,.38,1.31A11.64,11.64,0,0,0,8.91,29.18Z"/><path class="cls-1" d="M8.22,31l.08,0Z"/><path class="cls-1" d="M8.61,33c-.27.26-.57.49-1,.83C8,33.53,8.34,33.3,8.61,33Z"/><path class="cls-1" d="M9.17,23.89a2.26,2.26,0,0,1,.87.68A2.26,2.26,0,0,0,9.17,23.89Z"/><path class="cls-1" d="M7.69,21.87a2,2,0,0,1-.86-.16A2,2,0,0,0,7.69,21.87Z"/><path class="cls-1" d="M8.61,33a.48.48,0,0,1,.32-.17A.48.48,0,0,0,8.61,33Z"/><path class="cls-1" d="M6.88,40.15l.22,0Z"/><path class="cls-1" d="M7.8,40.93c-.3-.21-.57-.48-.92-.78C7.23,40.45,7.5,40.72,7.8,40.93Z"/><path class="cls-1" d="M7.77,42.94A3.24,3.24,0,0,1,8,41.71,3.24,3.24,0,0,0,7.77,42.94Z"/><path class="cls-1" d="M7.69,24.83c.4-.71.79-1,1.18-1C8.48,23.83,8.08,24.12,7.69,24.83Z"/><path class="cls-1" d="M8.12,40.16A.6.6,0,0,0,8.43,40,.6.6,0,0,1,8.12,40.16Z"/><path class="cls-1" d="M8.79,42.09a.62.62,0,0,0-.19.15A.62.62,0,0,1,8.79,42.09Z"/><path class="cls-1" d="M10.43,31.52c-.69.58-.69.58-.41,1.54C9.75,32.1,9.75,32.1,10.43,31.52Z"/><path class="cls-1" d="M9.94,41.82c.13.34.21.71.35,1.21C10.15,42.53,10.07,42.16,9.94,41.82Z"/><path class="cls-1" d="M11,21.82a7.27,7.27,0,0,1-.81.68A7.27,7.27,0,0,0,11,21.82Z"/><path class="cls-1" d="M16.1,12.74a6.69,6.69,0,0,0,.69.57A6.69,6.69,0,0,1,16.1,12.74Z"/><path class="cls-1" d="M17.13,12.69Z"/><path class="cls-1" d="M3.91,37.65c-.24.24-.52.44-.86.72C3.39,38.09,3.67,37.89,3.91,37.65Z"/><path class="cls-1" d="M19,13.78a.69.69,0,0,1,.28-.35A.69.69,0,0,0,19,13.78Z"/><path class="cls-1" d="M7.81,23.85a3.58,3.58,0,0,1,.11-.35A3.58,3.58,0,0,0,7.81,23.85Z"/><path class="cls-1" d="M3.05,38.37c.06-.25.14-.5.21-.73C3.19,37.87,3.11,38.12,3.05,38.37Z"/><path class="cls-1" d="M17.86,14.67c-.29.29-.61.52-1,.82C17.25,15.19,17.57,15,17.86,14.67Z"/><path class="cls-1" d="M16.79,13.31a.8.8,0,0,1,.34,1.15A.8.8,0,0,0,16.79,13.31Z"/><path class="cls-1" d="M17.86,14.67a.36.36,0,0,1,.28-.14A.36.36,0,0,0,17.86,14.67Z"/><path class="cls-1" d="M4.69,35.14a.6.6,0,0,0,.16.31A.6.6,0,0,1,4.69,35.14Z"/><path class="cls-1" d="M7.87,21.83a.66.66,0,0,0,.15,0A.66.66,0,0,1,7.87,21.83Z"/><path class="cls-1" d="M10.4,21.81h0Z"/><path class="cls-1" d="M9.16,23.89l-.09,0Z"/><path class="cls-1" d="M11.06,40.16a8.24,8.24,0,0,1-.88.74A8.24,8.24,0,0,0,11.06,40.16Z"/><path class="cls-1" d="M4.86,35.46h0Z"/><path class="cls-1" d="M3.91,37.65a.65.65,0,0,1,.39-.23A.65.65,0,0,0,3.91,37.65Z"/><path class="cls-1" d="M2.31,35.59c.38.35,1,.63,1.08,1.07C3.27,36.22,2.69,35.94,2.31,35.59Z"/><path class="cls-1" d="M14.08,19.45l.28.28Z"/><path class="cls-1" d="M12.23,20.11c.13-.51.21-.93.34-1.31C12.43,19.18,12.36,19.6,12.23,20.11Z"/><path class="cls-1" d="M13.48,19.16a1.85,1.85,0,0,0-.85.59A1.85,1.85,0,0,1,13.48,19.16Z"/><path class="cls-1" d="M14.88,27.07c-.47.29-.52.65-.32,1.17C14.36,27.72,14.41,27.36,14.88,27.07Z"/><path class="cls-1" d="M12.73,17.26h0Z"/><path class="cls-1" d="M13.55,15.64a10.75,10.75,0,0,1,.31,1.11A10.75,10.75,0,0,0,13.55,15.64Z"/><path class="cls-1" d="M13.52,24.74a4.71,4.71,0,0,1,.4,1.22A4.71,4.71,0,0,0,13.52,24.74Z"/><path class="cls-1" d="M15.55,26.38c-.42,0-.78,0-1.14,0C14.77,26.36,15.13,26.38,15.55,26.38Z"/><path class="cls-1" d="M12.37,27.2a.6.6,0,0,1,.22.83A.6.6,0,0,0,12.37,27.2Z"/><path class="cls-1" d="M10.18,40.17A1,1,0,0,1,9.52,40,1,1,0,0,0,10.18,40.17Z"/><path class="cls-1" d="M19.13,31a4.41,4.41,0,0,1,.52,0A4.41,4.41,0,0,0,19.13,31Z"/><path class="cls-1" d="M20.28,31l-.5.47Z"/><path class="cls-1" d="M13,26.28a4.46,4.46,0,0,0,.53-1.54A4.46,4.46,0,0,1,13,26.28Z"/><path class="cls-1" d="M19.33,33.13c.05.17.09.36.17.7C19.42,33.49,19.38,33.3,19.33,33.13Z"/><path class="cls-1" d="M19.44,15.5c-.43-.34-.74-.57-1-.83C18.7,14.93,19,15.16,19.44,15.5Z"/><path class="cls-1" d="M18,30c.06-.24.13-.48.22-.77C18.08,29.56,18,29.8,18,30Z"/><path class="cls-1" d="M14.45,18.8a.89.89,0,0,1,0-.41A.77.77,0,0,0,14.45,18.8Z"/><path class="cls-1" d="M12.53,18.22a.56.56,0,0,1,0,.58A.56.56,0,0,0,12.53,18.22Z"/><path class="cls-1" d="M12.13,35.55a4.78,4.78,0,0,1,.54,0A4.78,4.78,0,0,0,12.13,35.55Z"/><path class="cls-1" d="M13.57,33.8c.17.56.31,1,.41,1.37C13.89,34.76,13.74,34.36,13.57,33.8Z"/><path class="cls-1" d="M13.6,37.46a.6.6,0,0,1,.34.18A.6.6,0,0,0,13.6,37.46Z"/><path class="cls-1" d="M12.21,36.19a.78.78,0,0,1,.46.87A.78.78,0,0,0,12.21,36.19Z"/><path class="cls-1" d="M13.2,35.12c0-.2.1-.39.16-.6C13.3,34.73,13.24,34.92,13.2,35.12Z"/><path class="cls-1" d="M8.06,41.27a.76.76,0,0,1,0,.44A.76.76,0,0,0,8.06,41.27Z"/><path class="cls-1" d="M14.56,38.16a3.56,3.56,0,0,1-.62-.52A3.56,3.56,0,0,0,14.56,38.16Z"/><path class="cls-1" d="M12.41,38.37s0,0,0,0S12.4,38.34,12.41,38.37Z"/><path class="cls-1" d="M12.37,27.2c-.29-.2-.55-.46-.83-.69C11.82,26.74,12.08,27,12.37,27.2Z"/><path class="cls-1" d="M12.28,29.19c.1-.39.18-.79.31-1.16C12.46,28.4,12.38,28.8,12.28,29.19Z"/><path class="cls-1" d="M11.62,26.39a4.6,4.6,0,0,1,.74.05A4.6,4.6,0,0,0,11.62,26.39Z"/><path class="cls-1" d="M11.54,26.51c0-.06.06-.11.08-.12S11.58,26.45,11.54,26.51Z"/><path class="cls-1" d="M14.43,35.57c.37,0,.75,0,1.13,0C15.18,35.56,14.81,35.54,14.43,35.57Z"/><path class="cls-1" d="M14.5,36.73c.1-.49.7-.66,1-1C15.2,36.07,14.6,36.24,14.5,36.73Z"/><path class="cls-1" d="M14.64,37.63a1.88,1.88,0,0,1-.14-.9A1.88,1.88,0,0,0,14.64,37.63Z"/><path class="cls-1" d="M14.75,29.12h0s0,0-.05,0S14.73,29.13,14.75,29.12Z"/><path class="cls-1" d="M9.92,41.19a.77.77,0,0,1,.26-.29A.77.77,0,0,0,9.92,41.19Z"/><path class="cls-1" d="M1.82,40.05c-.51,0-.86,0-1.2,0C1,40,1.3,40,1.82,40.05Z"/><path class="cls-1" d="M.62,40A.51.51,0,0,1,.24,40,.51.51,0,0,0,.62,40Z"/><path class="cls-1" d="M.62,41.61a.56.56,0,0,1,.21-.73A.56.56,0,0,0,.62,41.61Z"/><path class="cls-1" d="M.89,42.79h0l0,0Z"/><path class="cls-1" d="M4.26,28.36c.22,0,.43.17.86.52C4.69,28.53,4.48,28.36,4.26,28.36Z"/><path class="cls-1" d="M.88,42.78h0a2.74,2.74,0,0,0-.26-1.17A2.74,2.74,0,0,1,.88,42.78Z"/><path class="cls-1" d="M3,29.23c.14-.51.23-.93.36-1.32C3.2,28.3,3.11,28.72,3,29.23Z"/><path class="cls-1" d="M5.27,28.13a.74.74,0,0,1,.3-1.06A.74.74,0,0,0,5.27,28.13Z"/><path class="cls-1" d="M37.65,14.07c.13.34.2.7.33,1.14C37.85,14.77,37.78,14.41,37.65,14.07Z"/><path class="cls-1" d="M37.37,12.34a.46.46,0,0,1-.17-.09A.46.46,0,0,0,37.37,12.34Z"/><path class="cls-1" d="M38.53,12.56a6.58,6.58,0,0,1-.63.54A6.58,6.58,0,0,0,38.53,12.56Z"/><path class="cls-1" d="M35.44,12.45h0Z"/><path class="cls-1" d="M38,15.21a2.86,2.86,0,0,0-1.27-.85A2.86,2.86,0,0,1,38,15.21Z"/><path class="cls-1" d="M37.57,12.34c.35,0,.71,0,1.23,0C38.28,12.32,37.92,12.31,37.57,12.34Z"/><path class="cls-1" d="M36.67,10.63c.14.48.28.87.37,1.27C37,11.5,36.81,11.11,36.67,10.63Z"/><path class="cls-1" d="M34.76,12.59s-.06-.08-.09-.14S34.72,12.57,34.76,12.59Z"/><path class="cls-1" d="M36.29,12c.16-.35.22-.87.38-1.35C36.51,11.11,36.45,11.63,36.29,12Z"/><path class="cls-1" d="M41.4,32.06c0,2.19,0,4.37,0,6.55s0,4.37,0,6.55c0-2.18,0-4.37,0-6.55S41.4,34.25,41.4,32.06Z"/><path class="cls-1" d="M25.9,3.37h0Z"/><path class="cls-1" d="M25.32,3.48a1.16,1.16,0,0,1,.39-.09A1.16,1.16,0,0,0,25.32,3.48Z"/><path class="cls-1" d="M37.9,13.1c-.38.24-.41.55-.25,1C37.49,13.65,37.52,13.34,37.9,13.1Z"/><path class="cls-1" d="M26.46,4.73a1.64,1.64,0,0,1-.09.44A1.64,1.64,0,0,0,26.46,4.73Z"/><path class="cls-1" d="M26.87,3.2a.43.43,0,0,1-.43.19A.43.43,0,0,0,26.87,3.2Z"/><path class="cls-1" d="M41.4,32.06l0-6.56,0-6.51q0,3.26,0,6.51l0,6.56L43.67,32Z"/><path class="cls-1" d="M19.5,33.83c-.4-.33-.7-.55-1-.81C18.8,33.28,19.1,33.5,19.5,33.83Z"/><path class="cls-1" d="M29.49,3.33a9.46,9.46,0,0,0-1.13,0A9.46,9.46,0,0,1,29.49,3.33Z"/><path class="cls-1" d="M4.41,25.08a3.78,3.78,0,0,0,.37,1A3.78,3.78,0,0,1,4.41,25.08Z"/><path class="cls-1" d="M6.29,26.48a7.75,7.75,0,0,1-.72.59A7.75,7.75,0,0,0,6.29,26.48Z"/><path class="cls-1" d="M4.22,24.71a.6.6,0,0,1,.19.37A.6.6,0,0,0,4.22,24.71Z"/><path class="cls-1" d="M28.36,3.36a.45.45,0,0,1-.54-.23A.45.45,0,0,0,28.36,3.36Z"/><path class="cls-1" d="M28.35,5.11c-.17-.46-.14-.78.27-1C28.21,4.33,28.18,4.65,28.35,5.11Z"/><path class="cls-1" d="M5.3,29c-.07-.05-.12-.11-.18-.16S5.23,29,5.3,29Z"/><path class="cls-1" d="M27.35,5.39a1.7,1.7,0,0,1,1.13.66A1.7,1.7,0,0,0,27.35,5.39Z"/><path class="cls-1" d="M26.29,31.67a7.67,7.67,0,0,1-.78-.65A7.67,7.67,0,0,0,26.29,31.67Z"/><path class="cls-1" d="M21,26.63c1,.83,1,.83.63,2.15C22,27.46,22,27.46,21,26.63Z"/><path class="cls-1" d="M20.29,21.78c-.38,0-.68,0-.95,0C19.61,21.77,19.91,21.78,20.29,21.78Z"/><path class="cls-1" d="M17,22.64a9.89,9.89,0,0,1-.87-.73A9.89,9.89,0,0,0,17,22.64Z"/><path class="cls-1" d="M20.29,21.78c-.39.34-.67.63-1,.85C19.62,22.41,19.9,22.12,20.29,21.78Z"/><path class="cls-1" d="M17.65,21.64A5.15,5.15,0,0,0,18.16,20,5.15,5.15,0,0,1,17.65,21.64Z"/><path class="cls-1" d="M22.51,28.41a.48.48,0,0,1,.33-.18A.48.48,0,0,0,22.51,28.41Z"/><path class="cls-1" d="M19.44,24.55l-.12,0Z"/><path class="cls-1" d="M17.1,23.8c0-.15.09-.3.13-.43C17.19,23.5,17.15,23.65,17.1,23.8Z"/><path class="cls-1" d="M18.8,21.76l.05,0Z"/><path class="cls-1" d="M18.38,11.81a1.9,1.9,0,0,0,.14.44A1.9,1.9,0,0,1,18.38,11.81Z"/><path class="cls-1" d="M17.22,12.68a.56.56,0,0,0,.36-.17A.56.56,0,0,1,17.22,12.68Z"/><path class="cls-1" d="M26.22,33.65a11.66,11.66,0,0,1,.31-1.16A11.66,11.66,0,0,0,26.22,33.65Z"/><path class="cls-1" d="M19.35,12.63a1.45,1.45,0,0,1,.37,0A1.45,1.45,0,0,0,19.35,12.63Z"/><path class="cls-1" d="M16.4,12.64h0Z"/><path class="cls-1" d="M18.43,23.87a2.06,2.06,0,0,1,.89.66A2.06,2.06,0,0,0,18.43,23.87Z"/><path class="cls-1" d="M19.31,22.63a.55.55,0,0,0-.21.72A.55.55,0,0,1,19.31,22.63Z"/><path class="cls-1" d="M17.19,21.85c-.24,0-.5-.05-.75-.05C16.69,21.8,17,21.86,17.19,21.85Z"/><path class="cls-1" d="M18.09,11a1.76,1.76,0,0,1,.29.84A1.76,1.76,0,0,0,18.09,11Z"/><path class="cls-1" d="M20.84,26.36c0,.18.1.21.17.27S20.84,26.54,20.84,26.36Z"/><path class="cls-1" d="M28.12,30.86c-.21,0-.18-.23-.43-1C27.94,30.63,27.91,30.82,28.12,30.86Z"/><path class="cls-1" d="M27,30.73c-.32.41-.89.09-1.34.19C26.07,30.82,26.64,31.14,27,30.73Z"/><path class="cls-1" d="M29.57,30.85c-.4.35-.67.61-.95.84C28.9,31.46,29.17,31.2,29.57,30.85Z"/><path class="cls-1" d="M27.57,29.42a4.48,4.48,0,0,1,.12.46A4.48,4.48,0,0,0,27.57,29.42Z"/><path class="cls-1" d="M26.49,31.86a.62.62,0,0,1,0,.63A.62.62,0,0,0,26.49,31.86Z"/><path class="cls-1" d="M19.09,14.26c.13.34.2.7.35,1.24C19.29,15,19.22,14.6,19.09,14.26Z"/><path class="cls-1" d="M27,30.73a4.88,4.88,0,0,0,.47-1.51A5.17,5.17,0,0,1,27,30.73Z"/><path class="cls-1" d="M28.86,30.86c-.27,0-.46,0-.59,0C28.4,30.87,28.59,30.85,28.86,30.86Z"/><path class="cls-1" d="M24.82,26.41a10.29,10.29,0,0,1-.87.76A10.29,10.29,0,0,0,24.82,26.41Z"/><path class="cls-1" d="M26.27,33.85c.4-.67.8-1,1.22-.94C27.07,32.9,26.67,33.18,26.27,33.85Z"/><path class="cls-1" d="M24,26.38c-.72,0-1-.81-1.19-1.76C23,25.57,23.28,26.34,24,26.38Z"/><path class="cls-1" d="M22.27,26.23c.32-.33.36-1,.54-1.61C22.63,25.21,22.59,25.9,22.27,26.23Z"/><path class="cls-1" d="M22.51,28.41c-.26.27-.57.49-.93.8C21.94,28.9,22.25,28.68,22.51,28.41Z"/><path class="cls-1" d="M21.49,26.38h0Z"/><path class="cls-1" d="M21,26.35h0Z"/><path class="cls-1" d="M18.26,38.52l-.12-.11Z"/><path class="cls-1" d="M31.18,35.4c-.34,0-.69,0-1,0C30.49,35.41,30.84,35.38,31.18,35.4Z"/><path class="cls-1" d="M33.05,36.5c.17-.45.7-.73,1.13-1.16C33.75,35.77,33.22,36.05,33.05,36.5Z"/><path class="cls-1" d="M31.75,34.93c-.07.39-.25.49-.57.47C31.5,35.42,31.68,35.32,31.75,34.93Z"/><path class="cls-1" d="M32.82,35.36c-.16,0-.25-.16-.31-.39C32.57,35.2,32.66,35.32,32.82,35.36Z"/><path class="cls-1" d="M30.92,38.23c0-.09,0-.14,0-.17S30.91,38.14,30.92,38.23Z"/><path class="cls-1" d="M33,35.37c.37,0,.74,0,1.17,0C33.75,35.35,33.37,35.33,33,35.37Z"/><path class="cls-1" d="M33.39,38.21a4.49,4.49,0,0,1-.67-.56A4.49,4.49,0,0,0,33.39,38.21Z"/><path class="cls-1" d="M30.85,17.07a4,4,0,0,0-.77,0A4,4,0,0,1,30.85,17.07Z"/><path class="cls-1" d="M33.27,17.79c.14-.11.29-.22.43-.35C33.56,17.57,33.4,17.68,33.27,17.79Z"/><path class="cls-1" d="M30.81,19.77c.46-1.14.51-2.11-.9-2.53C31.32,17.66,31.27,18.63,30.81,19.77Z"/><path class="cls-1" d="M32.69,17a.64.64,0,0,1-.29-.46A.64.64,0,0,0,32.69,17Z"/><path class="cls-1" d="M31.54,26.09A2.66,2.66,0,0,0,32,24.93,2.66,2.66,0,0,1,31.54,26.09Z"/><path class="cls-1" d="M30,26.31c.08,0,.11-.08.14-.08S30.12,26.26,30,26.31Z"/><path class="cls-1" d="M32.45,25.73a.75.75,0,0,0,.18.37A.75.75,0,0,1,32.45,25.73Z"/><path class="cls-1" d="M31.54,26.09c-.32.34-.9.09-1.36.14C30.64,26.18,31.22,26.43,31.54,26.09Z"/><path class="cls-1" d="M33,27.81c.13.34.21.71.36,1.24A12.67,12.67,0,0,0,33,27.81Z"/><path class="cls-1" d="M33.26,37.65a1.86,1.86,0,0,1-.21-1.15A1.86,1.86,0,0,0,33.26,37.65Z"/><path class="cls-1" d="M31.54,37.7c.29-.34.58-.48.87-.31C32.12,37.22,31.83,37.36,31.54,37.7Z"/><path class="cls-1" d="M34.23,26.15c-.39.35-.66.62-.95.83C33.57,26.77,33.84,26.5,34.23,26.15Z"/><path class="cls-1" d="M30,35.56c1.27.44,1.41,1.33.87,2.5C31.43,36.89,31.29,36,30,35.56Z"/><path class="cls-1" d="M26.37,40.88a.57.57,0,0,1,.22.73A.57.57,0,0,0,26.37,40.88Z"/><path class="cls-1" d="M17.91,33c-.28.28-.6.52-.91.79C17.31,33.53,17.63,33.29,17.91,33Z"/><path class="cls-1" d="M25.6,40.05s-.05.05-.1.1S25.58,40.05,25.6,40.05Z"/><path class="cls-1" d="M27.4,38.31c0,1.18-.39,1.68-1.06,1.77C27,40,27.41,39.49,27.4,38.31Z"/><path class="cls-1" d="M26.59,41.61a2.64,2.64,0,0,0-.25,1.18h0A2.64,2.64,0,0,1,26.59,41.61Z"/><path class="cls-1" d="M26.34,42.79a2.41,2.41,0,0,0,.65-.55,2.41,2.41,0,0,1-.65.55Z"/><path class="cls-1" d="M28.06,42.23a.78.78,0,0,0-.57-.29A.78.78,0,0,1,28.06,42.23Z"/><path class="cls-1" d="M28.66,40.85a.57.57,0,0,0-.21.73A.57.57,0,0,1,28.66,40.85Z"/><path class="cls-1" d="M29.64,40c-.4.35-.68.63-1,.86C29,40.62,29.24,40.34,29.64,40Z"/><path class="cls-1" d="M32.94,18.39a.66.66,0,0,1,.33-.6A.66.66,0,0,0,32.94,18.39Z"/><path class="cls-1" d="M28.24,40a.74.74,0,0,0,.21,0A.74.74,0,0,1,28.24,40Z"/><path class="cls-1" d="M26.26,42.82a.11.11,0,0,1,0,0S26.27,42.79,26.26,42.82Z"/><path class="cls-1" d="M31,7.89a7.85,7.85,0,0,0-1,0A7.85,7.85,0,0,1,31,7.89Z"/><path class="cls-1" d="M33.11,7.85a1,1,0,0,1-.29,0A1,1,0,0,0,33.11,7.85Z"/><path class="cls-1" d="M31.76,19.1c.16-.15.29-.21.44-.13C32.05,18.89,31.92,19,31.76,19.1Z"/><path class="cls-1" d="M33,9.41a.55.55,0,0,1,.21-.73A.55.55,0,0,0,33,9.41Z"/><path class="cls-1" d="M33,9.41a4.2,4.2,0,0,1,.29,1.22A4.2,4.2,0,0,0,33,9.41Z"/><path class="cls-1" d="M34,7.94c-.29.25-.56.53-.86.74C33.46,8.47,33.73,8.19,34,7.94Z"/><path class="cls-1" d="M31.65,7.35c.07-.39.21-.76.33-1.18C31.86,6.59,31.72,7,31.65,7.35Z"/><path class="cls-1" d="M31.44,7.8a.62.62,0,0,0,.21-.45A.62.62,0,0,1,31.44,7.8Z"/><path class="cls-1" d="M32,9.91a1.85,1.85,0,0,1,1.24.72A1.85,1.85,0,0,0,32,9.91Z"/><path class="cls-1" d="M36.42,23.59c.17-.17.3-.19.45-.11C36.72,23.4,36.59,23.42,36.42,23.59Z"/><path class="cls-1" d="M38,58.35c-8.55.17-17.11.29-25.68.27C20.92,58.64,29.48,58.52,38,58.35Z"/><path class="cls-1" d="M54.79,58q-8.2.2-16.42.37Q46.58,58.19,54.79,58Z"/><path class="cls-1" d="M35.64,40.73a.65.65,0,0,1,.21.23A.65.65,0,0,0,35.64,40.73Z"/><path class="cls-1" d="M37.74,41.52c.13.35.22.73.35,1.18C38,42.25,37.87,41.87,37.74,41.52Z"/><path class="cls-1" d="M71.83,57.58q-7.9.16-15.81.37Q63.93,57.76,71.83,57.58Z"/><path class="cls-1" d="M35.88,39.89c-.36,0-.73,0-1.24,0C35.15,39.89,35.52,39.86,35.88,39.89Z"/><path class="cls-1" d="M37.4,39.69a.61.61,0,0,0,.16.09A.61.61,0,0,1,37.4,39.69Z"/><path class="cls-1" d="M38.09,42.7c-.47-.36-.86-.86-1.28-.91C37.23,41.84,37.62,42.34,38.09,42.7Z"/><path class="cls-1" d="M31,27.08a.51.51,0,0,1,.19.67A.51.51,0,0,0,31,27.08Z"/><path class="cls-1" d="M37.75,32.61a1.41,1.41,0,0,1,1.1-1.78A1.41,1.41,0,0,0,37.75,32.61Z"/><path class="cls-1" d="M12.34,65.15h0Z"/><path class="cls-1" d="M35.57,42.68c.48-.24.8-.93,1.24-.89C36.37,41.75,36.05,42.44,35.57,42.68Z"/><path class="cls-1" d="M38,33.47a8.8,8.8,0,0,0-.92-.76A8.8,8.8,0,0,1,38,33.47Z"/><path class="cls-1" d="M35.52,33.55a3.85,3.85,0,0,1,.27-1.19A3.85,3.85,0,0,0,35.52,33.55Z"/><path class="cls-1" d="M38.78,39.82h0Z"/><path class="cls-1" d="M34.79,30.76a3.15,3.15,0,0,0,.78.77A3.15,3.15,0,0,1,34.79,30.76Z"/><path class="cls-1" d="M35.57,31.53a.62.62,0,0,1,.22.83C35.92,32,35.88,31.73,35.57,31.53Z"/><path class="cls-1" d="M35.83,30.74c-.35,0-.7,0-1,0C35.13,30.75,35.48,30.72,35.83,30.74Z"/><path class="cls-1" d="M38.8,30.52a1.42,1.42,0,0,1-1.21.18A1.42,1.42,0,0,0,38.8,30.52Z"/><path class="cls-1" d="M37.59,30.7c-.48-.22-.67-.88-.81-1.62C36.92,29.82,37.11,30.48,37.59,30.7Z"/><path class="cls-1" d="M36.29,39.72a.43.43,0,0,1-.41.17A.43.43,0,0,0,36.29,39.72Z"/><path class="cls-1" d="M38.62,3.06a1.84,1.84,0,0,1-.81.19A1.84,1.84,0,0,0,38.62,3.06Z"/><path class="cls-1" d="M36.68,1.61s0,0-.09-.1S36.68,1.59,36.68,1.61Z"/><path class="cls-1" d="M34.57,21.57h0Z"/><path class="cls-1" d="M37.61,4.39a1.88,1.88,0,0,1,1-1.08A1.88,1.88,0,0,0,37.61,4.39Z"/><path class="cls-1" d="M38.62,3.06c0,.18,0,.24-.06.25S38.58,3.24,38.62,3.06Z"/><path class="cls-1" d="M31.78,28.28a.5.5,0,0,1,.33-.18A.5.5,0,0,0,31.78,28.28Z"/><path class="cls-1" d="M33,27.81a.63.63,0,0,1,.24-.83A.63.63,0,0,0,33,27.81Z"/><path class="cls-1" d="M36.31,5.28a.45.45,0,0,1,.35-.18A.45.45,0,0,0,36.31,5.28Z"/><path class="cls-1" d="M36.7,19.78c.15.49.29.89.38,1.31C37,20.67,36.85,20.28,36.7,19.78Z"/><path class="cls-1" d="M35.49,22.33a.88.88,0,0,1,.2.17A.69.69,0,0,0,35.49,22.33Z"/><path class="cls-1" d="M37.41,21.52a.67.67,0,0,0,.2,0A.67.67,0,0,1,37.41,21.52Z"/><path class="cls-1" d="M36.42,23.59c-.27.27-.58.5-.91.79C35.84,24.09,36.15,23.86,36.42,23.59Z"/><path class="cls-1" d="M36.46,20.57c-.27,1-.27,1-1.11,1C36.2,21.54,36.19,21.54,36.46,20.57Z"/><path class="cls-1" d="M37.59,22.84a.49.49,0,0,1,.23-.47A.49.49,0,0,0,37.59,22.84Z"/><path class="cls-1" d="M28.72,42.76h0s0,0,0,0Z"/><path class="cls-1" d="M37.61,21.52c.35,0,.71,0,1.23,0C38.32,21.5,38,21.48,37.61,21.52Z"/><path class="cls-1" d="M38,24.4c-.4-.32-.71-.55-1-.8C37.31,23.85,37.61,24.08,38,24.4Z"/><path class="cls-1" d="M38.84,21.49c-.43.37-.71.65-1,.88C38.13,22.14,38.41,21.86,38.84,21.49Z"/><path class="cls-1" d="M37.82,23.64c.06.22.12.47.2.76C37.94,24.11,37.88,23.86,37.82,23.64Z"/><path class="cls-1" d="M21.58,8.83a.6.6,0,0,1,.23.78A.6.6,0,0,0,21.58,8.83Z"/><path class="cls-1" d="M22.87,33.84c-.07,1-.44,1.63-1.12,1.72C22.43,35.47,22.8,34.89,22.87,33.84Z"/><path class="cls-1" d="M21.66,38.49a3.86,3.86,0,0,1,0-.5A3.86,3.86,0,0,0,21.66,38.49Z"/><path class="cls-1" d="M23.8,37c.14.38.22.79.34,1.19C24,37.83,23.94,37.42,23.8,37Z"/><path class="cls-1" d="M23.43,35.42a1,1,0,0,0,.65.11A1,1,0,0,1,23.43,35.42Z"/><path class="cls-1" d="M18.58,42.2a.48.48,0,0,0-.33-.18A.48.48,0,0,1,18.58,42.2Z"/><path class="cls-1" d="M23.71,18.66a.46.46,0,0,1,.17-.62A.46.46,0,0,0,23.71,18.66Z"/><path class="cls-1" d="M27.06,14.63a.59.59,0,0,1,.34-.2A.59.59,0,0,0,27.06,14.63Z"/><path class="cls-1" d="M24.32,36.08a3.92,3.92,0,0,0-.32.25A3.92,3.92,0,0,1,24.32,36.08Z"/><path class="cls-1" d="M22.44,16.58c-.08.52-.31.68-.74.62C22.13,17.26,22.36,17.1,22.44,16.58Z"/><path class="cls-1" d="M26.35,14.45c0-.11.08-.22.11-.32C26.43,14.23,26.39,14.34,26.35,14.45Z"/><path class="cls-1" d="M28.68,15.29a2.91,2.91,0,0,1-.93-.68A2.91,2.91,0,0,0,28.68,15.29Z"/><path class="cls-1" d="M27.06,14.63c-.26.26-.55.47-.88.76C26.51,15.1,26.8,14.89,27.06,14.63Z"/><path class="cls-1" d="M26.43,13.57a.59.59,0,0,1,0,.56A.56.56,0,0,0,26.43,13.57Z"/><path class="cls-1" d="M28.36,14.14a11.31,11.31,0,0,1,.32,1.15A11.31,11.31,0,0,0,28.36,14.14Z"/><path class="cls-1" d="M22.85,37.53a1.62,1.62,0,0,1,1.17.72A1.62,1.62,0,0,0,22.85,37.53Z"/><path class="cls-1" d="M22.42,10.1c-.26.26-.55.47-.88.74A10,10,0,0,0,22.42,10.1Z"/><path class="cls-1" d="M21.66,35.58h0Z"/><path class="cls-1" d="M19.55,43c-.41-.34-.71-.55-1-.81C18.84,42.46,19.14,42.67,19.55,43Z"/><path class="cls-1" d="M21.51,8.08c-.26,0-.56,0-.85,0C21,8.05,21.25,8.08,21.51,8.08Z"/><path class="cls-1" d="M21.57,20a1.92,1.92,0,0,1,.19-.93A1.92,1.92,0,0,0,21.57,20Z"/><path class="cls-1" d="M22.76,15.46c.12.38.2.79.32,1.12C23,16.25,22.88,15.84,22.76,15.46Z"/><path class="cls-1" d="M21.37,17.79a6.92,6.92,0,0,1-.71-.59A6.92,6.92,0,0,0,21.37,17.79Z"/><path class="cls-1" d="M24.1,20.07c-.39-.33-.69-.54-1-.8C23.41,19.53,23.71,19.74,24.1,20.07Z"/><path class="cls-1" d="M17,33.69a5,5,0,0,0,.25-.85A5,5,0,0,1,17,33.69Z"/><path class="cls-1" d="M20.26,40.2a5.81,5.81,0,0,1-.76.65A5.81,5.81,0,0,0,20.26,40.2Z"/><path class="cls-1" d="M21,17.19h0Z"/><path class="cls-1" d="M20.66,8.07a10.45,10.45,0,0,0,.92.76A10.45,10.45,0,0,1,20.66,8.07Z"/><path class="cls-1" d="M18,30c-.21.73-.26.89-.66.93C17.69,30.93,17.74,30.77,18,30Z"/><path class="cls-1" d="M22.42,19.29c.26-.27.46-.29.73,0C22.89,19,22.67,19,22.42,19.29Z"/><path class="cls-1" d="M21.68,10c0-.15.09-.28.13-.42C21.77,9.75,21.72,9.88,21.68,10Z"/><path class="cls-1" d="M18.12,32.88l.13,0Z"/><path class="cls-1" d="M19.33,33.13c-.3-1.06-.3-1.06.45-1.7C19,32.07,19,32.07,19.33,33.13Z"/><path class="cls-1" d="M19.13,31a.42.42,0,0,1-.39-.13A.42.42,0,0,0,19.13,31Z"/><path class="cls-1" d="M21.37,17.79a.91.91,0,0,1,.39,1.31A.91.91,0,0,0,21.37,17.79Z"/><path class="cls-1" d="M26.19,24.48l.06,0h0Z"/><path class="cls-1" d="M27.74,23.7l-.06,0Z"/><path class="cls-1" d="M28.43,23.61a1.61,1.61,0,0,1,1-1.8A1.61,1.61,0,0,0,28.43,23.61Z"/><path class="cls-1" d="M28.63,24.48h0a.18.18,0,0,0,0-.21A.18.18,0,0,1,28.63,24.48Z"/><path class="cls-1" d="M27.42,23.63c-.3,0-.59.33-.87.61C26.83,24,27.12,23.66,27.42,23.63Z"/><path class="cls-1" d="M29.41,21.66c0,.08,0,.14,0,.15S29.4,21.74,29.41,21.66Z"/><path class="cls-1" d="M28.34,21.69c-.3,0-.44-.09-.53-.43C27.9,21.6,28,21.72,28.34,21.69Z"/><path class="cls-1" d="M22.93,10a.52.52,0,0,0-.16-.06A.52.52,0,0,1,22.93,10Z"/><path class="cls-1" d="M17.13,41a.73.73,0,0,1,.17.19A.73.73,0,0,0,17.13,41Z"/><path class="cls-1" d="M26.26,24.49h0v-.12A.48.48,0,0,0,26.26,24.49Z"/><path class="cls-1" d="M17,43a4.8,4.8,0,0,1,.32-1.33A4.8,4.8,0,0,0,17,43Z"/><path class="cls-1" d="M24.17,8h0Z"/><path class="cls-1" d="M23.43,8a.7.7,0,0,0,.21,0A.7.7,0,0,1,23.43,8Z"/><path class="cls-1" d="M19.47,40.17c-.71-.05-1-.71-1.21-1.65C18.42,39.46,18.76,40.12,19.47,40.17Z"/><path class="cls-1" d="M28.34,21.69c.36,0,.71,0,1.07,0C29.05,21.67,28.7,21.65,28.34,21.69Z"/><path class="cls-1" d="M18.25,42a.48.48,0,0,0-.32.18A.48.48,0,0,1,18.25,42Z"/><path class="cls-1" d="M25.26,12.55l.53.46Z"/><path class="cls-1" d="M26.88,21.6c.3-.32.34-1,.52-1.54C27.22,20.62,27.18,21.28,26.88,21.6Z"/><path class="cls-1" d="M26.46,12.54c-.35,0-.7,0-1.2,0C25.76,12.55,26.11,12.52,26.46,12.54Z"/><path class="cls-1" d="M28.36,14.14a.61.61,0,0,1,.22-.83A.61.61,0,0,0,28.36,14.14Z"/><path class="cls-1" d="M27.57,20.4c.11.28.16.58.24.86C27.73,21,27.68,20.68,27.57,20.4Z"/><path class="cls-2" d="M41.43,45.16c0-2.18,0-4.37,0-6.55s0-4.36,0-6.55l0-6.56q0-3.26,0-6.51l0-6.56,0-6.55,0-5.86A41.54,41.54,0,0,0,27.63,2.53l.06.26a1,1,0,0,0,.13.34.45.45,0,0,0,.54.23,9.46,9.46,0,0,1,1.13,0,8.79,8.79,0,0,1-.87.75c-.41.25-.44.57-.27,1a2,2,0,0,1,.21.94h-.08a1.7,1.7,0,0,0-1.13-.66c-.38,0-.76.26-1.14.9a2,2,0,0,1,.16-1.12,1.64,1.64,0,0,0,.09-.44.67.67,0,0,0-.38-.63,9.07,9.07,0,0,1-.76-.62,1.16,1.16,0,0,1,.39-.09l.19,0h0l.53,0a.43.43,0,0,0,.43-.19A.78.78,0,0,0,27,2.94a1.16,1.16,0,0,1,0-.18,42,42,0,0,0-12.43,7.43l0,0a1.5,1.5,0,0,1,.06.6h0l0,0h.05v.06l-.05-.06h0v0a1.46,1.46,0,0,1-.43-.32A40.59,40.59,0,0,0,10,14.84c0,.21.11.44.18.71-.17-.15-.32-.27-.47-.38A41.92,41.92,0,0,0,3,26.33l.32,0c.3,0,.46-.08.53-.44s.22-.8.34-1.2a.6.6,0,0,1,.19.37,3.78,3.78,0,0,0,.37,1c.19.26.47.27,1.16.28h.31l0,.12a7.75,7.75,0,0,1-.72.59.74.74,0,0,0-.3,1.06,9,9,0,0,1,.26,1A.29.29,0,0,1,5.3,29c-.07-.05-.12-.11-.18-.16-.43-.35-.64-.52-.86-.52s-.42.17-.84.52L3,29.23c.14-.51.23-.93.36-1.32a.53.53,0,0,0-.2-.72l-.33-.27a41.55,41.55,0,0,0-1.31,4h.09c0,.1,0,.15,0,.16l-.13.09C1.21,32,1,32.75.85,33.55a2.29,2.29,0,0,0,.1.23l-.12-.13a42,42,0,0,0-.76,6,.54.54,0,0,0,.17.3A.51.51,0,0,0,.62,40c.34,0,.69,0,1.2,0-.41.34-.69.61-1,.83a.56.56,0,0,0-.21.73,2.74,2.74,0,0,1,.26,1.17h0l0,0s0,0,0,0,0,0,0,.06l-.06-.08h0v0l-.1-.05c-.29-.17-.52-.51-.78-.68,0,1.14.06,2.26.15,3.38q6.58.1,13.15.1c9.17,0,18.33-.13,27.48-.34C41,45.19,41.22,45.17,41.43,45.16ZM37.65,14.07c.13.34.2.7.33,1.14a2.86,2.86,0,0,0-1.27-.85c-.42-.08-.83.12-1.25.77,0-.06,0-.14,0-.18a1.56,1.56,0,0,0-.7-2.36s-.06-.08-.09-.14h.77a1,1,0,0,0,.65-.18,1.24,1.24,0,0,0,.2-.29c.16-.35.22-.87.38-1.35.14.48.28.87.37,1.27a.64.64,0,0,0,.16.35.46.46,0,0,0,.17.09h.2c.35,0,.71,0,1.23,0l-.27.25a6.58,6.58,0,0,1-.63.54C37.52,13.34,37.49,13.65,37.65,14.07ZM28.42,32.42c.14.37.22.78.37,1.32a2.13,2.13,0,0,0-1.3-.83c-.42,0-.82.27-1.22.94l-.05-.2a11.66,11.66,0,0,1,.31-1.16.62.62,0,0,0,0-.63.91.91,0,0,0-.2-.19,7.67,7.67,0,0,1-.78-.65c.06-.05.08-.1.11-.1.45-.1,1,.22,1.34-.19a5.17,5.17,0,0,0,.47-1.51.52.52,0,0,1,.14.2,4.48,4.48,0,0,1,.12.46c.25.75.22.94.43,1h.15c.13,0,.32,0,.59,0h.71c-.4.35-.67.61-.95.84A.54.54,0,0,0,28.42,32.42Zm-4.66-4.53c.14.38.23.79.38,1.33-.39-.32-.7-.54-1-.81a.59.59,0,0,0-.32-.18.48.48,0,0,0-.33.18c-.26.27-.57.49-.93.8,0-.23,0-.33.06-.43.33-1.32.33-1.32-.63-2.15-.07-.06-.17-.09-.17-.27h.23l.42,0h.13a.8.8,0,0,0,.65-.16c.32-.33.36-1,.54-1.61.2.95.47,1.72,1.19,1.76a1.85,1.85,0,0,0,.88-.22l-.06.25a10.29,10.29,0,0,1-.87.76A.54.54,0,0,0,23.76,27.89ZM19.1,23.35c.13.38.23.78.34,1.2l-.12,0a2.06,2.06,0,0,0-.89-.66c-.49-.15-1,.1-1.5.95a4.05,4.05,0,0,1,.17-1c0-.15.09-.3.13-.43.1-.34.07-.54-.2-.73a9.89,9.89,0,0,1-.87-.73c.05-.05.07-.09.1-.1h.18c.25,0,.51.06.75.05a.56.56,0,0,0,.46-.21A5.15,5.15,0,0,0,18.16,20c.14.5.28.91.37,1.33a.52.52,0,0,0,.27.41l.05,0a.7.7,0,0,0,.21,0l.28,0c.27,0,.57,0,.95,0-.39.34-.67.63-1,.85A.55.55,0,0,0,19.1,23.35Zm-2.88-10.7h.22c.23,0,.47.06.69,0h.09a.56.56,0,0,0,.36-.17A4.5,4.5,0,0,0,18.09,11a1.76,1.76,0,0,1,.29.84,1.9,1.9,0,0,0,.14.44.66.66,0,0,0,.83.38,1.45,1.45,0,0,1,.37,0,1.29,1.29,0,0,1,.44.11c-.31.27-.57.53-.85.73a.69.69,0,0,0-.28.35.71.71,0,0,0,.06.48c.13.34.2.7.35,1.24-.43-.34-.74-.57-1-.83a.46.46,0,0,0-.28-.14.36.36,0,0,0-.28.14c-.29.29-.61.52-1,.82a2.3,2.3,0,0,1,.23-1,.8.8,0,0,0-.34-1.15,6.69,6.69,0,0,1-.69-.57ZM5.27,37.16c.13.34.2.71.35,1.26a11,11,0,0,1-.92-.78.56.56,0,0,0-.4-.22.65.65,0,0,0-.39.23c-.24.24-.52.44-.86.72.06-.25.14-.5.21-.73a1.78,1.78,0,0,0,.13-1c-.12-.44-.7-.72-1.08-1.07,0,0,.07-.09.09-.08a2.14,2.14,0,0,0,.41.06,1.19,1.19,0,0,0,1.32-.84,3.09,3.09,0,0,0,.19-.89c.13.43.27.86.37,1.3a.6.6,0,0,0,.16.31h0a.37.37,0,0,0,.29.07c.38,0,.76,0,1.28,0-.38.32-.64.59-.94.79A.6.6,0,0,0,5.27,37.16ZM6.83,21.71a2,2,0,0,0,.86.16.58.58,0,0,0,.18,0,.66.66,0,0,0,.15,0c.51-.2.78-.79.89-1.65l.15.52c.33,1.14.33,1.14,1.34,1.14H11a7.27,7.27,0,0,1-.81.68.76.76,0,0,0-.32,1.1,7.41,7.41,0,0,1,.27.95c-.06,0-.1,0-.12,0a2.26,2.26,0,0,0-.87-.68h0l-.09,0-.2,0c-.39,0-.78.29-1.18,1a2.63,2.63,0,0,1,.12-1,3.58,3.58,0,0,1,.11-.35.69.69,0,0,0-.25-.93,8.12,8.12,0,0,1-.79-.66A1.46,1.46,0,0,1,6.83,21.71ZM10,33.06l.23.82c-.4-.34-.72-.56-1-.84a.46.46,0,0,0-.33-.17.48.48,0,0,0-.32.17c-.27.26-.57.49-1,.83.06-.24.11-.44.16-.62A4.75,4.75,0,0,1,8,32.59a.68.68,0,0,0,0-.54.66.66,0,0,0-.25-.29A3.36,3.36,0,0,1,7,31a9,9,0,0,1,1,0,.7.7,0,0,0,.21,0l.08,0a.55.55,0,0,0,.25-.4c.09-.42.22-.83.36-1.36a11.64,11.64,0,0,1,.38,1.31c.08.43.27.54.61.51s.65,0,1.11,0l-.58.53C9.75,32.1,9.75,32.1,10,33.06Zm-.08,8.76c.13.34.21.71.35,1.21-.39-.32-.69-.53-.95-.79S9,42,8.79,42.09a.62.62,0,0,0-.19.15c-.24.24-.52.44-.83.7A3.24,3.24,0,0,1,8,41.71a.76.76,0,0,0,0-.44.56.56,0,0,0-.26-.34c-.3-.21-.57-.48-.92-.78l.22,0c.37,0,.74.08,1,0A.6.6,0,0,0,8.43,40c.31-.32.34-1,.52-1.6.2.6.24,1.32.57,1.6a1,1,0,0,0,.66.16h.88a8.24,8.24,0,0,1-.88.74.77.77,0,0,0-.26.29A.73.73,0,0,0,9.94,41.82Zm5.6-6.12c-.34.37-.94.54-1,1a1.88,1.88,0,0,0,.14.9c.07.21.14.43.2.65a1.39,1.39,0,0,1-.28-.12,3.56,3.56,0,0,1-.62-.52.6.6,0,0,0-.34-.18.43.43,0,0,0-.33.16c-.27.28-.56.52-.85.77h0l-.08,0,0,0s0,0,0,0v0h0c-.15-.34,0-.65.14-.93a1.27,1.27,0,0,0,.11-.4.78.78,0,0,0-.46-.87,5.64,5.64,0,0,1-.67-.55,1.77,1.77,0,0,1,.59-.09,4.78,4.78,0,0,1,.54,0c.31,0,.46-.1.53-.45,0-.2.1-.39.16-.6s.14-.45.21-.72c.17.56.32,1,.41,1.37s.19.41.45.4.75,0,1.13,0C15.55,35.63,15.56,35.68,15.54,35.7Zm-1-7.46a1.56,1.56,0,0,1,.19.88h0v0h.06l0,.07,0-.07h0s0,0-.05,0c-.82-1-1.61-1-2.42.06.1-.39.18-.79.31-1.16a.6.6,0,0,0-.22-.83c-.29-.2-.55-.46-.83-.69,0-.06.06-.11.08-.12a4.6,4.6,0,0,1,.74.05.76.76,0,0,0,.63-.16,4.46,4.46,0,0,0,.53-1.54,4.71,4.71,0,0,1,.4,1.22c.09.31.2.45.49.43s.72,0,1.14,0a1.45,1.45,0,0,1-.67.69C14.41,27.36,14.36,27.72,14.56,28.24Zm.09-10.16a.52.52,0,0,0-.25.31.89.89,0,0,0,0,.41c.14.39.22.79.34,1.2-.07,0-.11,0-.14,0l-.15-.12-.14-.14-.28-.28-.14-.13a.65.65,0,0,0-.46-.16,1.85,1.85,0,0,0-.85.59c-.13.12-.26.25-.4.36.13-.51.2-.93.34-1.31a.56.56,0,0,0,0-.58,1.17,1.17,0,0,0-.16-.15c-.3-.22-.57-.48-1-.82a7.08,7.08,0,0,1,1,0h.29c.26-.06.39-.27.45-.65a8.39,8.39,0,0,1,.26-.95l.11,0a10.75,10.75,0,0,1,.31,1.11c.08.41.28.54.62.5a10.58,10.58,0,0,1,1.15,0C15.22,17.59,15,17.86,14.65,18.08ZM16.25,31h1c.4,0,.45-.2.66-.93.06-.24.13-.48.22-.77a4.33,4.33,0,0,1,.39,1.22.86.86,0,0,0,.18.36.42.42,0,0,0,.39.13,4.41,4.41,0,0,1,.52,0h.63l-.5.47c-.75.64-.75.64-.45,1.7.05.17.09.36.17.7-.4-.33-.7-.55-1-.81a.49.49,0,0,0-.27-.16l-.13,0a.55.55,0,0,0-.21.13c-.28.28-.6.52-.91.79,0-.07,0-.09,0-.11a5,5,0,0,0,.25-.85,1.38,1.38,0,0,0-1.16-1.7Zm4,9.22a5.81,5.81,0,0,1-.76.65c-.41.25-.43.57-.26,1a2.09,2.09,0,0,1,.08.23c.07.24.13.52.23.91-.41-.34-.71-.55-1-.81a.38.38,0,0,0-.65,0c-.27.27-.58.49-.92.78a4.8,4.8,0,0,1,.32-1.33.55.55,0,0,0,0-.48.73.73,0,0,0-.17-.19c-.31-.23-.61-.5-.91-.76,1.17.13,1.93-.25,1.92-1.81l.12.11c.16.94.5,1.6,1.21,1.65a2.1,2.1,0,0,0,.85-.17ZM21.51,8.08a1,1,0,0,0,.66-.17c.32-.27.36-1,.57-1.63.15.49.29.87.37,1.27s.15.4.32.44a.7.7,0,0,0,.21,0,4.61,4.61,0,0,1,.53,0h.54c0,.09,0,.15,0,.16a2.88,2.88,0,0,0-.34.23c-.72.57-.93,1.32-.22,2.4l-.17,0c-.28-.23-.58-.43-.84-.68a.73.73,0,0,0-.18-.14.52.52,0,0,0-.16-.06.46.46,0,0,0-.35.19,10,10,0,0,1-.88.74,2.25,2.25,0,0,1,.14-.81c0-.15.09-.28.13-.42a.6.6,0,0,0-.23-.78,10.45,10.45,0,0,1-.92-.76C21,8.05,21.25,8.08,21.51,8.08Zm0,9.1.22,0c.43.06.66-.1.74-.62a9.15,9.15,0,0,1,.32-1.12c.12.38.2.79.32,1.12a1.32,1.32,0,0,0,.27.5c.31.27.92.09,1.51.11-.39.34-.67.62-1,.85a.46.46,0,0,0-.17.62c.14.4.23.82.39,1.41-.39-.33-.69-.54-1-.8s-.47-.25-.73,0-.54.47-.85.74a1.92,1.92,0,0,1,.19-.93.91.91,0,0,0-.39-1.31,6.92,6.92,0,0,1-.71-.59h.82Zm2.84,18.9a3.92,3.92,0,0,0-.32.25.53.53,0,0,0-.2.71c.14.38.22.79.34,1.19-.07,0-.11,0-.12,0a1.62,1.62,0,0,0-1.17-.72c-.39,0-.79.3-1.19,1a3.86,3.86,0,0,1,0-.5,4,4,0,0,1,.23-.83.64.64,0,0,0-.26-.87,9.86,9.86,0,0,1-.79-.66c0-.06,0-.12-.05-.18a2.41,2.41,0,0,0,.83.13h0l.09,0c.68-.09,1.05-.67,1.12-1.72l0,0c.19.52.16,1.27.53,1.53a1,1,0,0,0,.65.11c.25,0,.54-.07.81-.08A2.21,2.21,0,0,1,24.32,36.08Zm2.14-23.54c.32,0,.5-.1.57-.48s.2-.76.32-1.18c.07.06.1.07.1.08.17,1.28.7,2,2.05,1.4a3.09,3.09,0,0,1-.92,1,.61.61,0,0,0-.22.83,11.31,11.31,0,0,1,.32,1.15,2.91,2.91,0,0,1-.93-.68.54.54,0,0,0-.35-.18.59.59,0,0,0-.34.2c-.26.26-.55.47-.88.76a2.92,2.92,0,0,1,.17-.94c0-.11.08-.22.11-.32a.59.59,0,0,0,0-.56.66.66,0,0,0-.2-.21c-.14-.1-.28-.22-.44-.35l-.53-.46C25.76,12.55,26.11,12.52,26.46,12.54Zm-.94,9.19c.46-.06,1,.2,1.36-.13s.34-1,.52-1.54a1.54,1.54,0,0,1,.17.34c.11.28.16.58.24.86s.23.46.53.43.71,0,1.07,0c0,.08,0,.14,0,.15a1.61,1.61,0,0,0-1,1.8,2.48,2.48,0,0,0,.23.66.18.18,0,0,1,0,.21h0l0,0,0,0h-.08c-.31-.21-.59-.62-.89-.78l-.06,0a.47.47,0,0,0-.26-.05c-.3,0-.59.33-.87.61a3.23,3.23,0,0,1-.29.25v0h0l-.07,0a.07.07,0,0,0,0-.05l.06,0h0a.48.48,0,0,1,0-.12,3.15,3.15,0,0,1,.25-1.1c.09-.35,0-.54-.21-.72s-.58-.48-.87-.72C25.47,21.78,25.49,21.73,25.52,21.73Zm2.93,19.85a2.75,2.75,0,0,1,.26,1.18h0v0h0l0,0s0,0,0,0,0,0,0,.06l-.05-.07h0v0a2.33,2.33,0,0,1-.65-.53.78.78,0,0,0-.57-.29,1,1,0,0,0-.5.3,2.41,2.41,0,0,1-.65.55,0,0,0,0,0,0,0h0l-.05.08s0,0,0-.06,0,0,0,0l0,0h0a2.64,2.64,0,0,1,.25-1.18.57.57,0,0,0-.22-.73c-.3-.22-.57-.48-.87-.73.05,0,.08-.1.1-.1a2.09,2.09,0,0,0,.74,0c.67-.09,1.07-.59,1.06-1.77l.15.1a11.35,11.35,0,0,1,.32,1.14c.06.29.18.42.37.46a.74.74,0,0,0,.21,0c.34,0,.68,0,1.19,0-.4.35-.68.63-1,.86A.57.57,0,0,0,28.45,41.58ZM30,7.9a7.85,7.85,0,0,1,1,0,.64.64,0,0,0,.43-.09.62.62,0,0,0,.21-.45c.07-.39.21-.76.33-1.18a2.75,2.75,0,0,1,.34,1c.08.41.24.6.5.64a1,1,0,0,0,.29,0,6.33,6.33,0,0,1,.87,0l0,.12c-.29.25-.56.53-.86.74a.55.55,0,0,0-.21.73,4.2,4.2,0,0,1,.29,1.22A1.85,1.85,0,0,0,32,9.91c-.4,0-.79.26-1.17.88a1.07,1.07,0,0,1-.06-.17c.46-1.14.51-2.13-.88-2.56Zm0,9.18a4,4,0,0,1,.77,0c.57.11.83-.18.91-.8a7.27,7.27,0,0,1,.26-.93,4.12,4.12,0,0,1,.38,1.19.64.64,0,0,0,.29.46A.6.6,0,0,0,33,17a8.41,8.41,0,0,1,1,0,1.35,1.35,0,0,1-.34.43c-.14.13-.29.24-.43.35a.66.66,0,0,0-.33.6.93.93,0,0,0,.08.28c.13.33.2.7.35,1.25-.43-.35-.73-.57-1-.84A.51.51,0,0,0,32.2,19c-.15-.08-.28,0-.44.13s-.6.52-.91.79c0-.08-.05-.1,0-.12.46-1.14.51-2.11-.9-2.53Zm3.18,20.57a2.54,2.54,0,0,1,.13.56,4.49,4.49,0,0,1-.67-.56,1,1,0,0,0-.31-.26c-.29-.17-.58,0-.87.31a5.39,5.39,0,0,1-.62.53c0-.09,0-.14,0-.17.54-1.17.4-2.06-.87-2.5l.12-.15c.35,0,.7,0,1,0s.5-.08.57-.47.22-.8.34-1.25A4.86,4.86,0,0,1,32.51,35c.06.23.15.35.31.39a.38.38,0,0,0,.19,0c.36,0,.74,0,1.17,0-.43.43-1,.71-1.13,1.16A1.86,1.86,0,0,0,33.26,37.65Zm0-10.67a.63.63,0,0,0-.24.83,12.67,12.67,0,0,1,.36,1.24,11,11,0,0,1-1-.77.55.55,0,0,0-.32-.18.5.5,0,0,0-.33.18c-.27.28-.58.51-.92.8a5.19,5.19,0,0,1,.31-1.33.51.51,0,0,0-.19-.67c-.32-.23-.61-.5-.94-.77.08,0,.11-.08.14-.08.46-.05,1,.2,1.36-.14A2.66,2.66,0,0,0,32,24.93c0-.15.08-.32.13-.48.14.5.27.89.36,1.28a.75.75,0,0,0,.18.37.42.42,0,0,0,.35.09,11.37,11.37,0,0,1,1.25,0C33.84,26.5,33.57,26.77,33.28,27ZM35.75,3.22c.3,0,.42-.12.49-.43s.23-.84.35-1.28c0,.06.09.08.09.1a3.4,3.4,0,0,0,.08.46c.16.71.48,1.16,1.05,1.18a1.84,1.84,0,0,0,.81-.19c0,.18,0,.24-.06.25a1.88,1.88,0,0,0-1,1.08A1.94,1.94,0,0,0,38,5.94l-.17,0c-.29-.24-.6-.45-.87-.72a.52.52,0,0,0-.3-.16.45.45,0,0,0-.35.18c-.27.27-.57.5-.86.75a.71.71,0,0,1,0-.49c.32-1.21.32-1.21-.58-2a4.16,4.16,0,0,1-.36-.34C35,3.23,35.39,3.2,35.75,3.22Zm-.4,18.34c.84,0,.84,0,1.11-1,.06-.23.14-.47.24-.79.15.5.29.89.38,1.31.06.26.15.39.33.43a.67.67,0,0,0,.2,0c.35,0,.71,0,1.23,0-.43.37-.71.65-1,.88a.49.49,0,0,0-.23.47.8.8,0,0,0,0,.21c.07.19.12.38.18.59s.12.47.2.76c-.41-.32-.71-.55-1-.8l-.16-.12c-.15-.08-.28-.06-.45.11s-.58.5-.91.79a2.85,2.85,0,0,1,.24-1.18,1,1,0,0,0,.07-.28.56.56,0,0,0-.13-.42.88.88,0,0,0-.2-.17c-.28-.18-.52-.43-.92-.76ZM38,40.64a.65.65,0,0,0-.24.88c.13.35.22.73.35,1.18-.47-.36-.86-.86-1.28-.91s-.76.65-1.24.89a4.34,4.34,0,0,1,.29-1.23.63.63,0,0,0,0-.49.65.65,0,0,0-.21-.23c-.3-.21-.58-.48-1-.83.51,0,.88,0,1.24,0a.43.43,0,0,0,.41-.17.87.87,0,0,0,.12-.29c.08-.4.21-.79.35-1.3.08.23.13.34.17.46.18.63.28.94.47,1.1a.61.61,0,0,0,.16.09,3.48,3.48,0,0,0,.89,0h.33A2.18,2.18,0,0,1,38,40.64Zm-.23-8a3.93,3.93,0,0,0,.25.81s0,0,0,0a8.8,8.8,0,0,0-.92-.76.58.58,0,0,0-.3-.09.6.6,0,0,0-.3.1c-.3.18-.61.57-.94.83a3.85,3.85,0,0,1,.27-1.19.62.62,0,0,0-.22-.83,3.15,3.15,0,0,1-.78-.77c.34,0,.69,0,1,0s.46-.11.53-.45.23-.84.34-1.28l.08.07c.14.74.33,1.4.81,1.62a1.42,1.42,0,0,0,1.21-.18c0,.1,0,.2.05.31A1.41,1.41,0,0,0,37.75,32.61Z"/><path class="cls-3" d="M72.71,70.64c-20.14.42-40.26,1.1-60.42,1a41.87,41.87,0,0,0,8.44,6.53c14.65-.08,29.27-.49,43.89-.83A42.55,42.55,0,0,0,72.71,70.64Z"/><path class="cls-4" d="M72.71,70.64A42.55,42.55,0,0,0,77.78,64c-21.82.4-43.6,1.19-65.44,1.15h-.13c-1.76,0-3.52,0-5.28,0a42,42,0,0,0,5.36,6.58C32.45,71.74,52.57,71.06,72.71,70.64Z"/><path class="cls-3" d="M72.71,70.64h0c-20.14.42-40.26,1.1-60.42,1h0C32.45,71.74,52.57,71.06,72.71,70.64Z"/><path class="cls-5" d="M72.71,70.64h0c-20.14.42-40.26,1.1-60.42,1h0C32.45,71.74,52.57,71.06,72.71,70.64Z"/><path class="cls-6" d="M38,58.35h.34q8.21-.16,16.42-.37L56,58q7.9-.2,15.81-.37l9.24-.17a41.69,41.69,0,0,0,2-6.58c-26.47.38-52.89,1.52-79.4,1.2L1.2,52a42,42,0,0,0,2.2,6.58h0q4.47.06,8.94.06C20.92,58.64,29.48,58.52,38,58.35Z"/><path class="cls-7" d="M64.62,77.38c-14.62.34-29.24.75-43.89.83a42,42,0,0,0,43.89-.83Z"/><path class="cls-3" d="M64.62,77.38c-14.62.34-29.24.75-43.89.83h0c14.65-.08,29.27-.49,43.89-.83Z"/><path class="cls-8" d="M64.62,77.38c-14.62.34-29.24.75-43.89.83h0c14.65-.08,29.27-.49,43.89-.83Z"/><path class="cls-3" d="M83.06,50.83a41.72,41.72,0,0,0,.88-6.57q-6.81.09-13.61.24c-9.4.2-18.79.45-28.19.66-.24,0-.47,0-.71,0s-.43,0-.65,0c-9.15.21-18.31.34-27.48.34q-6.57,0-13.15-.1A41.6,41.6,0,0,0,1.2,52L3.66,52C30.17,52.35,56.59,51.21,83.06,50.83Z"/><path class="cls-9" d="M13.3,45.53c9.17,0,18.33-.13,27.48-.34C31.63,45.4,22.47,45.53,13.3,45.53Z"/><path class="cls-3" d="M13.3,45.53c9.17,0,18.33-.13,27.48-.34C31.63,45.4,22.47,45.53,13.3,45.53Z"/><path class="cls-3" d="M12.34,65.15C34.18,65.19,56,64.4,77.78,64a42.2,42.2,0,0,0,3.29-6.59l-9.24.17q-7.9.16-15.81.37l-1.23,0q-8.2.2-16.42.37H38c-8.55.17-17.11.29-25.68.27q-4.47,0-8.94-.06h0A41.58,41.58,0,0,0,6.93,65.1c1.76,0,3.52,0,5.28,0Z"/><path class="cls-10" d="M77.78,64h0c-21.82.4-43.6,1.19-65.44,1.15C34.18,65.19,56,64.4,77.78,64Z"/><path class="cls-3" d="M77.78,64h0c-21.82.4-43.6,1.19-65.44,1.15C34.18,65.19,56,64.4,77.78,64Z"/><path class="cls-11" d="M6.93,65.1h0c1.76,0,3.52,0,5.28,0C10.45,65.14,8.69,65.12,6.93,65.1Z"/><path class="cls-3" d="M6.93,65.1h0c1.76,0,3.52,0,5.28,0C10.45,65.14,8.69,65.12,6.93,65.1Z"/><path class="cls-12" d="M12.35,58.62q-4.47,0-8.94-.06Q7.88,58.62,12.35,58.62Z"/><path class="cls-3" d="M12.35,58.62q-4.47,0-8.94-.06Q7.88,58.62,12.35,58.62Z"/><path class="cls-13" d="M38.37,58.35h0Z"/><path class="cls-3" d="M38.37,58.35h0Z"/><path class="cls-14" d="M81.07,57.41h0l-9.24.17Z"/><path class="cls-3" d="M81.07,57.41h0l-9.24.17Z"/><path class="cls-15" d="M56,58l-1.23,0Z"/><path class="cls-3" d="M56,58l-1.23,0Z"/><path class="cls-16" d="M42,0l-.75,0,0,5.86,14.16-.34,7.11-.17A41.87,41.87,0,0,0,42,0Z"/><path class="cls-17" d="M41.4,32.06,43.67,32c13-.31,25.94-.67,38.91-.84a41.27,41.27,0,0,0-2.33-6.51c-12.88.19-25.74.55-38.61.84h-.27Z"/><path class="cls-18" d="M41.34,19l.59,0c11.56-.27,23.11-.58,34.66-.77a41.86,41.86,0,0,0-5.49-6.46c-9.93.2-19.86.47-29.79.7Z"/><path class="cls-19" d="M41.43,45.16c.24,0,.47,0,.71,0,9.4-.21,18.79-.46,28.19-.66q6.8-.15,13.61-.24c0-.75.06-1.5.06-2.26a40.53,40.53,0,0,0-.22-4.29c-14.12.18-28.24.59-42.36.9C41.43,40.79,41.43,43,41.43,45.16Z"/><path class="cls-3" d="M70.33,44.5c-9.4.2-18.79.45-28.19.66C51.54,45,60.93,44.7,70.33,44.5Z"/><path class="cls-20" d="M70.33,44.5c-9.4.2-18.79.45-28.19.66C51.54,45,60.93,44.7,70.33,44.5Z"/><path class="cls-3" d="M71.1,11.73a42.42,42.42,0,0,0-8.55-6.36l-7.11.17-14.16.34,0,6.55C51.24,12.2,61.17,11.93,71.1,11.73Z"/><path class="cls-21" d="M62.55,5.37l-7.11.17,7.11-.17Z"/><path class="cls-3" d="M62.55,5.37l-7.11.17,7.11-.17Z"/><path class="cls-22" d="M71.1,11.73h0c-9.93.2-19.86.47-29.79.7C51.24,12.2,61.17,11.93,71.1,11.73Z"/><path class="cls-3" d="M71.1,11.73h0c-9.93.2-19.86.47-29.79.7C51.24,12.2,61.17,11.93,71.1,11.73Z"/><path class="cls-3" d="M41.4,32.06c0,2.19,0,4.37,0,6.55,14.12-.31,28.24-.72,42.36-.9a40.34,40.34,0,0,0-1.2-6.54c-13,.17-25.94.53-38.91.84Z"/><path class="cls-23" d="M82.58,31.17h0c-13,.17-25.94.53-38.91.84C56.64,31.7,69.61,31.34,82.58,31.17Z"/><path class="cls-3" d="M82.58,31.17h0c-13,.17-25.94.53-38.91.84C56.64,31.7,69.61,31.34,82.58,31.17Z"/><path class="cls-24" d="M83.78,37.71h0c-14.12.18-28.24.59-42.36.9C55.54,38.3,69.66,37.89,83.78,37.71Z"/><path class="cls-3" d="M83.78,37.71h0c-14.12.18-28.24.59-42.36.9C55.54,38.3,69.66,37.89,83.78,37.71Z"/><path class="cls-3" d="M41.37,25.5h.27c12.87-.29,25.73-.65,38.61-.84a41.46,41.46,0,0,0-3.66-6.47c-11.55.19-23.1.5-34.66.77l-.59,0Z"/><path class="cls-25" d="M26.23,13.36a.66.66,0,0,1,.2.21.56.56,0,0,1,0,.56c0,.1-.07.21-.11.32a2.92,2.92,0,0,0-.17.94c.33-.29.62-.5.88-.76a.59.59,0,0,1,.34-.2.54.54,0,0,1,.35.18,2.91,2.91,0,0,0,.93.68,11.31,11.31,0,0,0-.32-1.15.61.61,0,0,1,.22-.83,3.09,3.09,0,0,0,.92-1c-1.35.56-1.88-.12-2.05-1.4,0,0,0,0-.1-.08-.12.42-.25.79-.32,1.18s-.25.5-.57.48-.7,0-1.2,0l.53.46C26,13.14,26.09,13.26,26.23,13.36Z"/><path class="cls-25" d="M17.13,14.46a2.3,2.3,0,0,0-.23,1c.35-.3.67-.53,1-.82a.36.36,0,0,1,.28-.14.46.46,0,0,1,.28.14c.28.26.59.49,1,.83-.15-.54-.22-.9-.35-1.24a.71.71,0,0,1-.06-.48.69.69,0,0,1,.28-.35c.28-.2.54-.46.85-.73a1.29,1.29,0,0,0-.44-.11,1.45,1.45,0,0,0-.37,0,.66.66,0,0,1-.83-.38,1.9,1.9,0,0,1-.14-.44,1.76,1.76,0,0,0-.29-.84,4.5,4.5,0,0,1-.51,1.54.56.56,0,0,1-.36.17h-.09c-.22,0-.46,0-.69,0h-.22l-.12.09a6.69,6.69,0,0,0,.69.57A.8.8,0,0,1,17.13,14.46Z"/><path class="cls-25" d="M10,14.84l-.29.33c.15.11.3.23.47.38C10.09,15.28,10,15.05,10,14.84Z"/><path class="cls-25" d="M37.9,13.1a6.58,6.58,0,0,0,.63-.54l.27-.25c-.52,0-.88,0-1.23,0h-.2a.46.46,0,0,1-.17-.09A.64.64,0,0,1,37,11.9c-.09-.4-.23-.79-.37-1.27-.16.48-.22,1-.38,1.35a1.24,1.24,0,0,1-.2.29,1,1,0,0,1-.65.18h-.77c0,.06,0,.12.09.14a1.56,1.56,0,0,1,.7,2.36s0,.12,0,.18c.42-.65.83-.85,1.25-.77a2.86,2.86,0,0,1,1.27.85c-.13-.44-.2-.8-.33-1.14S37.52,13.34,37.9,13.1Z"/><path class="cls-25" d="M3.33,27.91c-.13.39-.22.81-.36,1.32l.45-.35c.42-.35.63-.52.84-.52s.43.17.86.52c.06.05.11.11.18.16a.29.29,0,0,0,.23.05,9,9,0,0,0-.26-1,.74.74,0,0,1,.3-1.06,7.75,7.75,0,0,0,.72-.59l0-.12H5.94c-.69,0-1,0-1.16-.28a3.78,3.78,0,0,1-.37-1,.6.6,0,0,0-.19-.37c-.12.4-.26.79-.34,1.2s-.23.46-.53.44l-.32,0-.23.59.33.27A.53.53,0,0,1,3.33,27.91Z"/><path class="cls-25" d="M14.88,27.07a1.45,1.45,0,0,0,.67-.69c-.42,0-.78,0-1.14,0s-.4-.12-.49-.43a4.71,4.71,0,0,0-.4-1.22A4.46,4.46,0,0,1,13,26.28a.76.76,0,0,1-.63.16,4.6,4.6,0,0,0-.74-.05s0,.06-.08.12c.28.23.54.49.83.69a.6.6,0,0,1,.22.83c-.13.37-.21.77-.31,1.16.81-1.05,1.6-1,2.42-.06,0,0,0,0,.05,0h0a1.56,1.56,0,0,0-.19-.88C14.36,27.72,14.41,27.36,14.88,27.07Z"/><path class="cls-25" d="M14.75,29.13h0Z"/><path class="cls-25" d="M32.63,26.1a.75.75,0,0,1-.18-.37c-.09-.39-.22-.78-.36-1.28-.05.16-.09.33-.13.48a2.66,2.66,0,0,1-.42,1.16c-.32.34-.9.09-1.36.14,0,0-.06,0-.14.08.33.27.62.54.94.77a.51.51,0,0,1,.19.67,5.19,5.19,0,0,0-.31,1.33c.34-.29.65-.52.92-.8a.5.5,0,0,1,.33-.18.55.55,0,0,1,.32.18,11,11,0,0,0,1,.77c-.15-.53-.23-.9-.36-1.24a.63.63,0,0,1,.24-.83c.29-.21.56-.48.95-.83a11.37,11.37,0,0,0-1.25,0A.42.42,0,0,1,32.63,26.1Z"/><path class="cls-25" d="M24,27.17a10.29,10.29,0,0,0,.87-.76l.06-.25a1.85,1.85,0,0,1-.88.22c-.72,0-1-.81-1.19-1.76-.18.59-.22,1.28-.54,1.61a.8.8,0,0,1-.65.16h-.13l-.42,0h-.23c0,.18.1.21.17.27,1,.83,1,.83.63,2.15,0,.1,0,.2-.06.43.36-.31.67-.53.93-.8a.48.48,0,0,1,.33-.18.59.59,0,0,1,.32.18c.28.27.59.49,1,.81-.15-.54-.24-.95-.38-1.33A.54.54,0,0,1,24,27.17Z"/><path class="cls-25" d="M30.77,10.62a1.07,1.07,0,0,0,.06.17c.38-.62.77-.89,1.17-.88a1.85,1.85,0,0,1,1.24.72A4.2,4.2,0,0,0,33,9.41a.55.55,0,0,1,.21-.73c.3-.21.57-.49.86-.74l0-.12a6.33,6.33,0,0,0-.87,0,1,1,0,0,1-.29,0c-.26,0-.42-.23-.5-.64a2.75,2.75,0,0,0-.34-1c-.12.42-.26.79-.33,1.18a.62.62,0,0,1-.21.45.64.64,0,0,1-.43.09,7.85,7.85,0,0,0-1,0l-.15.16C31.28,8.49,31.23,9.48,30.77,10.62Z"/><path class="cls-25" d="M37.56,39.78a.61.61,0,0,1-.16-.09c-.19-.16-.29-.47-.47-1.1,0-.12-.09-.23-.17-.46-.14.51-.27.9-.35,1.3a.87.87,0,0,1-.12.29.43.43,0,0,1-.41.17c-.36,0-.73,0-1.24,0,.42.35.7.62,1,.83a.65.65,0,0,1,.21.23.63.63,0,0,1,0,.49,4.34,4.34,0,0,0-.29,1.23c.48-.24.8-.93,1.24-.89s.81.55,1.28.91c-.13-.45-.22-.83-.35-1.18a.65.65,0,0,1,.24-.88,2.18,2.18,0,0,0,.8-.82h-.33A3.48,3.48,0,0,1,37.56,39.78Z"/><path class="cls-25" d="M18.26,38.52l-.12-.11c0,1.56-.75,1.94-1.92,1.81.3.26.6.53.91.76a.73.73,0,0,1,.17.19.55.55,0,0,1,0,.48A4.8,4.8,0,0,0,17,43c.34-.29.65-.51.92-.78a.38.38,0,0,1,.65,0c.26.26.56.47,1,.81-.1-.39-.16-.67-.23-.91a2.09,2.09,0,0,0-.08-.23c-.17-.45-.15-.77.26-1a5.81,5.81,0,0,0,.76-.65l.06-.2a2.1,2.1,0,0,1-.85.17C18.76,40.12,18.42,39.46,18.26,38.52Z"/><path class="cls-25" d="M10.18,40.9a8.24,8.24,0,0,0,.88-.74h-.88A1,1,0,0,1,9.52,40c-.33-.28-.37-1-.57-1.6-.18.59-.21,1.28-.52,1.6a.6.6,0,0,1-.31.15c-.28.05-.65,0-1,0l-.22,0c.35.3.62.57.92.78a.56.56,0,0,1,.26.34.76.76,0,0,1,0,.44,3.24,3.24,0,0,0-.26,1.23c.31-.26.59-.46.83-.7a.62.62,0,0,1,.19-.15c.18-.11.35-.07.55.15s.56.47.95.79c-.14-.5-.22-.87-.35-1.21a.73.73,0,0,1,0-.63A.77.77,0,0,1,10.18,40.9Z"/><path class="cls-25" d="M26.34,42.79h0v0a0,0,0,0,1,0,0Z"/><path class="cls-25" d="M28.66,40.85c.3-.23.58-.51,1-.86-.51,0-.85,0-1.19,0a.74.74,0,0,1-.21,0c-.19,0-.31-.17-.37-.46a11.35,11.35,0,0,0-.32-1.14l-.15-.1c0,1.18-.39,1.68-1.06,1.77a2.09,2.09,0,0,1-.74,0s-.05.05-.1.1c.3.25.57.51.87.73a.57.57,0,0,1,.22.73,2.64,2.64,0,0,0-.25,1.18,2.41,2.41,0,0,0,.65-.55,1,1,0,0,1,.5-.3.78.78,0,0,1,.57.29,2.33,2.33,0,0,0,.65.53,2.75,2.75,0,0,0-.26-1.18A.57.57,0,0,1,28.66,40.85Z"/><path class="cls-25" d="M28.72,42.76h0v0Z"/><path class="cls-25" d="M.88,42.78a2.74,2.74,0,0,0-.26-1.17.56.56,0,0,1,.21-.73c.3-.22.58-.49,1-.83C1.3,40,1,40,.62,40A.51.51,0,0,1,.24,40a.54.54,0,0,1-.17-.3C0,40.43,0,41.21,0,42v0c.26.17.49.51.78.68l.1.05Z"/><path class="cls-25" d="M.89,42.79h0v0Z"/><path class="cls-25" d="M7.92,23.5a3.58,3.58,0,0,0-.11.35,2.63,2.63,0,0,0-.12,1c.39-.71.79-1,1.18-1l.2,0,.09,0h0a2.26,2.26,0,0,1,.87.68s.06,0,.12,0a7.41,7.41,0,0,0-.27-.95.76.76,0,0,1,.32-1.1,7.27,7.27,0,0,0,.81-.68H10.4c-1,0-1,0-1.34-1.14l-.15-.52C8.8,21,8.53,21.6,8,21.8a.66.66,0,0,1-.15,0,.58.58,0,0,1-.18,0,2,2,0,0,1-.86-.16,1.46,1.46,0,0,0,0,.2,8.12,8.12,0,0,0,.79.66A.69.69,0,0,1,7.92,23.5Z"/><path class="cls-25" d="M35.69,22.5a.56.56,0,0,1,.13.42,1,1,0,0,1-.07.28,2.85,2.85,0,0,0-.24,1.18c.33-.29.64-.52.91-.79s.3-.19.45-.11l.16.12c.28.25.59.48,1,.8-.08-.29-.14-.54-.2-.76s-.11-.4-.18-.59a.8.8,0,0,1,0-.21.49.49,0,0,1,.23-.47c.31-.23.59-.51,1-.88-.52,0-.88,0-1.23,0a.67.67,0,0,1-.2,0c-.18,0-.27-.17-.33-.43-.09-.42-.23-.82-.38-1.31-.1.32-.18.56-.24.79-.27,1-.26,1-1.11,1h-.78c.4.33.64.58.92.76A.69.69,0,0,1,35.69,22.5Z"/><path class="cls-25" d="M14.67,10.82a1.5,1.5,0,0,0-.06-.6l0,0-.35.31A1.46,1.46,0,0,0,14.67,10.82Z"/><path class="cls-25" d="M14.67,10.82h0v0Z"/><path class="cls-25" d="M19.31,22.63c.31-.22.59-.51,1-.85-.38,0-.68,0-.95,0l-.28,0a.7.7,0,0,1-.21,0l-.05,0a.52.52,0,0,1-.27-.41c-.09-.42-.23-.83-.37-1.33a5.15,5.15,0,0,1-.51,1.62.56.56,0,0,1-.46.21c-.24,0-.5-.05-.75-.05h-.18s-.05.05-.1.1a9.89,9.89,0,0,0,.87.73c.27.19.3.39.2.73,0,.13-.08.28-.13.43a4.05,4.05,0,0,0-.17,1c.51-.85,1-1.1,1.5-.95a2.06,2.06,0,0,1,.89.66l.12,0c-.11-.42-.21-.82-.34-1.2A.55.55,0,0,1,19.31,22.63Z"/><path class="cls-25" d="M21.81,9.61c0,.14-.09.27-.13.42a2.25,2.25,0,0,0-.14.81c.33-.27.62-.48.88-.74a.46.46,0,0,1,.35-.19.52.52,0,0,1,.16.06.73.73,0,0,1,.18.14c.26.25.56.45.84.68l.17,0c-.71-1.08-.5-1.83.22-2.4a2.88,2.88,0,0,1,.34-.23s0-.07,0-.16h-.54a4.61,4.61,0,0,0-.53,0,.7.7,0,0,1-.21,0c-.17,0-.26-.19-.32-.44s-.22-.78-.37-1.27c-.21.64-.25,1.36-.57,1.63a1,1,0,0,1-.66.17c-.26,0-.56,0-.85,0a10.45,10.45,0,0,0,.92.76A.6.6,0,0,1,21.81,9.61Z"/><path class="cls-25" d="M26.51,23.27a3.15,3.15,0,0,0-.25,1.1v.12a3.23,3.23,0,0,0,.29-.25c.28-.28.57-.58.87-.61a.47.47,0,0,1,.26.05l.06,0c.3.16.58.57.89.78h0a.18.18,0,0,0,0-.21,2.48,2.48,0,0,1-.23-.66,1.61,1.61,0,0,1,1-1.8s0-.07,0-.15c-.36,0-.71,0-1.07,0s-.44-.09-.53-.43-.13-.58-.24-.86a1.54,1.54,0,0,0-.17-.34c-.18.56-.22,1.22-.52,1.54s-.9.07-1.36.13c0,0-.05.05-.09.1.29.24.56.5.87.72S26.6,22.92,26.51,23.27Z"/><path class="cls-25" d="M26.26,24.5h0v0h0Z"/><path class="cls-25" d="M23.43,35.42c-.37-.26-.34-1-.53-1.53l0,0c-.07,1-.44,1.63-1.12,1.72l-.09,0h0a2.41,2.41,0,0,1-.83-.13c0,.06,0,.12.05.18a9.86,9.86,0,0,0,.79.66.64.64,0,0,1,.26.87,4,4,0,0,0-.23.83,3.86,3.86,0,0,0,0,.5c.4-.66.8-1,1.19-1a1.62,1.62,0,0,1,1.17.72s.05,0,.12,0c-.12-.4-.2-.81-.34-1.19a.53.53,0,0,1,.2-.71,3.92,3.92,0,0,1,.32-.25,2.21,2.21,0,0,0,.57-.63c-.27,0-.56.06-.81.08A1,1,0,0,1,23.43,35.42Z"/><path class="cls-25" d="M5.49,36.33c.3-.2.56-.47.94-.79-.52,0-.9,0-1.28,0a.37.37,0,0,1-.29-.07h0a.6.6,0,0,1-.16-.31c-.1-.44-.24-.87-.37-1.3a3.09,3.09,0,0,1-.19.89,1.19,1.19,0,0,1-1.32.84,2.14,2.14,0,0,1-.41-.06s0,0-.09.08c.38.35,1,.63,1.08,1.07a1.78,1.78,0,0,1-.13,1c-.07.23-.15.48-.21.73.34-.28.62-.48.86-.72a.65.65,0,0,1,.39-.23.56.56,0,0,1,.4.22,11,11,0,0,0,.92.78c-.15-.55-.22-.92-.35-1.26A.6.6,0,0,1,5.49,36.33Z"/><path class="cls-25" d="M35.48,5.54a.71.71,0,0,0,0,.49c.29-.25.59-.48.86-.75a.45.45,0,0,1,.35-.18.52.52,0,0,1,.3.16c.27.27.58.48.87.72l.17,0a1.94,1.94,0,0,1-.39-1.55,1.88,1.88,0,0,1,1-1.08s0-.07.06-.25a1.84,1.84,0,0,1-.81.19c-.57,0-.89-.47-1.05-1.18a3.4,3.4,0,0,1-.08-.46s0,0-.09-.1c-.12.44-.25.86-.35,1.28s-.19.45-.49.43-.73,0-1.21,0a4.16,4.16,0,0,0,.36.34C35.8,4.33,35.8,4.33,35.48,5.54Z"/><path class="cls-25" d="M33.05,36.5c.17-.45.7-.73,1.13-1.16-.43,0-.8,0-1.17,0a.38.38,0,0,1-.19,0c-.16,0-.25-.16-.31-.39a4.86,4.86,0,0,0-.42-1.29c-.12.45-.26.84-.34,1.25s-.25.49-.57.47-.69,0-1,0l-.12.15c1.27.44,1.41,1.33.87,2.5,0,0,0,.08,0,.17a5.39,5.39,0,0,0,.62-.53c.29-.34.58-.48.87-.31a1,1,0,0,1,.31.26,4.49,4.49,0,0,0,.67.56,2.54,2.54,0,0,0-.13-.56A1.86,1.86,0,0,1,33.05,36.5Z"/><path class="cls-25" d="M14.43,35.57c-.26,0-.38-.1-.45-.4s-.24-.81-.41-1.37c-.07.27-.15.5-.21.72s-.12.4-.16.6c-.07.35-.22.47-.53.45a4.78,4.78,0,0,0-.54,0,1.77,1.77,0,0,0-.59.09,5.64,5.64,0,0,0,.67.55.78.78,0,0,1,.46.87,1.27,1.27,0,0,1-.11.4c-.1.28-.29.59-.14.93.29-.25.58-.49.85-.77a.43.43,0,0,1,.33-.16.6.6,0,0,1,.34.18,3.56,3.56,0,0,0,.62.52,1.39,1.39,0,0,0,.28.12c-.06-.22-.13-.44-.2-.65a1.88,1.88,0,0,1-.14-.9c.1-.49.7-.66,1-1,0,0,0-.07,0-.14C15.18,35.56,14.8,35.54,14.43,35.57Z"/><polygon class="cls-25" points="12.43 38.4 12.43 38.4 12.43 38.4 12.43 38.4"/><polygon class="cls-25" points="12.43 38.4 12.42 38.39 12.42 38.4 12.43 38.4"/><path class="cls-25" d="M26.44,3.39l-.53,0h0l-.19,0a1.16,1.16,0,0,0-.39.09,9.07,9.07,0,0,0,.76.62.67.67,0,0,1,.38.63,1.64,1.64,0,0,1-.09.44,2,2,0,0,0-.16,1.12c.38-.64.76-.9,1.14-.9a1.7,1.7,0,0,1,1.13.66h.08a2,2,0,0,0-.21-.94c-.17-.46-.14-.78.27-1a8.79,8.79,0,0,0,.87-.75,9.46,9.46,0,0,0-1.13,0,.45.45,0,0,1-.54-.23,1,1,0,0,1-.13-.34l-.06-.26L27,2.76a1.16,1.16,0,0,0,0,.18.78.78,0,0,1-.11.26A.43.43,0,0,1,26.44,3.39Z"/><path class="cls-25" d="M21.37,17.79a.91.91,0,0,1,.39,1.31,1.92,1.92,0,0,0-.19.93c.31-.27.6-.48.85-.74s.47-.29.73,0,.56.47,1,.8c-.16-.59-.25-1-.39-1.41a.46.46,0,0,1,.17-.62c.31-.23.59-.51,1-.85-.59,0-1.2.16-1.51-.11a1.32,1.32,0,0,1-.27-.5c-.12-.33-.2-.74-.32-1.12a9.15,9.15,0,0,0-.32,1.12c-.08.52-.31.68-.74.62l-.22,0h-.82A6.92,6.92,0,0,0,21.37,17.79Z"/><path class="cls-25" d="M14.48,17.25c-.34,0-.54-.09-.62-.5a10.75,10.75,0,0,0-.31-1.11l-.11,0a8.39,8.39,0,0,0-.26.95c-.06.38-.19.59-.45.65h-.29a7.08,7.08,0,0,0-1,0c.41.34.68.6,1,.82a1.17,1.17,0,0,1,.16.15.56.56,0,0,1,0,.58c-.13.38-.21.8-.34,1.31.14-.11.27-.24.4-.36a1.85,1.85,0,0,1,.85-.59.65.65,0,0,1,.46.16l.14.13.28.28.14.14.15.12s.07,0,.14,0c-.12-.41-.2-.81-.34-1.2a.77.77,0,0,1,0-.41.52.52,0,0,1,.25-.31c.3-.22.57-.49,1-.84A10.58,10.58,0,0,0,14.48,17.25Z"/><path class="cls-25" d="M30.81,19.77s0,0,0,.12c.31-.27.62-.51.91-.79s.29-.21.44-.13a.51.51,0,0,1,.16.11c.28.27.58.49,1,.84-.15-.55-.22-.92-.35-1.25a.93.93,0,0,1-.08-.28.66.66,0,0,1,.33-.6c.13-.11.29-.22.43-.35A1.35,1.35,0,0,0,34,17a8.41,8.41,0,0,0-1,0,.6.6,0,0,1-.32-.05.64.64,0,0,1-.29-.46A4.12,4.12,0,0,0,32,15.34a7.27,7.27,0,0,0-.26.93c-.08.62-.34.91-.91.8a4,4,0,0,0-.77,0l-.17.16C31.32,17.66,31.27,18.63,30.81,19.77Z"/><path class="cls-25" d="M10.43,31.52,11,31c-.46,0-.79,0-1.11,0s-.53-.08-.61-.51a11.64,11.64,0,0,0-.38-1.31c-.14.53-.27.94-.36,1.36a.55.55,0,0,1-.25.4l-.08,0A.7.7,0,0,1,8,31a9,9,0,0,0-1,0,3.36,3.36,0,0,0,.77.78.66.66,0,0,1,.25.29.68.68,0,0,1,0,.54,5.19,5.19,0,0,0-.19.66c0,.18-.1.38-.16.62.41-.34.71-.57,1-.83a.48.48,0,0,1,.32-.17.46.46,0,0,1,.33.17c.27.28.59.5,1,.84L10,33.06C9.74,32.1,9.74,32.1,10.43,31.52Z"/><path class="cls-25" d="M37.59,30.7c-.48-.22-.67-.88-.81-1.62L36.7,29c-.11.44-.24.85-.34,1.28s-.23.48-.53.45-.7,0-1,0a3.15,3.15,0,0,0,.78.77c.31.2.35.45.22.83a3.85,3.85,0,0,0-.27,1.19c.33-.26.64-.65.94-.83a.6.6,0,0,1,.3-.1.58.58,0,0,1,.3.09,8.8,8.8,0,0,1,.92.76s0,0,0,0a3.93,3.93,0,0,1-.25-.81,1.41,1.41,0,0,1,1.1-1.78c0-.11,0-.21-.05-.31A1.42,1.42,0,0,1,37.59,30.7Z"/><path class="cls-25" d="M17.22,32.84a5,5,0,0,1-.25.85s0,0,0,.11c.31-.27.63-.51.91-.79a.55.55,0,0,1,.21-.13l.13,0a.49.49,0,0,1,.27.16c.28.26.58.48,1,.81-.08-.34-.12-.53-.17-.7-.3-1.06-.3-1.06.45-1.7l.5-.47h-.63a4.41,4.41,0,0,0-.52,0,.42.42,0,0,1-.39-.13.86.86,0,0,1-.18-.36,4.33,4.33,0,0,0-.39-1.22c-.09.29-.16.53-.22.77-.21.73-.26.89-.66.93h-1l-.19.16A1.38,1.38,0,0,1,17.22,32.84Z"/><path class="cls-25" d="M28.62,31.69c.28-.23.55-.49.95-.84h-.71c-.27,0-.46,0-.59,0h-.15c-.21,0-.18-.23-.43-1a4.48,4.48,0,0,0-.12-.46.52.52,0,0,0-.14-.2A4.88,4.88,0,0,1,27,30.73c-.32.41-.89.09-1.34.19,0,0-.05,0-.11.1a7.67,7.67,0,0,0,.78.65.91.91,0,0,1,.2.19.62.62,0,0,1,0,.63,11.66,11.66,0,0,0-.31,1.16l.05.2c.4-.67.8-1,1.22-.94a2.13,2.13,0,0,1,1.3.83c-.15-.54-.23-1-.37-1.32A.54.54,0,0,1,28.62,31.69Z"/><path class="cls-25" d="M.83,33.65l.12.13a2.29,2.29,0,0,1-.1-.23S.84,33.61.83,33.65Z"/><path class="cls-25" d="M1.49,30.92c0,.08-.05.16-.07.25l.13-.09s0-.06,0-.16Z"/><path class="cls-25" d="M14.82,29.14h-.06l0,.07Z"/><path class="cls-25" d="M14.75,29.12h0Z"/><path class="cls-25" d="M28.68,24.44l0,0h.07Z"/><path class="cls-25" d="M28.63,24.48h0Z"/><path class="cls-25" d="M12.37,38.33l0,0,.08,0v0S12.39,38.32,12.37,38.33Z"/><polygon class="cls-25" points="12.42 38.39 12.43 38.4 12.43 38.4 12.43 38.4 12.43 38.4 12.42 38.4 12.42 38.39"/><path class="cls-25" d="M14.74,10.84h-.05l.05.06Z"/><path class="cls-25" d="M14.69,10.84l0,0h0v0Z"/><path class="cls-25" d="M1,42.81s0,0,0,0l0,0h0l.06.08S1,42.83,1,42.81Z"/><path class="cls-25" d="M.89,42.79Z"/><path class="cls-25" d="M28.79,42.78s0,0,0,0,0,0,0,0h0l.05.07S28.79,42.8,28.79,42.78Z"/><path class="cls-25" d="M28.72,42.76v0h0Z"/><path class="cls-25" d="M26.18,24.53l.07,0-.06,0A.07.07,0,0,1,26.18,24.53Z"/><path class="cls-25" d="M26.26,24.5h0Z"/><path class="cls-25" d="M26.29,42.77a.11.11,0,0,0,0,0s0,0,0,.06l.05-.08Z"/><path class="cls-25" d="M26.33,42.79h0Z"/></g></g></svg>