<svg width="374" height="118" viewBox="0 0 374 118" fill="none" xmlns="http://www.w3.org/2000/svg">
<g clip-path="url(#clip0)">
<path d="M160.999 2.23846C161.091 2.32983 161.091 2.46688 160.999 2.64961C160.541 3.79169 158.891 6.76111 158.708 6.89816L157.379 6.62406C157.379 6.62406 156.28 4.70536 154.676 3.70033C154.218 3.42623 153.76 3.19781 153.302 3.06076C152.798 2.92371 152.294 2.83234 151.79 2.83234C151.469 2.83234 151.103 2.92371 150.644 3.06076C150.186 3.19781 149.774 3.42623 149.316 3.70033C148.903 3.92874 148.445 4.38558 147.987 4.97946C147.529 5.52766 147.162 6.16722 146.887 6.85247C146.429 7.85751 146.154 8.77117 146.017 9.59347C145.834 10.6899 145.742 11.8776 145.742 13.1568C145.742 14.8927 145.925 16.3546 146.338 17.5881C146.75 18.8215 147.254 19.8265 147.85 20.5575C148.445 21.3798 149.178 21.9737 150.049 22.3391C150.828 22.7046 151.698 22.8873 152.66 22.8873C153.118 22.8873 153.668 22.8416 154.356 22.7503C154.814 22.6589 155.272 22.5219 155.73 22.3391V16.446C155.73 16.2176 155.73 16.0805 155.684 15.9891C155.593 15.6694 154.264 14.8927 152.844 14.8014V13.2481H162.877V14.8014C161.686 14.9841 161.182 15.8521 161.091 15.9435C160.999 16.0805 160.999 16.2632 160.999 16.446V25.9938L156.005 31.4758L155.867 25.3085C155.363 25.537 154.63 25.7654 153.668 25.9481C153.073 26.0395 152.431 26.0852 151.79 26.0852C150.873 26.0852 149.866 25.9938 148.858 25.8111C148.17 25.674 147.3 25.3085 146.2 24.806C145.421 24.4406 144.642 23.8924 143.818 23.1614C143.176 22.6589 142.535 21.8823 141.893 20.7859C141.344 19.8265 140.931 18.8672 140.656 17.8165C140.382 16.6744 140.198 15.4409 140.198 14.1618C140.198 11.969 140.519 10.0046 141.206 8.26866C141.848 6.71543 142.81 5.25356 144.138 3.92874C145.421 2.69529 146.887 1.82731 148.537 1.18774C150.278 0.548177 152.111 0.228394 154.035 0.228394C154.585 0.228394 155.134 0.274077 155.684 0.365444C156.005 0.411127 156.601 0.548177 157.563 0.73091C158.021 0.86796 158.662 1.05069 159.533 1.37048C160.128 1.64458 160.632 1.91868 160.999 2.23846Z" fill="black"/>
<path d="M188.26 12.9283C188.26 14.0247 188.122 15.1668 187.802 16.4003C187.527 17.451 187.069 18.5017 186.519 19.6438C185.969 20.6945 185.328 21.6082 184.64 22.3848C184.091 23.0243 183.266 23.7553 182.166 24.5776C181.158 25.1715 180.196 25.6283 179.234 25.9024C178.226 26.2222 177.126 26.3592 176.027 26.3592C174.286 26.3592 172.728 25.9938 171.445 25.3085C170.162 24.7146 168.971 23.7553 167.963 22.4761C167.001 21.2884 166.268 19.9636 165.764 18.456C165.26 16.9485 164.985 15.3495 164.985 13.6593C164.985 11.8776 165.306 10.1416 165.901 8.49704C166.497 6.80676 167.368 5.39058 168.421 4.24849C169.521 2.96936 170.804 1.96433 172.27 1.27908C173.69 0.548145 175.34 0.182678 177.218 0.182678C179.051 0.182678 180.654 0.548145 181.937 1.27908C183.266 1.96433 184.411 2.92368 185.419 4.15713C186.381 5.43626 187.069 6.80676 187.481 8.22294C187.985 9.77618 188.26 11.3751 188.26 12.9283ZM182.533 13.2938C182.533 11.8776 182.395 10.5528 182.075 9.36503C181.8 8.08589 181.342 6.94381 180.746 5.98446C180.15 5.07079 179.463 4.29418 178.684 3.74598C177.905 3.15209 176.989 2.87799 175.981 2.87799C175.111 2.87799 174.332 3.10641 173.644 3.51756C173.049 3.92871 172.453 4.61396 171.949 5.57331C171.491 6.44129 171.17 7.49201 170.987 8.77114C170.758 9.95891 170.666 11.4208 170.666 13.1111C170.666 14.6643 170.85 16.0348 171.17 17.2226C171.445 18.5017 171.903 19.5981 172.499 20.6031C173.003 21.4254 173.644 22.1564 174.515 22.8416C175.248 23.3898 176.073 23.6639 176.943 23.6639C177.768 23.6639 178.501 23.4355 179.188 23.0243C179.83 22.7046 180.425 22.065 180.929 21.1513C181.433 20.2377 181.846 19.1869 182.075 17.9535C182.395 16.5373 182.533 14.9841 182.533 13.2938Z" fill="black"/>
<path d="M213.459 12.5629C213.459 14.2988 213.321 15.7607 213.001 17.0398C212.634 18.3646 212.13 19.5524 211.58 20.5118C210.985 21.5168 210.298 22.3391 209.519 23.0243C208.602 23.801 207.778 24.3492 206.953 24.7146C206.082 25.1715 205.166 25.4456 204.112 25.674C203.333 25.9024 202.371 25.9938 201.272 25.9938H189.222V24.3948C190.459 24.2121 191.925 23.801 191.925 23.1157V5.16216C192.887 4.20281 194.812 3.01505 195.407 2.83231C194.262 2.6039 189.222 3.51756 189.222 3.51756L188.947 1.46181L190.276 1.18771C190.367 1.18771 190.734 1.14203 191.329 1.00498C192.567 0.822248 193.574 0.685198 194.308 0.639514C194.995 0.548148 196.003 0.456781 197.377 0.365414C198.798 0.319731 199.76 0.274048 200.31 0.274048C202.463 0.274048 204.341 0.548148 205.945 1.09635C207.594 1.64455 208.923 2.42116 210.023 3.51756C211.122 4.61396 211.993 5.8931 212.588 7.35496C213.184 8.81683 213.459 10.5528 213.459 12.5629ZM207.457 13.3395C207.457 9.77618 206.724 7.08086 205.304 5.29921C203.837 3.47188 201.684 2.55821 198.843 2.55821C198.843 2.55821 197.973 2.55821 197.515 2.6039V22.2477V22.8416C197.561 23.07 197.652 23.2071 197.835 23.2984C197.927 23.3898 198.202 23.5269 198.66 23.6182C199.164 23.6639 199.714 23.7096 200.31 23.7096C201.043 23.7096 201.821 23.5269 202.6 23.1157C203.471 22.7502 204.25 22.1564 204.937 21.3341C205.624 20.5118 206.22 19.4154 206.678 18.0449C207.228 16.8571 207.457 15.3039 207.457 13.3395Z" fill="black"/>
<path d="M233.343 18.4103C233.343 18.9585 233.251 19.5524 233.068 20.2834C232.839 20.9229 232.564 21.5168 232.243 22.1564C231.739 22.8873 231.281 23.4355 230.777 23.8467C230.273 24.3492 229.632 24.8517 228.807 25.2628C228.12 25.6283 227.249 25.9481 226.196 26.2222C225.417 26.4506 224.363 26.5877 223.034 26.5877C222.439 26.5877 221.843 26.542 221.293 26.4506C220.331 26.3136 219.644 26.1765 219.232 26.0395C218.636 25.9024 217.949 25.7197 217.216 25.3999C216.574 25.1715 215.979 24.8974 215.52 24.6233C215.429 24.5776 215.383 24.4405 215.337 24.1664C215.337 24.1664 215.2 20.192 215.795 17.8165L217.353 17.9078C217.674 18.6845 218.04 19.4611 218.499 20.192C218.865 20.7859 219.369 21.3341 219.965 21.928C220.652 22.5218 221.248 22.8873 221.751 23.07C222.347 23.3441 223.034 23.4812 223.722 23.4812C224.455 23.4812 225.004 23.4355 225.417 23.2985C226.058 23.1614 226.562 22.933 226.929 22.6589C227.341 22.3391 227.662 21.928 227.937 21.5168C228.166 21.0143 228.257 20.4661 228.257 19.8722C228.257 19.0042 228.074 18.2733 227.708 17.7708C227.341 17.1312 226.883 16.6287 226.287 16.1719C225.554 15.578 224.867 15.1668 224.226 14.9384C223.309 14.4359 222.53 14.0704 221.889 13.7963C220.927 13.3395 220.148 12.9283 219.506 12.5629C218.957 12.2888 218.269 11.832 217.445 11.1924C216.803 10.5528 216.299 9.91325 216.024 9.31937C215.658 8.6798 215.475 7.8575 215.475 6.80679C215.475 6.34995 215.566 5.89312 215.75 5.3906C215.933 4.8424 216.208 4.38557 216.528 3.92874C216.849 3.4719 217.307 2.96939 217.857 2.46687C218.361 2.01004 219.003 1.59889 219.736 1.2791C220.285 0.959321 221.11 0.639537 222.164 0.411121C223.401 0.182704 224.363 0.0456543 225.142 0.0456543C226.975 0.0456543 228.12 0.365438 228.532 0.411121C228.945 0.502487 230.594 0.913637 231.052 1.18774C231.51 1.37047 231.877 1.59889 232.198 1.87299C232.289 1.96435 232.289 2.1014 232.243 2.28414C231.419 4.93377 229.861 6.89815 229.861 6.89815C229.861 6.89815 230.044 5.84744 228.395 4.15715C227.662 3.38054 226.654 2.96939 225.417 2.60392C224.959 2.46687 224.546 2.42119 224.18 2.42119C223.493 2.42119 222.943 2.51255 222.53 2.69529C222.072 2.87802 221.706 3.06075 221.385 3.33485C221.156 3.51759 220.927 3.83737 220.744 4.2942C220.652 4.5683 220.606 4.93377 220.606 5.34492C220.606 6.03017 220.744 6.57837 221.064 7.0352C221.568 7.5834 222.072 8.04023 222.576 8.4057C223.263 8.90822 223.951 9.27368 224.638 9.59347L226.975 10.7356C227.708 11.0553 228.487 11.5122 229.357 12.0604C229.907 12.3801 230.594 12.9283 231.419 13.6136C232.06 14.2988 232.518 14.9841 232.885 15.715C233.16 16.4916 233.343 17.3596 233.343 18.4103Z" fill="black"/>
<path d="M93.3283 94.2903L93.6948 88.3515L92.3661 88.2145L90.5335 88.0774H89.6171L87.9677 88.0317L86.5016 87.7576L85.4936 87.5749L83.9817 87.2551L82.9737 86.981L82.1949 86.6155C82.1949 86.6155 81.7367 86.7526 81.5992 86.113C81.4618 85.4735 82.6988 85.6562 81.4618 85.4735C80.2247 85.2907 81.0036 85.3364 80.2247 85.2907C79.4459 85.245 79.904 85.7476 79.4459 85.245C78.9877 84.7425 79.0793 85.1994 78.9877 84.7425C78.9419 84.2857 79.9498 84.0116 78.9419 84.2857C78.7586 84.3314 78.667 84.3771 78.6212 84.3771C78.8044 84.4227 78.3921 84.4684 78.6212 84.3771C78.5754 84.3771 78.4379 84.3314 78.2546 84.3314C78.0714 84.3314 77.9339 84.3314 77.8423 84.3314L83.661 97.6709L83.6152 97.7623L89.3422 103.701L84.8522 97.7623L94.1071 97.2598L99.6968 103.062L94.5195 96.209L93.3283 94.2903Z" fill="black"/>
<path d="M171.583 48.744L173.324 45.0437L160.129 45.0894L161.228 48.6527V65.0987H150.874L151.378 47.2365L152.477 45.2264L139.19 45.3178L140.657 49.0182L139.603 90.4529L137.449 95.9349H151.79L149.453 90.9554L149.957 75.6515L161.228 75.5145L161.503 90.1788L159.441 95.9349H173.644L171.354 90.59L171.583 48.744Z" fill="black"/>
<path d="M276.823 97.7622L274.258 94.0162L271.554 49.8861L272.746 46.7797L260.1 46.3228L261.75 49.3836L262.62 68.7076L248.921 46.003L238.2 45.6376L239.208 47.602L241.545 91.8691L239.895 96.6201L254.144 96.8029L251.487 92.8741L250.204 69.3015L265.781 97.3511L276.823 97.7622Z" fill="black"/>
<path d="M12.7828 64.7789L12.6912 65.3728L17.3645 68.3879H18.3724H19.3804H19.976C19.976 68.3879 19.7011 68.1138 21.213 68.3879C21.3963 68.4336 21.5796 68.4336 21.717 68.4792C21.3047 68.3879 22.221 68.3879 22.221 68.3879C22.221 68.3879 22.5417 68.5706 21.717 68.4792C21.8545 68.5249 22.1294 68.5706 22.6792 68.662C24.7867 68.9818 23.5039 68.8904 23.5039 68.8904L24.7867 68.9818H25.9321H26.3445L28.8644 42.0743L0 44.0387L14.4322 51.0282L12.7828 64.7789Z" fill="black"/>
<path d="M53.468 75.9712L53.0557 75.7885L52.0477 75.286L50.9023 75.1033L48.6115 74.7835H48.0159L47.0079 74.6464H45.6792L44.7629 74.6007L45.2669 75.2403L43.9382 74.3266L42.7928 74.0982L42.1055 73.6414L40.8227 73.3673L39.8147 73.1846L37.9362 91.732L34.3626 94.9298L25.52 95.4323L24.008 93.5136L26.2072 70.1695C25.1076 70.0781 26.6196 70.3065 25.1076 70.0781C24.3287 69.941 24.0538 69.8954 23.9622 69.8954H23.0001L21.763 69.941C21.763 69.941 23.0459 70.3065 20.8467 69.8954C18.6475 69.4842 18.6475 69.4385 18.6475 69.4385L17.5021 69.1187C17.4105 69.0731 17.3646 69.0274 17.273 68.9817C17.0439 68.8446 16.7232 68.6162 16.7232 68.6162C16.7232 68.6162 16.4025 68.3421 17.273 68.9817C17.5479 69.1644 17.6395 69.2101 16.3567 68.2964C14.4782 67.0173 14.7531 68.068 13.6077 67.5198C13.4244 67.4285 12.9204 66.7432 12.5539 66.3777L8.43042 100.275L15.9901 107.584V107.63L25.5658 117.178L18.0061 107.858L39.3107 106.99L47.237 114.893L41.0518 106.899H41.1892L50.49 97.9906L58.0497 105.528L51.4521 96.9856L53.468 75.9712Z" fill="black"/>
<path d="M41.1894 72.545C41.5559 72.3623 42.6555 73.0475 42.6555 73.0475L43.8925 73.6871L44.9005 74.0526H46.6873H47.9244L50.4901 74.418H51.773L53.2849 74.9206L53.6056 75.0576L56.5379 44.998L58.1873 40.2012L43.0678 41.1149L39.9065 72.5907C40.3647 72.6364 40.9603 72.6364 41.1894 72.545Z" fill="black"/>
<path d="M70.0537 94.7928L71.0617 84.2399L70.3744 83.4176L68.0836 82.7781L65.9302 81.9101L64.8306 81.4532L62.8605 80.5853L61.7151 79.5345L61.3028 79.2604L59.9741 94.7928L58.1873 98.7215L63.9143 104.706L59.3785 98.6758L70.741 98.1276V98.219L76.468 104.158L71.7947 97.9449L70.0537 94.7928Z" fill="black"/>
<path d="M79.4458 83.2349H80.408L81.2327 83.5547H83.2028L84.2107 84.2399L85.9976 84.6968L87.0055 85.0165L88.4717 85.6561L90.2585 86.1586H91.2207C91.8621 86.1129 92.9617 86.1586 92.9617 86.1586L93.7864 86.4327L96.2147 48.5156L97.6808 46.3685L84.6689 46.7339L86.0434 50.1602L84.2565 70.9461L73.2606 47.3735L62.1272 48.0131L63.6391 51.2109L61.3025 78.7579L61.669 78.8036L63.7766 79.0777L64.8762 79.5802L65.8841 80.2198L67.0296 80.5396L68.4957 80.9964L70.3283 81.2705L71.2447 81.8644L72.2068 71.677L77.1092 82.8694L77.9339 83.0065L79.4458 83.2349Z" fill="black"/>
<path d="M131.31 58.8857H129.386L127.232 59.4796L126.316 59.9821L126.637 61.0785C126.316 61.7638 125.4 62.8145 125.4 62.8145L124.3 64.6418L122.376 65.6926L122.33 67.2458L133.967 62.4034V59.3883L132.318 59.1598L131.31 58.8857Z" fill="black"/>
<path d="M108.814 46.0944L101.254 52.7185L99.1011 90.1788L106.111 96.8029L124.758 96.1633L132.685 88.6256L133.189 71.8141L121.918 76.7936L121.643 84.8339L119.215 87.118H112.25L110.464 85.3364L112.113 57.0127L113.121 55.3681L122.697 55.7336L122.376 65.4641L123.659 64.4591L124.025 63.8195L124.438 63.18L125.95 61.0785L125.262 60.2562L126.27 59.2512L127.736 58.8857V58.2462H129.386H131.493H132.272H132.868C132.868 58.2462 133.967 58.7487 133.967 58.8857V51.9419L127.049 45.5462L108.814 46.0944Z" fill="black"/>
<path d="M214.375 89.9047L214.055 89.9961L213.413 90.7727L211.306 92.0975L210.023 93.3766L209.656 94.0619L210.298 94.2446L211.26 93.6051L211.077 94.2903C211.077 94.2903 209.244 94.7471 209.015 94.7928C208.832 94.8385 207.274 95.4781 207.274 95.4781L206.083 96.1176H217.216L215.063 92.6457L214.375 89.9047Z" fill="black"/>
<path d="M208.923 94.0619V93.2853L212.634 90.2702L213.413 89.7677L214.192 89.0367L204.204 47.8304L205.395 45.1351L186.519 45.0437L188.352 47.9674L179.005 92.0975L176.943 95.9349H192.017L190.734 92.7371L192.017 84.4684H201.364L203.013 92.0518L201.272 96.209H205.258L206.083 95.2954L208.923 94.0619ZM193.391 74.8292L196.186 58.1091L199.531 74.8292H193.391Z" fill="black"/>
<path d="M221.111 85.6562L221.523 85.4734L222.485 84.9709L223.63 84.377L224.318 83.7375L224.822 83.0522L226.242 82.7324L228.12 82.2756L229.358 81.2706L230.457 80.3112L231.19 79.7173L232.244 79.1691L231.419 48.6527L232.61 45.5462L219.324 45.3178L220.744 48.1045L221.111 85.6562Z" fill="black"/>
<path d="M232.335 82.0471L231.419 82.1842L230.32 82.504L229.082 83.3262L228.166 84.5597L227.021 85.0165L225.738 85.1993L224.776 85.1536H224.18L223.172 85.519C222.577 85.8388 222.21 86.0216 222.21 86.0216L221.523 86.4784L221.019 86.7068L221.065 94.1989L219.919 96.2546L234.764 96.5744L232.473 91.1838L232.335 82.0471Z" fill="black"/>
<path d="M303.855 54.1804C304.038 55.1854 303.855 54.1804 304.313 54.957C304.771 55.7336 304.313 54.957 304.359 55.7793C304.359 56.0991 304.359 56.3275 304.359 56.4645L306.879 56.5102L310.452 57.6523L307.383 48.4243L306.421 48.3786L305.962 49.5664L304.68 51.3023L304.313 52.0333C304.359 52.0333 303.672 53.1753 303.855 54.1804Z" fill="black"/>
<path d="M314.851 99.7723L314.897 99.6809L316.225 88.2601C316.225 88.2601 314.301 89.9047 307.658 89.6763C301.014 89.4022 293.592 88.8997 293.592 88.8997L292.584 75.5144L305 75.8799L307.566 76.6565L306.925 66.058L302.847 66.9717L291.576 66.6976L290.935 56.099L302.755 56.3731V55.962V54.6372L303.214 53.7235L303.718 52.4901L304.176 50.8455L304.634 48.2415L278.427 46.9167L279.939 49.2009L282.504 94.9755L281.267 97.6708L276.548 103.929L282.275 97.9449L313.706 99.6352L309.17 105.62L314.851 99.7723Z" fill="black"/>
<path d="M320.67 76.7479C321.495 76.5194 322.182 76.3367 322.182 76.3367L324.473 75.3774H325.297L325.893 74.7378H327.176C327.863 74.418 328.275 74.0069 328.275 74.0069H329.192L329.833 73.7328L331.574 73.3673C331.574 73.3673 331.483 73.2302 332.262 73.3673C333.04 73.5043 332.216 73.3216 333.04 73.5043C333.865 73.6871 333.865 73.6871 333.865 73.6871L331.574 52.5814L342.983 53.3123L346.51 57.104L347.977 70.3065L351.184 69.941L352.971 69.5756H353.979H354.62H355.857L356.498 69.2101H357.415H358.743H359.706L360.622 68.8446C360.622 68.8446 360.988 68.6619 361.218 68.8446C361.447 69.0274 361.401 69.0274 361.401 69.0274L361.722 68.936L359.431 50.7084L374.138 44.4497L314.668 41.0235C314.668 41.0235 317.875 46.5055 317.875 46.7796C317.738 46.871 319.25 62.4033 320.67 76.7479Z" fill="black"/>
<path d="M360.621 70.7634L359.293 70.4893C359.293 70.4893 359.155 70.4893 358.285 70.2152C357.368 69.9411 357.964 69.804 357.368 69.9411C356.773 70.0781 356.773 70.0781 356.773 70.0781L354.574 70.2609H353.657C352.97 70.4893 352.145 70.6263 352.145 70.6263H351.321L350.404 70.5807L348.663 70.9461L347.93 70.9004L350.359 92.7828L347.472 95.5694L335.972 94.7471L333.727 74.0983H332.169H331.482H330.566L329.466 74.8292H328.321L327.175 75.5601H326.122L325.114 76.4281L324.197 76.5652L322.411 77.2047C322.411 77.2047 321.815 77.6616 321.586 77.7073C321.311 77.7529 322.594 77.7529 321.311 77.7529C320.944 77.7529 320.761 77.7529 320.669 77.7529C321.861 89.722 322.914 100.595 322.914 100.595L320.807 106.122L312.789 115.99L322.365 106.442V106.396L355.169 108.498L347.426 118.091L356.91 108.635H356.956L365.386 99.3155L361.813 71.1745L360.621 70.7634Z" fill="black"/>
<path d="M303.672 55.2768L303.489 55.5509L303.122 55.825V56.4188L303.901 56.2818V55.5052L303.763 55.0483L303.672 55.2768Z" fill="black"/>
<path d="M241.865 13.3396L240.307 14.8928L332.032 13.431L241.865 13.3396Z" fill="black"/>
<path d="M241.865 12.6086L240.307 11.0097L332.032 12.7L241.865 12.6086Z" fill="black"/>
<path d="M131.31 13.3396L132.913 14.8928L41.1887 13.431L131.31 13.3396Z" fill="black"/>
<path d="M131.31 12.6086L132.913 11.0097L41.1887 12.7L131.31 12.6086Z" fill="black"/>
</g>
<defs>
<clipPath id="clip0">
<rect width="374" height="118" fill="white"/>
</clipPath>
</defs>
</svg>
