<svg xmlns="http://www.w3.org/2000/svg" width="761.987" height="530.404" viewBox="0 0 761.987 530.404"><defs><style>.a,.aa{fill:#5ca0dd;}.a{opacity:0.258;}.b,.d,.h{fill:#00acc1;}.b{opacity:0.403;}.c{opacity:0.8;}.e{fill:#00838f;}.f{fill:#aec3ff;}.g{opacity:0.5;}.h{opacity:0.56;}.i{fill:#bbd0ff;}.j{fill:#d2e0ff;}.k{fill:#1d5b8a;}.l{fill:#f3faff;}.m{fill:#114064;}.n{fill:#266ba9;}.o{fill:#ff9800;}.p{fill:#ffb27d;}.q{fill:#233862;}.r{fill:#f57c00;}.s{fill:#fca56b;}.t{fill:#163560;}.u{fill:#164a71;}.v{fill:#f2ccaa;}.w{fill:#fff;}.x{fill:#e8945b;}.y{fill:#ed975d;}.z{fill:#ebf3fa;}.aa{opacity:0.507;}</style></defs><g transform="translate(15868.372 14965.947)"><path class="a" d="M65.722,529.118S-59.459,422.231,35.7,320.924C137.021,213.06,47.256,74.6,184.79,18.734c148.69-60.4,186.948,45.981,249.2,29.647C558.143,15.8,715.628,31.841,689.424,190.1c-32.893,198.662,102.058,173.323,21.909,339.681Z" transform="translate(-15868.37 -14965.941)"/><g transform="translate(-15563.003 -14788.767)"><g transform="translate(0 0)"><path class="b" d="M1408.21,425.731s15.027-63.7,65.726-70.7c0,0,9.864-1.21,13.152,9.652s-16.328,10.938-28.453,15.307S1418.248,402.88,1408.21,425.731Z" transform="translate(-1141.838 -306.45)"/><path class="b" d="M1402.1,366.747s-5.272-52.761,31.727-71.486c0,0,7.238-3.529,12.617,3.928s-9.628,12.686-17.764,19.226S1403.775,346.6,1402.1,366.747Z" transform="translate(-1136.885 -259.387)"/><g class="c" transform="translate(71.457 100.286)"><path class="d" d="M613.568,643.442s21.745-12.178,11.591-28.7c0,0-8.116-10.149-16.814-12.757,0,0,4.639,24.643,0,25.223s-3.19-27.833-3.19-27.833-22.9-11.016-31.892-10.147c0,0,14.206,24.075,9.567,23.484s-20.581-24.942-20.581-24.942-23.493-4.342-27.253,9.585,2.318,20.874,5.8,21.745,25.8.58,25.225,3.477-15.657,7.539-24.075,4.929c0,0,9.28,22.907,21.455,21.745s15.947-8.694,23.486-9.278,13.047,1.451,9.278,3.48-16.527.669-22.615,5.843-11.019,8.364.29,10.684,31.6.869,35.666-7.829Z" transform="translate(-533.81 -587.127)"/><path class="e" d="M587.25,652.47s60.886,19.714,67.846,41.749a46.334,46.334,0,0,0,5.8,21.177v4.349s-6.378-14.8-9.855-16.828C651.036,702.917,664.663,683.782,587.25,652.47Z" transform="translate(-575.338 -637.904)"/><path class="f" d="M907.476,925.271s9.389,14.266,4.037,31.616l-2.416-.649s2.345-19.117-2.568-28.733S907.476,925.271,907.476,925.271Z" transform="translate(-821.92 -847.79)"/></g><g class="g" transform="translate(0 201.539)"><path class="h" d="M376.545,1094.729s14.244-42.677-19.382-52.418c0,0-23.167-3.689-37.953,3.393,0,0,36.132,27.276,30.642,33.684s-38.071-33.294-38.071-33.294-43.97,13.112-54.915,25.189c0,0,48.2,14.877,41.306,19.739s-57.781-8.288-57.781-8.288-36.645,22.721-24.772,45.884,28.457,25.058,34.159,21.995,35.162-30.573,37.911-26-11.75,29.086-26.148,35.815c0,0,40.214,19.318,55.06,2.976s10.729-30.985,20.091-40.92,19.184-13.912,16.616-6.623-21.261,20.954-23.1,35.271-4.55,24.556,13.375,13.917,43.258-37.226,38.118-53.775Z" transform="translate(-213.25 -1041.351)"/><path class="e" d="M311.85,1288.88s105.248-47.636,141.316-26.665c0,0,12.26,15.031,5.145,16.547C458.31,1278.754,453.261,1236.654,311.85,1288.88Z" transform="translate(-289.871 -1208.837)"/></g><path class="d" d="M1608.2,1224.919s4.2-25.524,23.912-21.464c0,0,12.771,4.336,18.393,11.9,0,0-25.688,4.184-24.614,8.917s28.288-6.728,28.288-6.728,18.847,18.457,21.177,27.536c0,0-28.5-5.35-26.3-1.037s31.607,11.275,31.607,11.275,12.546,21.38.3,29.975-21.19,5.127-23.27,2.029-9.686-24.966-12.311-23.386-1.821,17.944,3.7,25.225c0,0-25.635-.956-28.8-13.25s2.853-18.633.753-26.195-6.019-12.22-6.674-7.824,5.192,16.362,2.294,24.133-4.269,13.707-10.531,3.493-12.017-30.539-4.966-37.565Z" transform="translate(-1289.252 -965.441)"/><path class="e" d="M1614.909,1352.667s-40.76-52.445-64.723-51.446c0,0-9.516,3.767-22.7,1.821l-4.235,1.538s16.683,1,19.893,3.676C1543.134,1308.256,1556.99,1288.194,1614.909,1352.667Z" transform="translate(-1231.234 -1041.743)"/><path class="i" d="M1429.728,1306.9s-17.233-4.122-32.278,7.236l1.487,2.129s17.833-9.046,28.945-7.65S1429.728,1306.9,1429.728,1306.9Z" transform="translate(-1133.477 -1045.599)"/><path class="b" d="M1548.806,587.1s-26.58-14.886-14.175-35.086c0,0,9.924-12.405,20.555-15.6,0,0-5.671,30.127,0,30.836s3.9-34.023,3.9-34.023,28-13.468,38.985-12.405c0,0-17.367,29.425-11.7,28.707s25.165-30.47,25.165-30.47,28.707-5.316,33.314,11.7-2.835,25.517-7.089,26.58-31.542.709-30.833,4.253,19.137,9.213,29.425,6.019c0,0-11.342,28-26.226,26.58s-19.5-10.626-28.716-11.331-15.947,1.772-11.34,4.253,20.2.814,27.641,7.133,13.468,10.225-.354,13.061-38.631,1.063-43.593-9.568Z" transform="translate(-1237.515 -433.334)"/><path class="e" d="M1667.98,598.11s-74.426,24.1-82.924,51.036c0,0,.354,12.051-7.086,25.871v5.323s7.8-18.074,12.037-20.555C1590.014,659.779,1573.354,636.386,1667.98,598.11Z" transform="translate(-1273.756 -495.375)"/><path class="j" d="M1553.7,931.584s-11.478,17.43-4.935,38.646l2.953-.794s-2.867-23.368,3.139-35.122S1553.7,931.584,1553.7,931.584Z" transform="translate(-1249.494 -751.942)"/><rect class="k" width="198.68" height="271.699" transform="translate(132.996 80.062)"/><rect class="l" width="181.75" height="256.88" transform="translate(141.463 87.394)"/><path class="m" d="M1086.49,496.4v9.255a9.251,9.251,0,0,0,9.253,9.255h49.667a9.251,9.251,0,0,0,9.246-9.255V496.4Z" transform="translate(-891.834 -416.338)"/><rect class="n" width="97.645" height="1.259" transform="translate(181.962 140.681)"/><path class="n" d="M1467.051,842.931H1434.18V810.06h32.871Zm-31.324-1.549H1465.5V811.607h-29.774Z" transform="translate(-1162.019 -660.079)"/><path class="o" d="M1468.216,816.84a2.327,2.327,0,0,1-1.783-.843l-10.158-12.271a2.323,2.323,0,0,1,3.58-2.958l8.045,9.73,14.552-24.424a2.323,2.323,0,0,1,3.99,2.376L1470.2,815.705a2.32,2.32,0,0,1-1.817,1.128C1468.334,816.838,1468.276,816.84,1468.216,816.84Z" transform="translate(-1178.804 -640.595)"/><rect class="n" width="73.024" height="3.208" transform="translate(173.769 154.832)"/><rect class="n" width="67.3" height="3.208" transform="translate(173.769 169.156)"/><rect class="n" width="19.906" height="3.208" transform="translate(226.887 161.994)"/><rect class="n" width="47.603" height="3.208" transform="translate(173.769 161.994)"/><path class="n" d="M905.727,833.366l-3.268.907-.669-2.592,4.875-1.56h2.229V848.4h-3.168Z" transform="translate(-748.306 -675.667)"/><path class="n" d="M943,902.975a1.155,1.155,0,1,1,1.155,1.155A1.155,1.155,0,0,1,943,902.975Z" transform="translate(-780.329 -731.384)"/><path class="n" d="M1468.191,1063.211H1435.32V1030.34h32.871Zm-31.324-1.547h29.777v-29.774h-29.777Z" transform="translate(-1162.905 -831.256)"/><path class="o" d="M1469.278,1036.985a2.32,2.32,0,0,1-1.783-.843l-10.142-12.26a2.323,2.323,0,1,1,3.58-2.96l8.045,9.732,14.552-24.427a2.323,2.323,0,1,1,3.99,2.379l-16.239,27.255a2.318,2.318,0,0,1-1.817,1.126C1469.4,1036.982,1469.343,1036.985,1469.278,1036.985Z" transform="translate(-1179.612 -811.637)"/><path class="n" d="M901.14,1066.189l6.21-5.279c2.472-2.086,3.375-3.243,3.375-4.866a2.7,2.7,0,0,0-2.911-2.807c-1.65,0-2.78.892-4.171,2.7l-2.24-1.752c1.725-2.419,3.426-3.79,6.643-3.79,3.529,0,5.947,2.162,5.947,5.432,0,2.831-1.518,4.351-4.681,6.977l-3.718,3.105h8.573v2.78H901.14Z" transform="translate(-747.8 -846.844)"/><path class="n" d="M969.2,1123.28a1.148,1.148,0,1,1,1.146,1.146,1.148,1.148,0,0,1-1.146-1.146Z" transform="translate(-800.689 -902.584)"/><rect class="n" width="76.736" height="3.208" transform="translate(174.374 203.935)"/><rect class="n" width="70.719" height="3.208" transform="translate(174.374 218.261)"/><rect class="n" width="20.918" height="3.208" transform="translate(230.191 211.099)"/><rect class="n" width="50.022" height="3.208" transform="translate(174.374 211.099)"/><path class="n" d="M1468.191,1285.121H1435.32V1252.25h32.871Zm-31.324-1.547h29.777V1253.8h-29.777Z" transform="translate(-1162.905 -1003.699)"/><path class="o" d="M1469.278,1258.895a2.321,2.321,0,0,1-1.783-.843l-10.142-12.26a2.323,2.323,0,1,1,3.58-2.96l8.045,9.732,14.552-24.427a2.323,2.323,0,1,1,3.99,2.379l-16.246,27.249a2.319,2.319,0,0,1-1.817,1.115A.783.783,0,0,1,1469.278,1258.895Z" transform="translate(-1179.612 -984.08)"/><rect class="n" width="76.736" height="3.208" transform="translate(174.374 253.404)"/><rect class="n" width="70.719" height="3.208" transform="translate(174.374 267.726)"/><rect class="n" width="20.918" height="3.208" transform="translate(230.191 260.564)"/><rect class="n" width="50.022" height="3.208" transform="translate(174.374 260.564)"/><path class="n" d="M900.11,1287.971l2.167-2.006a5.76,5.76,0,0,0,4.637,2.318,2.77,2.77,0,0,0,3.049-2.722c0-1.739-1.587-2.72-4.057-2.72H904.47l-.5-1.941,4.761-5.062h-7.635v-2.7h11.665v2.318l-4.9,5.04c2.8.4,5.192,1.839,5.192,5.013,0,3.25-2.521,5.573-6.175,5.573A8.424,8.424,0,0,1,900.11,1287.971Z" transform="translate(-747 -1019.933)"/><path class="n" d="M962.08,1344.655a1.115,1.115,0,1,1,1.115,1.115A1.115,1.115,0,0,1,962.08,1344.655Z" transform="translate(-795.156 -1074.639)"/><path class="p" d="M738.74,1091.453s.615-1.386,1.016-2.044,2.107-2.584,2.4-2.149,1.453,3.373.836,4.193.04,2.254-3.034,3.121Z" transform="translate(-621.602 -875.438)"/><path class="d" d="M585.55,1067s15.729,13.13,21.863,11.912a120.877,120.877,0,0,0,12.155-3.473l1.473,3.765s-6.6,8.954-13.484,9.012a39.211,39.211,0,0,1-18.7-4.657Z" transform="translate(-502.56 -859.744)"/><path class="q" d="M461.8,1679.982s.457,7.356,1.881,7.472c.189.013,7.229.013,7.229.013l8.983-.051a2.913,2.913,0,0,0-2.675-2.624c-2.617-.459-7.022-2.3-8.613-5.773C466.923,1675.367,461.8,1679.982,461.8,1679.982Z" transform="translate(-406.395 -1334.243)"/><path class="o" d="M459.48,1373.6a18.723,18.723,0,0,0,4.864.914,17.836,17.836,0,0,0,4.541-.649,123.928,123.928,0,0,1,3.344-15.929c1.482-5.742,3.6-13.127,6.616-22.291,8.335-25.359,10.867-40.193,11.1-41.6.013-.073.018-.111.018-.111h-.027l-25.622-11.25s3.165,34.95-.874,48.372a56.666,56.666,0,0,0-1.467,6.427C459.422,1352.029,459.48,1373.6,459.48,1373.6Z" transform="translate(-404.592 -1027.354)"/><path class="r" d="M485.972,1357.9c1.482-5.742,3.6-13.127,6.616-22.291,8.335-25.359,10.867-40.193,11.1-41.6v-.123l-25.622-11.25s3.165,34.951-.874,48.372C476.616,1332.876,485.972,1357.9,485.972,1357.9Z" transform="translate(-418.335 -1027.315)"/><path class="q" d="M551.58,1679.982s.446,7.356,1.881,7.472c.189.013,7.227.013,7.227.013l8.986-.051a2.916,2.916,0,0,0-2.675-2.624c-2.615-.459-7.022-2.3-8.613-5.773C556.7,1675.367,551.58,1679.982,551.58,1679.982Z" transform="translate(-476.162 -1334.243)"/><path class="o" d="M521.71,1286.29a364.556,364.556,0,0,1-3.584,50.454c-3.919,27.806-2.6,39.609-2.6,39.609a26.744,26.744,0,0,1-3.778.963,17.194,17.194,0,0,1-5.606-.651s-5.608-27.817-4.012-41.734-7.679-47.759-7.679-47.759Z" transform="translate(-431.767 -1030.151)"/><path class="p" d="M535.24,1009.489l5,3.281,4.554-1.288c.834-1.188,1.054-3.477,1.066-5.461a33.7,33.7,0,0,0-.178-3.638l-6.748-2.978-2.517-1.115c0,.04.2,2.066.223,2.363A17.225,17.225,0,0,1,535.24,1009.489Z" transform="translate(-463.464 -806.35)"/><path class="k" d="M507.182,1101.2c-6.226,6.019-29.786,5-31.237-1.623s1.583-56.372,12.218-59.5c2.207-.649,14,3.165,14,3.165a74.89,74.89,0,0,1,3.065,11.008c.223,1.2.923,13.914,1.438,25.807.241,5.573.446,10.949.546,14.891A42.878,42.878,0,0,1,507.182,1101.2Z" transform="translate(-417.123 -838.768)"/><path class="s" d="M543.119,1004.633c1.369,2.316,6.172,4.34,8.716,5.27a33.682,33.682,0,0,0-.178-3.638l-6.748-2.978C543.418,1003.267,542.508,1003.6,543.119,1004.633Z" transform="translate(-469.438 -810.233)"/><path class="p" d="M540.653,952.43s-10.871,3.386-12.88-3.413-4.764-10.947,2.093-13.4,8.977-.259,10.2,1.85S543.437,951.371,540.653,952.43Z" transform="translate(-455.888 -756.807)"/><path class="t" d="M523.192,923.863s-.693,7.916-2.329,7.579-3.44-1.079-3.2,1.309-1.592,6.478-3.952,6.464c-5.062-.02-10.564-13.014-9.177-15.477C508.522,916.625,528.963,915.191,523.192,923.863Z" transform="translate(-439.432 -743.857)"/><path class="d" d="M543.044,1029.474c-.14-.058-8.094-3.625-9.024-3.319s-2.091,3.148-2.091,3.148l14.006,3.168A6.965,6.965,0,0,0,543.044,1029.474Z" transform="translate(-460.892 -827.989)"/><path class="q" d="M633.937,1199.135l-44.583,41.975c-.874.823-1.975,1.085-2.452.584l-1.507-1.6c-.473-.5-.145-1.587.729-2.41l44.583-41.977c.874-.823,1.975-1.086,2.452-.582l1.5,1.6C635.141,1197.218,634.811,1198.3,633.937,1199.135Z" transform="translate(-502.271 -959.111)"/><path class="k" d="M608.92,1307.694l-19.565,18.419c-.874.823-1.975,1.086-2.452.584l-1.507-1.6c-.473-.5-.145-1.587.729-2.41l19.565-18.419Z" transform="translate(-502.271 -1044.123)"/><path class="q" d="M752.632,985.5a34.946,34.946,0,1,0,57.919-35.118q-.268-.268-.548-.528A34.946,34.946,0,0,0,752.632,985.5Zm9.989-32.251a32.144,32.144,0,1,1-8.747,23.036,32.186,32.186,0,0,1,8.747-23.036Z" transform="translate(-631.214 -761.337)"/><path class="u" d="M538.778,1144.042c-24.565-17.505-22.514-40.862-22.514-40.862,8.979,5.062,17.889,16.259,21.977,25.971C538.464,1134.715,538.686,1140.1,538.778,1144.042Z" transform="translate(-448.685 -887.859)"/><path class="p" d="M715.938,1243.977a6.688,6.688,0,0,0,3.136-1.937s.74.049-.12,1.625c-.071.132-.223.47-.352.711a.152.152,0,0,0,.129.223,16.35,16.35,0,0,1,3.93.083c.265.056.343.691.332.963a2.453,2.453,0,0,1-.517,1.678c-.31.408-1.175.849-3.1,1.625-.736.3-2.836.074-4.8-.6L713,1247.6l.488-2.922.395.082C714.507,1244.9,715.285,1244.138,715.938,1243.977Z" transform="translate(-601.599 -995.765)"/><path class="d" d="M522.215,1054.55s-22.068,4.2,6.5,36.165c4.568,5.114,29.253,11.77,29.253,11.77s2.5-2.131,1.242-3.856c0,0-17-12.34-20.731-14.3-1.683-.892-6.529-19.7-9.271-24.231A12.36,12.36,0,0,0,522.215,1054.55Z" transform="translate(-447.022 -850.069)"/><path class="p" d="M741.42,1089.246a11.228,11.228,0,0,0,.863-2.107,11.666,11.666,0,0,1,1.424-3.225c.149-.149.644.045.7.689a3.707,3.707,0,0,1-.354,1.4,15.6,15.6,0,0,0-.466,2.773C743.246,1089.89,741.42,1089.246,741.42,1089.246Z" transform="translate(-623.684 -872.85)"/><path class="k" d="M1068.46,1643.32a8.679,8.679,0,0,0,.069,1.115,9.1,9.1,0,0,0,9.037,8h128.07a9.108,9.108,0,1,0,0-18.215h-128.07A9.106,9.106,0,0,0,1068.46,1643.32Z" transform="translate(-877.823 -1300.519)"/><path class="u" d="M1107.418,1617.065h43.914a1.4,1.4,0,0,0,1.4-1.4h0a1.4,1.4,0,0,0-1.4-1.4h-43.914a1.4,1.4,0,0,0-1.4,1.4h0A1.4,1.4,0,0,0,1107.418,1617.065Z" transform="translate(-907.01 -1285.02)"/><rect class="u" width="4.759" height="1.65" transform="translate(207.59 333.692) rotate(180)"/><path class="u" d="M1073.42,1694.6a9.115,9.115,0,0,0,8,4.75h27.126v-4.75Z" transform="translate(-881.677 -1347.444)"/><path class="o" d="M1290.8,1640.624v5.33a6.438,6.438,0,0,1-6.438,6.44H1150.958a6.438,6.438,0,0,1-6.438-6.44v-5.334a6.438,6.438,0,0,1,6.438-6.44h133.407a6.438,6.438,0,0,1,6.438,6.444Z" transform="translate(-936.928 -1300.492)"/><path class="r" d="M1291.362,1694.6a6.433,6.433,0,0,1-6.212,4.75H1151.743a6.438,6.438,0,0,1-6.213-4.75Z" transform="translate(-937.713 -1347.444)"/><path class="k" d="M1741.31,1643.37a10.142,10.142,0,0,0,2.65,7.033l.107.109a6.473,6.473,0,0,0,4.57,2.006c2.7,0,9.4-4.075,13.544-6.781,2.066-1.338,3.5-2.358,3.5-2.358s-1.436-1.008-3.5-2.359c-4.148-2.708-10.842-6.781-13.544-6.781a6.042,6.042,0,0,0-2.229.432,7.357,7.357,0,0,0-3.089,2.439,10.064,10.064,0,0,0-1.855,4.458c0,.02,0,.04,0,.06A11.241,11.241,0,0,0,1741.31,1643.37Z" transform="translate(-1400.686 -1300.539)"/><path class="u" d="M1741.31,1669.092a10.142,10.142,0,0,0,2.65,7.033l20.532-7.064-23.047-1.721A11.211,11.211,0,0,0,1741.31,1669.092Z" transform="translate(-1400.686 -1326.26)"/><path class="u" d="M1750.27,1638.6l20.483,5.593-17.387-8.025A7.356,7.356,0,0,0,1750.27,1638.6Z" transform="translate(-1407.648 -1302.038)"/><path class="q" d="M1828.94,1666.978a2.538,2.538,0,0,0,1.337,2.358c2.066-1.337,3.5-2.358,3.5-2.358s-1.436-1.008-3.5-2.358A2.523,2.523,0,0,0,1828.94,1666.978Z" transform="translate(-1468.782 -1324.146)"/><path class="q" d="M1897.742,924.824a7.72,7.72,0,0,0-6.11-.653c-10.381-1.219-13.408,10.885-13.268,15.051s.615,8.638-4.012,14.044C1860.961,968.9,1889,969.585,1889,969.585c.238-12.483,15.207-7.931,14.552-6.665C1922.74,967.532,1905.457,928.828,1897.742,924.824Z" transform="translate(-1501.256 -748.486)"/><path class="p" d="M1774.007,1139.143s-1.826-2.78-3.3-2.833-4.2-.818-3.979-.272,1.908.6,2.071.925-2.506.818-3.268.872-2.561,0-2.508.383,3.241,1.962,5.49,1.743a15.228,15.228,0,0,1,5.027.653Z" transform="translate(-1417.56 -913.24)"/><path class="o" d="M1834.819,1077.344a27.289,27.289,0,0,1-2.793,4.235c-2.169,2.715-5.513,5.854-9.712,6.465a10.427,10.427,0,0,1-5.771-.936h0c-5.1-2.262-8.934-7.47-8.934-7.47a4.2,4.2,0,0,1,.573-4.115s10.3,2.316,11.279,1.826,7.011-13.867,8.1-16.094a12.211,12.211,0,0,1,5.972-6.094Z" transform="translate(-1451.973 -850.543)"/><path class="r" d="M1864.214,1154.575c-2.169,2.715-5.513,5.854-9.712,6.464a10.427,10.427,0,0,1-5.771-.936c.2.027,5.294.655,7.323-2.976,2.073-3.707,4.311-9.585,7.387-7.63C1864.769,1150.353,1864.708,1152.457,1864.214,1154.575Z" transform="translate(-1484.16 -923.549)"/><path class="q" d="M2063.392,1648.64s3.141,2.867,2.528,4.9-3.448,3.4-3.832,5.887-1.915,3.85-3.295,3.85h-6.578s-1.014-1.754,1.438-2.283,3.377-3.453,3.223-6.17a48.336,48.336,0,0,1,.223-6.34l5.211-1.208Z" transform="translate(-1642.125 -1310.672)"/><path class="q" d="M1921.344,1658.84s1.13,12.149-.25,12.829l-17.655-.038s0-2.037,2.835-2.49,7.818-2.113,8.66-5.811S1921.344,1658.84,1921.344,1658.84Z" transform="translate(-1526.675 -1319.655)"/><path class="o" d="M1933.484,1064.049a70.331,70.331,0,0,1,0,8.161c-.176,2.951-3.161,6.91-3.584,7.88-1.061,2.452-2.26,2.851-2.26,2.851l-9.269,2.274-3.261.8-10.278-3.069s-4.681-13.067-2.8-20.423a56.452,56.452,0,0,1,4.752-12.463s6.968-2.751,19.309-.7Z" transform="translate(-1525.233 -845.442)"/><path class="v" d="M1975.249,1149.579a28.971,28.971,0,0,1-.872,6.688c-1.061,2.452-2.26,2.851-2.26,2.851l-9.269,2.274-4.028-1.184s13.442-2.037,11.953-13.6Z" transform="translate(-1569.71 -921.607)"/><path class="u" d="M1900.172,1211.57s-5.091,15.845-5.419,21.239,9.732,76.631,10.136,79.116c.39,2.343,3.288,3.841,3.288,3.841a4.4,4.4,0,0,0,3.248.25,8.027,8.027,0,0,0,3.489-1.643s3.961-50.806,1.509-68.956a287.361,287.361,0,0,1-2.481-33.843Z" transform="translate(-1519.918 -972.087)"/><path class="k" d="M1946.47,1209.45s7.766,10.419,8.489,17.461,1.137,31.781,2.675,38.646,7.207,20.078,7.207,41.491a4.265,4.265,0,0,1-2.407,1.881,19.808,19.808,0,0,1-2.115.586,3.344,3.344,0,0,1-3.725-1.768c-3.83-7.713-16.032-32.588-16.658-37.753-.446-3.653-4.3-27.839-12.706-42.03-2.006-3.406,1.24-16.957,1.24-16.957Z" transform="translate(-1544.652 -970.44)"/><path class="q" d="M1914.43,1200.6a10.678,10.678,0,0,0,6.1,1.7c4.848.1,16.864-1.237,16.864-1.237a9.988,9.988,0,0,1,.513,3.067s-14.674,3.7-23.183.54A5.4,5.4,0,0,1,1914.43,1200.6Z" transform="translate(-1534.99 -963.563)"/><path class="w" d="M1929.884,1209.539a2.524,2.524,0,1,1,2.211-2.5A2.368,2.368,0,0,1,1929.884,1209.539Zm0-4.275a1.82,1.82,0,1,0,0-.009Z" transform="translate(-1545.504 -966.617)"/><path class="q" d="M1975.857,1146.035l-11.915,10.377a2.071,2.071,0,0,1-2.918-.2l-15.2-17.461a2.069,2.069,0,0,1,.2-2.918l11.915-10.377a2.071,2.071,0,0,1,2.918.2l15.2,17.461A2.068,2.068,0,0,1,1975.857,1146.035Z" transform="translate(-1559.213 -904.773)"/><path class="p" d="M1981.191,1213.67c-.169.045-6.331.769-6.331,2.042a3.818,3.818,0,0,0,3.506,3.344c.691-.038,3.87-2.96,3.87-2.96Z" transform="translate(-1582.175 -973.719)"/><path class="p" d="M1955.983,1022.874a20.4,20.4,0,0,1-1.1-7.494l-.466.091-7.824,1.56s.176,2.452.183,4.781v.058c0,2.006-1.362,4.037,1.87,4.835C1949.646,1026.942,1957.454,1026.441,1955.983,1022.874Z" transform="translate(-1560.13 -819.63)"/><path class="x" d="M1947,1017.331s.176,2.452.183,4.781c4.378-.123,6.687-4.117,7.641-6.333Z" transform="translate(-1560.525 -819.941)"/><path class="p" d="M1928.357,971.646s10.359.172,10.368-6.282,1.337-10.78-5.268-11.161-7.9,2.08-8.428,4.235S1925.662,971.434,1928.357,971.646Z" transform="translate(-1543.355 -772.06)"/><path class="t" d="M1942.11,949.06s2.835,7.579,7.189,8.694,6.241-.047,6.241-.047a12.328,12.328,0,0,1-4.032-7.285S1944.248,945.458,1942.11,949.06Z" transform="translate(-1556.725 -767.075)"/><path class="t" d="M1926.973,952.084A6.427,6.427,0,0,0,1924,954.4a10.41,10.41,0,0,0-1.4,5.925s-2.138-5.147.263-8.058C1925.415,949.184,1926.973,952.084,1926.973,952.084Z" transform="translate(-1540.885 -769.484)"/><path class="p" d="M1988.729,1212.409a7.006,7.006,0,0,0-2.452-.337c-.976.138-1.716-.02-1.716.256s1.273.406,1.545.54A13.216,13.216,0,0,0,1988.729,1212.409Z" transform="translate(-1589.712 -972.458)"/><path class="o" d="M1999.88,1052s7.356.517,10.174,7.37,8.167,18.359,8.167,20.285-2.987,7.9-19.035,11.333c0,0-1.658-1.745-1.56-3.121,0,0,10.018-8.6,9.989-9.61-.049-1.9-1.641-4.414-10.437-13.212C1994.791,1062.664,1999.88,1052,1999.88,1052Z" transform="translate(-1599.022 -848.087)"/><path class="q" d="M832,137.406s-5.9-1-9.643,1.83-4.338,1.91-6.449,3.656.049,3.825-1.115,4.989-1.21,3.408.517,3.99.564,3.74,4.3,4.157,2.064,2.147,5.613,2.41,6.482.386,8.352,1.17a2.953,2.953,0,0,0,4.1-1.451c.533-1.424,2.031.412,2.468-1.534s-1.115-2.715-.25-4.3S842.933,139.53,832,137.406Z" transform="translate(-680.057 -137.236)"/><path class="p" d="M939.369,600.261a1.456,1.456,0,0,0-.25,1.56h0a9.754,9.754,0,0,0,3.085,3.344c.185.149.35.283.495.406.038.033.076.067.109.1s.058.051.087.076c1.353,1.23.849,1.518,3.286,4.012,2.777,2.849,4.681,2.887,5.214,2.621.446-.223-.484-1.741-1.525-3.444l-.152-.247L949.3,608c-1.219-2.049-.916-3.016-.653-6.081.223-2.49,3.774-13.932,3.774-13.932l-5.29-.872s-1.527,9.1-3.27,10.513c-.932.753-1.979.769-2.878,1.337l-.187.12A6.959,6.959,0,0,0,939.369,600.261Z" transform="translate(-777.217 -486.835)"/><path class="q" d="M939.369,641.516a1.456,1.456,0,0,0-.25,1.56h0a11.226,11.226,0,0,0,3.09,3.328c.183.149.345.287.49.415.038.033.076.067.109.1s.058.051.087.076c1.353,1.23.849,1.518,3.286,4.012,2.777,2.849,4.681,2.887,5.214,2.621.446-.223-.484-1.741-1.525-3.444a11.729,11.729,0,0,1-4.94-3.587c-1.674-2.107-2.8-4.819-3.943-6.389l-.187.12A6.958,6.958,0,0,0,939.369,641.516Z" transform="translate(-777.217 -528.091)"/><path class="p" d="M1116.633,590.2c.337,1.627,2.659,1.337,5.252.687s1.979.1,5.673-.33,4.8-1.821,4.9-2.372c.1-.488-1.73-.646-3.692-.858l-.742-.085c-2.214-.261-3.843-1.676-5.86-2.835-1.91-1.1-4.781-5.6-4.781-5.6l-5.067.446s2.688,4.012,3.729,5.771a6.128,6.128,0,0,1,.524,3.451,6.458,6.458,0,0,0,.06,1.725Z" transform="translate(-911.906 -480.378)"/><path class="q" d="M1136.549,620.59c2.593-.653,1.979.1,5.673-.33s4.8-1.821,4.9-2.372c.1-.488-1.73-.646-3.691-.858l-.018.038a10.4,10.4,0,0,1-5.281,1.681c-2.508.08-5.169-.62-6.91-.58a6.463,6.463,0,0,0,.051,1.734C1131.634,621.531,1133.956,621.243,1136.549,620.59Z" transform="translate(-926.569 -510.078)"/><path class="r" d="M983.555,456.975l-4.65,12.784-6.068,16.692a10.045,10.045,0,0,1-3.29-.276,14.213,14.213,0,0,1-3.188-1.525s1.592-17.9,4.724-28.172a18.264,18.264,0,0,1,2.715-5.983C978.725,444.587,983.555,456.975,983.555,456.975Z" transform="translate(-798.482 -379.425)"/><path class="o" d="M862.12,386.591c-3.121-.979-11.955.37-20.838,2.173l-1.884-3.058-19.222-1.366s-6.019,13.317-2.706,23.038c.642,1.886,3.72,1.953,3.72,1.953s11.262.123,14.973.1c9.554-.067,20.174-6.71,21.551-6.995,2.256-.468,3.19,4.044,5.481,8.769s21.377,20.853,21.377,20.853a17.357,17.357,0,0,0,4.117-.446,4.061,4.061,0,0,0,1.761-1.13S869.138,388.8,862.12,386.591Z" transform="translate(-682.009 -329.257)"/><path class="p" d="M859.407,220.272c.031.02-3.357,1.2-5.635.223-2.142-.93-3.79-4.434-3.754-4.434.972-.053,2.031-.909,2.813-6.491l.417.147,6.975,2.452s-.488,2.229-.8,4.362C859.153,218.313,859.026,220.022,859.407,220.272Z" transform="translate(-708.074 -193.446)"/><path class="y" d="M871.485,212.644s-.3,1.56-.711,3.805c-4.012-.691-5.686-4.1-6.264-6.259Z" transform="translate(-719.336 -193.928)"/><path class="p" d="M870.032,172.8s-9.53-1.21-8.694-7.133.185-10.067,6.3-9.545,6.977,2.951,7.176,5S872.531,172.967,870.032,172.8Z" transform="translate(-716.831 -151.881)"/><path class="q" d="M864.909,156.047s-6.057,5.294-10.2,5.758-5.711-.878-5.711-.878a16.185,16.185,0,0,0,3.876-5.33,2.916,2.916,0,0,1,2.392-1.734C858.215,153.586,863.824,153.43,864.909,156.047Z" transform="translate(-707.283 -150.043)"/><path class="q" d="M903.27,158.155a15.006,15.006,0,0,1,2.7,3.413,11.49,11.49,0,0,1,.354,6.123s3.134-6.2,1.315-9.186C905.713,155.337,903.27,158.155,903.27,158.155Z" transform="translate(-749.456 -152.594)"/><path class="k" d="M839.486,256.006c-.152,19.271.029,15.243-2.066,17.086-.5.446-1.93.716-3.807.854-5.907.435-16.3-.466-16.7-1.56-1.389-3.769-.446-4.949-1.614-10.727-.123-.613-.274-1.277-.446-2.006-.974-3.966-1.908-5.312,1.411-11.719,3.009-5.8,6.146-10.517,6.431-10.35,8.081,4.719,8.694.7,8.694.7S839.561,246.606,839.486,256.006Z" transform="translate(-680.038 -215.212)"/><path class="o" d="M978.906,496.181l-6.068,16.692a10.046,10.046,0,0,1-3.29-.276,14.213,14.213,0,0,1-3.188-1.525s1.592-17.9,4.724-28.172Z" transform="translate(-798.482 -405.847)"/><path class="k" d="M892.21,240.77s8.29,1.337,9.289,4.9,6.868,24.478,6.868,24.478-4.2.787-6.163-1.146-6.895-17.994-6.895-17.994Z" transform="translate(-740.861 -217.691)"/><path class="u" d="M838.337,329.842c-5.907.435-16.3-.466-16.7-1.56-1.389-3.769-.446-4.949-1.614-10.727l2.793-8.045s-.408,8.941,2.245,11.273,10.822,4.458,12.117,6.415A7.221,7.221,0,0,1,838.337,329.842Z" transform="translate(-684.763 -271.108)"/><path class="p" d="M871.7,380.782s5.82-1.337,6.763-.827A13.637,13.637,0,0,1,882.021,383c.3.669-2.1-.484-2.873-.687a6.983,6.983,0,0,0-2.472.56,8.207,8.207,0,0,1-4.434.477Z" transform="translate(-724.923 -325.76)"/><path class="k" d="M788.07,237.62s-7.824.531-10.51,4.336c-3.778,5.35-11.184,28.071-6.826,31.065,4.9,3.37,22.231.733,22.231.733s.56-2.7-.254-4.012-13.876-3.315-14.489-3.912,7.445-11.8,7.434-13.6S788.07,237.62,788.07,237.62Z" transform="translate(-645.429 -215.243)"/><path class="p" d="M903.36,387.63a11.593,11.593,0,0,0,1.634,1.752,1.193,1.193,0,0,0,.669.136l-.834-1.476Z" transform="translate(-749.526 -331.814)"/><path class="p" d="M902,380.36l3.567,1.7a.635.635,0,0,1-.586.223,8.372,8.372,0,0,1-1.545-.412Z" transform="translate(-748.469 -326.164)"/><path class="q" d="M907.28,332.74l28.091-.2,8.3-21.072-28.047.2Z" transform="translate(-752.572 -272.631)"/><path class="q" d="M905.443,402.32l-37.093.263,0,.818,36.765-.261Z" transform="translate(-722.32 -343.229)"/><path class="z" d="M991.651,354.437a.979.979,0,0,0-.963-1.337,1.913,1.913,0,0,0-1.71,1.349.979.979,0,0,0,.963,1.337A1.913,1.913,0,0,0,991.651,354.437Z" transform="translate(-816.018 -304.981)"/><path class="e" d="M262.817,1636.293h20.508c1.1-.932-.76-3.049-2.7-3.19a11.808,11.808,0,0,0-3.121.37c-.283-3.747-1.893-20.59-7.965-19.913-6.826.758,0,7.416,1.93,11.369a93.781,93.781,0,0,1,3.627,9.086c-.555.118-1.128.236-1.714.345-.905-2.78-4.271-12.124-8.553-11.591-5.027.638-3.007,4.385.557,6.609,2.612,1.636,5.822,3.959,7.356,5.082a21.55,21.55,0,0,1-4.012.321C265.2,1634.7,263.481,1635.736,262.817,1636.293Z" transform="translate(-250.987 -1284.453)"/><path class="e" d="M2176.28,1627.645H2153.6c-1.215-1.032.843-3.373,2.991-3.531a13.28,13.28,0,0,1,3.46.41c.312-4.146,2.1-22.78,8.812-22.031,7.552.838,0,8.205-2.135,12.568a103.851,103.851,0,0,0-4.013,10.051c.615.134,1.249.263,1.9.383,1-3.074,4.726-13.413,9.463-12.811,5.562.7,3.326,4.851-.615,7.312-2.9,1.81-6.445,4.38-8.13,5.624a24.168,24.168,0,0,0,4.434.354C2173.647,1625.884,2175.544,1627.027,2176.28,1627.645Z" transform="translate(-1720.788 -1275.852)"/><path class="n" d="M-55.267-5.766V-23.913h6.636a8.369,8.369,0,0,1,3.286.6A4.689,4.689,0,0,1-43.161-21.5a5.635,5.635,0,0,1,.778,3.085,5.3,5.3,0,0,1-.849,3.169,5.981,5.981,0,0,1-2.236,1.86l4.1,7.622h-3.707l-3.5-6.74h-3.37v6.74Zm3.318-9.514h2.437a3.883,3.883,0,0,0,2.852-.836,2.934,2.934,0,0,0,.8-2.119,2.841,2.841,0,0,0-.791-2.132,3.868,3.868,0,0,0-2.735-.771h-2.566Zm22.813,5.211h-7.6v-2.9h7.6Zm-4.226-10.6h.855L-37.742-5.766h-3.215L-34.5-23.913h3.137L-24.91-5.766h-3.215ZM-20.685-5.766V-20.7h-5.133v-3.215h13.584V-20.7h-5.133V-5.766Zm10.836,0V-23.913H-6.53V-5.766Zm7.311,0V-23.913H.728L8.48-12.2V-23.913H11.8V-5.766H9.076L.78-18.21V-5.766Zm26.39.363a9.755,9.755,0,0,1-4.926-1.173,7.834,7.834,0,0,1-3.137-3.3,10.81,10.81,0,0,1-1.089-4.99,9.815,9.815,0,0,1,1.212-4.958,8.451,8.451,0,0,1,3.351-3.286,10.121,10.121,0,0,1,4.926-1.167,12.43,12.43,0,0,1,2.754.3,9.975,9.975,0,0,1,2.249.765L28.83-20.05a11.792,11.792,0,0,0-2.145-.745,10.312,10.312,0,0,0-2.5-.292,6.169,6.169,0,0,0-3.318.81,4.9,4.9,0,0,0-1.918,2.2,7.663,7.663,0,0,0-.622,3.156,8.059,8.059,0,0,0,.629,3.279A4.984,4.984,0,0,0,20.845-9.4a5.68,5.68,0,0,0,3.137.81,9.778,9.778,0,0,0,1.2-.078q.629-.078,1.29-.207v-3.24H23.982v-2.748h5.807v8.088a9.975,9.975,0,0,1-2.508.966A13.539,13.539,0,0,1,23.853-5.4Z" transform="translate(243.226 143.221)"/><path class="aa" d="M819.1,1006.974a32.059,32.059,0,1,1,8.776-23.031A32.189,32.189,0,0,1,819.1,1006.974Z" transform="translate(-640.809 -770.951)"/></g></g></g></svg>