<svg id="HMA" xmlns="http://www.w3.org/2000/svg" viewBox="0 0 640 140"><path d="M457.54,45.73a65.66,65.66,0,0,0-7.27-2.06c-5.81-1.17-11.65-1.72-17.49-.27-9.79,2.43-16.45,8.54-20.43,17.69a34.85,34.85,0,0,0-2.68,17.56,17.7,17.7,0,0,0,17.74,16.17,46.28,46.28,0,0,0,12.36-1.42c1.24-.36,1.22-.35,1.41-1.6,1.12-7.51,2.26-15,3.35-22.53.12-.82.34-1.16,1.22-1.14,3,.05,6,0,9.06,0,1.12,0,1.15,0,1,1.15Q453.89,81.08,452,92.86c-.39,2.41-.79,4.82-1.15,7.24a1.64,1.64,0,0,1-1.24,1.54,67.73,67.73,0,0,1-26.4,3.72,32,32,0,0,1-15.08-4.56,22.59,22.59,0,0,1-10.53-15.22c-3.15-16,.55-30.18,12.52-41.68a41.24,41.24,0,0,1,25.54-11.49,63.79,63.79,0,0,1,11.39.25,83.43,83.43,0,0,1,12.45,2.1c1.27.31,1.28.31.92,1.52C459.46,39.41,458.51,42.53,457.54,45.73Z" style="fill:#323232"/><path d="M478.58,69.73a30.56,30.56,0,0,1,7.71-9.32,15.8,15.8,0,0,1,10.28-3.47c5.76.17,9.54,3.78,9.87,9.56a24.37,24.37,0,0,1-.19,4.51c-.6,4.65-1.11,9.3-1.65,13.95q-1.08,9.23-2.14,18.45c-.06.51,0,1-.79,1-3.63,0-7.27,0-11.07,0,.35-2.36.67-4.6,1-6.84q1.5-9.94,3-19.9a34.18,34.18,0,0,0,.63-4.95,6.69,6.69,0,0,0-.24-2.31,2.88,2.88,0,0,0-2.83-2.25,5.84,5.84,0,0,0-3.93,1.23,15.33,15.33,0,0,0-3.92,4,45.39,45.39,0,0,0-8.22,21.3c-.32,3-.59,5.91-.86,8.86-.05.52-.13.88-.79.88-3.64,0-7.28,0-11.06,0,.36-2.32.68-4.51,1-6.7q1.8-11.48,3.62-23,1.65-10.47,3.31-21c.33-2.06.64-4.11,1-6.17.11-.65-.07-1-.76-1-1.91-.19-3.82-.42-5.74-.64-1.36-.16-1.4-.18-1.22-1.53.24-1.81.52-3.6.78-5.41.07-.48.18-.82.82-.87,5.87-.47,11.73-1,17.62-1a.9.9,0,0,1,.78.23,27.92,27.92,0,0,1-.65,4.38c-.91,5.49-1.81,11-2.82,16.45-.68,3.68-1.89,7.24-2.82,10.86-.25.28,0,.62-.14.92a4.92,4.92,0,0,0-.23.6s-.08,0-.08,0,.1,0,.1,0a1.71,1.71,0,0,1,.17-.39A2,2,0,0,1,478.58,69.73Z" style="fill:#323232"/><path d="M232.39,44.16c-2.79-.69-5.41-1.36-8.08-1.75-8.05-1.2-15.34.34-21.36,6.16a27.86,27.86,0,0,0-6.75,10.75,45.46,45.46,0,0,0-2.51,20.58,20.07,20.07,0,0,0,1,4.4c1.77,5,5.43,7.86,10.56,8.9a40.86,40.86,0,0,0,12.44.17,52.88,52.88,0,0,0,12.58-2.92c1.52-.55,1.54-.49,1.86,1.06a43.85,43.85,0,0,1,1.26,7.37c0,1.35.09,1.44-1.13,1.81-6.22,1.88-12.4,3.88-19,4.15a60.19,60.19,0,0,1-12.3-.39c-6.16-1-11.54-3.47-15.41-8.6a23.83,23.83,0,0,1-4.65-12.25,54,54,0,0,1,6.27-31.82,35.57,35.57,0,0,1,23-18.08,42,42,0,0,1,10-1.31,57.42,57.42,0,0,1,14,1.39c.68.15.87.4.7,1C234.06,37.88,233.25,40.94,232.39,44.16Z" style="fill:#323232"/><path d="M276.44,59.19a1,1,0,0,1,0,.78C272,73.1,267.15,86,260.52,98.23a94.16,94.16,0,0,1-13.27,19c-1,1.11-2,2.23-3.08,3.32a22.07,22.07,0,0,1-14.24,6.67,32,32,0,0,1-8.41-.21c-.62-.1-.89-.26-.77-1,.52-3.06,1-6.14,1.47-9.28,1.52.28,2.91.71,4.35.9,6.23.79,12.51-4,13.7-10.6a28.16,28.16,0,0,0-.13-7.62,177,177,0,0,0-2.65-19.15,161.72,161.72,0,0,0-5.11-19.6,3.1,3.1,0,0,1-.34-1.53c.2,0,.4-.07.6-.07,3.64,0,7.29,0,10.93,0a1.2,1.2,0,0,1,1.42,1,124.34,124.34,0,0,1,3.65,17.07A108.69,108.69,0,0,1,250,93.91a4.6,4.6,0,0,0,.94-1.54,301.68,301.68,0,0,0,13.55-32c.54-1.52.45-1.28,1.87-1.28q4.46,0,8.9,0A2.94,2.94,0,0,1,276.44,59.19Z" style="fill:#323232"/><path d="M593.54,68.17h-7.31a20.82,20.82,0,0,1,.57-4c.19-1.34.48-2.66.66-4,.11-.84.51-1.11,1.34-1.07,1.51,0,3,0,4.53,0,1.28,0,1.3,0,1.49-1.22.46-2.92.89-5.85,1.34-8.78.16-1.08.34-2.16.51-3.24.06-.37.15-.67.63-.75l10.9-1.9s.08.06.26.22c-.84,5.26-1.69,10.62-2.58,16.16H618a20.78,20.78,0,0,1-.59,3.83c-.2,1.23-.47,2.45-.65,3.69-.11.81-.44,1.13-1.31,1.11-2.7-.06-5.41,0-8.12,0-1.7,0-1.43-.23-1.7,1.48-1,6.31-1.94,12.64-2.92,19a25.07,25.07,0,0,0-.43,3.56c0,2.42.88,3.39,3.29,3.65a25.48,25.48,0,0,0,3.27,0,13.49,13.49,0,0,0,3.06-.38c.45.29.25.68.21,1-.26,2.38-.54,4.76-.82,7.13-.06.45-.07.86-.74,1a39.45,39.45,0,0,1-12.11.76c-5.47-.7-8.15-3.77-8.48-9.43a41.32,41.32,0,0,1,.74-8.23C591.63,81.22,592.57,74.8,593.54,68.17Z" style="fill:#323232"/><path d="M546.71,102.75a26.76,26.76,0,0,0,6.84-7.89,33.4,33.4,0,0,0,3.56,1.3,15,15,0,0,0,10.79-.79,4.65,4.65,0,0,0,1.85-6.87A12.06,12.06,0,0,0,567.38,86c-1.52-1.26-3.09-2.47-4.54-3.82a12.54,12.54,0,0,1-4.47-9.44A13.11,13.11,0,0,1,564.86,61a22.33,22.33,0,0,1,8.83-2.85c3.31-.5,6.53.28,9.78.52.84.07,2-.23,2.46.57.35.63-.15,1.59-.3,2.4-.35,1.73-.69,3.46-1,5.21-.11.65-.38.73-.95.57a21.81,21.81,0,0,0-7.41-.83,9,9,0,0,0-2.72.61A4.43,4.43,0,0,0,571.31,74a11.18,11.18,0,0,0,2.39,2.65c1.3,1.13,2.61,2.24,3.9,3.38a19.86,19.86,0,0,1,2.74,3,12.69,12.69,0,0,1-1.51,17.13,19.45,19.45,0,0,1-10.76,4.92,44.82,44.82,0,0,1-18.53-1.42c-.75-.19-1.5-.41-2.25-.63A3.91,3.91,0,0,1,546.71,102.75Z" style="fill:#323232"/><path d="M373.94,69.13a34.06,34.06,0,0,1,4.67-6.8,12.37,12.37,0,0,1,6.57-4,11.78,11.78,0,0,1,4.35,0c.56.09.79.36.67,1q-1,4.91-1.87,9.81c-.09.45-.25.6-.74.46-2.82-.77-5.09.31-7.13,2.15a20.17,20.17,0,0,0-3.92,5,49.92,49.92,0,0,0-5.68,16.43c-.61,3.48-1.1,7-1.65,10.48C369,105,369,105,367.67,105h-8.75a1.68,1.68,0,0,1-1.14-.22c.33-2.16.67-4.36,1-6.57q1.81-11.79,3.64-23.59c.24-1.55.46-3.09.65-4.64a11.54,11.54,0,0,0-2.71-9.3c-.09-.12-.16-.26-.36-.57l15.84-1.6c-.56,3.44-1.54,6.65-2.24,9.93a7.56,7.56,0,0,1-.42,1.81c-.09.29-.21.58-.29.87,0,.08-.06.17-.1.26a.4.4,0,0,0,.12-.26c.07-.22.14-.44.23-.66A2,2,0,0,1,373.94,69.13Z" style="fill:#323232"/><path d="M316.37,68.43a17.41,17.41,0,0,0-1.81-5.94A8.83,8.83,0,0,0,308,57.68a14.43,14.43,0,0,0-5.44.07,17.52,17.52,0,0,0-8.74,4.86,35.76,35.76,0,0,0-5.48,7.17,3.4,3.4,0,0,0-.55.7c.14-.43.05-.93.2-1.37.84-3.32,1.74-6.63,2.49-10,1.21-5.38,1.9-10.86,2.85-16.29.32-1.82.61-3.65.92-5.53-.34,0-.54-.1-.74-.1-5.94,0-11.86.5-17.77,1-.6.05-.77.31-.84.87-.23,1.86-.51,3.71-.78,5.56-.16,1.15-.15,1.21,1,1.36,1.61.19,3.22.3,4.82.51,2.05.28,2,.31,1.67,2.41-.91,5.6-1.79,11.2-2.68,16.79q-1.82,11.41-3.64,22.81c-.75,4.72-1.51,9.45-2.25,14.17-.19,1.23-.16,1.26,1,1.47a78.11,78.11,0,0,0,16.15,1.33c11.62-.27,20.33-6.36,24.29-17A41.18,41.18,0,0,0,316.37,68.43Zm-28.8,2.46.08-.09-.09.2c0,.13-.06.16-.07.08S287.57,71,287.57,70.89Zm18.33,5.86a29.43,29.43,0,0,1-3.11,11.81c-.24.47-.49.92-.77,1.36-2.76,4.3-6.54,6.74-11.81,6.46a17.81,17.81,0,0,1-3.26-.22c-1.18-.26-1.21-.27-1-1.4A48.88,48.88,0,0,1,288.06,86a48.22,48.22,0,0,1,6.6-12.84,17.48,17.48,0,0,1,3.46-3.57c3.41-2.53,6.11-1.64,7.35,2.38A12.87,12.87,0,0,1,305.9,76.75Z" style="fill:#323232"/><path d="M553.9,70.31a14.34,14.34,0,0,0-9.54-10.5,20.93,20.93,0,0,0-5-1.09c-10.53-1-18.87,2.73-24.71,11.6-3.57,5.41-4.86,11.53-4.72,18,0,1.25-.07,2.5,0,3.75.45,6.39,4,10.73,10.17,12.51a28.26,28.26,0,0,0,8.18.94,25.26,25.26,0,0,0,15.62-5.42C553.75,92.49,556.13,79.1,553.9,70.31ZM541.18,84a18,18,0,0,1-4.26,7.7c-2.7,2.8-5.93,4.15-9.87,3.41a6.1,6.1,0,0,1-5.24-5.25,17.11,17.11,0,0,1-.3-3.57,24,24,0,0,1,2.52-11,15.46,15.46,0,0,1,2.94-4,10.45,10.45,0,0,1,10.2-2.81,6.09,6.09,0,0,1,5,5.36A22.78,22.78,0,0,1,541.18,84Z" style="fill:#323232"/><path d="M331.85,86.24a77.32,77.32,0,0,0,10.5-1.46,30.75,30.75,0,0,0,10.54-4.12A11.5,11.5,0,0,0,358.38,70a10.78,10.78,0,0,0-8-10.47A22.44,22.44,0,0,0,338.78,59a21.82,21.82,0,0,0-13.42,8.75c-6.05,8.28-7.73,17.64-5.9,27.58,1.14,6.21,5.14,9.59,11.47,10.38a48.92,48.92,0,0,0,21.66-2.55,1.32,1.32,0,0,0,1.09-1.29c.1-1.14.4-2.26.53-3.39.21-1.85.71-3.66.77-5.56a2.41,2.41,0,0,0-1.38.48,29,29,0,0,1-7.77,2.74,27.48,27.48,0,0,1-10.38.51c-2.94-.49-4.26-1.79-4.76-4.74a26.93,26.93,0,0,1-.12-4.21C330.54,86.14,330.55,86.35,331.85,86.24Zm5.62-17.89a8.54,8.54,0,0,1,5.7-1.75c1.7.07,3.24.5,4,2.2a4.88,4.88,0,0,1-.6,5.15,7.14,7.14,0,0,1-3,2.19,24.23,24.23,0,0,1-7.25,1.73,18.06,18.06,0,0,1-4.63.26C332.73,74.29,334.25,70.82,337.47,68.35Z" style="fill:#323232"/><path d="M158.14,70.4a67.94,67.94,0,0,1-70.38,67.5C50.87,136.69,20.86,106.06,22,68.06A68.08,68.08,0,0,1,158.14,70.4Z" style="fill:#fecb00"/><path d="M71.83,110.82c-1.24,0-3.64,0-6,0a9.89,9.89,0,0,1-9-5.5,25.54,25.54,0,0,1-2.59-9.88c-.74-7.91.12-15.78.68-23.65.31-4.31.68-8.62.71-13A33.45,33.45,0,0,1,87.3,25.54c17.88-1,33.48,11.77,35.2,29.65.74,7.72,2.42,15.18,3.73,22.76a32.91,32.91,0,0,1,.34,10.1,18.68,18.68,0,0,1-8.49,13.22c-5.31,3.62-11.32,5.43-17.51,6.71-2.76.57-5.54,1-8.33,1.41A201.3,201.3,0,0,1,71.83,110.82Z" style="fill:#313131"/><path d="M69.33,60.53A20.37,20.37,0,0,1,73,48.5c4.77-6.65,12.61-6.65,17.42,0,5,6.91,5,18-.06,24.92-4.77,6.48-12.48,6.52-17.25,0C70.4,69.69,69.33,65.42,69.33,60.53Z" style="fill:#fecb00"/><path d="M120.51,57.62c0,4.71-.84,8-2.89,10.88-3.72,5.24-9.78,5.34-13.7.26-4.27-5.56-4.07-15.14.43-20.52,3.49-4.16,8.69-4.34,12.35-.33A14.79,14.79,0,0,1,120.51,57.62Z" style="fill:#fecb00"/></svg>