<svg id="HMA" xmlns="http://www.w3.org/2000/svg" viewBox="0 0 640 140"><path d="M572.06,79c-.44,0-.87,0-1.3,0H553c-.31,0-.63,0-.94,0-.46,0-.64-.2-.62-.64s0-.63,0-.95V49.91c0-.31,0-.63,0-.94s-.15-.67-.61-.64c-.24,0-.48,0-.71,0h-18.9c-.23,0-.47,0-.71,0-.46,0-.63.19-.61.63s0,.63,0,.94V77.37c0,.27,0,.55,0,.82,0,.55-.19.81-.75.77-.28,0-.55,0-.83,0h-17.6c-.27,0-.55,0-.82,0-.48,0-.76-.13-.72-.66,0-.24,0-.48,0-.71V7.1c0-.15,0-.31,0-.47,0-.88,0-.9.94-.9H529c1,0,1,0,1,1.23q0,13.26,0,26.52c0,1.78-.2,1.59,1.55,1.6h19.37c.45,0,.64-.21.62-.65s0-.63,0-.94V7.19c0-.27,0-.55,0-.82,0-.44.16-.66.62-.64h18.66c.43,0,.86,0,1.3-.05Z" style="fill:#71bb45"/><path d="M359.21,134.88a3,3,0,0,0,.11-1.39q0-18.15,0-36.31V96c.28-.33.57-.24.83-.24,2.68,0,5.36,0,8,0a1.25,1.25,0,0,1,1.31.71c4.49,8.33,9.28,16.49,13.4,25,.08.16.18.32.33.59a1.27,1.27,0,0,0,.12-.88c-.37-4.54-.79-9.08-.88-13.64-.06-3.69,0-7.38-.08-11.08,0-.59.22-.72.76-.71,2.64,0,5.27,0,7.91,0,.56,0,.81.16.74.74a7.48,7.48,0,0,0,0,.82q0,18.15,0,36.3c0,.43,0,.87,0,1.3h-9.92c.08-.4-.2-.66-.37-1l-4.33-7.7a137.21,137.21,0,0,1-8.79-17.31c0-.09-.07-.13-.24-.09,0,.35,0,.72,0,1.08.54,8.32.59,16.65.5,25Z" style="fill:#232020"/><path d="M260.71,134.88c.21-.45-.08-.83-.2-1.22Q254.77,115.29,249,96.94a2.87,2.87,0,0,1-.27-1.21H253c2.13,0,4.26,0,6.38,0,1.2,0,1-.21,1.28,1,1,4,1.87,8,2.79,12,1.13,5,2.36,9.92,3.29,14.94.13.69.25,1.38.42,2.31a23,23,0,0,0,.79-4c1-6,2.43-11.91,3.75-17.85.58-2.6,1.18-5.2,1.73-7.81.11-.53.29-.72.84-.72,3.62,0,7.24,0,10.91,0A3.15,3.15,0,0,1,284.9,97q-5.86,18.39-11.74,36.77c-.11.36-.36.71-.17,1.12Z" style="fill:#232020"/><path d="M306.06,134.88q0-9.6,0-19.21V97.76c0-.24,0-.47,0-.71-.07-.59.18-.79.78-.86A81.49,81.49,0,0,1,317,95.54a43.21,43.21,0,0,1,10,.9,15.43,15.43,0,0,1,5.19,2.17c3.65,2.44,5,5.91,4.52,10.17s-3,7.26-6.79,9.12A25.54,25.54,0,0,1,319,120.27c-.73,0-1.65-.35-2.13.19s-.13,1.35-.13,2.05c0,4.12,0,8.25-.05,12.37ZM316.73,108c0,1.77,0,3.53,0,5.29,0,.6.19.87.8.85.78,0,1.58,0,2.35-.06,4.29-.46,6.51-2.94,6.28-7a5.29,5.29,0,0,0-3.94-5,11.49,11.49,0,0,0-4.67-.28c-.67.09-.83.37-.82,1C316.75,104.55,316.73,106.28,316.73,108Z" style="fill:#232020"/><path d="M67.94,102.34c.51,0,1,0,1.53,0H228.2c.42,0,.87-.15,1.26.13-.51,0-1,0-1.53,0h-158c-.35,0-.71,0-1.06,0s-.72.18-.71.69,0,.94,0,1.41l-.07.07-.1,0Z" style="fill:#71bb45"/><path d="M343.92,29.27c0,1-.05,1.92,0,2.87.18,3.38.43,6.74.6,10.12.61,11.81.49,23.63.49,35.46,0,1.26.11,1.24-1.19,1.24H328c-1.15,0-1.16,0-1.16-1.16V7.2c0-1.61-.18-1.47,1.44-1.47,5.47,0,10.94,0,16.41,0a1.57,1.57,0,0,1,1.6.88c7.71,13.69,15.77,27.18,23.11,41.08,1.2,2.25,2.33,4.54,3.49,6.82l.57,1.14c.42-.09.27-.36.25-.57-.42-5.29-.91-10.56-1.32-15.85-.7-9.06-.67-18.13-.65-27.2,0-1.81,0-3.61,0-5.42,0-.83,0-.86.86-.86H389c.85,0,.85,0,.87.85,0,.24,0,.47,0,.71q0,35.06,0,70.12c0,1.76.2,1.54-1.59,1.54-5.4,0-10.79,0-16.18,0a1.77,1.77,0,0,1-1.76-1c-5.11-8.8-10.3-17.55-15.36-26.38a160.77,160.77,0,0,1-10.72-21.75C344.21,29.63,344.2,29.37,343.92,29.27Z" style="fill:#71bb45"/><path d="M315.18,78.83A2.66,2.66,0,0,1,314,79H296.41c-1.19,0-1.19,0-1.5-1.12-1.33-4.84-2.64-9.69-4-14.53-.35-1.24-.18-1.07-1.41-1.07H272.75c-1.14,0-1.14,0-1.47,1.16q-2.07,7.31-4.15,14.6c-.27,1-.27,1-1.27,1h-18.3c-.58,0-.65-.28-.5-.75.58-1.83,1.15-3.66,1.73-5.5l17.34-55.13c1.13-3.59,2.24-7.19,3.37-10.78.33-1.07.34-1.07,1.46-1.07h22.43c1.44,0,1.19-.05,1.55,1.23q4.13,14.55,8.22,29.11Q309,56.92,314.9,77.76C315,78.1,315.08,78.43,315.18,78.83ZM281.05,51.14h7c.45,0,.66-.17.57-.64l-.12-.58c-2.18-9.76-4.56-19.48-6.41-29.31-.08-.45.12-1.27-.5-1.26s-.4.85-.5,1.31c-1.11,4.9-2.09,9.83-3.33,14.7s-2.55,9.87-3.82,14.81c-.24.94-.22,1,.77,1Z" style="fill:#71bb45"/><path d="M177.2,5.86a1.61,1.61,0,0,1,1-.13h20.55c1.16,0,1.16,0,1.42,1.06q4.4,18.42,8.81,36.85c1.42,6,2.77,11.92,3.8,18,.05.35.16.68.24,1,.34-.16.34-.45.38-.71,2.08-13.15,5.14-26.09,8.17-39q1.85-7.9,3.67-15.82c.06-.27.15-.53.19-.8a.56.56,0,0,1,.64-.53H247c1.3,0,1.3,0,.91,1.18Q241.27,27,234.6,47l-10,30.28c-.13.37-.27.74-.37,1.12a.66.66,0,0,1-.78.54,5.8,5.8,0,0,0-.59,0H202.05c-1.19,0-1.2,0-1.56-1.11l-23.07-71A2.16,2.16,0,0,1,177.2,5.86Z" style="fill:#71bb45"/><path d="M105.76,42.79V8c0-1.24,0-1.23,1.27-1.39a163.37,163.37,0,0,1,25.21-1.15,65.43,65.43,0,0,1,16,2.08,29.12,29.12,0,0,1,9.14,4.25,17.86,17.86,0,0,1,7.93,15c.13,9.64-4.69,16.16-13.08,20.33A45.15,45.15,0,0,1,139.51,51a67.2,67.2,0,0,1-11.77.73c-1.35,0-1.28-.21-1.28,1.24V77.55c0,1.58.15,1.4-1.38,1.4H106.19c-.29,0-.42-.16-.42-.44s0-.63,0-.94Zm20.7-14V38.91c0,1.17,0,1.2,1.2,1.29a24.13,24.13,0,0,0,9-.9c5.1-1.6,8-5.18,8.17-10.44.22-5.44-2.22-9.81-8.31-11.34a22.65,22.65,0,0,0-9.13-.23c-.9.13-.91.16-.91,1.14Z" style="fill:#232020"/><path d="M444.94,64.43a49.74,49.74,0,0,0,5.42,1.46,57.88,57.88,0,0,0,13.12,1.28,23.21,23.21,0,0,0,7.64-1.32,11.62,11.62,0,0,0,2.81-1.48,6.85,6.85,0,0,0,1.23-10.08,13.52,13.52,0,0,0-3.1-2.69,67.49,67.49,0,0,0-9.68-4.88,49.58,49.58,0,0,1-11.94-7.06,25.31,25.31,0,0,1-4.23-4.42c-3.66-5-4-10.25-1.55-15.79a19.93,19.93,0,0,1,8.21-8.86,36.49,36.49,0,0,1,12-4.44,64.4,64.4,0,0,1,16.22-.89,45.52,45.52,0,0,1,9.76,1.6l1.47.45c1.09.36,1.1.37.81,1.44-.81,3-1.62,6-2.44,9a11.64,11.64,0,0,1-.62,2.11c-.38.1-.64-.12-.92-.23a35.14,35.14,0,0,0-16.26-1.87,13.27,13.27,0,0,0-7,2.66,6,6,0,0,0-.44,9.35A20.07,20.07,0,0,0,470.38,33c2.76,1.43,5.64,2.6,8.49,3.82a44,44,0,0,1,11.23,6.64,18.87,18.87,0,0,1,6.56,9.44,16.81,16.81,0,0,1-3.85,16.23,27,27,0,0,1-11.14,7.29,50.11,50.11,0,0,1-13,2.87,71,71,0,0,1-11.2.16A64.27,64.27,0,0,1,444,77.36c-.49-.13-1-.32-1.46-.45s-.69-.37-.55-.93c.94-3.77,1.85-7.54,2.78-11.31A1.09,1.09,0,0,1,444.94,64.43Z" style="fill:#71bb45"/><path d="M408.13,42.28V7.17c0-1.6-.16-1.44,1.47-1.44h18.65c.39,0,.59.18.58.57s0,.55,0,.82V78.05c0,.88,0,.9-1,.9H409c-.83,0-.83,0-.86-.86,0-.27,0-.55,0-.82Z" style="fill:#71bb45"/><path d="M89,42.47V77.82c0,1.12,0,1.13-1.19,1.13h-17c-.59,0-1.18,0-1.77,0s-.72-.19-.69-.68c0-.28,0-.55,0-.83V7.22c0-1.75-.11-1.48,1.54-1.48H87.66C89.07,5.74,89,5.68,89,7Z" style="fill:#232020"/><path d="M68.11,104.66c0-.47.06-.94,0-1.41s.22-.71.71-.69.71,0,1.06,0h158c.51,0,1,0,1.53,0,.32,2.22.32,2.22-1.8,2.22H69.76A7,7,0,0,1,68.11,104.66Z" style="fill:#232020"/><path d="M571.71,102.48c0,.07.11.14.11.21.19,2,.19,2-1.85,2H427.19c-1.7,0-1.7,0-1.64-1.69a.92.92,0,0,1,.14-.56,3.31,3.31,0,0,0,1.17.08H570.55A3,3,0,0,0,571.71,102.48Z" style="fill:#232020"/></svg>