<svg id="HMA" xmlns="http://www.w3.org/2000/svg" xmlns:xlink="http://www.w3.org/1999/xlink" viewBox="0 0 640 140"><defs><linearGradient id="Degradado_sin_nombre_11" x1="-1630.24" y1="507.29" x2="-1630.23" y2="506.29" gradientTransform="matrix(76, 0, 0, -45.27, 124011.99, 22970.15)" gradientUnits="userSpaceOnUse"><stop offset="0" stop-color="#70e076"/><stop offset="0.6" stop-color="#4a9e41"/><stop offset="1" stop-color="#3ea74a"/></linearGradient><linearGradient id="Degradado_sin_nombre_12" x1="-1633.8" y1="519.5" x2="-1633.8" y2="520.49" gradientTransform="matrix(94.33, 0, 0, -81.23, 154230.64, 42334.39)" gradientUnits="userSpaceOnUse"><stop offset="0" stop-color="#4a9e41"/><stop offset="1" stop-color="#70e076"/></linearGradient><linearGradient id="Degradado_sin_nombre_13" x1="-1600.9" y1="507.46" x2="-1600.9" y2="508.46" gradientTransform="matrix(29.24, 0, 0, -47.16, 46924.74, 24048.44)" gradientUnits="userSpaceOnUse"><stop offset="0" stop-color="#70e076"/><stop offset="1" stop-color="#4a9e41"/></linearGradient></defs><path id="Path_28995" data-name="Path 28995" d="M227.62,117.25H199.5l-5.65,17.64a10.36,10.36,0,0,1-2.19.7,15.05,15.05,0,0,1-2.76.23,8.23,8.23,0,0,1-4.73-1.27,4.33,4.33,0,0,1-1.84-3.81,8.63,8.63,0,0,1,.36-2.47c.24-.81.54-1.71.92-2.71q1.5-4.84,4.21-12.51t5.76-16.2q3-8.53,6.16-16.77T205.15,66a14.22,14.22,0,0,1,3.57-1.33,19.72,19.72,0,0,1,5-.63,18.2,18.2,0,0,1,6,.92,5.59,5.59,0,0,1,3.57,3.24q2.52,6.57,5.53,14.93t6,17.23q3,8.87,5.76,17.4t5,15.43a7.79,7.79,0,0,1-2.71,1.9,9.6,9.6,0,0,1-4,.75,6.79,6.79,0,0,1-4.5-1.21,9.07,9.07,0,0,1-2.3-4.09ZM213.57,74.71q-1.14,3.12-2.52,7c-.91,2.62-1.87,5.36-2.88,8.25s-2,5.8-3,8.75-2,5.82-2.89,8.59H225q-1.5-4.6-3.05-9.28t-3-8.93l-2.71-8c-.84-2.5-1.54-4.63-2.07-6.4Zm94.87-1.61a5.74,5.74,0,0,1-1.09,3.46,6.71,6.71,0,0,1-2.59,2.19,49.54,49.54,0,0,0-6.84-3.69,23.83,23.83,0,0,0-9.73-1.73,24.14,24.14,0,0,0-9.27,1.73,20,20,0,0,0-7.26,5.07,23.73,23.73,0,0,0-4.79,8.28,34.81,34.81,0,0,0-1.73,11.41,27.31,27.31,0,0,0,6.46,19.71,22.62,22.62,0,0,0,17,6.69,27,27,0,0,0,9.8-1.62,34.3,34.3,0,0,0,7.15-3.68,8.9,8.9,0,0,1,2.36,2.3,5.88,5.88,0,0,1,.22,6.46,8.16,8.16,0,0,1-2.83,2.52,27.54,27.54,0,0,1-6.91,2.88,45.66,45.66,0,0,1-24.83-1,30.3,30.3,0,0,1-11.06-6.8,31.73,31.73,0,0,1-7.44-11.41,43.83,43.83,0,0,1-2.71-16.08,42.57,42.57,0,0,1,2.77-15.9,33.32,33.32,0,0,1,7.43-11.53,31,31,0,0,1,10.9-7,37,37,0,0,1,13.25-2.36,42.51,42.51,0,0,1,8.93.86,30.15,30.15,0,0,1,6.8,2.25,13.33,13.33,0,0,1,4.38,3.24,5.71,5.71,0,0,1,1.56,3.69Zm65,0a5.66,5.66,0,0,1-1.08,3.46,6.71,6.71,0,0,1-2.59,2.19,49.08,49.08,0,0,0-6.85-3.69,23.76,23.76,0,0,0-9.72-1.73,24.16,24.16,0,0,0-9.28,1.73,20.06,20.06,0,0,0-7.31,5.07,23.71,23.71,0,0,0-4.78,8.28,34.55,34.55,0,0,0-1.73,11.41,27.3,27.3,0,0,0,6.45,19.71,22.64,22.64,0,0,0,17.06,6.69,27,27,0,0,0,9.8-1.62,34.47,34.47,0,0,0,7.14-3.68,8.79,8.79,0,0,1,2.37,2.3,5.8,5.8,0,0,1,1.08,3.46,5.6,5.6,0,0,1-.87,3,8.13,8.13,0,0,1-2.82,2.52,27.45,27.45,0,0,1-6.92,2.88,45.44,45.44,0,0,1-24.77-1,30.34,30.34,0,0,1-11.07-6.8,31.71,31.71,0,0,1-7.43-11.41,43.62,43.62,0,0,1-2.71-16.08,42.57,42.57,0,0,1,2.77-15.9,33.32,33.32,0,0,1,7.43-11.53,31,31,0,0,1,10.89-7,37,37,0,0,1,13.26-2.36,42.51,42.51,0,0,1,8.93.86,30.15,30.15,0,0,1,6.8,2.25,13.33,13.33,0,0,1,4.38,3.24,5.76,5.76,0,0,1,1.56,3.69Zm21.65,61.78a6.33,6.33,0,0,1-6.68-6.69V71.37a6.35,6.35,0,0,1,1.84-4.78,6.63,6.63,0,0,1,4.84-1.8h38.16a5.92,5.92,0,0,1,1,2,9.22,9.22,0,0,1,.4,2.76,5.77,5.77,0,0,1-1.21,3.92,4.15,4.15,0,0,1-3.29,1.38h-29.5V94H429.8a5.73,5.73,0,0,1,1,2,8.87,8.87,0,0,1,.4,2.76,5.45,5.45,0,0,1-1.21,3.92,4.32,4.32,0,0,1-3.28,1.27H400.63v21h33.19a9.72,9.72,0,0,1,.92,2,8,8,0,0,1,.47,2.77,5.75,5.75,0,0,1-1.21,4,4.25,4.25,0,0,1-3.29,1.33Zm74.58-8.64a16.17,16.17,0,0,0,10.72-3,9.74,9.74,0,0,0,3.45-7.72,8.82,8.82,0,0,0-2.65-6.69,20.89,20.89,0,0,0-8.41-4.25l-8.65-2.65A48.11,48.11,0,0,1,456.82,99a22.71,22.71,0,0,1-5.59-3.92,15,15,0,0,1-3.52-5.3,19.07,19.07,0,0,1-1.21-7.09,17.21,17.21,0,0,1,6.74-14.35,29,29,0,0,1,18.27-5.24,47.62,47.62,0,0,1,8.76.75,30.72,30.72,0,0,1,7,2.07A14.21,14.21,0,0,1,491.85,69a5.58,5.58,0,0,1,1.67,3.86,5.85,5.85,0,0,1-1,3.4,8.45,8.45,0,0,1-2.36,2.37,26.07,26.07,0,0,0-7.56-3.75,32.26,32.26,0,0,0-10.32-1.55,16.25,16.25,0,0,0-9.79,2.52,8,8,0,0,0-3.44,6.8,7.08,7.08,0,0,0,2.42,5.59A21.38,21.38,0,0,0,469.44,92l6.68,2a37.13,37.13,0,0,1,15,7.9,17.75,17.75,0,0,1,5.36,13.66,19.82,19.82,0,0,1-1.8,8.47,18.68,18.68,0,0,1-5.13,6.63,23.71,23.71,0,0,1-8.35,4.26,39.61,39.61,0,0,1-11.35,1.5,46.91,46.91,0,0,1-9.68-.92,34.61,34.61,0,0,1-7.57-2.42,15.06,15.06,0,0,1-4.9-3.46,6.25,6.25,0,0,1-1.73-4.15,5.85,5.85,0,0,1,1.41-3.92,8.77,8.77,0,0,1,3.24-2.42,31.35,31.35,0,0,0,7.57,4.84A26.2,26.2,0,0,0,469.67,126.24Zm61.2,0a16.14,16.14,0,0,0,10.72-3,9.75,9.75,0,0,0,3.46-7.72,8.83,8.83,0,0,0-2.66-6.69,20.89,20.89,0,0,0-8.41-4.25l-8.64-2.65A47.81,47.81,0,0,1,518,99a22.71,22.71,0,0,1-5.59-3.92,15,15,0,0,1-3.52-5.3,19.48,19.48,0,0,1-1.21-7.09,17.22,17.22,0,0,1,6.75-14.35,28.93,28.93,0,0,1,18.26-5.24,47.62,47.62,0,0,1,8.76.75,31,31,0,0,1,7,2.07A14.43,14.43,0,0,1,553.06,69a5.58,5.58,0,0,1,1.67,3.86,5.92,5.92,0,0,1-1,3.4,8.62,8.62,0,0,1-2.37,2.37,26.07,26.07,0,0,0-7.56-3.75,32.2,32.2,0,0,0-10.31-1.55,16.3,16.3,0,0,0-9.8,2.52,8,8,0,0,0-3.46,6.8,7.14,7.14,0,0,0,2.42,5.59,21.38,21.38,0,0,0,8,3.74l6.69,2a37.26,37.26,0,0,1,15,7.9,17.77,17.77,0,0,1,5.36,13.65,19.9,19.9,0,0,1-1.8,8.47,18.71,18.71,0,0,1-5.13,6.63,23.53,23.53,0,0,1-8.36,4.27,39.71,39.71,0,0,1-11.32,1.5,47,47,0,0,1-9.68-.92,34.36,34.36,0,0,1-7.56-2.42,15,15,0,0,1-4.9-3.46,6.15,6.15,0,0,1-1.73-4.15,5.75,5.75,0,0,1,1.4-3.92,8.77,8.77,0,0,1,3.24-2.42,31.1,31.1,0,0,0,7.56,4.84A26.2,26.2,0,0,0,530.87,126.24ZM351.59,44.53" style="fill:#263238"/><g id="Group_37089" data-name="Group 37089"><path id="Path_28994" data-name="Path 28994" d="M187,28.72V41a9.33,9.33,0,0,1-.91.26,4.8,4.8,0,0,1-1.25.14q-2.52,0-2.52-2.1V9a1.93,1.93,0,0,1,.45-1.4,3,3,0,0,1,1.44-.76,20.24,20.24,0,0,1,4-.74c1.58-.15,3.1-.23,4.58-.23a15.32,15.32,0,0,1,10.56,3,10.6,10.6,0,0,1,3.33,8.23,11,11,0,0,1-3.41,8.44,15.13,15.13,0,0,1-10.53,3.15Zm5.46-3.89A11.54,11.54,0,0,0,199.52,23,6.77,6.77,0,0,0,202,17.16a6.58,6.58,0,0,0-2.44-5.65,11.51,11.51,0,0,0-6.92-1.8c-1,0-2,0-3,.14s-1.91.22-2.71.36V24.83Zm23.68,16.11a8.34,8.34,0,0,1-.85.26,5.27,5.27,0,0,1-1.25.14c-1.64,0-2.45-.68-2.45-2.05V20a3.89,3.89,0,0,1,.48-2.08,5.43,5.43,0,0,1,1.62-1.51,14.68,14.68,0,0,1,4-1.67,20.87,20.87,0,0,1,5.72-.72c3,0,4.55.75,4.55,2.27a2.86,2.86,0,0,1-.17,1.05,2.68,2.68,0,0,1-.45.83c-.38-.08-.87-.15-1.48-.23a15.74,15.74,0,0,0-1.82-.11,17.42,17.42,0,0,0-4.61.54,14.64,14.64,0,0,0-3.31,1.28Zm22,0a8.34,8.34,0,0,1-.85.26,5.35,5.35,0,0,1-1.26.14c-1.63,0-2.45-.68-2.45-2.05V14.87a6.92,6.92,0,0,1,.89-.25,5.53,5.53,0,0,1,1.28-.15c1.59,0,2.39.71,2.39,2.11ZM232.92,6.47a2.78,2.78,0,0,1,.83-2,2.88,2.88,0,0,1,2.13-.83,2.79,2.79,0,0,1,2.91,2.85,2.82,2.82,0,0,1-.8,2,2.76,2.76,0,0,1-2.11.82,2.92,2.92,0,0,1-2.13-.82A2.79,2.79,0,0,1,232.92,6.47Zm33.81,7.79a2.35,2.35,0,0,1,1.57.52,1.86,1.86,0,0,1,.6,1.48,9.71,9.71,0,0,1-.46,2.19c-.3,1-.7,2.27-1.19,3.69s-1.06,3-1.68,4.69-1.29,3.4-2,5.09-1.41,3.32-2.11,4.88-1.36,2.91-2,4a2.63,2.63,0,0,1-1,.4,5.92,5.92,0,0,1-1.51.16c-1.4,0-2.32-.4-2.73-1.19s-.78-1.54-1.31-2.68-1.1-2.43-1.71-3.87-1.23-3-1.88-4.61-1.27-3.25-1.87-4.86-1.18-3.17-1.71-4.68-1-2.84-1.31-4a2.88,2.88,0,0,1,1.08-.91,3,3,0,0,1,1.37-.34,2.15,2.15,0,0,1,1.56.51,4.72,4.72,0,0,1,1,1.7L253,26.65c.23.65.51,1.44.85,2.37s.7,1.87,1.06,2.84.72,1.9,1.08,2.82.65,1.69.88,2.33h.23c1.51-3.84,2.93-7.62,4.23-11.33s2.46-7.37,3.45-11a3.71,3.71,0,0,1,1.93-.44Zm17,23.85a13.23,13.23,0,0,0,4-.48,9.24,9.24,0,0,0,2.25-.94V28.44l-7.06.72a8.81,8.81,0,0,0-4.38,1.33,3.57,3.57,0,0,0-1.44,3.1,3.83,3.83,0,0,0,1.65,3.34,8.73,8.73,0,0,0,5,1.18ZM283.7,14a12.61,12.61,0,0,1,7.85,2.22,8.21,8.21,0,0,1,2.9,7V36.74a3.1,3.1,0,0,1-.48,1.9,4.74,4.74,0,0,1-1.44,1.23,14.59,14.59,0,0,1-3.6,1.39,20.37,20.37,0,0,1-5.15.6,14,14,0,0,1-8.29-2.11,7,7,0,0,1-2.93-6.09A6.76,6.76,0,0,1,275,28a13.32,13.32,0,0,1,6.89-2.36l8.06-.81V23.24a4.9,4.9,0,0,0-1.71-4.15,7.36,7.36,0,0,0-4.61-1.31,14.62,14.62,0,0,0-4.5.68A25,25,0,0,0,275.39,20a5.5,5.5,0,0,1-.83-.91A1.93,1.93,0,0,1,274.2,18a2.06,2.06,0,0,1,.4-1.31,3.91,3.91,0,0,1,1.25-1,14,14,0,0,1,3.53-1.23A20.88,20.88,0,0,1,283.7,14Zm28.06,27.78A11,11,0,0,1,305.29,40a6.7,6.7,0,0,1-2.47-5.84v-27a6.78,6.78,0,0,1,.88-.25A5.53,5.53,0,0,1,305,6.76c1.6,0,2.4.68,2.4,2.05v6.55h9.33a4.3,4.3,0,0,1,.34.76,2.93,2.93,0,0,1,.17,1.05c0,1.29-.57,1.94-1.7,1.94h-8.14v14.8a3.71,3.71,0,0,0,1.28,3.21,6,6,0,0,0,3.6.94,7.92,7.92,0,0,0,2.16-.34,9,9,0,0,0,2-.79,3.75,3.75,0,0,1,.63.85,2.37,2.37,0,0,1,.28,1.19A2.33,2.33,0,0,1,315.84,41a8.71,8.71,0,0,1-4.08.79ZM325.47,30.6a8.82,8.82,0,0,0,9.79,7.45,11.46,11.46,0,0,0,4.33-.79,13,13,0,0,0,3.07-1.71A2.4,2.4,0,0,1,344,37.71a2.18,2.18,0,0,1-.72,1.54,6.53,6.53,0,0,1-1.93,1.31,13.52,13.52,0,0,1-2.85.91,17.09,17.09,0,0,1-3.5.34,14.73,14.73,0,0,1-10.44-3.6,13.63,13.63,0,0,1-3.83-10.46,16.61,16.61,0,0,1,.94-5.76,12.36,12.36,0,0,1,2.62-4.3,11.19,11.19,0,0,1,4-2.7,13.3,13.3,0,0,1,5.07-.94,12.68,12.68,0,0,1,4.72.85,10.87,10.87,0,0,1,3.73,2.42,11.33,11.33,0,0,1,2.45,3.7,12.12,12.12,0,0,1,.88,4.68,2.35,2.35,0,0,1-.57,1.8,2.67,2.67,0,0,1-1.59.66Zm7.86-12.87a7.56,7.56,0,0,0-5.76,2.42,10.05,10.05,0,0,0-2.39,6.92l15.65-2.16a8.36,8.36,0,0,0-2.19-5.15A7,7,0,0,0,333.33,17.73Z" style="fill:#263238"/><path id="Path_28992" data-name="Path 28992" d="M371,41c-.28.1-.57.18-.85.25a5.36,5.36,0,0,1-1.26.15c-1.68,0-2.52-.71-2.52-2.11V6.58a6.82,6.82,0,0,1,.88-.26,5.54,5.54,0,0,1,1.29-.14c1.63,0,2.44.7,2.44,2.11Zm27.66-17a5.68,5.68,0,0,0-1.8-4.68A7.3,7.3,0,0,0,392,17.78a13.19,13.19,0,0,0-4,.56,15.85,15.85,0,0,0-3,1.31V40.94a7.63,7.63,0,0,1-.85.26,5.27,5.27,0,0,1-1.25.14c-1.63,0-2.45-.68-2.45-2.05V19.89a3.67,3.67,0,0,1,.49-1.94,5.17,5.17,0,0,1,1.68-1.51,16.78,16.78,0,0,1,3.93-1.65,19,19,0,0,1,5.52-.74,13,13,0,0,1,8.17,2.34,8.74,8.74,0,0,1,3,7.32V41a6.92,6.92,0,0,1-.89.25,5,5,0,0,1-1.22.15c-1.63,0-2.45-.69-2.45-2ZM420.7,41.81A10.86,10.86,0,0,1,414.24,40a6.7,6.7,0,0,1-2.48-5.86v-27a6.92,6.92,0,0,1,.89-.25,5.53,5.53,0,0,1,1.28-.15c1.59,0,2.39.69,2.39,2v6.55h9.33a4.35,4.35,0,0,1,.35.76,3.46,3.46,0,0,1,.17,1.06c0,1.29-.57,1.93-1.71,1.93h-8.14v14.8a3.72,3.72,0,0,0,1.28,3.22,6.09,6.09,0,0,0,3.6.94,7.87,7.87,0,0,0,2.16-.35,8.86,8.86,0,0,0,2-.79,4,4,0,0,1,.62.85,2.39,2.39,0,0,1,.29,1.2,2.35,2.35,0,0,1-1.48,2A8.73,8.73,0,0,1,420.7,41.81ZM434.47,30.6a8.81,8.81,0,0,0,9.79,7.45,11.37,11.37,0,0,0,4.32-.79,12.64,12.64,0,0,0,3.07-1.71A2.43,2.43,0,0,1,453,37.71a2.26,2.26,0,0,1-.72,1.54,6.66,6.66,0,0,1-1.93,1.31,13.71,13.71,0,0,1-2.85.91,17.16,17.16,0,0,1-3.5.34,14.75,14.75,0,0,1-10.45-3.6,13.62,13.62,0,0,1-3.82-10.46,16.38,16.38,0,0,1,.94-5.76,12.48,12.48,0,0,1,2.61-4.3,11.34,11.34,0,0,1,4-2.71,13.68,13.68,0,0,1,5.06-.94,13,13,0,0,1,4.73.86,10.72,10.72,0,0,1,3.73,2.42,11.38,11.38,0,0,1,2.45,3.7,12.09,12.09,0,0,1,.88,4.68,2.42,2.42,0,0,1-.57,1.8,2.67,2.67,0,0,1-1.59.66Zm7.86-12.87a7.6,7.6,0,0,0-5.77,2.42,10.15,10.15,0,0,0-2.39,6.92l15.66-2.16a8.36,8.36,0,0,0-2.19-5.15A7,7,0,0,0,442.33,17.73Zm23,23.23a8.29,8.29,0,0,1-.85.25,5.28,5.28,0,0,1-1.25.15c-1.64,0-2.45-.69-2.45-2V20a3.9,3.9,0,0,1,.49-2.06,5.31,5.31,0,0,1,1.62-1.51,14.71,14.71,0,0,1,4-1.68,21.26,21.26,0,0,1,5.72-.72q4.56,0,4.56,2.28a3.44,3.44,0,0,1-.17,1.05,2.55,2.55,0,0,1-.46.82c-.38-.07-.87-.15-1.48-.22a13.79,13.79,0,0,0-1.82-.12,17.94,17.94,0,0,0-4.61.54,14.38,14.38,0,0,0-3.3,1.28Zm34.9-17a5.69,5.69,0,0,0-1.81-4.68,7.28,7.28,0,0,0-4.8-1.48,13.11,13.11,0,0,0-4,.56,15.32,15.32,0,0,0-3,1.31V40.94a8.52,8.52,0,0,1-.86.26,5.27,5.27,0,0,1-1.25.14c-1.63,0-2.45-.68-2.45-2.05V19.89a3.66,3.66,0,0,1,.48-2,5.17,5.17,0,0,1,1.68-1.51,17.14,17.14,0,0,1,3.93-1.65A19.39,19.39,0,0,1,493.6,14a12.93,12.93,0,0,1,8.17,2.34,8.72,8.72,0,0,1,3,7.34V41a6.78,6.78,0,0,1-.88.25,5.17,5.17,0,0,1-1.23.15c-1.63,0-2.45-.69-2.45-2Zm16.33,6.66a8.82,8.82,0,0,0,9.79,7.45,11.37,11.37,0,0,0,4.32-.79,12.89,12.89,0,0,0,3.08-1.71,2.42,2.42,0,0,1,1.36,2.16,2.18,2.18,0,0,1-.72,1.54,6.53,6.53,0,0,1-1.93,1.31,13.52,13.52,0,0,1-2.85.91,17.09,17.09,0,0,1-3.5.34,14.71,14.71,0,0,1-10.44-3.6,13.65,13.65,0,0,1-3.85-10.48,16.61,16.61,0,0,1,.94-5.76,12.45,12.45,0,0,1,2.62-4.3,11.37,11.37,0,0,1,4-2.7,13.37,13.37,0,0,1,5.07-.94,12.73,12.73,0,0,1,4.73.85,10.92,10.92,0,0,1,3.72,2.42,11.17,11.17,0,0,1,2.45,3.7,12.32,12.32,0,0,1,.89,4.68,2.43,2.43,0,0,1-.57,1.81,2.77,2.77,0,0,1-1.6.65Zm7.85-12.87a7.56,7.56,0,0,0-5.76,2.42,10.15,10.15,0,0,0-2.39,6.92l15.65-2.16a8.31,8.31,0,0,0-2.19-5.15A7,7,0,0,0,524.4,17.73Zm27.44,24.08A10.86,10.86,0,0,1,545.38,40a6.7,6.7,0,0,1-2.48-5.86v-27a7.26,7.26,0,0,1,.88-.25,5.68,5.68,0,0,1,1.29-.15c1.59,0,2.39.69,2.39,2v6.55h9.33a4.35,4.35,0,0,1,.35.76,3.46,3.46,0,0,1,.17,1.06c0,1.29-.57,1.93-1.71,1.93h-8.14v14.8a3.72,3.72,0,0,0,1.28,3.22,6.09,6.09,0,0,0,3.6.94,7.87,7.87,0,0,0,2.16-.35,8.86,8.86,0,0,0,2-.79,4,4,0,0,1,.62.85,2.39,2.39,0,0,1,.29,1.2,2.35,2.35,0,0,1-1.48,2A8.73,8.73,0,0,1,551.84,41.81Z" style="fill:#56b14e"/></g><g id="Group_47966" data-name="Group 47966"><path id="Path_30" data-name="Path 30" d="M88.4,51.3v-7a25.91,25.91,0,1,1,51.82-.83V51.3H153.9v-7a39.55,39.55,0,1,0-79.09-1.11V51.3Z" style="fill:url(#Degradado_sin_nombre_11)"/><path id="Path_31" data-name="Path 31" d="M160.78,59.3a8.14,8.14,0,0,0-8.18-8.19H134.92a8.54,8.54,0,0,0-6.14,2.7H99.94a8,8,0,0,0-6-2.7H76.21A8.14,8.14,0,0,0,68,59.3h0a13.51,13.51,0,0,0-2.7,8.19v49.12a13.64,13.64,0,0,0,9.87,13.12,8.25,8.25,0,0,0,7.9,6.05H95.38a8.31,8.31,0,0,0,7.72-5.49h22.79a8.23,8.23,0,0,0,7.73,5.49H145.9a8.16,8.16,0,0,0,7.91-6.05,13.56,13.56,0,0,0,9.86-13.12V67.49A15.31,15.31,0,0,0,160.78,59.3ZM119.94,92.24a1.18,1.18,0,0,0-.56,1.39l3.07,17.31a1.45,1.45,0,0,1-1,1.58H107.75a1.43,1.43,0,0,1-1.4-1.3h0v-.28l3.08-17.31a1.39,1.39,0,0,0-.66-1.39,11.06,11.06,0,1,1,15.17-3.82,12.1,12.1,0,0,1-4,3.82Z" style="fill:url(#Degradado_sin_nombre_12)"/><path id="Path_32" data-name="Path 32" d="M108.22,36a4.42,4.42,0,1,0-4.47,4.37h0A4.33,4.33,0,0,0,108.22,36ZM125,31.58A4.42,4.42,0,1,0,129.34,36h0A4.39,4.39,0,0,0,125,31.58ZM120.22,43.3a8.62,8.62,0,0,1-11.73,0,1.34,1.34,0,0,0-1.95,0h0a1.42,1.42,0,0,0,0,1.86,11.29,11.29,0,0,0,15.63,0,1.34,1.34,0,0,0,0-1.95,1.42,1.42,0,0,0-2,.09Z" style="fill:#88e47b"/><path id="Path_33" data-name="Path 33" d="M123.75,94.66a15.25,15.25,0,1,0-18.7,0l-2.79,15.44a5.43,5.43,0,0,0,4.47,6.33,3.27,3.27,0,0,0,.93.09h13.4a5.43,5.43,0,0,0,5.48-5.49,3.27,3.27,0,0,0-.09-.93Zm-2.69,17.86h-13.4a1.43,1.43,0,0,1-1.4-1.39h0v-.28l3.07-17.31a1.35,1.35,0,0,0-.65-1.39,11.08,11.08,0,1,1,15.17-3.91,11.34,11.34,0,0,1-3.91,3.91,1.17,1.17,0,0,0-.56,1.39l3.07,17.31a1.37,1.37,0,0,1-1,1.58Z" style="fill:url(#Degradado_sin_nombre_13)"/></g><path d="M577.74,60.19A11.57,11.57,0,1,1,566,71.67,11.36,11.36,0,0,1,577.74,60.19ZM587,71.79c0-5.53-3.73-9.35-9.19-9.38a8.91,8.91,0,0,0-9.25,9.35c0,5.49,3.85,9.35,9.27,9.33S587,77.24,587,71.79Z" style="fill:#263238"/><path d="M576.38,73.13v3.64c-.5,0-.91,0-1.32,0-.78,0-1.1-.39-1.1-1.13,0-2.71,0-5.42,0-8.12a1.47,1.47,0,0,1,.82-1.12,8.1,8.1,0,0,1,5.17.1,3,3,0,0,1,2.16,2.55,3.1,3.1,0,0,1-1.59,3.28l-.65.41c.73.89,1.43,1.73,2.1,2.6.18.24.42.72.32.85-.23.28-.7.64-1,.58a3.28,3.28,0,0,1-1.63-.84c-.65-.68-1.06-1.58-1.67-2.3a5.37,5.37,0,0,0-1.34-.85Zm.08-2c1.14-.13,2.36.42,3-.78a1.88,1.88,0,0,0-.09-1.67c-.74-1-1.84-.8-2.91-.55Z" style="fill:#263238"/></svg>