<svg id="HMA" xmlns="http://www.w3.org/2000/svg" viewBox="0 0 640 140"><path d="M622.19,81V72.67c0-10.68,0-21.36,0-32.05,0-1.23.23-1.75,1.62-1.69,2.8.12,5.62.09,8.42,0,1.16,0,1.49.3,1.48,1.46-.06,7.22,0,14.43,0,21.64,0,11.79,0,23.57,0,35.35,0,1.25-.25,1.7-1.61,1.66-3.52-.1-7.05-.09-10.57,0a2.37,2.37,0,0,1-2.44-1.41q-11.14-19.56-22.39-39.07c-.29-.5-.43-1.12-1-1.42-.4.58-.21,1.19-.21,1.76,0,12.83,0,25.66,0,38.49,0,1.26-.28,1.71-1.62,1.65-2.64-.11-5.29-.11-7.93,0-1.47.06-1.93-.3-1.93-1.86.07-12.55,0-25.11,0-37.66,0-6.28,0-12.56,0-18.83,0-1.32.26-1.81,1.69-1.77,3.53.11,7.06.09,10.58,0a2.26,2.26,0,0,1,2.32,1.35Q609.75,59.93,621,79.52A2.82,2.82,0,0,0,622.19,81Z" style="fill:#595360"/><path d="M531.16,69c0-9.42,0-18.83,0-28.25,0-1.52.44-1.8,1.85-1.78,7.77.06,15.54,0,23.31,0a24.75,24.75,0,0,1,8.44,1.35c7.69,2.78,12.11,10.06,11.56,19-.67,11.07-8.11,18.15-19.23,18.25q-6.52.06-13,0c-1.1,0-1.38.3-1.37,1.37,0,6.17,0,12.34.06,18.51,0,1.35-.41,1.66-1.67,1.62q-4.21-.14-8.43,0c-1.2,0-1.46-.37-1.45-1.5C531.18,88,531.16,78.5,531.16,69Zm11.49-10.62c0,2.54,0,5.07,0,7.6,0,.7.07,1.14,1,1.13,4.79-.06,9.59,0,14.38-.14a6.26,6.26,0,0,0,5.44-3,11,11,0,0,0,.42-10.46c-1.42-3.12-4.36-3.8-7.48-3.82-4.13,0-8.27,0-12.4,0-1.17,0-1.35.45-1.32,1.45C542.69,53.51,542.65,55.93,542.65,58.35Z" style="fill:#595360"/><path d="M499.56,85l9.38-31.66c1.29-4.37,2.63-8.74,3.86-13.13.28-1,.67-1.32,1.69-1.3,3,.07,6.07.11,9.09,0,1.55-.06,1.7.37,1.25,1.74Q517.12,64,509.51,87.34c-1.15,3.5-2.34,7-3.43,10.5a1.4,1.4,0,0,1-1.61,1.2c-3.25-.06-6.5-.05-9.75,0A1.51,1.51,0,0,1,493,97.81q-9.4-28.74-18.91-57.47c-.34-1-.29-1.43,1-1.4q4.55.14,9.09,0a1.8,1.8,0,0,1,2.15,1.57c4.21,14.34,8.5,28.66,12.77,43C499.16,83.91,499.31,84.32,499.56,85Z" style="fill:#595360"/><path d="M164.41,69c0-9.41,0-18.83,0-28.24,0-1.38.23-1.89,1.78-1.87,8.15.09,16.3,0,24.46.07,5.11.05,9.87,1.39,13.5,5.2,5.39,5.64,6,12.43,3.88,19.53-2,6.69-7.06,10.11-13.76,11.28-3.83.67-7.7.25-11.55.33-3.08.06-6.17.07-9.26,0-1.24,0-1.58.34-1.57,1.58.06,6.83,0,13.65.06,20.48,0,1.39-.38,1.84-1.75,1.73a24.76,24.76,0,0,0-4.13,0c-1.32.11-1.66-.35-1.65-1.65C164.44,87.93,164.41,78.45,164.41,69Zm7.48-11.87c0,3.24,0,6.49,0,9.73,0,1,.26,1.45,1.38,1.44,5.45,0,10.9.07,16.35,0,7.59-.17,11.39-3.21,12-9.9.55-6.23-1.72-10.51-8.42-11.93a11.87,11.87,0,0,0-2.45-.28c-5.83,0-11.67,0-17.5-.06-1.17,0-1.35.48-1.34,1.47C171.91,50.72,171.89,53.91,171.89,57.11Z" style="fill:#9c56b8"/><path d="M452,78.74c-5.67,0-11.35,0-17,0-1.3,0-1.73.31-1.51,1.69a15.92,15.92,0,0,0,12.21,12.67c6.63,1.25,12.25-1.22,15.62-6.94a1.64,1.64,0,0,1,1.66-1c1.76.06,3.53.08,5.29,0,1.16,0,1.42.22,1,1.36-3.09,7.65-8.64,12.11-16.86,13.29-12.05,1.73-22.8-5.3-25.88-17a23.53,23.53,0,0,1,18.07-29.15C453,52,462.18,56.25,466.86,64a26.93,26.93,0,0,1,3.85,13.66c0,1.34-.75,1.08-1.48,1.08ZM448.13,72c4.35,0,8.7,0,13,0,1.09,0,1.31-.29,1-1.35-2-6.13-7.77-10.65-13.85-10.66a15.38,15.38,0,0,0-14.14,10.52c-.43,1.29-.06,1.5,1.12,1.49C439.55,72,443.84,72,448.13,72Z" style="fill:#9c56b8"/><path d="M360.57,61.22c0-2.17.06-3.87,0-5.57-.05-1.08.43-1.29,1.38-1.25a44,44,0,0,0,4.45,0c1.09-.06,1.41.31,1.39,1.39,0,4.73,0,9.46,0,14.2,0,9.13,0,18.27,0,27.41,0,1.26-.28,1.77-1.63,1.66a36.87,36.87,0,0,0-4.46,0c-.88,0-1.15-.32-1.13-1.16.05-1.75,0-3.5,0-5.22-.55-.17-.69.21-.88.44-7.46,9.09-19.53,8.68-27.18,3-7.84-5.85-10.75-14-9.26-23.42,1.4-8.94,6.43-15.39,15.17-18.32,8.09-2.71,15.18-.73,21,5.55C359.72,60.21,360,60.54,360.57,61.22ZM330.31,76.89c0,.77,0,1.54.12,2.31a10.06,10.06,0,0,0,.31,1.62c1.57,5.83,5,10,10.94,11.68,5.44,1.5,10.13-.19,14-4.09a17,17,0,0,0-1-24.36,14.09,14.09,0,0,0-21,2.34A17.21,17.21,0,0,0,330.31,76.89Z" style="fill:#9c56b8"/><path d="M380.13,65.92c0-7.3,0-13.41,0-19.52,0-1.22.29-1.67,1.56-1.57a39.73,39.73,0,0,0,4.63,0c1-.05,1.35.25,1.31,1.29-.07,2.26.06,4.52-.05,6.77-.06,1.28.38,1.55,1.59,1.54,8.87,0,17.74,0,26.6-.06,1.48,0,2.12.31,1.92,1.88s.71,3.87-.4,4.92-3.16.26-4.8.26q-11.65,0-23.31,0c-1,0-1.61,0-1.6,1.35.07,6.45,0,12.89.07,19.33a10.88,10.88,0,0,0,9.29,10.64c6.31.85,11.35-2.09,13-7.58a19.05,19.05,0,0,0,.5-6.38c0-1.18.21-1.71,1.53-1.61,1.58.12,3.19,0,4.79,0,.55,0,1.12-.08,1.15.77.24,6.28-.55,12.29-5.45,16.85-6,5.58-13.1,6.62-20.58,3.87s-11.08-8.38-11.58-16.15C379.89,76.63,380.24,70.68,380.13,65.92Z" style="fill:#9c56b8"/><path d="M299.09,89.26c.53-1.44,1-2.81,1.52-4.18,3.34-9.66,6.7-19.32,10-29,.41-1.22.93-1.8,2.31-1.66a24.58,24.58,0,0,0,4.29,0c1.44-.1,1.82.22,1.28,1.7C315.22,65,312,73.79,308.82,82.62c-1.84,5.06-3.71,10.11-5.51,15.19A1.55,1.55,0,0,1,301.53,99a48.58,48.58,0,0,0-5.12,0c-1.16.08-1.64-.39-2-1.42Q287.32,78,280.19,58.41c-.45-1.24-1.53-3-1.08-3.61.74-.93,2.53-.31,3.87-.33,3.61,0,3.6,0,4.79,3.41Q293,72.82,298.23,87.76A2.26,2.26,0,0,0,299.09,89.26Z" style="fill:#9c56b8"/><path d="M224.76,59.09C230,53.64,236,52.38,242.6,54c6.79,1.62,11.42,7.5,12,14.9.14,1.75.14,3.51.25,5.27.06.87-.28,1.16-1.14,1.13-1.71-.05-3.42-.06-5.12,0-.94,0-1.24-.28-1.23-1.22a22.93,22.93,0,0,0-.3-5.42c-1.24-5.51-5.17-8.66-10.75-8.53a11.34,11.34,0,0,0-11.11,9.26A23,23,0,0,0,225,73c0,8.15,0,16.3,0,24.45,0,1.32-.38,1.73-1.67,1.64a39,39,0,0,0-4.46,0c-.9,0-1.25-.22-1.25-1.19q0-21.15,0-42.29c0-.71.1-1.15,1-1.12,1.71.05,3.42,0,5.13,0,.81,0,1.07.33,1.06,1.08C224.74,56.54,224.76,57.56,224.76,59.09Z" style="fill:#9c56b8"/><path d="M271.52,76.73c0,6.94,0,13.88,0,20.82,0,1.11-.25,1.58-1.45,1.5a26.84,26.84,0,0,0-4.3,0c-1.33.11-1.65-.38-1.64-1.66,0-8.87,0-17.73,0-26.6,0-5,0-9.91,0-14.87,0-1.13.29-1.57,1.47-1.49a33.19,33.19,0,0,0,4.46,0c1.19-.08,1.46.36,1.46,1.49C271.5,62.86,271.52,69.79,271.52,76.73Z" style="fill:#9c56b8"/><path d="M271.58,43.47c-.06,1.37.38,3.17-.32,4s-2.69.29-4.1.32c-3.06,0-3.06,0-3.06-3,0-1.49,0-3,0-4.46,0-.93.19-1.43,1.28-1.38,1.7.08,3.41.05,5.12,0,.78,0,1.08.26,1,1,0,1.15,0,2.31,0,3.47Z" style="fill:#9c56b8"/><path d="M100.19,26.57,75.62,22a6,6,0,0,0-2.46,0L48.42,26.57a3.45,3.45,0,0,0-2.81,3.23V60.33C45.53,78,63.55,89.15,71.12,93.14a7.64,7.64,0,0,0,6.8.17c7.57-3.65,24.91-13.94,24.91-32.9V29.89a3.48,3.48,0,0,0-2.64-3.32Z" style="fill:#f6edd7"/><path d="M44.85,77.67a5,5,0,0,1-1.19.09,8.06,8.06,0,0,1-5.36-2.13,13.76,13.76,0,0,1-4.17-10.2,15.56,15.56,0,0,1,1.36-6.38c1.11-2.46,2.47-4.34,5-5.27V60.5l.17.08v1.79A31,31,0,0,0,44.85,77.67Zm58.91,0a5,5,0,0,0,1.2.09,8.05,8.05,0,0,0,5.35-2.13,13.76,13.76,0,0,0,4.17-10.2A15.65,15.65,0,0,0,113,59.05c-1.11-2.46-2.55-4.34-5.1-5.27v6.8l.08,1.79A31.75,31.75,0,0,1,103.76,77.67Z" style="fill:#ae55b8"/><path d="M25.38,69.85c0-7.91,5.35-14.29,12-14.29A115,115,0,0,1,38,68.32c0,7.9,6,15.81-.6,15.81s-12-6.37-12-14.28Zm97.94,0c0-7.91-5.36-14.29-12-14.29a116.93,116.93,0,0,0-.59,12.76c0,7.9-6,15.81.59,15.81s12-6.37,12-14.28Z" style="fill:#87478f"/><path d="M111.33,85.83a4.74,4.74,0,0,1-4-1.6c-1.46-1.93-.7-4.64.26-8.08A29.8,29.8,0,0,0,109,68.32a119.36,119.36,0,0,1,.6-13l.19-1.5h1.5c7.55,0,13.69,7.17,13.69,16S118.88,85.83,111.33,85.83Zm1.53-28.43c-.17,2-.42,5.85-.42,10.92a32.92,32.92,0,0,1-1.57,8.75c-.51,1.8-1.27,4.52-.83,5.1.07.09.43.26,1.29.26,5.67,0,10.29-5.64,10.29-12.58C121.62,63.54,117.81,58.31,112.86,57.4ZM37.36,85.83c-7.54,0-13.68-7.17-13.68-16s6.14-16,13.68-16h1.51l.18,1.5a114.55,114.55,0,0,1,.61,13,30.21,30.21,0,0,0,1.44,7.83c1,3.44,1.72,6.15.26,8.08A4.72,4.72,0,0,1,37.36,85.83ZM35.84,57.4c-5,.91-8.76,6.14-8.76,12.45,0,6.94,4.61,12.58,10.28,12.58.87,0,1.23-.17,1.3-.26.43-.58-.33-3.3-.83-5.1a32.52,32.52,0,0,1-1.57-8.75C36.26,63.25,36,59.43,35.84,57.4Z" style="fill:#ae55b8"/><path d="M75,74.61c-3.83,0-6.38-3.06-6.38-7.06V58.46c-3.4-2-4.67-5.11-4.67-9.1A11.21,11.21,0,0,1,75.11,38.05a11,11,0,0,1,11,11.31A9.84,9.84,0,0,1,81.49,58v9.52C81.4,71.63,78.85,74.61,75,74.61Z" style="fill:#59505e"/><path d="M75,40.6a8.47,8.47,0,0,1,8.42,8.76,9,9,0,0,1-4.6,7.4V67.55c0,2.47-1.36,4.51-3.82,4.51s-3.83-2-3.83-4.51V57c-3.4-1.53-4.67-4.34-4.67-7.65A8.53,8.53,0,0,1,75,40.6m0-5.1A13.71,13.71,0,0,0,61.42,49.36c0,4.42,1.28,8,4.68,10.46v7.73c0,5.36,3.74,9.61,8.93,9.61S84,72.91,84,67.55V59.22a11.87,11.87,0,0,0,4.59-9.86A13.52,13.52,0,0,0,75,35.5Z" style="fill:#edd7d2"/><path d="M140.92,90.59c0-.08.08-.25.08-.34a3.27,3.27,0,0,0,.09-.93,24,24,0,0,0,.17-2.47,12.88,12.88,0,0,0-.26-2.72,19.6,19.6,0,0,0-19.38-16.92,19,19,0,0,0-9.52,2.55,42.32,42.32,0,0,0,.85-7.39V60.58l-.17-.08L113,30.4c0-6.12-3.06-10.8-8.08-12.58l-.17-.09L76.47,12.29a10.3,10.3,0,0,0-4,0l-26,4.76C39,18.24,35.58,25.55,35.58,30.4V64.07s.59,3.74.93,5.44a19,19,0,0,0-9.26-2.38A19.67,19.67,0,0,0,7.69,86.94v.85c0,19.55,29.08,29.92,67.51,29.92,26.61,0,48.12-5.44,58.83-15.3a20,20,0,0,0,6.89-11.82ZM40.59,30.48c0-2.55,1.88-7.73,6.64-8.5l26-4.76a4.85,4.85,0,0,1,2.21,0l27.8,5.44c1.79.68,4.6,2.55,4.6,7.82l-.17,33.59h.17C107,80.48,94.5,88.47,83.53,96a14.44,14.44,0,0,1-8.67,3.15c-3.57,0-8.67-2.3-12.67-5.19-6.55-4.59-12.58-9.26-17.43-17.94-2.55-4.5-4.17-8.07-4.17-13.68l-.08-1.87v-30Z" style="fill:#ae55b8"/><ellipse cx="69.55" cy="128.76" rx="63.23" ry="4.69" style="fill:#edd7d2"/></svg>