<svg id="HMA" xmlns="http://www.w3.org/2000/svg" xmlns:xlink="http://www.w3.org/1999/xlink" viewBox="0 0 28 28"><defs><linearGradient id="Degradado_sin_nombre_11" x1="-1103.59" y1="941.52" x2="-1103.59" y2="941.31" gradientTransform="matrix(76, 0, 0, -45.27, 83886.99, 42622.96)" gradientUnits="userSpaceOnUse"><stop offset="0" stop-color="#70e076"/><stop offset="0.6" stop-color="#4a9e41"/><stop offset="1" stop-color="#3ea74a"/></linearGradient><linearGradient id="Degradado_sin_nombre_12" x1="-1105.53" y1="950.8" x2="-1105.53" y2="951.01" gradientTransform="matrix(94.33, 0, 0, -81.23, 104299.09, 77260.93)" gradientUnits="userSpaceOnUse"><stop offset="0" stop-color="#4a9e41"/><stop offset="1" stop-color="#70e076"/></linearGradient><linearGradient id="Degradado_sin_nombre_13" x1="-1087.63" y1="943.17" x2="-1087.63" y2="943.39" gradientTransform="matrix(29.24, 0, 0, -47.16, 31816.34, 44504.01)" gradientUnits="userSpaceOnUse"><stop offset="0" stop-color="#70e076"/><stop offset="1" stop-color="#4a9e41"/></linearGradient></defs><g id="Group_47966" data-name="Group 47966"><path id="Path_30" data-name="Path 30" d="M8.46,10V8.55a5.5,5.5,0,1,1,11-.18V10h2.9V8.55A8.39,8.39,0,0,0,5.58,8.31V10Z" style="fill:url(#Degradado_sin_nombre_11)"/><path id="Path_31" data-name="Path 31" d="M23.82,11.73A1.73,1.73,0,0,0,22.09,10H18.33a1.84,1.84,0,0,0-1.3.57H10.91A1.71,1.71,0,0,0,9.63,10H5.87a1.73,1.73,0,0,0-1.73,1.74h0a2.85,2.85,0,0,0-.58,1.74V23.89a2.9,2.9,0,0,0,2.1,2.79A1.75,1.75,0,0,0,7.34,28h2.6a1.77,1.77,0,0,0,1.64-1.16h4.84A1.75,1.75,0,0,0,18.06,28h2.6a1.72,1.72,0,0,0,1.68-1.28,2.88,2.88,0,0,0,2.1-2.79V13.47A3.22,3.22,0,0,0,23.82,11.73Zm-8.66,7A.26.26,0,0,0,15,19l.65,3.67a.29.29,0,0,1-.22.33h-2.9a.3.3,0,0,1-.3-.27h0v-.06L12.92,19a.31.31,0,0,0-.13-.3A2.35,2.35,0,1,1,16,17.91a2.51,2.51,0,0,1-.84.81Z" style="fill:url(#Degradado_sin_nombre_12)"/><path id="Path_32" data-name="Path 32" d="M12.67,6.77a.94.94,0,1,0-.95.93h0a.92.92,0,0,0,.95-.93Zm3.55-.93a.94.94,0,1,0,0,1.88.94.94,0,0,0,.95-.93h0a.94.94,0,0,0-.93-1Zm-1,2.49a1.82,1.82,0,0,1-2.48,0,.29.29,0,0,0-.42,0h0a.3.3,0,0,0,0,.4,2.4,2.4,0,0,0,3.32,0,.29.29,0,0,0,0-.42.31.31,0,0,0-.42,0Z" style="fill:#88e47b"/><path id="Path_33" data-name="Path 33" d="M16,19.23a3.23,3.23,0,1,0-4.54-.57,2.85,2.85,0,0,0,.58.57l-.6,3.28a1.15,1.15,0,0,0,.95,1.34.68.68,0,0,0,.2,0h2.84a1.16,1.16,0,0,0,1.17-1.16.68.68,0,0,0,0-.2ZM15.39,23H12.55a.3.3,0,0,1-.3-.29h0v-.06L12.9,19a.31.31,0,0,0-.13-.3,2.33,2.33,0,0,1-.83-3.22,2.36,2.36,0,0,1,3.22-.83,2.36,2.36,0,0,1,0,4A.26.26,0,0,0,15,19l.65,3.67a.28.28,0,0,1-.22.33Z" style="fill:url(#Degradado_sin_nombre_13)"/></g></svg>