<svg id="HMA" xmlns="http://www.w3.org/2000/svg" viewBox="0 0 28 28"><path d="M28,14A14,14,0,1,1,14.38.06,14,14,0,0,1,28,14Z" style="fill:#fecb00"/><path d="M10.24,22.36c-.25,0-.75,0-1.24,0a2,2,0,0,1-1.86-1.13,5.19,5.19,0,0,1-.53-2,28.29,28.29,0,0,1,.14-4.87c.06-.89.14-1.77.14-2.67a6.9,6.9,0,0,1,6.54-6.86,6.82,6.82,0,0,1,7.25,6.11c.15,1.59.5,3.13.77,4.69a6.61,6.61,0,0,1,.07,2.08,3.87,3.87,0,0,1-1.75,2.73,9.92,9.92,0,0,1-3.61,1.38c-.56.11-1.14.21-1.71.29A40.37,40.37,0,0,1,10.24,22.36Z" style="fill:#313131"/><path d="M9.73,12a4.16,4.16,0,0,1,.76-2.47,2.08,2.08,0,0,1,3.59,0,4.61,4.61,0,0,1,0,5.13,2.08,2.08,0,0,1-3.56,0A4.35,4.35,0,0,1,9.73,12Z" style="fill:#fecb00"/><path d="M20.27,11.4a3.68,3.68,0,0,1-.59,2.25,1.65,1.65,0,0,1-2.83,0,3.64,3.64,0,0,1,.09-4.23,1.61,1.61,0,0,1,2.55-.07A3.12,3.12,0,0,1,20.27,11.4Z" style="fill:#fecb00"/></svg>